ISO-10303-21;
HEADER;
FILE_DESCRIPTION(('Open CASCADE Model'),'2;1');
FILE_NAME('Open CASCADE Shape Model','2026-09-24T11:07:15',('Author'),(
    'Open CASCADE'),'Open CASCADE STEP processor 7.9','Open CASCADE 7.9'
  ,'Unknown');
FILE_SCHEMA(('AUTOMOTIVE_DESIGN { 1 0 10303 214 1 1 1 1 }'));
ENDSEC;
DATA;
#1 = APPLICATION_PROTOCOL_DEFINITION('international standard',
  'automotive_design',2000,#2);
#2 = APPLICATION_CONTEXT(
  'core data for automotive mechanical design processes');
#3 = SHAPE_DEFINITION_REPRESENTATION(#4,#10);
#4 = PRODUCT_DEFINITION_SHAPE('','',#5);
#5 = PRODUCT_DEFINITION('design','',#6,#9);
#6 = PRODUCT_DEFINITION_FORMATION('','',#7);
#7 = PRODUCT('Open CASCADE STEP translator 7.9 2',
  'Open CASCADE STEP translator 7.9 2','',(#8));
#8 = PRODUCT_CONTEXT('',#2,'mechanical');
#9 = PRODUCT_DEFINITION_CONTEXT('part definition',#2,'design');
#10 = ADVANCED_BREP_SHAPE_REPRESENTATION('',(#11,#15),#1239);
#11 = AXIS2_PLACEMENT_3D('',#12,#13,#14);
#12 = CARTESIAN_POINT('',(0.,0.,0.));
#13 = DIRECTION('',(0.,0.,1.));
#14 = DIRECTION('',(1.,0.,-0.));
#15 = MANIFOLD_SOLID_BREP('',#16);
#16 = CLOSED_SHELL('',(#17,#198,#550,#634,#936,#998,#1025,#1088,#1121,
    #1178,#1185,#1212));
#17 = ADVANCED_FACE('',(#18),#33,.F.);
#18 = FACE_BOUND('',#19,.F.);
#19 = EDGE_LOOP('',(#20,#58,#92,#120,#143,#177));
#20 = ORIENTED_EDGE('',*,*,#21,.T.);
#21 = EDGE_CURVE('',#22,#24,#26,.T.);
#22 = VERTEX_POINT('',#23);
#23 = CARTESIAN_POINT('',(-18.5,2.024404036218E-15,44.234210526316));
#24 = VERTEX_POINT('',#25);
#25 = CARTESIAN_POINT('',(-18.5,-16.38901071468,31.8));
#26 = SURFACE_CURVE('',#27,(#32,#46),.PCURVE_S1.);
#27 = ELLIPSE('',#28,18.234210526316,17.286842105263);
#28 = AXIS2_PLACEMENT_3D('',#29,#30,#31);
#29 = CARTESIAN_POINT('',(-18.5,0.,26.));
#30 = DIRECTION('',(1.,0.,-0.));
#31 = DIRECTION('',(0.,1.110223024625E-16,1.));
#32 = PCURVE('',#33,#41);
#33 = SURFACE_OF_LINEAR_EXTRUSION('',#34,#39);
#34 = ELLIPSE('',#35,18.234210526316,17.286842105263);
#35 = AXIS2_PLACEMENT_3D('',#36,#37,#38);
#36 = CARTESIAN_POINT('',(-27.5,0.,26.));
#37 = DIRECTION('',(1.,0.,-0.));
#38 = DIRECTION('',(0.,1.110223024625E-16,1.));
#39 = VECTOR('',#40,1.);
#40 = DIRECTION('',(-1.,-0.,-0.));
#41 = DEFINITIONAL_REPRESENTATION('',(#42),#45);
#42 = B_SPLINE_CURVE_WITH_KNOTS('',1,(#43,#44),.UNSPECIFIED.,.F.,.F.,(2,
    2),(0.,1.526908664453),.PIECEWISE_BEZIER_KNOTS.);
#43 = CARTESIAN_POINT('',(6.28318530718,-9.));
#44 = CARTESIAN_POINT('',(7.810093971633,-9.));
#45 = ( GEOMETRIC_REPRESENTATION_CONTEXT(2) 
PARAMETRIC_REPRESENTATION_CONTEXT() REPRESENTATION_CONTEXT('2D SPACE',''
  ) );
#46 = PCURVE('',#47,#52);
#47 = PLANE('',#48);
#48 = AXIS2_PLACEMENT_3D('',#49,#50,#51);
#49 = CARTESIAN_POINT('',(-18.5,-1.746000824833E-16,26.122357823109));
#50 = DIRECTION('',(1.,0.,0.));
#51 = DIRECTION('',(-0.,0.,1.));
#52 = DEFINITIONAL_REPRESENTATION('',(#53),#57);
#53 = ELLIPSE('',#54,18.234210526316,17.286842105263);
#54 = AXIS2_PLACEMENT_2D('',#55,#56);
#55 = CARTESIAN_POINT('',(-0.122357823109,-1.746000824833E-16));
#56 = DIRECTION('',(1.,-1.110223024625E-16));
#57 = ( GEOMETRIC_REPRESENTATION_CONTEXT(2) 
PARAMETRIC_REPRESENTATION_CONTEXT() REPRESENTATION_CONTEXT('2D SPACE',''
  ) );
#58 = ORIENTED_EDGE('',*,*,#59,.T.);
#59 = EDGE_CURVE('',#24,#60,#62,.T.);
#60 = VERTEX_POINT('',#61);
#61 = CARTESIAN_POINT('',(-27.5,-16.38901071468,31.8));
#62 = SURFACE_CURVE('',#63,(#69,#78),.PCURVE_S1.);
#63 = B_SPLINE_CURVE_WITH_KNOTS('',4,(#64,#65,#66,#67,#68),
  .UNSPECIFIED.,.F.,.F.,(5,5),(0.,1.),.PIECEWISE_BEZIER_KNOTS.);
#64 = CARTESIAN_POINT('',(-18.5,-16.38901071468,31.8));
#65 = CARTESIAN_POINT('',(-20.74999999977,-16.38901071468,31.8));
#66 = CARTESIAN_POINT('',(-23.00000000001,-16.38901071468,31.8));
#67 = CARTESIAN_POINT('',(-25.25000000022,-16.38901071468,31.8));
#68 = CARTESIAN_POINT('',(-27.5,-16.38901071468,31.8));
#69 = PCURVE('',#33,#70);
#70 = DEFINITIONAL_REPRESENTATION('',(#71),#77);
#71 = B_SPLINE_CURVE_WITH_KNOTS('',4,(#72,#73,#74,#75,#76),
  .UNSPECIFIED.,.F.,.F.,(5,5),(0.,1.),.PIECEWISE_BEZIER_KNOTS.);
#72 = CARTESIAN_POINT('',(7.530274411806,-8.9999999991));
#73 = CARTESIAN_POINT('',(7.530274411806,-6.749999999325));
#74 = CARTESIAN_POINT('',(7.530274411806,-4.500000000019));
#75 = CARTESIAN_POINT('',(7.530274411806,-2.250000000675));
#76 = CARTESIAN_POINT('',(7.530274411806,-8.999396783338E-10));
#77 = ( GEOMETRIC_REPRESENTATION_CONTEXT(2) 
PARAMETRIC_REPRESENTATION_CONTEXT() REPRESENTATION_CONTEXT('2D SPACE',''
  ) );
#78 = PCURVE('',#79,#84);
#79 = PLANE('',#80);
#80 = AXIS2_PLACEMENT_3D('',#81,#82,#83);
#81 = CARTESIAN_POINT('',(-27.5,-28.5,31.8));
#82 = DIRECTION('',(0.,0.,1.));
#83 = DIRECTION('',(1.,0.,0.));
#84 = DEFINITIONAL_REPRESENTATION('',(#85),#91);
#85 = B_SPLINE_CURVE_WITH_KNOTS('',4,(#86,#87,#88,#89,#90),
  .UNSPECIFIED.,.F.,.F.,(5,5),(0.,1.),.PIECEWISE_BEZIER_KNOTS.);
#86 = CARTESIAN_POINT('',(9.,12.110989285315));
#87 = CARTESIAN_POINT('',(6.750000000225,12.110989285315));
#88 = CARTESIAN_POINT('',(4.499999999981,12.110989285315));
#89 = CARTESIAN_POINT('',(2.249999999775,12.110989285315));
#90 = CARTESIAN_POINT('',(0.,12.110989285315));
#91 = ( GEOMETRIC_REPRESENTATION_CONTEXT(2) 
PARAMETRIC_REPRESENTATION_CONTEXT() REPRESENTATION_CONTEXT('2D SPACE',''
  ) );
#92 = ORIENTED_EDGE('',*,*,#93,.F.);
#93 = EDGE_CURVE('',#94,#60,#96,.T.);
#94 = VERTEX_POINT('',#95);
#95 = CARTESIAN_POINT('',(-27.5,2.024404036218E-15,44.234210526316));
#96 = SURFACE_CURVE('',#97,(#102,#108),.PCURVE_S1.);
#97 = ELLIPSE('',#98,18.234210526316,17.286842105263);
#98 = AXIS2_PLACEMENT_3D('',#99,#100,#101);
#99 = CARTESIAN_POINT('',(-27.5,0.,26.));
#100 = DIRECTION('',(1.,0.,-0.));
#101 = DIRECTION('',(0.,1.110223024625E-16,1.));
#102 = PCURVE('',#33,#103);
#103 = DEFINITIONAL_REPRESENTATION('',(#104),#107);
#104 = B_SPLINE_CURVE_WITH_KNOTS('',1,(#105,#106),.UNSPECIFIED.,.F.,.F.,
  (2,2),(0.,1.526908664453),.PIECEWISE_BEZIER_KNOTS.);
#105 = CARTESIAN_POINT('',(6.28318530718,0.));
#106 = CARTESIAN_POINT('',(7.810093971633,0.));
#107 = ( GEOMETRIC_REPRESENTATION_CONTEXT(2) 
PARAMETRIC_REPRESENTATION_CONTEXT() REPRESENTATION_CONTEXT('2D SPACE',''
  ) );
#108 = PCURVE('',#109,#114);
#109 = PLANE('',#110);
#110 = AXIS2_PLACEMENT_3D('',#111,#112,#113);
#111 = CARTESIAN_POINT('',(-27.5,-1.746000824833E-16,26.122357823109));
#112 = DIRECTION('',(1.,0.,0.));
#113 = DIRECTION('',(-0.,0.,1.));
#114 = DEFINITIONAL_REPRESENTATION('',(#115),#119);
#115 = ELLIPSE('',#116,18.234210526316,17.286842105263);
#116 = AXIS2_PLACEMENT_2D('',#117,#118);
#117 = CARTESIAN_POINT('',(-0.122357823109,-1.746000824833E-16));
#118 = DIRECTION('',(1.,-1.110223024625E-16));
#119 = ( GEOMETRIC_REPRESENTATION_CONTEXT(2) 
PARAMETRIC_REPRESENTATION_CONTEXT() REPRESENTATION_CONTEXT('2D SPACE',''
  ) );
#120 = ORIENTED_EDGE('',*,*,#121,.F.);
#121 = EDGE_CURVE('',#122,#94,#124,.T.);
#122 = VERTEX_POINT('',#123);
#123 = CARTESIAN_POINT('',(-27.5,16.389010714685,31.8));
#124 = SURFACE_CURVE('',#125,(#130,#136),.PCURVE_S1.);
#125 = ELLIPSE('',#126,18.234210526316,17.286842105263);
#126 = AXIS2_PLACEMENT_3D('',#127,#128,#129);
#127 = CARTESIAN_POINT('',(-27.5,0.,26.));
#128 = DIRECTION('',(1.,0.,-0.));
#129 = DIRECTION('',(0.,1.110223024625E-16,1.));
#130 = PCURVE('',#33,#131);
#131 = DEFINITIONAL_REPRESENTATION('',(#132),#135);
#132 = B_SPLINE_CURVE_WITH_KNOTS('',1,(#133,#134),.UNSPECIFIED.,.F.,.F.,
  (2,2),(4.756276642726,6.28318530718),.PIECEWISE_BEZIER_KNOTS.);
#133 = CARTESIAN_POINT('',(4.756276642726,0.));
#134 = CARTESIAN_POINT('',(6.28318530718,0.));
#135 = ( GEOMETRIC_REPRESENTATION_CONTEXT(2) 
PARAMETRIC_REPRESENTATION_CONTEXT() REPRESENTATION_CONTEXT('2D SPACE',''
  ) );
#136 = PCURVE('',#109,#137);
#137 = DEFINITIONAL_REPRESENTATION('',(#138),#142);
#138 = ELLIPSE('',#139,18.234210526316,17.286842105263);
#139 = AXIS2_PLACEMENT_2D('',#140,#141);
#140 = CARTESIAN_POINT('',(-0.122357823109,-1.746000824833E-16));
#141 = DIRECTION('',(1.,-1.110223024625E-16));
#142 = ( GEOMETRIC_REPRESENTATION_CONTEXT(2) 
PARAMETRIC_REPRESENTATION_CONTEXT() REPRESENTATION_CONTEXT('2D SPACE',''
  ) );
#143 = ORIENTED_EDGE('',*,*,#144,.F.);
#144 = EDGE_CURVE('',#145,#122,#147,.T.);
#145 = VERTEX_POINT('',#146);
#146 = CARTESIAN_POINT('',(-18.5,16.389010714685,31.8));
#147 = SURFACE_CURVE('',#148,(#154,#163),.PCURVE_S1.);
#148 = B_SPLINE_CURVE_WITH_KNOTS('',4,(#149,#150,#151,#152,#153),
  .UNSPECIFIED.,.F.,.F.,(5,5),(0.,1.),.PIECEWISE_BEZIER_KNOTS.);
#149 = CARTESIAN_POINT('',(-18.5,16.389010714685,31.8));
#150 = CARTESIAN_POINT('',(-20.74999999977,16.389010714685,31.8));
#151 = CARTESIAN_POINT('',(-23.00000000001,16.389010714685,31.8));
#152 = CARTESIAN_POINT('',(-25.25000000022,16.389010714685,31.8));
#153 = CARTESIAN_POINT('',(-27.5,16.389010714685,31.8));
#154 = PCURVE('',#33,#155);
#155 = DEFINITIONAL_REPRESENTATION('',(#156),#162);
#156 = B_SPLINE_CURVE_WITH_KNOTS('',4,(#157,#158,#159,#160,#161),
  .UNSPECIFIED.,.F.,.F.,(5,5),(0.,1.),.PIECEWISE_BEZIER_KNOTS.);
#157 = CARTESIAN_POINT('',(5.036096202553,-8.9999999991));
#158 = CARTESIAN_POINT('',(5.036096202553,-6.749999999325));
#159 = CARTESIAN_POINT('',(5.036096202553,-4.500000000019));
#160 = CARTESIAN_POINT('',(5.036096202553,-2.250000000675));
#161 = CARTESIAN_POINT('',(5.036096202553,-8.999396783338E-10));
#162 = ( GEOMETRIC_REPRESENTATION_CONTEXT(2) 
PARAMETRIC_REPRESENTATION_CONTEXT() REPRESENTATION_CONTEXT('2D SPACE',''
  ) );
#163 = PCURVE('',#164,#169);
#164 = PLANE('',#165);
#165 = AXIS2_PLACEMENT_3D('',#166,#167,#168);
#166 = CARTESIAN_POINT('',(-27.5,15.5,31.8));
#167 = DIRECTION('',(0.,0.,1.));
#168 = DIRECTION('',(1.,0.,0.));
#169 = DEFINITIONAL_REPRESENTATION('',(#170),#176);
#170 = B_SPLINE_CURVE_WITH_KNOTS('',4,(#171,#172,#173,#174,#175),
  .UNSPECIFIED.,.F.,.F.,(5,5),(0.,1.),.PIECEWISE_BEZIER_KNOTS.);
#171 = CARTESIAN_POINT('',(9.,0.889010714685));
#172 = CARTESIAN_POINT('',(6.750000000225,0.889010714685));
#173 = CARTESIAN_POINT('',(4.499999999981,0.889010714685));
#174 = CARTESIAN_POINT('',(2.249999999775,0.889010714685));
#175 = CARTESIAN_POINT('',(0.,0.889010714685));
#176 = ( GEOMETRIC_REPRESENTATION_CONTEXT(2) 
PARAMETRIC_REPRESENTATION_CONTEXT() REPRESENTATION_CONTEXT('2D SPACE',''
  ) );
#177 = ORIENTED_EDGE('',*,*,#178,.T.);
#178 = EDGE_CURVE('',#145,#22,#179,.T.);
#179 = SURFACE_CURVE('',#180,(#185,#191),.PCURVE_S1.);
#180 = ELLIPSE('',#181,18.234210526316,17.286842105263);
#181 = AXIS2_PLACEMENT_3D('',#182,#183,#184);
#182 = CARTESIAN_POINT('',(-18.5,0.,26.));
#183 = DIRECTION('',(1.,0.,-0.));
#184 = DIRECTION('',(0.,1.110223024625E-16,1.));
#185 = PCURVE('',#33,#186);
#186 = DEFINITIONAL_REPRESENTATION('',(#187),#190);
#187 = B_SPLINE_CURVE_WITH_KNOTS('',1,(#188,#189),.UNSPECIFIED.,.F.,.F.,
  (2,2),(4.756276642726,6.28318530718),.PIECEWISE_BEZIER_KNOTS.);
#188 = CARTESIAN_POINT('',(4.756276642726,-9.));
#189 = CARTESIAN_POINT('',(6.28318530718,-9.));
#190 = ( GEOMETRIC_REPRESENTATION_CONTEXT(2) 
PARAMETRIC_REPRESENTATION_CONTEXT() REPRESENTATION_CONTEXT('2D SPACE',''
  ) );
#191 = PCURVE('',#47,#192);
#192 = DEFINITIONAL_REPRESENTATION('',(#193),#197);
#193 = ELLIPSE('',#194,18.234210526316,17.286842105263);
#194 = AXIS2_PLACEMENT_2D('',#195,#196);
#195 = CARTESIAN_POINT('',(-0.122357823109,-1.746000824833E-16));
#196 = DIRECTION('',(1.,-1.110223024625E-16));
#197 = ( GEOMETRIC_REPRESENTATION_CONTEXT(2) 
PARAMETRIC_REPRESENTATION_CONTEXT() REPRESENTATION_CONTEXT('2D SPACE',''
  ) );
#198 = ADVANCED_FACE('',(#199),#47,.T.);
#199 = FACE_BOUND('',#200,.T.);
#200 = EDGE_LOOP('',(#201,#231,#259,#450,#478,#506,#527,#528,#529));
#201 = ORIENTED_EDGE('',*,*,#202,.F.);
#202 = EDGE_CURVE('',#203,#205,#207,.T.);
#203 = VERTEX_POINT('',#204);
#204 = CARTESIAN_POINT('',(-18.5,-28.5,26.8));
#205 = VERTEX_POINT('',#206);
#206 = CARTESIAN_POINT('',(-18.5,-28.5,31.8));
#207 = SURFACE_CURVE('',#208,(#212,#219),.PCURVE_S1.);
#208 = LINE('',#209,#210);
#209 = CARTESIAN_POINT('',(-18.5,-28.5,26.8));
#210 = VECTOR('',#211,1.);
#211 = DIRECTION('',(0.,0.,1.));
#212 = PCURVE('',#47,#213);
#213 = DEFINITIONAL_REPRESENTATION('',(#214),#218);
#214 = LINE('',#215,#216);
#215 = CARTESIAN_POINT('',(0.677642176891,28.5));
#216 = VECTOR('',#217,1.);
#217 = DIRECTION('',(1.,0.));
#218 = ( GEOMETRIC_REPRESENTATION_CONTEXT(2) 
PARAMETRIC_REPRESENTATION_CONTEXT() REPRESENTATION_CONTEXT('2D SPACE',''
  ) );
#219 = PCURVE('',#220,#225);
#220 = PLANE('',#221);
#221 = AXIS2_PLACEMENT_3D('',#222,#223,#224);
#222 = CARTESIAN_POINT('',(-27.5,-28.5,26.8));
#223 = DIRECTION('',(0.,1.,0.));
#224 = DIRECTION('',(0.,0.,1.));
#225 = DEFINITIONAL_REPRESENTATION('',(#226),#230);
#226 = LINE('',#227,#228);
#227 = CARTESIAN_POINT('',(0.,9.));
#228 = VECTOR('',#229,1.);
#229 = DIRECTION('',(1.,0.));
#230 = ( GEOMETRIC_REPRESENTATION_CONTEXT(2) 
PARAMETRIC_REPRESENTATION_CONTEXT() REPRESENTATION_CONTEXT('2D SPACE',''
  ) );
#231 = ORIENTED_EDGE('',*,*,#232,.T.);
#232 = EDGE_CURVE('',#203,#233,#235,.T.);
#233 = VERTEX_POINT('',#234);
#234 = CARTESIAN_POINT('',(-18.5,-13.26584070051,26.8));
#235 = SURFACE_CURVE('',#236,(#240,#247),.PCURVE_S1.);
#236 = LINE('',#237,#238);
#237 = CARTESIAN_POINT('',(-18.5,-28.5,26.8));
#238 = VECTOR('',#239,1.);
#239 = DIRECTION('',(0.,1.,0.));
#240 = PCURVE('',#47,#241);
#241 = DEFINITIONAL_REPRESENTATION('',(#242),#246);
#242 = LINE('',#243,#244);
#243 = CARTESIAN_POINT('',(0.677642176891,28.5));
#244 = VECTOR('',#245,1.);
#245 = DIRECTION('',(0.,-1.));
#246 = ( GEOMETRIC_REPRESENTATION_CONTEXT(2) 
PARAMETRIC_REPRESENTATION_CONTEXT() REPRESENTATION_CONTEXT('2D SPACE',''
  ) );
#247 = PCURVE('',#248,#253);
#248 = PLANE('',#249);
#249 = AXIS2_PLACEMENT_3D('',#250,#251,#252);
#250 = CARTESIAN_POINT('',(-50.,-50.,26.8));
#251 = DIRECTION('',(0.,0.,1.));
#252 = DIRECTION('',(1.,0.,0.));
#253 = DEFINITIONAL_REPRESENTATION('',(#254),#258);
#254 = LINE('',#255,#256);
#255 = CARTESIAN_POINT('',(31.5,21.5));
#256 = VECTOR('',#257,1.);
#257 = DIRECTION('',(0.,1.));
#258 = ( GEOMETRIC_REPRESENTATION_CONTEXT(2) 
PARAMETRIC_REPRESENTATION_CONTEXT() REPRESENTATION_CONTEXT('2D SPACE',''
  ) );
#259 = ORIENTED_EDGE('',*,*,#260,.T.);
#260 = EDGE_CURVE('',#233,#261,#263,.T.);
#261 = VERTEX_POINT('',#262);
#262 = CARTESIAN_POINT('',(-18.5,13.265840700511,26.8));
#263 = SURFACE_CURVE('',#264,(#315,#369),.PCURVE_S1.);
#264 = B_SPLINE_CURVE_WITH_KNOTS('',7,(#265,#266,#267,#268,#269,#270,
    #271,#272,#273,#274,#275,#276,#277,#278,#279,#280,#281,#282,#283,
    #284,#285,#286,#287,#288,#289,#290,#291,#292,#293,#294,#295,#296,
    #297,#298,#299,#300,#301,#302,#303,#304,#305,#306,#307,#308,#309,
    #310,#311,#312,#313,#314),.UNSPECIFIED.,.F.,.F.,(8,6,6,6,6,6,6,6,8),
  (0.,0.345628100968,0.521168548236,0.689560054595,1.,1.310439945405,
    1.478831451765,1.654371899033,2.000000000001),.UNSPECIFIED.);
#265 = CARTESIAN_POINT('',(-18.5,-13.26584070051,26.8));
#266 = CARTESIAN_POINT('',(-18.5,-13.21189088932,27.826733994388));
#267 = CARTESIAN_POINT('',(-18.5,-13.07713027783,28.849193887064));
#268 = CARTESIAN_POINT('',(-18.5,-12.86178255434,29.859815565392));
#269 = CARTESIAN_POINT('',(-18.5,-12.5665622861,30.850858878361));
#270 = CARTESIAN_POINT('',(-18.5,-12.19277480292,31.814430705203));
#271 = CARTESIAN_POINT('',(-18.5,-11.74244168164,32.742523799011));
#272 = CARTESIAN_POINT('',(-18.5,-10.95232354924,34.076322730756));
#273 = CARTESIAN_POINT('',(-18.5,-10.66720740093,34.514321278723));
#274 = CARTESIAN_POINT('',(-18.5,-10.36349673385,34.939994978615));
#275 = CARTESIAN_POINT('',(-18.5,-10.04164967689,35.352264778579));
#276 = CARTESIAN_POINT('',(-18.5,-9.702198531412,35.750052332992));
#277 = CARTESIAN_POINT('',(-18.5,-9.345759162464,36.132287689888));
#278 = CARTESIAN_POINT('',(-18.5,-8.615500708875,36.848655897083));
#279 = CARTESIAN_POINT('',(-18.5,-8.242975902108,37.184118793114));
#280 = CARTESIAN_POINT('',(-18.5,-7.856098451812,37.503368501301));
#281 = CARTESIAN_POINT('',(-18.5,-7.455574052424,37.80549418132));
#282 = CARTESIAN_POINT('',(-18.5,-7.042185992109,38.08961719114));
#283 = CARTESIAN_POINT('',(-18.5,-6.616802767174,38.354901529867));
#284 = CARTESIAN_POINT('',(-18.5,-5.375833575934,39.053471440485));
#285 = CARTESIAN_POINT('',(-18.5,-4.533483514763,39.439872698358));
#286 = CARTESIAN_POINT('',(-18.5,-3.659744009914,39.754576214207));
#287 = CARTESIAN_POINT('',(-18.5,-2.761636792546,39.993589165815));
#288 = CARTESIAN_POINT('',(-18.5,-1.846748498123,40.154028699762));
#289 = CARTESIAN_POINT('',(-18.5,-0.92324874504,40.234210526316));
#290 = CARTESIAN_POINT('',(-18.5,0.923248745041,40.234210526316));
#291 = CARTESIAN_POINT('',(-18.5,1.846748498118,40.154028699763));
#292 = CARTESIAN_POINT('',(-18.5,2.761636792552,39.993589165813));
#293 = CARTESIAN_POINT('',(-18.5,3.659744009907,39.75457621421));
#294 = CARTESIAN_POINT('',(-18.5,4.533483514764,39.439872698358));
#295 = CARTESIAN_POINT('',(-18.5,5.375833575932,39.053471440486));
#296 = CARTESIAN_POINT('',(-18.5,6.616802767172,38.354901529868));
#297 = CARTESIAN_POINT('',(-18.5,7.042185992108,38.089617191142));
#298 = CARTESIAN_POINT('',(-18.5,7.455574052423,37.805494181322));
#299 = CARTESIAN_POINT('',(-18.5,7.85609845181,37.503368501302));
#300 = CARTESIAN_POINT('',(-18.5,8.242975902107,37.184118793115));
#301 = CARTESIAN_POINT('',(-18.5,8.615500708874,36.848655897085));
#302 = CARTESIAN_POINT('',(-18.5,9.345759162463,36.13228768989));
#303 = CARTESIAN_POINT('',(-18.5,9.702198531411,35.750052332993));
#304 = CARTESIAN_POINT('',(-18.5,10.041649676896,35.352264778581));
#305 = CARTESIAN_POINT('',(-18.5,10.363496733858,34.939994978617));
#306 = CARTESIAN_POINT('',(-18.5,10.667207400932,34.514321278725));
#307 = CARTESIAN_POINT('',(-18.5,10.952323549244,34.076322730758));
#308 = CARTESIAN_POINT('',(-18.5,11.742441681646,32.742523799013));
#309 = CARTESIAN_POINT('',(-18.5,12.192774802926,31.814430705205));
#310 = CARTESIAN_POINT('',(-18.5,12.566562286101,30.850858878363));
#311 = CARTESIAN_POINT('',(-18.5,12.861782554348,29.859815565393));
#312 = CARTESIAN_POINT('',(-18.5,13.077130277838,28.849193887065));
#313 = CARTESIAN_POINT('',(-18.5,13.211890889329,27.826733994389));
#314 = CARTESIAN_POINT('',(-18.5,13.265840700511,26.8));
#315 = PCURVE('',#47,#316);
#316 = DEFINITIONAL_REPRESENTATION('',(#317),#368);
#317 = B_SPLINE_CURVE_WITH_KNOTS('',7,(#318,#319,#320,#321,#322,#323,
    #324,#325,#326,#327,#328,#329,#330,#331,#332,#333,#334,#335,#336,
    #337,#338,#339,#340,#341,#342,#343,#344,#345,#346,#347,#348,#349,
    #350,#351,#352,#353,#354,#355,#356,#357,#358,#359,#360,#361,#362,
    #363,#364,#365,#366,#367),.UNSPECIFIED.,.F.,.F.,(8,6,6,6,6,6,6,6,8),
  (0.,0.345628100968,0.521168548236,0.689560054595,1.,1.310439945405,
    1.478831451765,1.654371899033,2.000000000001),.UNSPECIFIED.);
#318 = CARTESIAN_POINT('',(0.677642176891,13.265840700511));
#319 = CARTESIAN_POINT('',(1.704376171279,13.211890889329));
#320 = CARTESIAN_POINT('',(2.726836063955,13.077130277838));
#321 = CARTESIAN_POINT('',(3.737457742283,12.861782554349));
#322 = CARTESIAN_POINT('',(4.728501055252,12.566562286101));
#323 = CARTESIAN_POINT('',(5.692072882094,12.192774802927));
#324 = CARTESIAN_POINT('',(6.620165975902,11.742441681647));
#325 = CARTESIAN_POINT('',(7.953964907647,10.952323549245));
#326 = CARTESIAN_POINT('',(8.391963455614,10.667207400933));
#327 = CARTESIAN_POINT('',(8.817637155506,10.363496733859));
#328 = CARTESIAN_POINT('',(9.22990695547,10.041649676897));
#329 = CARTESIAN_POINT('',(9.627694509883,9.702198531412));
#330 = CARTESIAN_POINT('',(10.009929866779,9.345759162464));
#331 = CARTESIAN_POINT('',(10.726298073974,8.615500708875));
#332 = CARTESIAN_POINT('',(11.061760970005,8.242975902108));
#333 = CARTESIAN_POINT('',(11.381010678192,7.856098451812));
#334 = CARTESIAN_POINT('',(11.683136358211,7.455574052424));
#335 = CARTESIAN_POINT('',(11.967259368031,7.042185992109));
#336 = CARTESIAN_POINT('',(12.232543706758,6.616802767174));
#337 = CARTESIAN_POINT('',(12.931113617376,5.375833575934));
#338 = CARTESIAN_POINT('',(13.317514875249,4.533483514763));
#339 = CARTESIAN_POINT('',(13.632218391098,3.659744009914));
#340 = CARTESIAN_POINT('',(13.871231342706,2.761636792546));
#341 = CARTESIAN_POINT('',(14.031670876653,1.846748498123));
#342 = CARTESIAN_POINT('',(14.111852703207,0.92324874504));
#343 = CARTESIAN_POINT('',(14.111852703207,-0.923248745041));
#344 = CARTESIAN_POINT('',(14.031670876654,-1.846748498118));
#345 = CARTESIAN_POINT('',(13.871231342705,-2.761636792552));
#346 = CARTESIAN_POINT('',(13.632218391101,-3.659744009907));
#347 = CARTESIAN_POINT('',(13.317514875249,-4.533483514764));
#348 = CARTESIAN_POINT('',(12.931113617377,-5.375833575932));
#349 = CARTESIAN_POINT('',(12.232543706759,-6.616802767172));
#350 = CARTESIAN_POINT('',(11.967259368033,-7.042185992108));
#351 = CARTESIAN_POINT('',(11.683136358213,-7.455574052423));
#352 = CARTESIAN_POINT('',(11.381010678193,-7.85609845181));
#353 = CARTESIAN_POINT('',(11.061760970006,-8.242975902107));
#354 = CARTESIAN_POINT('',(10.726298073976,-8.615500708874));
#355 = CARTESIAN_POINT('',(10.009929866781,-9.345759162463));
#356 = CARTESIAN_POINT('',(9.627694509884,-9.702198531411));
#357 = CARTESIAN_POINT('',(9.229906955472,-10.04164967689));
#358 = CARTESIAN_POINT('',(8.817637155508,-10.36349673385));
#359 = CARTESIAN_POINT('',(8.391963455616,-10.66720740093));
#360 = CARTESIAN_POINT('',(7.953964907649,-10.95232354924));
#361 = CARTESIAN_POINT('',(6.620165975904,-11.74244168164));
#362 = CARTESIAN_POINT('',(5.692072882096,-12.19277480292));
#363 = CARTESIAN_POINT('',(4.728501055254,-12.5665622861));
#364 = CARTESIAN_POINT('',(3.737457742284,-12.86178255434));
#365 = CARTESIAN_POINT('',(2.726836063956,-13.07713027783));
#366 = CARTESIAN_POINT('',(1.70437617128,-13.21189088932));
#367 = CARTESIAN_POINT('',(0.677642176891,-13.26584070051));
#368 = ( GEOMETRIC_REPRESENTATION_CONTEXT(2) 
PARAMETRIC_REPRESENTATION_CONTEXT() REPRESENTATION_CONTEXT('2D SPACE',''
  ) );
#369 = PCURVE('',#370,#378);
#370 = SURFACE_OF_LINEAR_EXTRUSION('',#371,#376);
#371 = ELLIPSE('',#372,14.234210526316,13.286842105263);
#372 = AXIS2_PLACEMENT_3D('',#373,#374,#375);
#373 = CARTESIAN_POINT('',(-28.5,0.,26.));
#374 = DIRECTION('',(1.,0.,-0.));
#375 = DIRECTION('',(0.,1.110223024625E-16,1.));
#376 = VECTOR('',#377,1.);
#377 = DIRECTION('',(-1.,-0.,-0.));
#378 = DEFINITIONAL_REPRESENTATION('',(#379),#449);
#379 = B_SPLINE_CURVE_WITH_KNOTS('',3,(#380,#381,#382,#383,#384,#385,
    #386,#387,#388,#389,#390,#391,#392,#393,#394,#395,#396,#397,#398,
    #399,#400,#401,#402,#403,#404,#405,#406,#407,#408,#409,#410,#411,
    #412,#413,#414,#415,#416,#417,#418,#419,#420,#421,#422,#423,#424,
    #425,#426,#427,#428,#429,#430,#431,#432,#433,#434,#435,#436,#437,
    #438,#439,#440,#441,#442,#443,#444,#445,#446,#447,#448),
  .UNSPECIFIED.,.F.,.F.,(4,1,1,1,1,1,1,1,1,1,1,1,1,1,1,1,1,1,1,1,1,1,1,1
    ,1,1,1,1,1,1,1,1,1,1,1,1,1,1,1,1,1,1,1,1,1,1,1,1,1,1,1,1,1,1,1,1,1,1
    ,1,1,1,1,1,1,1,1,4),(0.,3.030303030305E-02,6.060606060609E-02,
    9.090909090914E-02,0.121212121212,0.151515151515,0.181818181818,
    0.212121212121,0.242424242424,0.272727272727,0.30303030303,
    0.333333333334,0.363636363637,0.39393939394,0.424242424243,
    0.454545454546,0.484848484849,0.515151515152,0.545454545455,
    0.575757575758,0.606060606061,0.636363636364,0.666666666667,
    0.69696969697,0.727272727273,0.757575757576,0.787878787879,
    0.818181818182,0.848484848485,0.878787878788,0.909090909091,
    0.939393939394,0.969696969697,1.000000000001,1.030303030304,
    1.060606060607,1.09090909091,1.121212121213,1.151515151516,
    1.181818181819,1.212121212122,1.242424242425,1.272727272728,
    1.303030303031,1.333333333334,1.363636363637,1.39393939394,
    1.424242424243,1.454545454546,1.484848484849,1.515151515152,
    1.545454545455,1.575757575758,1.606060606061,1.636363636364,
    1.666666666668,1.696969696971,1.727272727274,1.757575757577,
    1.78787878788,1.818181818183,1.848484848486,1.878787878789,
    1.909090909092,1.939393939395,1.969696969698,2.000000000001),
  .QUASI_UNIFORM_KNOTS.);
#380 = CARTESIAN_POINT('',(7.797749378383,-10.));
#381 = CARTESIAN_POINT('',(7.782969726732,-10.));
#382 = CARTESIAN_POINT('',(7.753405749248,-10.));
#383 = CARTESIAN_POINT('',(7.709034604145,-10.));
#384 = CARTESIAN_POINT('',(7.664626952328,-10.));
#385 = CARTESIAN_POINT('',(7.62017206624,-10.));
#386 = CARTESIAN_POINT('',(7.575659546762,-10.));
#387 = CARTESIAN_POINT('',(7.531079342723,-10.));
#388 = CARTESIAN_POINT('',(7.486421705799,-10.));
#389 = CARTESIAN_POINT('',(7.441677173971,-10.));
#390 = CARTESIAN_POINT('',(7.396836570213,-10.));
#391 = CARTESIAN_POINT('',(7.351890978674,-10.));
#392 = CARTESIAN_POINT('',(7.3068318634,-10.));
#393 = CARTESIAN_POINT('',(7.261650706123,-10.));
#394 = CARTESIAN_POINT('',(7.216343066854,-10.));
#395 = CARTESIAN_POINT('',(7.170903218721,-10.));
#396 = CARTESIAN_POINT('',(7.125326560164,-10.));
#397 = CARTESIAN_POINT('',(7.079609294281,-10.));
#398 = CARTESIAN_POINT('',(7.0337487519,-10.));
#399 = CARTESIAN_POINT('',(6.98774318549,-10.));
#400 = CARTESIAN_POINT('',(6.941592304996,-10.));
#401 = CARTESIAN_POINT('',(6.895297522044,-10.));
#402 = CARTESIAN_POINT('',(6.848861201319,-10.));
#403 = CARTESIAN_POINT('',(6.802286353678,-10.));
#404 = CARTESIAN_POINT('',(6.755580094234,-10.));
#405 = CARTESIAN_POINT('',(6.70874025339,-10.));
#406 = CARTESIAN_POINT('',(6.661779050162,-10.));
#407 = CARTESIAN_POINT('',(6.614708990882,-10.));
#408 = CARTESIAN_POINT('',(6.567541616931,-10.));
#409 = CARTESIAN_POINT('',(6.520288408294,-10.));
#410 = CARTESIAN_POINT('',(6.472961131206,-10.));
#411 = CARTESIAN_POINT('',(6.425572262526,-10.));
#412 = CARTESIAN_POINT('',(6.378135767158,-10.));
#413 = CARTESIAN_POINT('',(6.33066660362,-10.));
#414 = CARTESIAN_POINT('',(6.283185307179,-10.));
#415 = CARTESIAN_POINT('',(6.235704010738,-10.));
#416 = CARTESIAN_POINT('',(6.188234847199,-10.));
#417 = CARTESIAN_POINT('',(6.140798351832,-10.));
#418 = CARTESIAN_POINT('',(6.093409483151,-10.));
#419 = CARTESIAN_POINT('',(6.046082206064,-10.));
#420 = CARTESIAN_POINT('',(5.998828997427,-10.));
#421 = CARTESIAN_POINT('',(5.951661623476,-10.));
#422 = CARTESIAN_POINT('',(5.904591564196,-10.));
#423 = CARTESIAN_POINT('',(5.857630360969,-10.));
#424 = CARTESIAN_POINT('',(5.810790520124,-10.));
#425 = CARTESIAN_POINT('',(5.76408426068,-10.));
#426 = CARTESIAN_POINT('',(5.717509413039,-10.));
#427 = CARTESIAN_POINT('',(5.671073092314,-10.));
#428 = CARTESIAN_POINT('',(5.624778309362,-10.));
#429 = CARTESIAN_POINT('',(5.578627428869,-10.));
#430 = CARTESIAN_POINT('',(5.532621862458,-10.));
#431 = CARTESIAN_POINT('',(5.486761320078,-10.));
#432 = CARTESIAN_POINT('',(5.441044054195,-10.));
#433 = CARTESIAN_POINT('',(5.395467395638,-10.));
#434 = CARTESIAN_POINT('',(5.350027547504,-10.));
#435 = CARTESIAN_POINT('',(5.304719908236,-10.));
#436 = CARTESIAN_POINT('',(5.259538750958,-10.));
#437 = CARTESIAN_POINT('',(5.214479635685,-10.));
#438 = CARTESIAN_POINT('',(5.169534044146,-10.));
#439 = CARTESIAN_POINT('',(5.124693440388,-10.));
#440 = CARTESIAN_POINT('',(5.07994890856,-10.));
#441 = CARTESIAN_POINT('',(5.035291271636,-10.));
#442 = CARTESIAN_POINT('',(4.990711067597,-10.));
#443 = CARTESIAN_POINT('',(4.946198548119,-10.));
#444 = CARTESIAN_POINT('',(4.901743662031,-10.));
#445 = CARTESIAN_POINT('',(4.857336010214,-10.));
#446 = CARTESIAN_POINT('',(4.812964865111,-10.));
#447 = CARTESIAN_POINT('',(4.783400887627,-10.));
#448 = CARTESIAN_POINT('',(4.768621235976,-10.));
#449 = ( GEOMETRIC_REPRESENTATION_CONTEXT(2) 
PARAMETRIC_REPRESENTATION_CONTEXT() REPRESENTATION_CONTEXT('2D SPACE',''
  ) );
#450 = ORIENTED_EDGE('',*,*,#451,.T.);
#451 = EDGE_CURVE('',#261,#452,#454,.T.);
#452 = VERTEX_POINT('',#453);
#453 = CARTESIAN_POINT('',(-18.5,28.5,26.8));
#454 = SURFACE_CURVE('',#455,(#459,#466),.PCURVE_S1.);
#455 = LINE('',#456,#457);
#456 = CARTESIAN_POINT('',(-18.5,-28.5,26.8));
#457 = VECTOR('',#458,1.);
#458 = DIRECTION('',(0.,1.,0.));
#459 = PCURVE('',#47,#460);
#460 = DEFINITIONAL_REPRESENTATION('',(#461),#465);
#461 = LINE('',#462,#463);
#462 = CARTESIAN_POINT('',(0.677642176891,28.5));
#463 = VECTOR('',#464,1.);
#464 = DIRECTION('',(0.,-1.));
#465 = ( GEOMETRIC_REPRESENTATION_CONTEXT(2) 
PARAMETRIC_REPRESENTATION_CONTEXT() REPRESENTATION_CONTEXT('2D SPACE',''
  ) );
#466 = PCURVE('',#467,#472);
#467 = PLANE('',#468);
#468 = AXIS2_PLACEMENT_3D('',#469,#470,#471);
#469 = CARTESIAN_POINT('',(-50.,-50.,26.8));
#470 = DIRECTION('',(0.,0.,1.));
#471 = DIRECTION('',(1.,0.,0.));
#472 = DEFINITIONAL_REPRESENTATION('',(#473),#477);
#473 = LINE('',#474,#475);
#474 = CARTESIAN_POINT('',(31.5,21.5));
#475 = VECTOR('',#476,1.);
#476 = DIRECTION('',(0.,1.));
#477 = ( GEOMETRIC_REPRESENTATION_CONTEXT(2) 
PARAMETRIC_REPRESENTATION_CONTEXT() REPRESENTATION_CONTEXT('2D SPACE',''
  ) );
#478 = ORIENTED_EDGE('',*,*,#479,.T.);
#479 = EDGE_CURVE('',#452,#480,#482,.T.);
#480 = VERTEX_POINT('',#481);
#481 = CARTESIAN_POINT('',(-18.5,28.5,31.8));
#482 = SURFACE_CURVE('',#483,(#487,#494),.PCURVE_S1.);
#483 = LINE('',#484,#485);
#484 = CARTESIAN_POINT('',(-18.5,28.5,26.8));
#485 = VECTOR('',#486,1.);
#486 = DIRECTION('',(0.,0.,1.));
#487 = PCURVE('',#47,#488);
#488 = DEFINITIONAL_REPRESENTATION('',(#489),#493);
#489 = LINE('',#490,#491);
#490 = CARTESIAN_POINT('',(0.677642176891,-28.5));
#491 = VECTOR('',#492,1.);
#492 = DIRECTION('',(1.,0.));
#493 = ( GEOMETRIC_REPRESENTATION_CONTEXT(2) 
PARAMETRIC_REPRESENTATION_CONTEXT() REPRESENTATION_CONTEXT('2D SPACE',''
  ) );
#494 = PCURVE('',#495,#500);
#495 = PLANE('',#496);
#496 = AXIS2_PLACEMENT_3D('',#497,#498,#499);
#497 = CARTESIAN_POINT('',(-27.5,28.5,26.8));
#498 = DIRECTION('',(0.,1.,0.));
#499 = DIRECTION('',(0.,0.,1.));
#500 = DEFINITIONAL_REPRESENTATION('',(#501),#505);
#501 = LINE('',#502,#503);
#502 = CARTESIAN_POINT('',(0.,9.));
#503 = VECTOR('',#504,1.);
#504 = DIRECTION('',(1.,0.));
#505 = ( GEOMETRIC_REPRESENTATION_CONTEXT(2) 
PARAMETRIC_REPRESENTATION_CONTEXT() REPRESENTATION_CONTEXT('2D SPACE',''
  ) );
#506 = ORIENTED_EDGE('',*,*,#507,.F.);
#507 = EDGE_CURVE('',#145,#480,#508,.T.);
#508 = SURFACE_CURVE('',#509,(#513,#520),.PCURVE_S1.);
#509 = LINE('',#510,#511);
#510 = CARTESIAN_POINT('',(-18.5,15.5,31.8));
#511 = VECTOR('',#512,1.);
#512 = DIRECTION('',(0.,1.,0.));
#513 = PCURVE('',#47,#514);
#514 = DEFINITIONAL_REPRESENTATION('',(#515),#519);
#515 = LINE('',#516,#517);
#516 = CARTESIAN_POINT('',(5.677642176891,-15.5));
#517 = VECTOR('',#518,1.);
#518 = DIRECTION('',(0.,-1.));
#519 = ( GEOMETRIC_REPRESENTATION_CONTEXT(2) 
PARAMETRIC_REPRESENTATION_CONTEXT() REPRESENTATION_CONTEXT('2D SPACE',''
  ) );
#520 = PCURVE('',#164,#521);
#521 = DEFINITIONAL_REPRESENTATION('',(#522),#526);
#522 = LINE('',#523,#524);
#523 = CARTESIAN_POINT('',(9.,0.));
#524 = VECTOR('',#525,1.);
#525 = DIRECTION('',(0.,1.));
#526 = ( GEOMETRIC_REPRESENTATION_CONTEXT(2) 
PARAMETRIC_REPRESENTATION_CONTEXT() REPRESENTATION_CONTEXT('2D SPACE',''
  ) );
#527 = ORIENTED_EDGE('',*,*,#178,.T.);
#528 = ORIENTED_EDGE('',*,*,#21,.T.);
#529 = ORIENTED_EDGE('',*,*,#530,.F.);
#530 = EDGE_CURVE('',#205,#24,#531,.T.);
#531 = SURFACE_CURVE('',#532,(#536,#543),.PCURVE_S1.);
#532 = LINE('',#533,#534);
#533 = CARTESIAN_POINT('',(-18.5,-28.5,31.8));
#534 = VECTOR('',#535,1.);
#535 = DIRECTION('',(0.,1.,0.));
#536 = PCURVE('',#47,#537);
#537 = DEFINITIONAL_REPRESENTATION('',(#538),#542);
#538 = LINE('',#539,#540);
#539 = CARTESIAN_POINT('',(5.677642176891,28.5));
#540 = VECTOR('',#541,1.);
#541 = DIRECTION('',(0.,-1.));
#542 = ( GEOMETRIC_REPRESENTATION_CONTEXT(2) 
PARAMETRIC_REPRESENTATION_CONTEXT() REPRESENTATION_CONTEXT('2D SPACE',''
  ) );
#543 = PCURVE('',#79,#544);
#544 = DEFINITIONAL_REPRESENTATION('',(#545),#549);
#545 = LINE('',#546,#547);
#546 = CARTESIAN_POINT('',(9.,0.));
#547 = VECTOR('',#548,1.);
#548 = DIRECTION('',(0.,1.));
#549 = ( GEOMETRIC_REPRESENTATION_CONTEXT(2) 
PARAMETRIC_REPRESENTATION_CONTEXT() REPRESENTATION_CONTEXT('2D SPACE',''
  ) );
#550 = ADVANCED_FACE('',(#551,#599),#164,.T.);
#551 = FACE_BOUND('',#552,.T.);
#552 = EDGE_LOOP('',(#553,#576,#577,#578));
#553 = ORIENTED_EDGE('',*,*,#554,.F.);
#554 = EDGE_CURVE('',#122,#555,#557,.T.);
#555 = VERTEX_POINT('',#556);
#556 = CARTESIAN_POINT('',(-27.5,28.5,31.8));
#557 = SURFACE_CURVE('',#558,(#562,#569),.PCURVE_S1.);
#558 = LINE('',#559,#560);
#559 = CARTESIAN_POINT('',(-27.5,15.5,31.8));
#560 = VECTOR('',#561,1.);
#561 = DIRECTION('',(0.,1.,0.));
#562 = PCURVE('',#164,#563);
#563 = DEFINITIONAL_REPRESENTATION('',(#564),#568);
#564 = LINE('',#565,#566);
#565 = CARTESIAN_POINT('',(0.,0.));
#566 = VECTOR('',#567,1.);
#567 = DIRECTION('',(0.,1.));
#568 = ( GEOMETRIC_REPRESENTATION_CONTEXT(2) 
PARAMETRIC_REPRESENTATION_CONTEXT() REPRESENTATION_CONTEXT('2D SPACE',''
  ) );
#569 = PCURVE('',#109,#570);
#570 = DEFINITIONAL_REPRESENTATION('',(#571),#575);
#571 = LINE('',#572,#573);
#572 = CARTESIAN_POINT('',(5.677642176891,-15.5));
#573 = VECTOR('',#574,1.);
#574 = DIRECTION('',(0.,-1.));
#575 = ( GEOMETRIC_REPRESENTATION_CONTEXT(2) 
PARAMETRIC_REPRESENTATION_CONTEXT() REPRESENTATION_CONTEXT('2D SPACE',''
  ) );
#576 = ORIENTED_EDGE('',*,*,#144,.F.);
#577 = ORIENTED_EDGE('',*,*,#507,.T.);
#578 = ORIENTED_EDGE('',*,*,#579,.F.);
#579 = EDGE_CURVE('',#555,#480,#580,.T.);
#580 = SURFACE_CURVE('',#581,(#585,#592),.PCURVE_S1.);
#581 = LINE('',#582,#583);
#582 = CARTESIAN_POINT('',(-27.5,28.5,31.8));
#583 = VECTOR('',#584,1.);
#584 = DIRECTION('',(1.,0.,0.));
#585 = PCURVE('',#164,#586);
#586 = DEFINITIONAL_REPRESENTATION('',(#587),#591);
#587 = LINE('',#588,#589);
#588 = CARTESIAN_POINT('',(0.,13.));
#589 = VECTOR('',#590,1.);
#590 = DIRECTION('',(1.,0.));
#591 = ( GEOMETRIC_REPRESENTATION_CONTEXT(2) 
PARAMETRIC_REPRESENTATION_CONTEXT() REPRESENTATION_CONTEXT('2D SPACE',''
  ) );
#592 = PCURVE('',#495,#593);
#593 = DEFINITIONAL_REPRESENTATION('',(#594),#598);
#594 = LINE('',#595,#596);
#595 = CARTESIAN_POINT('',(5.,0.));
#596 = VECTOR('',#597,1.);
#597 = DIRECTION('',(0.,1.));
#598 = ( GEOMETRIC_REPRESENTATION_CONTEXT(2) 
PARAMETRIC_REPRESENTATION_CONTEXT() REPRESENTATION_CONTEXT('2D SPACE',''
  ) );
#599 = FACE_BOUND('',#600,.T.);
#600 = EDGE_LOOP('',(#601));
#601 = ORIENTED_EDGE('',*,*,#602,.T.);
#602 = EDGE_CURVE('',#603,#603,#605,.T.);
#603 = VERTEX_POINT('',#604);
#604 = CARTESIAN_POINT('',(-21.3,22.,31.8));
#605 = SURFACE_CURVE('',#606,(#611,#622),.PCURVE_S1.);
#606 = CIRCLE('',#607,1.7);
#607 = AXIS2_PLACEMENT_3D('',#608,#609,#610);
#608 = CARTESIAN_POINT('',(-23.,22.,31.8));
#609 = DIRECTION('',(0.,0.,-1.));
#610 = DIRECTION('',(1.,0.,0.));
#611 = PCURVE('',#164,#612);
#612 = DEFINITIONAL_REPRESENTATION('',(#613),#621);
#613 = ( BOUNDED_CURVE() B_SPLINE_CURVE(2,(#614,#615,#616,#617,#618,#619
,#620),.UNSPECIFIED.,.T.,.F.) B_SPLINE_CURVE_WITH_KNOTS((1,2,2,2,2,1),(
    -2.094395102393,0.,2.094395102393,4.188790204786,6.28318530718,
8.377580409573),.UNSPECIFIED.) CURVE() GEOMETRIC_REPRESENTATION_ITEM() 
RATIONAL_B_SPLINE_CURVE((1.,0.5,1.,0.5,1.,0.5,1.)) REPRESENTATION_ITEM(
  '') );
#614 = CARTESIAN_POINT('',(6.2,6.5));
#615 = CARTESIAN_POINT('',(6.2,3.555513627133));
#616 = CARTESIAN_POINT('',(3.65,5.027756813566));
#617 = CARTESIAN_POINT('',(1.1,6.5));
#618 = CARTESIAN_POINT('',(3.65,7.972243186434));
#619 = CARTESIAN_POINT('',(6.2,9.444486372867));
#620 = CARTESIAN_POINT('',(6.2,6.5));
#621 = ( GEOMETRIC_REPRESENTATION_CONTEXT(2) 
PARAMETRIC_REPRESENTATION_CONTEXT() REPRESENTATION_CONTEXT('2D SPACE',''
  ) );
#622 = PCURVE('',#623,#628);
#623 = CYLINDRICAL_SURFACE('',#624,1.7);
#624 = AXIS2_PLACEMENT_3D('',#625,#626,#627);
#625 = CARTESIAN_POINT('',(-23.,22.,26.));
#626 = DIRECTION('',(-0.,-0.,-1.));
#627 = DIRECTION('',(1.,0.,0.));
#628 = DEFINITIONAL_REPRESENTATION('',(#629),#633);
#629 = LINE('',#630,#631);
#630 = CARTESIAN_POINT('',(-6.28318530718,-5.8));
#631 = VECTOR('',#632,1.);
#632 = DIRECTION('',(1.,-0.));
#633 = ( GEOMETRIC_REPRESENTATION_CONTEXT(2) 
PARAMETRIC_REPRESENTATION_CONTEXT() REPRESENTATION_CONTEXT('2D SPACE',''
  ) );
#634 = ADVANCED_FACE('',(#635),#109,.F.);
#635 = FACE_BOUND('',#636,.F.);
#636 = EDGE_LOOP('',(#637,#662,#683,#684,#685,#686,#709,#732,#755));
#637 = ORIENTED_EDGE('',*,*,#638,.F.);
#638 = EDGE_CURVE('',#639,#641,#643,.T.);
#639 = VERTEX_POINT('',#640);
#640 = CARTESIAN_POINT('',(-27.5,28.5,26.8));
#641 = VERTEX_POINT('',#642);
#642 = CARTESIAN_POINT('',(-27.5,13.265840700511,26.8));
#643 = SURFACE_CURVE('',#644,(#648,#655),.PCURVE_S1.);
#644 = LINE('',#645,#646);
#645 = CARTESIAN_POINT('',(-27.5,28.5,26.8));
#646 = VECTOR('',#647,1.);
#647 = DIRECTION('',(0.,-1.,0.));
#648 = PCURVE('',#109,#649);
#649 = DEFINITIONAL_REPRESENTATION('',(#650),#654);
#650 = LINE('',#651,#652);
#651 = CARTESIAN_POINT('',(0.677642176891,-28.5));
#652 = VECTOR('',#653,1.);
#653 = DIRECTION('',(0.,1.));
#654 = ( GEOMETRIC_REPRESENTATION_CONTEXT(2) 
PARAMETRIC_REPRESENTATION_CONTEXT() REPRESENTATION_CONTEXT('2D SPACE',''
  ) );
#655 = PCURVE('',#467,#656);
#656 = DEFINITIONAL_REPRESENTATION('',(#657),#661);
#657 = LINE('',#658,#659);
#658 = CARTESIAN_POINT('',(22.5,78.5));
#659 = VECTOR('',#660,1.);
#660 = DIRECTION('',(0.,-1.));
#661 = ( GEOMETRIC_REPRESENTATION_CONTEXT(2) 
PARAMETRIC_REPRESENTATION_CONTEXT() REPRESENTATION_CONTEXT('2D SPACE',''
  ) );
#662 = ORIENTED_EDGE('',*,*,#663,.T.);
#663 = EDGE_CURVE('',#639,#555,#664,.T.);
#664 = SURFACE_CURVE('',#665,(#669,#676),.PCURVE_S1.);
#665 = LINE('',#666,#667);
#666 = CARTESIAN_POINT('',(-27.5,28.5,26.8));
#667 = VECTOR('',#668,1.);
#668 = DIRECTION('',(0.,0.,1.));
#669 = PCURVE('',#109,#670);
#670 = DEFINITIONAL_REPRESENTATION('',(#671),#675);
#671 = LINE('',#672,#673);
#672 = CARTESIAN_POINT('',(0.677642176891,-28.5));
#673 = VECTOR('',#674,1.);
#674 = DIRECTION('',(1.,0.));
#675 = ( GEOMETRIC_REPRESENTATION_CONTEXT(2) 
PARAMETRIC_REPRESENTATION_CONTEXT() REPRESENTATION_CONTEXT('2D SPACE',''
  ) );
#676 = PCURVE('',#495,#677);
#677 = DEFINITIONAL_REPRESENTATION('',(#678),#682);
#678 = LINE('',#679,#680);
#679 = CARTESIAN_POINT('',(0.,0.));
#680 = VECTOR('',#681,1.);
#681 = DIRECTION('',(1.,0.));
#682 = ( GEOMETRIC_REPRESENTATION_CONTEXT(2) 
PARAMETRIC_REPRESENTATION_CONTEXT() REPRESENTATION_CONTEXT('2D SPACE',''
  ) );
#683 = ORIENTED_EDGE('',*,*,#554,.F.);
#684 = ORIENTED_EDGE('',*,*,#121,.T.);
#685 = ORIENTED_EDGE('',*,*,#93,.T.);
#686 = ORIENTED_EDGE('',*,*,#687,.F.);
#687 = EDGE_CURVE('',#688,#60,#690,.T.);
#688 = VERTEX_POINT('',#689);
#689 = CARTESIAN_POINT('',(-27.5,-28.5,31.8));
#690 = SURFACE_CURVE('',#691,(#695,#702),.PCURVE_S1.);
#691 = LINE('',#692,#693);
#692 = CARTESIAN_POINT('',(-27.5,-28.5,31.8));
#693 = VECTOR('',#694,1.);
#694 = DIRECTION('',(0.,1.,0.));
#695 = PCURVE('',#109,#696);
#696 = DEFINITIONAL_REPRESENTATION('',(#697),#701);
#697 = LINE('',#698,#699);
#698 = CARTESIAN_POINT('',(5.677642176891,28.5));
#699 = VECTOR('',#700,1.);
#700 = DIRECTION('',(0.,-1.));
#701 = ( GEOMETRIC_REPRESENTATION_CONTEXT(2) 
PARAMETRIC_REPRESENTATION_CONTEXT() REPRESENTATION_CONTEXT('2D SPACE',''
  ) );
#702 = PCURVE('',#79,#703);
#703 = DEFINITIONAL_REPRESENTATION('',(#704),#708);
#704 = LINE('',#705,#706);
#705 = CARTESIAN_POINT('',(0.,0.));
#706 = VECTOR('',#707,1.);
#707 = DIRECTION('',(0.,1.));
#708 = ( GEOMETRIC_REPRESENTATION_CONTEXT(2) 
PARAMETRIC_REPRESENTATION_CONTEXT() REPRESENTATION_CONTEXT('2D SPACE',''
  ) );
#709 = ORIENTED_EDGE('',*,*,#710,.F.);
#710 = EDGE_CURVE('',#711,#688,#713,.T.);
#711 = VERTEX_POINT('',#712);
#712 = CARTESIAN_POINT('',(-27.5,-28.5,26.8));
#713 = SURFACE_CURVE('',#714,(#718,#725),.PCURVE_S1.);
#714 = LINE('',#715,#716);
#715 = CARTESIAN_POINT('',(-27.5,-28.5,26.8));
#716 = VECTOR('',#717,1.);
#717 = DIRECTION('',(0.,0.,1.));
#718 = PCURVE('',#109,#719);
#719 = DEFINITIONAL_REPRESENTATION('',(#720),#724);
#720 = LINE('',#721,#722);
#721 = CARTESIAN_POINT('',(0.677642176891,28.5));
#722 = VECTOR('',#723,1.);
#723 = DIRECTION('',(1.,0.));
#724 = ( GEOMETRIC_REPRESENTATION_CONTEXT(2) 
PARAMETRIC_REPRESENTATION_CONTEXT() REPRESENTATION_CONTEXT('2D SPACE',''
  ) );
#725 = PCURVE('',#220,#726);
#726 = DEFINITIONAL_REPRESENTATION('',(#727),#731);
#727 = LINE('',#728,#729);
#728 = CARTESIAN_POINT('',(0.,0.));
#729 = VECTOR('',#730,1.);
#730 = DIRECTION('',(1.,0.));
#731 = ( GEOMETRIC_REPRESENTATION_CONTEXT(2) 
PARAMETRIC_REPRESENTATION_CONTEXT() REPRESENTATION_CONTEXT('2D SPACE',''
  ) );
#732 = ORIENTED_EDGE('',*,*,#733,.F.);
#733 = EDGE_CURVE('',#734,#711,#736,.T.);
#734 = VERTEX_POINT('',#735);
#735 = CARTESIAN_POINT('',(-27.5,-13.26584070051,26.8));
#736 = SURFACE_CURVE('',#737,(#741,#748),.PCURVE_S1.);
#737 = LINE('',#738,#739);
#738 = CARTESIAN_POINT('',(-27.5,28.5,26.8));
#739 = VECTOR('',#740,1.);
#740 = DIRECTION('',(0.,-1.,0.));
#741 = PCURVE('',#109,#742);
#742 = DEFINITIONAL_REPRESENTATION('',(#743),#747);
#743 = LINE('',#744,#745);
#744 = CARTESIAN_POINT('',(0.677642176891,-28.5));
#745 = VECTOR('',#746,1.);
#746 = DIRECTION('',(0.,1.));
#747 = ( GEOMETRIC_REPRESENTATION_CONTEXT(2) 
PARAMETRIC_REPRESENTATION_CONTEXT() REPRESENTATION_CONTEXT('2D SPACE',''
  ) );
#748 = PCURVE('',#248,#749);
#749 = DEFINITIONAL_REPRESENTATION('',(#750),#754);
#750 = LINE('',#751,#752);
#751 = CARTESIAN_POINT('',(22.5,78.5));
#752 = VECTOR('',#753,1.);
#753 = DIRECTION('',(0.,-1.));
#754 = ( GEOMETRIC_REPRESENTATION_CONTEXT(2) 
PARAMETRIC_REPRESENTATION_CONTEXT() REPRESENTATION_CONTEXT('2D SPACE',''
  ) );
#755 = ORIENTED_EDGE('',*,*,#756,.F.);
#756 = EDGE_CURVE('',#641,#734,#757,.T.);
#757 = SURFACE_CURVE('',#758,(#809,#863),.PCURVE_S1.);
#758 = B_SPLINE_CURVE_WITH_KNOTS('',7,(#759,#760,#761,#762,#763,#764,
    #765,#766,#767,#768,#769,#770,#771,#772,#773,#774,#775,#776,#777,
    #778,#779,#780,#781,#782,#783,#784,#785,#786,#787,#788,#789,#790,
    #791,#792,#793,#794,#795,#796,#797,#798,#799,#800,#801,#802,#803,
    #804,#805,#806,#807,#808),.UNSPECIFIED.,.F.,.F.,(8,6,6,6,6,6,6,6,8),
  (0.,0.345628100968,0.521168548235,0.689560054595,1.,1.310439945404,
    1.478831451764,1.654371899032,1.999999999999),.UNSPECIFIED.);
#759 = CARTESIAN_POINT('',(-27.5,13.265840700511,26.8));
#760 = CARTESIAN_POINT('',(-27.5,13.211890889329,27.826733994389));
#761 = CARTESIAN_POINT('',(-27.5,13.077130277838,28.849193887065));
#762 = CARTESIAN_POINT('',(-27.5,12.861782554348,29.859815565393));
#763 = CARTESIAN_POINT('',(-27.5,12.566562286101,30.850858878363));
#764 = CARTESIAN_POINT('',(-27.5,12.192774802926,31.814430705205));
#765 = CARTESIAN_POINT('',(-27.5,11.742441681646,32.742523799013));
#766 = CARTESIAN_POINT('',(-27.5,10.952323549244,34.076322730758));
#767 = CARTESIAN_POINT('',(-27.5,10.667207400932,34.514321278725));
#768 = CARTESIAN_POINT('',(-27.5,10.363496733858,34.939994978617));
#769 = CARTESIAN_POINT('',(-27.5,10.041649676896,35.352264778581));
#770 = CARTESIAN_POINT('',(-27.5,9.702198531411,35.750052332993));
#771 = CARTESIAN_POINT('',(-27.5,9.345759162463,36.13228768989));
#772 = CARTESIAN_POINT('',(-27.5,8.615500708874,36.848655897085));
#773 = CARTESIAN_POINT('',(-27.5,8.242975902107,37.184118793115));
#774 = CARTESIAN_POINT('',(-27.5,7.85609845181,37.503368501302));
#775 = CARTESIAN_POINT('',(-27.5,7.455574052423,37.805494181322));
#776 = CARTESIAN_POINT('',(-27.5,7.042185992108,38.089617191142));
#777 = CARTESIAN_POINT('',(-27.5,6.616802767172,38.354901529868));
#778 = CARTESIAN_POINT('',(-27.5,5.375833575932,39.053471440486));
#779 = CARTESIAN_POINT('',(-27.5,4.533483514764,39.439872698358));
#780 = CARTESIAN_POINT('',(-27.5,3.659744009907,39.75457621421));
#781 = CARTESIAN_POINT('',(-27.5,2.761636792552,39.993589165813));
#782 = CARTESIAN_POINT('',(-27.5,1.846748498118,40.154028699763));
#783 = CARTESIAN_POINT('',(-27.5,0.923248745041,40.234210526316));
#784 = CARTESIAN_POINT('',(-27.5,-0.92324874504,40.234210526316));
#785 = CARTESIAN_POINT('',(-27.5,-1.846748498123,40.154028699762));
#786 = CARTESIAN_POINT('',(-27.5,-2.761636792546,39.993589165815));
#787 = CARTESIAN_POINT('',(-27.5,-3.659744009914,39.754576214207));
#788 = CARTESIAN_POINT('',(-27.5,-4.533483514763,39.439872698358));
#789 = CARTESIAN_POINT('',(-27.5,-5.375833575934,39.053471440485));
#790 = CARTESIAN_POINT('',(-27.5,-6.616802767174,38.354901529867));
#791 = CARTESIAN_POINT('',(-27.5,-7.042185992109,38.08961719114));
#792 = CARTESIAN_POINT('',(-27.5,-7.455574052424,37.80549418132));
#793 = CARTESIAN_POINT('',(-27.5,-7.856098451812,37.503368501301));
#794 = CARTESIAN_POINT('',(-27.5,-8.242975902108,37.184118793114));
#795 = CARTESIAN_POINT('',(-27.5,-8.615500708875,36.848655897083));
#796 = CARTESIAN_POINT('',(-27.5,-9.345759162464,36.132287689888));
#797 = CARTESIAN_POINT('',(-27.5,-9.702198531412,35.750052332992));
#798 = CARTESIAN_POINT('',(-27.5,-10.04164967689,35.352264778579));
#799 = CARTESIAN_POINT('',(-27.5,-10.36349673385,34.939994978615));
#800 = CARTESIAN_POINT('',(-27.5,-10.66720740093,34.514321278723));
#801 = CARTESIAN_POINT('',(-27.5,-10.95232354924,34.076322730756));
#802 = CARTESIAN_POINT('',(-27.5,-11.74244168164,32.742523799011));
#803 = CARTESIAN_POINT('',(-27.5,-12.19277480292,31.814430705203));
#804 = CARTESIAN_POINT('',(-27.5,-12.5665622861,30.850858878361));
#805 = CARTESIAN_POINT('',(-27.5,-12.86178255434,29.859815565392));
#806 = CARTESIAN_POINT('',(-27.5,-13.07713027783,28.849193887064));
#807 = CARTESIAN_POINT('',(-27.5,-13.21189088932,27.826733994388));
#808 = CARTESIAN_POINT('',(-27.5,-13.26584070051,26.8));
#809 = PCURVE('',#109,#810);
#810 = DEFINITIONAL_REPRESENTATION('',(#811),#862);
#811 = B_SPLINE_CURVE_WITH_KNOTS('',7,(#812,#813,#814,#815,#816,#817,
    #818,#819,#820,#821,#822,#823,#824,#825,#826,#827,#828,#829,#830,
    #831,#832,#833,#834,#835,#836,#837,#838,#839,#840,#841,#842,#843,
    #844,#845,#846,#847,#848,#849,#850,#851,#852,#853,#854,#855,#856,
    #857,#858,#859,#860,#861),.UNSPECIFIED.,.F.,.F.,(8,6,6,6,6,6,6,6,8),
  (0.,0.345628100968,0.521168548235,0.689560054595,1.,1.310439945404,
    1.478831451764,1.654371899032,1.999999999999),.UNSPECIFIED.);
#812 = CARTESIAN_POINT('',(0.677642176891,-13.26584070051));
#813 = CARTESIAN_POINT('',(1.70437617128,-13.21189088932));
#814 = CARTESIAN_POINT('',(2.726836063956,-13.07713027783));
#815 = CARTESIAN_POINT('',(3.737457742284,-12.86178255434));
#816 = CARTESIAN_POINT('',(4.728501055254,-12.5665622861));
#817 = CARTESIAN_POINT('',(5.692072882096,-12.19277480292));
#818 = CARTESIAN_POINT('',(6.620165975904,-11.74244168164));
#819 = CARTESIAN_POINT('',(7.953964907649,-10.95232354924));
#820 = CARTESIAN_POINT('',(8.391963455616,-10.66720740093));
#821 = CARTESIAN_POINT('',(8.817637155508,-10.36349673385));
#822 = CARTESIAN_POINT('',(9.229906955472,-10.04164967689));
#823 = CARTESIAN_POINT('',(9.627694509884,-9.702198531411));
#824 = CARTESIAN_POINT('',(10.009929866781,-9.345759162463));
#825 = CARTESIAN_POINT('',(10.726298073976,-8.615500708874));
#826 = CARTESIAN_POINT('',(11.061760970006,-8.242975902107));
#827 = CARTESIAN_POINT('',(11.381010678193,-7.85609845181));
#828 = CARTESIAN_POINT('',(11.683136358213,-7.455574052423));
#829 = CARTESIAN_POINT('',(11.967259368033,-7.042185992108));
#830 = CARTESIAN_POINT('',(12.232543706759,-6.616802767172));
#831 = CARTESIAN_POINT('',(12.931113617377,-5.375833575932));
#832 = CARTESIAN_POINT('',(13.317514875249,-4.533483514764));
#833 = CARTESIAN_POINT('',(13.632218391101,-3.659744009907));
#834 = CARTESIAN_POINT('',(13.871231342705,-2.761636792552));
#835 = CARTESIAN_POINT('',(14.031670876654,-1.846748498118));
#836 = CARTESIAN_POINT('',(14.111852703207,-0.923248745041));
#837 = CARTESIAN_POINT('',(14.111852703207,0.92324874504));
#838 = CARTESIAN_POINT('',(14.031670876653,1.846748498123));
#839 = CARTESIAN_POINT('',(13.871231342706,2.761636792546));
#840 = CARTESIAN_POINT('',(13.632218391098,3.659744009914));
#841 = CARTESIAN_POINT('',(13.317514875249,4.533483514763));
#842 = CARTESIAN_POINT('',(12.931113617376,5.375833575934));
#843 = CARTESIAN_POINT('',(12.232543706758,6.616802767174));
#844 = CARTESIAN_POINT('',(11.967259368031,7.042185992109));
#845 = CARTESIAN_POINT('',(11.683136358211,7.455574052424));
#846 = CARTESIAN_POINT('',(11.381010678192,7.856098451812));
#847 = CARTESIAN_POINT('',(11.061760970005,8.242975902108));
#848 = CARTESIAN_POINT('',(10.726298073974,8.615500708875));
#849 = CARTESIAN_POINT('',(10.009929866779,9.345759162464));
#850 = CARTESIAN_POINT('',(9.627694509883,9.702198531412));
#851 = CARTESIAN_POINT('',(9.22990695547,10.041649676897));
#852 = CARTESIAN_POINT('',(8.817637155506,10.363496733859));
#853 = CARTESIAN_POINT('',(8.391963455614,10.667207400933));
#854 = CARTESIAN_POINT('',(7.953964907647,10.952323549245));
#855 = CARTESIAN_POINT('',(6.620165975902,11.742441681647));
#856 = CARTESIAN_POINT('',(5.692072882094,12.192774802927));
#857 = CARTESIAN_POINT('',(4.728501055252,12.566562286101));
#858 = CARTESIAN_POINT('',(3.737457742283,12.861782554349));
#859 = CARTESIAN_POINT('',(2.726836063955,13.077130277838));
#860 = CARTESIAN_POINT('',(1.704376171279,13.211890889329));
#861 = CARTESIAN_POINT('',(0.677642176891,13.265840700511));
#862 = ( GEOMETRIC_REPRESENTATION_CONTEXT(2) 
PARAMETRIC_REPRESENTATION_CONTEXT() REPRESENTATION_CONTEXT('2D SPACE',''
  ) );
#863 = PCURVE('',#370,#864);
#864 = DEFINITIONAL_REPRESENTATION('',(#865),#935);
#865 = B_SPLINE_CURVE_WITH_KNOTS('',3,(#866,#867,#868,#869,#870,#871,
    #872,#873,#874,#875,#876,#877,#878,#879,#880,#881,#882,#883,#884,
    #885,#886,#887,#888,#889,#890,#891,#892,#893,#894,#895,#896,#897,
    #898,#899,#900,#901,#902,#903,#904,#905,#906,#907,#908,#909,#910,
    #911,#912,#913,#914,#915,#916,#917,#918,#919,#920,#921,#922,#923,
    #924,#925,#926,#927,#928,#929,#930,#931,#932,#933,#934),
  .UNSPECIFIED.,.F.,.F.,(4,1,1,1,1,1,1,1,1,1,1,1,1,1,1,1,1,1,1,1,1,1,1,1
    ,1,1,1,1,1,1,1,1,1,1,1,1,1,1,1,1,1,1,1,1,1,1,1,1,1,1,1,1,1,1,1,1,1,1
    ,1,1,1,1,1,1,1,1,4),(0.,3.030303030301E-02,6.060606060603E-02,
    9.090909090904E-02,0.121212121212,0.151515151515,0.181818181818,
    0.212121212121,0.242424242424,0.272727272727,0.30303030303,
    0.333333333333,0.363636363636,0.393939393939,0.424242424242,
    0.454545454545,0.484848484848,0.515151515151,0.545454545454,
    0.575757575757,0.60606060606,0.636363636363,0.666666666666,
    0.696969696969,0.727272727272,0.757575757575,0.787878787878,
    0.818181818181,0.848484848484,0.878787878787,0.90909090909,
    0.939393939393,0.969696969696,0.999999999999,1.030303030303,
    1.060606060606,1.090909090909,1.121212121212,1.151515151515,
    1.181818181818,1.212121212121,1.242424242424,1.272727272727,
    1.30303030303,1.333333333333,1.363636363636,1.393939393939,
    1.424242424242,1.454545454545,1.484848484848,1.515151515151,
    1.545454545454,1.575757575757,1.60606060606,1.636363636363,
    1.666666666666,1.696969696969,1.727272727272,1.757575757575,
    1.787878787878,1.818181818181,1.848484848484,1.878787878787,
    1.90909090909,1.939393939393,1.969696969696,1.999999999999),
  .QUASI_UNIFORM_KNOTS.);
#866 = CARTESIAN_POINT('',(4.768621235976,-1.));
#867 = CARTESIAN_POINT('',(4.783400887627,-1.));
#868 = CARTESIAN_POINT('',(4.812964865111,-1.));
#869 = CARTESIAN_POINT('',(4.857336010214,-1.));
#870 = CARTESIAN_POINT('',(4.901743662031,-1.));
#871 = CARTESIAN_POINT('',(4.946198548119,-1.));
#872 = CARTESIAN_POINT('',(4.990711067597,-1.));
#873 = CARTESIAN_POINT('',(5.035291271636,-1.));
#874 = CARTESIAN_POINT('',(5.07994890856,-1.));
#875 = CARTESIAN_POINT('',(5.124693440388,-1.));
#876 = CARTESIAN_POINT('',(5.169534044146,-1.));
#877 = CARTESIAN_POINT('',(5.214479635685,-1.));
#878 = CARTESIAN_POINT('',(5.259538750958,-1.));
#879 = CARTESIAN_POINT('',(5.304719908236,-1.));
#880 = CARTESIAN_POINT('',(5.350027547504,-1.));
#881 = CARTESIAN_POINT('',(5.395467395638,-1.));
#882 = CARTESIAN_POINT('',(5.441044054195,-1.));
#883 = CARTESIAN_POINT('',(5.486761320078,-1.));
#884 = CARTESIAN_POINT('',(5.532621862458,-1.));
#885 = CARTESIAN_POINT('',(5.578627428869,-1.));
#886 = CARTESIAN_POINT('',(5.624778309362,-1.));
#887 = CARTESIAN_POINT('',(5.671073092314,-1.));
#888 = CARTESIAN_POINT('',(5.717509413039,-1.));
#889 = CARTESIAN_POINT('',(5.76408426068,-1.));
#890 = CARTESIAN_POINT('',(5.810790520124,-1.));
#891 = CARTESIAN_POINT('',(5.857630360969,-1.));
#892 = CARTESIAN_POINT('',(5.904591564196,-1.));
#893 = CARTESIAN_POINT('',(5.951661623476,-1.));
#894 = CARTESIAN_POINT('',(5.998828997427,-1.));
#895 = CARTESIAN_POINT('',(6.046082206064,-1.));
#896 = CARTESIAN_POINT('',(6.093409483151,-1.));
#897 = CARTESIAN_POINT('',(6.140798351832,-1.));
#898 = CARTESIAN_POINT('',(6.188234847199,-1.));
#899 = CARTESIAN_POINT('',(6.235704010738,-1.));
#900 = CARTESIAN_POINT('',(6.283185307179,-1.));
#901 = CARTESIAN_POINT('',(6.33066660362,-1.));
#902 = CARTESIAN_POINT('',(6.378135767158,-1.));
#903 = CARTESIAN_POINT('',(6.425572262526,-1.));
#904 = CARTESIAN_POINT('',(6.472961131206,-1.));
#905 = CARTESIAN_POINT('',(6.520288408294,-1.));
#906 = CARTESIAN_POINT('',(6.567541616931,-1.));
#907 = CARTESIAN_POINT('',(6.614708990882,-1.));
#908 = CARTESIAN_POINT('',(6.661779050162,-1.));
#909 = CARTESIAN_POINT('',(6.70874025339,-1.));
#910 = CARTESIAN_POINT('',(6.755580094234,-1.));
#911 = CARTESIAN_POINT('',(6.802286353678,-1.));
#912 = CARTESIAN_POINT('',(6.848861201319,-1.));
#913 = CARTESIAN_POINT('',(6.895297522044,-1.));
#914 = CARTESIAN_POINT('',(6.941592304996,-1.));
#915 = CARTESIAN_POINT('',(6.98774318549,-1.));
#916 = CARTESIAN_POINT('',(7.0337487519,-1.));
#917 = CARTESIAN_POINT('',(7.079609294281,-1.));
#918 = CARTESIAN_POINT('',(7.125326560164,-1.));
#919 = CARTESIAN_POINT('',(7.170903218721,-1.));
#920 = CARTESIAN_POINT('',(7.216343066854,-1.));
#921 = CARTESIAN_POINT('',(7.261650706123,-1.));
#922 = CARTESIAN_POINT('',(7.3068318634,-1.));
#923 = CARTESIAN_POINT('',(7.351890978674,-1.));
#924 = CARTESIAN_POINT('',(7.396836570213,-1.));
#925 = CARTESIAN_POINT('',(7.441677173971,-1.));
#926 = CARTESIAN_POINT('',(7.486421705799,-1.));
#927 = CARTESIAN_POINT('',(7.531079342723,-1.));
#928 = CARTESIAN_POINT('',(7.575659546762,-1.));
#929 = CARTESIAN_POINT('',(7.62017206624,-1.));
#930 = CARTESIAN_POINT('',(7.664626952328,-1.));
#931 = CARTESIAN_POINT('',(7.709034604145,-1.));
#932 = CARTESIAN_POINT('',(7.753405749248,-1.));
#933 = CARTESIAN_POINT('',(7.782969726732,-1.));
#934 = CARTESIAN_POINT('',(7.797749378383,-1.));
#935 = ( GEOMETRIC_REPRESENTATION_CONTEXT(2) 
PARAMETRIC_REPRESENTATION_CONTEXT() REPRESENTATION_CONTEXT('2D SPACE',''
  ) );
#936 = ADVANCED_FACE('',(#937,#963),#79,.T.);
#937 = FACE_BOUND('',#938,.T.);
#938 = EDGE_LOOP('',(#939,#940,#961,#962));
#939 = ORIENTED_EDGE('',*,*,#687,.F.);
#940 = ORIENTED_EDGE('',*,*,#941,.T.);
#941 = EDGE_CURVE('',#688,#205,#942,.T.);
#942 = SURFACE_CURVE('',#943,(#947,#954),.PCURVE_S1.);
#943 = LINE('',#944,#945);
#944 = CARTESIAN_POINT('',(-27.5,-28.5,31.8));
#945 = VECTOR('',#946,1.);
#946 = DIRECTION('',(1.,0.,0.));
#947 = PCURVE('',#79,#948);
#948 = DEFINITIONAL_REPRESENTATION('',(#949),#953);
#949 = LINE('',#950,#951);
#950 = CARTESIAN_POINT('',(0.,0.));
#951 = VECTOR('',#952,1.);
#952 = DIRECTION('',(1.,0.));
#953 = ( GEOMETRIC_REPRESENTATION_CONTEXT(2) 
PARAMETRIC_REPRESENTATION_CONTEXT() REPRESENTATION_CONTEXT('2D SPACE',''
  ) );
#954 = PCURVE('',#220,#955);
#955 = DEFINITIONAL_REPRESENTATION('',(#956),#960);
#956 = LINE('',#957,#958);
#957 = CARTESIAN_POINT('',(5.,0.));
#958 = VECTOR('',#959,1.);
#959 = DIRECTION('',(0.,1.));
#960 = ( GEOMETRIC_REPRESENTATION_CONTEXT(2) 
PARAMETRIC_REPRESENTATION_CONTEXT() REPRESENTATION_CONTEXT('2D SPACE',''
  ) );
#961 = ORIENTED_EDGE('',*,*,#530,.T.);
#962 = ORIENTED_EDGE('',*,*,#59,.T.);
#963 = FACE_BOUND('',#964,.T.);
#964 = EDGE_LOOP('',(#965));
#965 = ORIENTED_EDGE('',*,*,#966,.T.);
#966 = EDGE_CURVE('',#967,#967,#969,.T.);
#967 = VERTEX_POINT('',#968);
#968 = CARTESIAN_POINT('',(-21.3,-22.,31.8));
#969 = SURFACE_CURVE('',#970,(#975,#986),.PCURVE_S1.);
#970 = CIRCLE('',#971,1.7);
#971 = AXIS2_PLACEMENT_3D('',#972,#973,#974);
#972 = CARTESIAN_POINT('',(-23.,-22.,31.8));
#973 = DIRECTION('',(0.,0.,-1.));
#974 = DIRECTION('',(1.,0.,0.));
#975 = PCURVE('',#79,#976);
#976 = DEFINITIONAL_REPRESENTATION('',(#977),#985);
#977 = ( BOUNDED_CURVE() B_SPLINE_CURVE(2,(#978,#979,#980,#981,#982,#983
,#984),.UNSPECIFIED.,.T.,.F.) B_SPLINE_CURVE_WITH_KNOTS((1,2,2,2,2,1),(
    -2.094395102393,0.,2.094395102393,4.188790204786,6.28318530718,
8.377580409573),.UNSPECIFIED.) CURVE() GEOMETRIC_REPRESENTATION_ITEM() 
RATIONAL_B_SPLINE_CURVE((1.,0.5,1.,0.5,1.,0.5,1.)) REPRESENTATION_ITEM(
  '') );
#978 = CARTESIAN_POINT('',(6.2,6.5));
#979 = CARTESIAN_POINT('',(6.2,3.555513627133));
#980 = CARTESIAN_POINT('',(3.65,5.027756813566));
#981 = CARTESIAN_POINT('',(1.1,6.5));
#982 = CARTESIAN_POINT('',(3.65,7.972243186434));
#983 = CARTESIAN_POINT('',(6.2,9.444486372867));
#984 = CARTESIAN_POINT('',(6.2,6.5));
#985 = ( GEOMETRIC_REPRESENTATION_CONTEXT(2) 
PARAMETRIC_REPRESENTATION_CONTEXT() REPRESENTATION_CONTEXT('2D SPACE',''
  ) );
#986 = PCURVE('',#987,#992);
#987 = CYLINDRICAL_SURFACE('',#988,1.7);
#988 = AXIS2_PLACEMENT_3D('',#989,#990,#991);
#989 = CARTESIAN_POINT('',(-23.,-22.,26.));
#990 = DIRECTION('',(-0.,-0.,-1.));
#991 = DIRECTION('',(1.,0.,0.));
#992 = DEFINITIONAL_REPRESENTATION('',(#993),#997);
#993 = LINE('',#994,#995);
#994 = CARTESIAN_POINT('',(-6.28318530718,-5.8));
#995 = VECTOR('',#996,1.);
#996 = DIRECTION('',(1.,-0.));
#997 = ( GEOMETRIC_REPRESENTATION_CONTEXT(2) 
PARAMETRIC_REPRESENTATION_CONTEXT() REPRESENTATION_CONTEXT('2D SPACE',''
  ) );
#998 = ADVANCED_FACE('',(#999),#220,.F.);
#999 = FACE_BOUND('',#1000,.F.);
#1000 = EDGE_LOOP('',(#1001,#1022,#1023,#1024));
#1001 = ORIENTED_EDGE('',*,*,#1002,.F.);
#1002 = EDGE_CURVE('',#711,#203,#1003,.T.);
#1003 = SURFACE_CURVE('',#1004,(#1008,#1015),.PCURVE_S1.);
#1004 = LINE('',#1005,#1006);
#1005 = CARTESIAN_POINT('',(-27.5,-28.5,26.8));
#1006 = VECTOR('',#1007,1.);
#1007 = DIRECTION('',(1.,0.,0.));
#1008 = PCURVE('',#220,#1009);
#1009 = DEFINITIONAL_REPRESENTATION('',(#1010),#1014);
#1010 = LINE('',#1011,#1012);
#1011 = CARTESIAN_POINT('',(0.,0.));
#1012 = VECTOR('',#1013,1.);
#1013 = DIRECTION('',(0.,1.));
#1014 = ( GEOMETRIC_REPRESENTATION_CONTEXT(2) 
PARAMETRIC_REPRESENTATION_CONTEXT() REPRESENTATION_CONTEXT('2D SPACE',''
  ) );
#1015 = PCURVE('',#248,#1016);
#1016 = DEFINITIONAL_REPRESENTATION('',(#1017),#1021);
#1017 = LINE('',#1018,#1019);
#1018 = CARTESIAN_POINT('',(22.5,21.5));
#1019 = VECTOR('',#1020,1.);
#1020 = DIRECTION('',(1.,0.));
#1021 = ( GEOMETRIC_REPRESENTATION_CONTEXT(2) 
PARAMETRIC_REPRESENTATION_CONTEXT() REPRESENTATION_CONTEXT('2D SPACE',''
  ) );
#1022 = ORIENTED_EDGE('',*,*,#710,.T.);
#1023 = ORIENTED_EDGE('',*,*,#941,.T.);
#1024 = ORIENTED_EDGE('',*,*,#202,.F.);
#1025 = ADVANCED_FACE('',(#1026,#1058),#248,.F.);
#1026 = FACE_BOUND('',#1027,.F.);
#1027 = EDGE_LOOP('',(#1028,#1029,#1030,#1057));
#1028 = ORIENTED_EDGE('',*,*,#1002,.T.);
#1029 = ORIENTED_EDGE('',*,*,#232,.T.);
#1030 = ORIENTED_EDGE('',*,*,#1031,.T.);
#1031 = EDGE_CURVE('',#233,#734,#1032,.T.);
#1032 = SURFACE_CURVE('',#1033,(#1039,#1048),.PCURVE_S1.);
#1033 = B_SPLINE_CURVE_WITH_KNOTS('',4,(#1034,#1035,#1036,#1037,#1038),
  .UNSPECIFIED.,.F.,.F.,(5,5),(0.,1.),.PIECEWISE_BEZIER_KNOTS.);
#1034 = CARTESIAN_POINT('',(-18.5,-13.26584070051,26.8));
#1035 = CARTESIAN_POINT('',(-20.75,-13.26584070051,26.8));
#1036 = CARTESIAN_POINT('',(-23.,-13.26584070051,26.8));
#1037 = CARTESIAN_POINT('',(-25.25,-13.26584070051,26.8));
#1038 = CARTESIAN_POINT('',(-27.5,-13.26584070051,26.8));
#1039 = PCURVE('',#248,#1040);
#1040 = DEFINITIONAL_REPRESENTATION('',(#1041),#1047);
#1041 = B_SPLINE_CURVE_WITH_KNOTS('',4,(#1042,#1043,#1044,#1045,#1046),
  .UNSPECIFIED.,.F.,.F.,(5,5),(0.,1.),.PIECEWISE_BEZIER_KNOTS.);
#1042 = CARTESIAN_POINT('',(31.5,36.734159299489));
#1043 = CARTESIAN_POINT('',(29.25,36.734159299489));
#1044 = CARTESIAN_POINT('',(27.,36.734159299489));
#1045 = CARTESIAN_POINT('',(24.75,36.734159299489));
#1046 = CARTESIAN_POINT('',(22.5,36.734159299489));
#1047 = ( GEOMETRIC_REPRESENTATION_CONTEXT(2) 
PARAMETRIC_REPRESENTATION_CONTEXT() REPRESENTATION_CONTEXT('2D SPACE',''
  ) );
#1048 = PCURVE('',#370,#1049);
#1049 = DEFINITIONAL_REPRESENTATION('',(#1050),#1056);
#1050 = B_SPLINE_CURVE_WITH_KNOTS('',4,(#1051,#1052,#1053,#1054,#1055),
  .UNSPECIFIED.,.F.,.F.,(5,5),(0.,1.),.PIECEWISE_BEZIER_KNOTS.);
#1051 = CARTESIAN_POINT('',(7.797749378383,-10.));
#1052 = CARTESIAN_POINT('',(7.797749378383,-7.75));
#1053 = CARTESIAN_POINT('',(7.797749378383,-5.5));
#1054 = CARTESIAN_POINT('',(7.797749378383,-3.25));
#1055 = CARTESIAN_POINT('',(7.797749378383,-1.));
#1056 = ( GEOMETRIC_REPRESENTATION_CONTEXT(2) 
PARAMETRIC_REPRESENTATION_CONTEXT() REPRESENTATION_CONTEXT('2D SPACE',''
  ) );
#1057 = ORIENTED_EDGE('',*,*,#733,.T.);
#1058 = FACE_BOUND('',#1059,.F.);
#1059 = EDGE_LOOP('',(#1060));
#1060 = ORIENTED_EDGE('',*,*,#1061,.T.);
#1061 = EDGE_CURVE('',#1062,#1062,#1064,.T.);
#1062 = VERTEX_POINT('',#1063);
#1063 = CARTESIAN_POINT('',(-21.3,-22.,26.8));
#1064 = SURFACE_CURVE('',#1065,(#1070,#1081),.PCURVE_S1.);
#1065 = CIRCLE('',#1066,1.7);
#1066 = AXIS2_PLACEMENT_3D('',#1067,#1068,#1069);
#1067 = CARTESIAN_POINT('',(-23.,-22.,26.8));
#1068 = DIRECTION('',(0.,0.,-1.));
#1069 = DIRECTION('',(1.,0.,0.));
#1070 = PCURVE('',#248,#1071);
#1071 = DEFINITIONAL_REPRESENTATION('',(#1072),#1080);
#1072 = ( BOUNDED_CURVE() B_SPLINE_CURVE(2,(#1073,#1074,#1075,#1076,
#1077,#1078,#1079),.UNSPECIFIED.,.T.,.F.) B_SPLINE_CURVE_WITH_KNOTS((1,2
    ,2,2,2,1),(-2.094395102393,0.,2.094395102393,4.188790204786,
6.28318530718,8.377580409573),.UNSPECIFIED.) CURVE() 
GEOMETRIC_REPRESENTATION_ITEM() RATIONAL_B_SPLINE_CURVE((1.,0.5,1.,0.5,
1.,0.5,1.)) REPRESENTATION_ITEM('') );
#1073 = CARTESIAN_POINT('',(28.7,28.));
#1074 = CARTESIAN_POINT('',(28.7,25.055513627133));
#1075 = CARTESIAN_POINT('',(26.15,26.527756813566));
#1076 = CARTESIAN_POINT('',(23.6,28.));
#1077 = CARTESIAN_POINT('',(26.15,29.472243186434));
#1078 = CARTESIAN_POINT('',(28.7,30.944486372867));
#1079 = CARTESIAN_POINT('',(28.7,28.));
#1080 = ( GEOMETRIC_REPRESENTATION_CONTEXT(2) 
PARAMETRIC_REPRESENTATION_CONTEXT() REPRESENTATION_CONTEXT('2D SPACE',''
  ) );
#1081 = PCURVE('',#987,#1082);
#1082 = DEFINITIONAL_REPRESENTATION('',(#1083),#1087);
#1083 = LINE('',#1084,#1085);
#1084 = CARTESIAN_POINT('',(-6.28318530718,-0.8));
#1085 = VECTOR('',#1086,1.);
#1086 = DIRECTION('',(1.,-0.));
#1087 = ( GEOMETRIC_REPRESENTATION_CONTEXT(2) 
PARAMETRIC_REPRESENTATION_CONTEXT() REPRESENTATION_CONTEXT('2D SPACE',''
  ) );
#1088 = ADVANCED_FACE('',(#1089),#370,.T.);
#1089 = FACE_BOUND('',#1090,.T.);
#1090 = EDGE_LOOP('',(#1091,#1092,#1093,#1094));
#1091 = ORIENTED_EDGE('',*,*,#260,.F.);
#1092 = ORIENTED_EDGE('',*,*,#1031,.T.);
#1093 = ORIENTED_EDGE('',*,*,#756,.F.);
#1094 = ORIENTED_EDGE('',*,*,#1095,.F.);
#1095 = EDGE_CURVE('',#261,#641,#1096,.T.);
#1096 = SURFACE_CURVE('',#1097,(#1103,#1112),.PCURVE_S1.);
#1097 = B_SPLINE_CURVE_WITH_KNOTS('',4,(#1098,#1099,#1100,#1101,#1102),
  .UNSPECIFIED.,.F.,.F.,(5,5),(0.,1.),.PIECEWISE_BEZIER_KNOTS.);
#1098 = CARTESIAN_POINT('',(-18.5,13.265840700511,26.8));
#1099 = CARTESIAN_POINT('',(-20.75,13.265840700511,26.8));
#1100 = CARTESIAN_POINT('',(-23.,13.265840700511,26.8));
#1101 = CARTESIAN_POINT('',(-25.25,13.265840700511,26.8));
#1102 = CARTESIAN_POINT('',(-27.5,13.265840700511,26.8));
#1103 = PCURVE('',#370,#1104);
#1104 = DEFINITIONAL_REPRESENTATION('',(#1105),#1111);
#1105 = B_SPLINE_CURVE_WITH_KNOTS('',4,(#1106,#1107,#1108,#1109,#1110),
  .UNSPECIFIED.,.F.,.F.,(5,5),(0.,1.),.PIECEWISE_BEZIER_KNOTS.);
#1106 = CARTESIAN_POINT('',(4.768621235976,-10.));
#1107 = CARTESIAN_POINT('',(4.768621235976,-7.75));
#1108 = CARTESIAN_POINT('',(4.768621235976,-5.5));
#1109 = CARTESIAN_POINT('',(4.768621235976,-3.25));
#1110 = CARTESIAN_POINT('',(4.768621235976,-1.));
#1111 = ( GEOMETRIC_REPRESENTATION_CONTEXT(2) 
PARAMETRIC_REPRESENTATION_CONTEXT() REPRESENTATION_CONTEXT('2D SPACE',''
  ) );
#1112 = PCURVE('',#467,#1113);
#1113 = DEFINITIONAL_REPRESENTATION('',(#1114),#1120);
#1114 = B_SPLINE_CURVE_WITH_KNOTS('',4,(#1115,#1116,#1117,#1118,#1119),
  .UNSPECIFIED.,.F.,.F.,(5,5),(0.,1.),.PIECEWISE_BEZIER_KNOTS.);
#1115 = CARTESIAN_POINT('',(31.5,63.265840700511));
#1116 = CARTESIAN_POINT('',(29.25,63.265840700511));
#1117 = CARTESIAN_POINT('',(27.,63.265840700511));
#1118 = CARTESIAN_POINT('',(24.75,63.265840700511));
#1119 = CARTESIAN_POINT('',(22.5,63.265840700511));
#1120 = ( GEOMETRIC_REPRESENTATION_CONTEXT(2) 
PARAMETRIC_REPRESENTATION_CONTEXT() REPRESENTATION_CONTEXT('2D SPACE',''
  ) );
#1121 = ADVANCED_FACE('',(#1122,#1148),#467,.F.);
#1122 = FACE_BOUND('',#1123,.F.);
#1123 = EDGE_LOOP('',(#1124,#1125,#1126,#1147));
#1124 = ORIENTED_EDGE('',*,*,#1095,.F.);
#1125 = ORIENTED_EDGE('',*,*,#451,.T.);
#1126 = ORIENTED_EDGE('',*,*,#1127,.F.);
#1127 = EDGE_CURVE('',#639,#452,#1128,.T.);
#1128 = SURFACE_CURVE('',#1129,(#1133,#1140),.PCURVE_S1.);
#1129 = LINE('',#1130,#1131);
#1130 = CARTESIAN_POINT('',(-27.5,28.5,26.8));
#1131 = VECTOR('',#1132,1.);
#1132 = DIRECTION('',(1.,0.,0.));
#1133 = PCURVE('',#467,#1134);
#1134 = DEFINITIONAL_REPRESENTATION('',(#1135),#1139);
#1135 = LINE('',#1136,#1137);
#1136 = CARTESIAN_POINT('',(22.5,78.5));
#1137 = VECTOR('',#1138,1.);
#1138 = DIRECTION('',(1.,0.));
#1139 = ( GEOMETRIC_REPRESENTATION_CONTEXT(2) 
PARAMETRIC_REPRESENTATION_CONTEXT() REPRESENTATION_CONTEXT('2D SPACE',''
  ) );
#1140 = PCURVE('',#495,#1141);
#1141 = DEFINITIONAL_REPRESENTATION('',(#1142),#1146);
#1142 = LINE('',#1143,#1144);
#1143 = CARTESIAN_POINT('',(0.,0.));
#1144 = VECTOR('',#1145,1.);
#1145 = DIRECTION('',(0.,1.));
#1146 = ( GEOMETRIC_REPRESENTATION_CONTEXT(2) 
PARAMETRIC_REPRESENTATION_CONTEXT() REPRESENTATION_CONTEXT('2D SPACE',''
  ) );
#1147 = ORIENTED_EDGE('',*,*,#638,.T.);
#1148 = FACE_BOUND('',#1149,.F.);
#1149 = EDGE_LOOP('',(#1150));
#1150 = ORIENTED_EDGE('',*,*,#1151,.T.);
#1151 = EDGE_CURVE('',#1152,#1152,#1154,.T.);
#1152 = VERTEX_POINT('',#1153);
#1153 = CARTESIAN_POINT('',(-21.3,22.,26.8));
#1154 = SURFACE_CURVE('',#1155,(#1160,#1171),.PCURVE_S1.);
#1155 = CIRCLE('',#1156,1.7);
#1156 = AXIS2_PLACEMENT_3D('',#1157,#1158,#1159);
#1157 = CARTESIAN_POINT('',(-23.,22.,26.8));
#1158 = DIRECTION('',(0.,0.,-1.));
#1159 = DIRECTION('',(1.,0.,0.));
#1160 = PCURVE('',#467,#1161);
#1161 = DEFINITIONAL_REPRESENTATION('',(#1162),#1170);
#1162 = ( BOUNDED_CURVE() B_SPLINE_CURVE(2,(#1163,#1164,#1165,#1166,
#1167,#1168,#1169),.UNSPECIFIED.,.T.,.F.) B_SPLINE_CURVE_WITH_KNOTS((1,2
    ,2,2,2,1),(-2.094395102393,0.,2.094395102393,4.188790204786,
6.28318530718,8.377580409573),.UNSPECIFIED.) CURVE() 
GEOMETRIC_REPRESENTATION_ITEM() RATIONAL_B_SPLINE_CURVE((1.,0.5,1.,0.5,
1.,0.5,1.)) REPRESENTATION_ITEM('') );
#1163 = CARTESIAN_POINT('',(28.7,72.));
#1164 = CARTESIAN_POINT('',(28.7,69.055513627133));
#1165 = CARTESIAN_POINT('',(26.15,70.527756813566));
#1166 = CARTESIAN_POINT('',(23.6,72.));
#1167 = CARTESIAN_POINT('',(26.15,73.472243186434));
#1168 = CARTESIAN_POINT('',(28.7,74.944486372867));
#1169 = CARTESIAN_POINT('',(28.7,72.));
#1170 = ( GEOMETRIC_REPRESENTATION_CONTEXT(2) 
PARAMETRIC_REPRESENTATION_CONTEXT() REPRESENTATION_CONTEXT('2D SPACE',''
  ) );
#1171 = PCURVE('',#623,#1172);
#1172 = DEFINITIONAL_REPRESENTATION('',(#1173),#1177);
#1173 = LINE('',#1174,#1175);
#1174 = CARTESIAN_POINT('',(-6.28318530718,-0.8));
#1175 = VECTOR('',#1176,1.);
#1176 = DIRECTION('',(1.,-0.));
#1177 = ( GEOMETRIC_REPRESENTATION_CONTEXT(2) 
PARAMETRIC_REPRESENTATION_CONTEXT() REPRESENTATION_CONTEXT('2D SPACE',''
  ) );
#1178 = ADVANCED_FACE('',(#1179),#495,.T.);
#1179 = FACE_BOUND('',#1180,.T.);
#1180 = EDGE_LOOP('',(#1181,#1182,#1183,#1184));
#1181 = ORIENTED_EDGE('',*,*,#1127,.F.);
#1182 = ORIENTED_EDGE('',*,*,#663,.T.);
#1183 = ORIENTED_EDGE('',*,*,#579,.T.);
#1184 = ORIENTED_EDGE('',*,*,#479,.F.);
#1185 = ADVANCED_FACE('',(#1186),#623,.F.);
#1186 = FACE_BOUND('',#1187,.T.);
#1187 = EDGE_LOOP('',(#1188,#1189,#1210,#1211));
#1188 = ORIENTED_EDGE('',*,*,#1151,.T.);
#1189 = ORIENTED_EDGE('',*,*,#1190,.T.);
#1190 = EDGE_CURVE('',#1152,#603,#1191,.T.);
#1191 = SEAM_CURVE('',#1192,(#1196,#1203),.PCURVE_S1.);
#1192 = LINE('',#1193,#1194);
#1193 = CARTESIAN_POINT('',(-21.3,22.,26.));
#1194 = VECTOR('',#1195,1.);
#1195 = DIRECTION('',(0.,0.,1.));
#1196 = PCURVE('',#623,#1197);
#1197 = DEFINITIONAL_REPRESENTATION('',(#1198),#1202);
#1198 = LINE('',#1199,#1200);
#1199 = CARTESIAN_POINT('',(-6.28318530718,0.));
#1200 = VECTOR('',#1201,1.);
#1201 = DIRECTION('',(-0.,-1.));
#1202 = ( GEOMETRIC_REPRESENTATION_CONTEXT(2) 
PARAMETRIC_REPRESENTATION_CONTEXT() REPRESENTATION_CONTEXT('2D SPACE',''
  ) );
#1203 = PCURVE('',#623,#1204);
#1204 = DEFINITIONAL_REPRESENTATION('',(#1205),#1209);
#1205 = LINE('',#1206,#1207);
#1206 = CARTESIAN_POINT('',(-0.,0.));
#1207 = VECTOR('',#1208,1.);
#1208 = DIRECTION('',(-0.,-1.));
#1209 = ( GEOMETRIC_REPRESENTATION_CONTEXT(2) 
PARAMETRIC_REPRESENTATION_CONTEXT() REPRESENTATION_CONTEXT('2D SPACE',''
  ) );
#1210 = ORIENTED_EDGE('',*,*,#602,.F.);
#1211 = ORIENTED_EDGE('',*,*,#1190,.F.);
#1212 = ADVANCED_FACE('',(#1213),#987,.F.);
#1213 = FACE_BOUND('',#1214,.T.);
#1214 = EDGE_LOOP('',(#1215,#1216,#1237,#1238));
#1215 = ORIENTED_EDGE('',*,*,#1061,.T.);
#1216 = ORIENTED_EDGE('',*,*,#1217,.T.);
#1217 = EDGE_CURVE('',#1062,#967,#1218,.T.);
#1218 = SEAM_CURVE('',#1219,(#1223,#1230),.PCURVE_S1.);
#1219 = LINE('',#1220,#1221);
#1220 = CARTESIAN_POINT('',(-21.3,-22.,26.));
#1221 = VECTOR('',#1222,1.);
#1222 = DIRECTION('',(0.,0.,1.));
#1223 = PCURVE('',#987,#1224);
#1224 = DEFINITIONAL_REPRESENTATION('',(#1225),#1229);
#1225 = LINE('',#1226,#1227);
#1226 = CARTESIAN_POINT('',(-6.28318530718,0.));
#1227 = VECTOR('',#1228,1.);
#1228 = DIRECTION('',(-0.,-1.));
#1229 = ( GEOMETRIC_REPRESENTATION_CONTEXT(2) 
PARAMETRIC_REPRESENTATION_CONTEXT() REPRESENTATION_CONTEXT('2D SPACE',''
  ) );
#1230 = PCURVE('',#987,#1231);
#1231 = DEFINITIONAL_REPRESENTATION('',(#1232),#1236);
#1232 = LINE('',#1233,#1234);
#1233 = CARTESIAN_POINT('',(-0.,0.));
#1234 = VECTOR('',#1235,1.);
#1235 = DIRECTION('',(-0.,-1.));
#1236 = ( GEOMETRIC_REPRESENTATION_CONTEXT(2) 
PARAMETRIC_REPRESENTATION_CONTEXT() REPRESENTATION_CONTEXT('2D SPACE',''
  ) );
#1237 = ORIENTED_EDGE('',*,*,#966,.F.);
#1238 = ORIENTED_EDGE('',*,*,#1217,.F.);
#1239 = ( GEOMETRIC_REPRESENTATION_CONTEXT(3) 
GLOBAL_UNCERTAINTY_ASSIGNED_CONTEXT((#1243)) 
GLOBAL_UNIT_ASSIGNED_CONTEXT((#1240,#1241,#1242)) REPRESENTATION_CONTEXT
('Context #1','3D Context with UNIT and UNCERTAINTY') );
#1240 = ( LENGTH_UNIT() NAMED_UNIT(*) SI_UNIT(.MILLI.,.METRE.) );
#1241 = ( NAMED_UNIT(*) PLANE_ANGLE_UNIT() SI_UNIT($,.RADIAN.) );
#1242 = ( NAMED_UNIT(*) SI_UNIT($,.STERADIAN.) SOLID_ANGLE_UNIT() );
#1243 = UNCERTAINTY_MEASURE_WITH_UNIT(LENGTH_MEASURE(2.E-06),#1240,
  'distance_accuracy_value','confusion accuracy');
#1244 = PRODUCT_RELATED_PRODUCT_CATEGORY('part',$,(#7));
ENDSEC;
END-ISO-10303-21;
