ISO-10303-21;
HEADER;
FILE_DESCRIPTION(('Open CASCADE Model'),'2;1');
FILE_NAME('Open CASCADE Shape Model','2026-09-24T11:07:15',('Author'),(
    'Open CASCADE'),'Open CASCADE STEP processor 7.9','Open CASCADE 7.9'
  ,'Unknown');
FILE_SCHEMA(('AUTOMOTIVE_DESIGN { 1 0 10303 214 1 1 1 1 }'));
ENDSEC;
DATA;
#1 = APPLICATION_PROTOCOL_DEFINITION('international standard',
  'automotive_design',2000,#2);
#2 = APPLICATION_CONTEXT(
  'core data for automotive mechanical design processes');
#3 = SHAPE_DEFINITION_REPRESENTATION(#4,#10);
#4 = PRODUCT_DEFINITION_SHAPE('','',#5);
#5 = PRODUCT_DEFINITION('design','',#6,#9);
#6 = PRODUCT_DEFINITION_FORMATION('','',#7);
#7 = PRODUCT('Open CASCADE STEP translator 7.9 3',
  'Open CASCADE STEP translator 7.9 3','',(#8));
#8 = PRODUCT_CONTEXT('',#2,'mechanical');
#9 = PRODUCT_DEFINITION_CONTEXT('part definition',#2,'design');
#10 = ADVANCED_BREP_SHAPE_REPRESENTATION('',(#11,#15),#1239);
#11 = AXIS2_PLACEMENT_3D('',#12,#13,#14);
#12 = CARTESIAN_POINT('',(0.,0.,0.));
#13 = DIRECTION('',(0.,0.,1.));
#14 = DIRECTION('',(1.,0.,-0.));
#15 = MANIFOLD_SOLID_BREP('',#16);
#16 = CLOSED_SHELL('',(#17,#198,#550,#634,#936,#998,#1081,#1088,#1115,
    #1178,#1185,#1212));
#17 = ADVANCED_FACE('',(#18),#33,.F.);
#18 = FACE_BOUND('',#19,.F.);
#19 = EDGE_LOOP('',(#20,#58,#81,#115,#143,#166));
#20 = ORIENTED_EDGE('',*,*,#21,.F.);
#21 = EDGE_CURVE('',#22,#24,#26,.T.);
#22 = VERTEX_POINT('',#23);
#23 = CARTESIAN_POINT('',(18.5,1.943766784956E-15,43.507894736842));
#24 = VERTEX_POINT('',#25);
#25 = CARTESIAN_POINT('',(18.5,-15.73961687953,31.8));
#26 = SURFACE_CURVE('',#27,(#32,#46),.PCURVE_S1.);
#27 = ELLIPSE('',#28,17.507894736842,16.681578947368);
#28 = AXIS2_PLACEMENT_3D('',#29,#30,#31);
#29 = CARTESIAN_POINT('',(18.5,0.,26.));
#30 = DIRECTION('',(1.,0.,-0.));
#31 = DIRECTION('',(0.,1.110223024625E-16,1.));
#32 = PCURVE('',#33,#41);
#33 = SURFACE_OF_LINEAR_EXTRUSION('',#34,#39);
#34 = ELLIPSE('',#35,17.507894736842,16.681578947368);
#35 = AXIS2_PLACEMENT_3D('',#36,#37,#38);
#36 = CARTESIAN_POINT('',(18.5,0.,26.));
#37 = DIRECTION('',(1.,0.,-0.));
#38 = DIRECTION('',(0.,1.110223024625E-16,1.));
#39 = VECTOR('',#40,1.);
#40 = DIRECTION('',(-1.,-0.,-0.));
#41 = DEFINITIONAL_REPRESENTATION('',(#42),#45);
#42 = B_SPLINE_CURVE_WITH_KNOTS('',1,(#43,#44),.UNSPECIFIED.,.F.,.F.,(2,
    2),(0.,1.525086739084),.PIECEWISE_BEZIER_KNOTS.);
#43 = CARTESIAN_POINT('',(6.28318530718,0.));
#44 = CARTESIAN_POINT('',(7.808272046263,0.));
#45 = ( GEOMETRIC_REPRESENTATION_CONTEXT(2) 
PARAMETRIC_REPRESENTATION_CONTEXT() REPRESENTATION_CONTEXT('2D SPACE',''
  ) );
#46 = PCURVE('',#47,#52);
#47 = PLANE('',#48);
#48 = AXIS2_PLACEMENT_3D('',#49,#50,#51);
#49 = CARTESIAN_POINT('',(18.5,-2.625415892908E-16,26.106401974852));
#50 = DIRECTION('',(1.,0.,0.));
#51 = DIRECTION('',(-0.,0.,1.));
#52 = DEFINITIONAL_REPRESENTATION('',(#53),#57);
#53 = ELLIPSE('',#54,17.507894736842,16.681578947368);
#54 = AXIS2_PLACEMENT_2D('',#55,#56);
#55 = CARTESIAN_POINT('',(-0.106401974852,-2.625415892908E-16));
#56 = DIRECTION('',(1.,-1.110223024625E-16));
#57 = ( GEOMETRIC_REPRESENTATION_CONTEXT(2) 
PARAMETRIC_REPRESENTATION_CONTEXT() REPRESENTATION_CONTEXT('2D SPACE',''
  ) );
#58 = ORIENTED_EDGE('',*,*,#59,.F.);
#59 = EDGE_CURVE('',#60,#22,#62,.T.);
#60 = VERTEX_POINT('',#61);
#61 = CARTESIAN_POINT('',(18.5,15.739616879532,31.8));
#62 = SURFACE_CURVE('',#63,(#68,#74),.PCURVE_S1.);
#63 = ELLIPSE('',#64,17.507894736842,16.681578947368);
#64 = AXIS2_PLACEMENT_3D('',#65,#66,#67);
#65 = CARTESIAN_POINT('',(18.5,0.,26.));
#66 = DIRECTION('',(1.,0.,-0.));
#67 = DIRECTION('',(0.,1.110223024625E-16,1.));
#68 = PCURVE('',#33,#69);
#69 = DEFINITIONAL_REPRESENTATION('',(#70),#73);
#70 = B_SPLINE_CURVE_WITH_KNOTS('',1,(#71,#72),.UNSPECIFIED.,.F.,.F.,(2,
    2),(4.758098568096,6.28318530718),.PIECEWISE_BEZIER_KNOTS.);
#71 = CARTESIAN_POINT('',(4.758098568096,0.));
#72 = CARTESIAN_POINT('',(6.28318530718,0.));
#73 = ( GEOMETRIC_REPRESENTATION_CONTEXT(2) 
PARAMETRIC_REPRESENTATION_CONTEXT() REPRESENTATION_CONTEXT('2D SPACE',''
  ) );
#74 = PCURVE('',#47,#75);
#75 = DEFINITIONAL_REPRESENTATION('',(#76),#80);
#76 = ELLIPSE('',#77,17.507894736842,16.681578947368);
#77 = AXIS2_PLACEMENT_2D('',#78,#79);
#78 = CARTESIAN_POINT('',(-0.106401974852,-2.625415892908E-16));
#79 = DIRECTION('',(1.,-1.110223024625E-16));
#80 = ( GEOMETRIC_REPRESENTATION_CONTEXT(2) 
PARAMETRIC_REPRESENTATION_CONTEXT() REPRESENTATION_CONTEXT('2D SPACE',''
  ) );
#81 = ORIENTED_EDGE('',*,*,#82,.F.);
#82 = EDGE_CURVE('',#83,#60,#85,.T.);
#83 = VERTEX_POINT('',#84);
#84 = CARTESIAN_POINT('',(27.5,15.739616879532,31.8));
#85 = SURFACE_CURVE('',#86,(#92,#101),.PCURVE_S1.);
#86 = B_SPLINE_CURVE_WITH_KNOTS('',4,(#87,#88,#89,#90,#91),
  .UNSPECIFIED.,.F.,.F.,(5,5),(0.,1.),.PIECEWISE_BEZIER_KNOTS.);
#87 = CARTESIAN_POINT('',(27.5,15.739616879533,31.8));
#88 = CARTESIAN_POINT('',(25.250000000225,15.739616879533,31.8));
#89 = CARTESIAN_POINT('',(22.999999999981,15.739616879533,31.8));
#90 = CARTESIAN_POINT('',(20.749999999775,15.739616879533,31.8));
#91 = CARTESIAN_POINT('',(18.5,15.739616879533,31.8));
#92 = PCURVE('',#33,#93);
#93 = DEFINITIONAL_REPRESENTATION('',(#94),#100);
#94 = B_SPLINE_CURVE_WITH_KNOTS('',4,(#95,#96,#97,#98,#99),
  .UNSPECIFIED.,.F.,.F.,(5,5),(0.,1.),.PIECEWISE_BEZIER_KNOTS.);
#95 = CARTESIAN_POINT('',(5.050047906743,-8.9999999991));
#96 = CARTESIAN_POINT('',(5.050047906743,-6.749999999325));
#97 = CARTESIAN_POINT('',(5.050047906743,-4.500000000019));
#98 = CARTESIAN_POINT('',(5.050047906743,-2.250000000675));
#99 = CARTESIAN_POINT('',(5.050047906743,-8.999396783338E-10));
#100 = ( GEOMETRIC_REPRESENTATION_CONTEXT(2) 
PARAMETRIC_REPRESENTATION_CONTEXT() REPRESENTATION_CONTEXT('2D SPACE',''
  ) );
#101 = PCURVE('',#102,#107);
#102 = PLANE('',#103);
#103 = AXIS2_PLACEMENT_3D('',#104,#105,#106);
#104 = CARTESIAN_POINT('',(18.5,15.5,31.8));
#105 = DIRECTION('',(0.,0.,1.));
#106 = DIRECTION('',(1.,0.,0.));
#107 = DEFINITIONAL_REPRESENTATION('',(#108),#114);
#108 = B_SPLINE_CURVE_WITH_KNOTS('',4,(#109,#110,#111,#112,#113),
  .UNSPECIFIED.,.F.,.F.,(5,5),(0.,1.),.PIECEWISE_BEZIER_KNOTS.);
#109 = CARTESIAN_POINT('',(9.,0.239616879533));
#110 = CARTESIAN_POINT('',(6.750000000225,0.239616879533));
#111 = CARTESIAN_POINT('',(4.499999999981,0.239616879533));
#112 = CARTESIAN_POINT('',(2.249999999775,0.239616879533));
#113 = CARTESIAN_POINT('',(0.,0.239616879533));
#114 = ( GEOMETRIC_REPRESENTATION_CONTEXT(2) 
PARAMETRIC_REPRESENTATION_CONTEXT() REPRESENTATION_CONTEXT('2D SPACE',''
  ) );
#115 = ORIENTED_EDGE('',*,*,#116,.T.);
#116 = EDGE_CURVE('',#83,#117,#119,.T.);
#117 = VERTEX_POINT('',#118);
#118 = CARTESIAN_POINT('',(27.5,1.943766784956E-15,43.507894736842));
#119 = SURFACE_CURVE('',#120,(#125,#131),.PCURVE_S1.);
#120 = ELLIPSE('',#121,17.507894736842,16.681578947368);
#121 = AXIS2_PLACEMENT_3D('',#122,#123,#124);
#122 = CARTESIAN_POINT('',(27.5,0.,26.));
#123 = DIRECTION('',(1.,0.,-0.));
#124 = DIRECTION('',(0.,1.110223024625E-16,1.));
#125 = PCURVE('',#33,#126);
#126 = DEFINITIONAL_REPRESENTATION('',(#127),#130);
#127 = B_SPLINE_CURVE_WITH_KNOTS('',1,(#128,#129),.UNSPECIFIED.,.F.,.F.,
  (2,2),(4.758098568096,6.28318530718),.PIECEWISE_BEZIER_KNOTS.);
#128 = CARTESIAN_POINT('',(4.758098568096,-9.));
#129 = CARTESIAN_POINT('',(6.28318530718,-9.));
#130 = ( GEOMETRIC_REPRESENTATION_CONTEXT(2) 
PARAMETRIC_REPRESENTATION_CONTEXT() REPRESENTATION_CONTEXT('2D SPACE',''
  ) );
#131 = PCURVE('',#132,#137);
#132 = PLANE('',#133);
#133 = AXIS2_PLACEMENT_3D('',#134,#135,#136);
#134 = CARTESIAN_POINT('',(27.5,-2.625415892908E-16,26.106401974852));
#135 = DIRECTION('',(1.,0.,0.));
#136 = DIRECTION('',(-0.,0.,1.));
#137 = DEFINITIONAL_REPRESENTATION('',(#138),#142);
#138 = ELLIPSE('',#139,17.507894736842,16.681578947368);
#139 = AXIS2_PLACEMENT_2D('',#140,#141);
#140 = CARTESIAN_POINT('',(-0.106401974852,-2.625415892908E-16));
#141 = DIRECTION('',(1.,-1.110223024625E-16));
#142 = ( GEOMETRIC_REPRESENTATION_CONTEXT(2) 
PARAMETRIC_REPRESENTATION_CONTEXT() REPRESENTATION_CONTEXT('2D SPACE',''
  ) );
#143 = ORIENTED_EDGE('',*,*,#144,.T.);
#144 = EDGE_CURVE('',#117,#145,#147,.T.);
#145 = VERTEX_POINT('',#146);
#146 = CARTESIAN_POINT('',(27.5,-15.73961687953,31.8));
#147 = SURFACE_CURVE('',#148,(#153,#159),.PCURVE_S1.);
#148 = ELLIPSE('',#149,17.507894736842,16.681578947368);
#149 = AXIS2_PLACEMENT_3D('',#150,#151,#152);
#150 = CARTESIAN_POINT('',(27.5,0.,26.));
#151 = DIRECTION('',(1.,0.,-0.));
#152 = DIRECTION('',(0.,1.110223024625E-16,1.));
#153 = PCURVE('',#33,#154);
#154 = DEFINITIONAL_REPRESENTATION('',(#155),#158);
#155 = B_SPLINE_CURVE_WITH_KNOTS('',1,(#156,#157),.UNSPECIFIED.,.F.,.F.,
  (2,2),(0.,1.525086739084),.PIECEWISE_BEZIER_KNOTS.);
#156 = CARTESIAN_POINT('',(6.28318530718,-9.));
#157 = CARTESIAN_POINT('',(7.808272046263,-9.));
#158 = ( GEOMETRIC_REPRESENTATION_CONTEXT(2) 
PARAMETRIC_REPRESENTATION_CONTEXT() REPRESENTATION_CONTEXT('2D SPACE',''
  ) );
#159 = PCURVE('',#132,#160);
#160 = DEFINITIONAL_REPRESENTATION('',(#161),#165);
#161 = ELLIPSE('',#162,17.507894736842,16.681578947368);
#162 = AXIS2_PLACEMENT_2D('',#163,#164);
#163 = CARTESIAN_POINT('',(-0.106401974852,-2.625415892908E-16));
#164 = DIRECTION('',(1.,-1.110223024625E-16));
#165 = ( GEOMETRIC_REPRESENTATION_CONTEXT(2) 
PARAMETRIC_REPRESENTATION_CONTEXT() REPRESENTATION_CONTEXT('2D SPACE',''
  ) );
#166 = ORIENTED_EDGE('',*,*,#167,.T.);
#167 = EDGE_CURVE('',#145,#24,#168,.T.);
#168 = SURFACE_CURVE('',#169,(#175,#184),.PCURVE_S1.);
#169 = B_SPLINE_CURVE_WITH_KNOTS('',4,(#170,#171,#172,#173,#174),
  .UNSPECIFIED.,.F.,.F.,(5,5),(0.,1.),.PIECEWISE_BEZIER_KNOTS.);
#170 = CARTESIAN_POINT('',(27.5,-15.73961687953,31.8));
#171 = CARTESIAN_POINT('',(25.250000000225,-15.73961687953,31.8));
#172 = CARTESIAN_POINT('',(22.999999999981,-15.73961687953,31.8));
#173 = CARTESIAN_POINT('',(20.749999999775,-15.73961687953,31.8));
#174 = CARTESIAN_POINT('',(18.5,-15.73961687953,31.8));
#175 = PCURVE('',#33,#176);
#176 = DEFINITIONAL_REPRESENTATION('',(#177),#183);
#177 = B_SPLINE_CURVE_WITH_KNOTS('',4,(#178,#179,#180,#181,#182),
  .UNSPECIFIED.,.F.,.F.,(5,5),(0.,1.),.PIECEWISE_BEZIER_KNOTS.);
#178 = CARTESIAN_POINT('',(7.516322707616,-8.9999999991));
#179 = CARTESIAN_POINT('',(7.516322707616,-6.749999999325));
#180 = CARTESIAN_POINT('',(7.516322707616,-4.500000000019));
#181 = CARTESIAN_POINT('',(7.516322707616,-2.250000000675));
#182 = CARTESIAN_POINT('',(7.516322707616,-8.999396783338E-10));
#183 = ( GEOMETRIC_REPRESENTATION_CONTEXT(2) 
PARAMETRIC_REPRESENTATION_CONTEXT() REPRESENTATION_CONTEXT('2D SPACE',''
  ) );
#184 = PCURVE('',#185,#190);
#185 = PLANE('',#186);
#186 = AXIS2_PLACEMENT_3D('',#187,#188,#189);
#187 = CARTESIAN_POINT('',(18.5,-28.5,31.8));
#188 = DIRECTION('',(0.,0.,1.));
#189 = DIRECTION('',(1.,0.,0.));
#190 = DEFINITIONAL_REPRESENTATION('',(#191),#197);
#191 = B_SPLINE_CURVE_WITH_KNOTS('',4,(#192,#193,#194,#195,#196),
  .UNSPECIFIED.,.F.,.F.,(5,5),(0.,1.),.PIECEWISE_BEZIER_KNOTS.);
#192 = CARTESIAN_POINT('',(9.,12.760383120467));
#193 = CARTESIAN_POINT('',(6.750000000225,12.760383120467));
#194 = CARTESIAN_POINT('',(4.499999999981,12.760383120467));
#195 = CARTESIAN_POINT('',(2.249999999775,12.760383120467));
#196 = CARTESIAN_POINT('',(0.,12.760383120467));
#197 = ( GEOMETRIC_REPRESENTATION_CONTEXT(2) 
PARAMETRIC_REPRESENTATION_CONTEXT() REPRESENTATION_CONTEXT('2D SPACE',''
  ) );
#198 = ADVANCED_FACE('',(#199),#47,.F.);
#199 = FACE_BOUND('',#200,.F.);
#200 = EDGE_LOOP('',(#201,#231,#259,#280,#281,#282,#305,#333,#361));
#201 = ORIENTED_EDGE('',*,*,#202,.F.);
#202 = EDGE_CURVE('',#203,#205,#207,.T.);
#203 = VERTEX_POINT('',#204);
#204 = CARTESIAN_POINT('',(18.5,28.5,26.8));
#205 = VERTEX_POINT('',#206);
#206 = CARTESIAN_POINT('',(18.5,12.659318735032,26.8));
#207 = SURFACE_CURVE('',#208,(#212,#219),.PCURVE_S1.);
#208 = LINE('',#209,#210);
#209 = CARTESIAN_POINT('',(18.5,28.5,26.8));
#210 = VECTOR('',#211,1.);
#211 = DIRECTION('',(0.,-1.,0.));
#212 = PCURVE('',#47,#213);
#213 = DEFINITIONAL_REPRESENTATION('',(#214),#218);
#214 = LINE('',#215,#216);
#215 = CARTESIAN_POINT('',(0.693598025148,-28.5));
#216 = VECTOR('',#217,1.);
#217 = DIRECTION('',(0.,1.));
#218 = ( GEOMETRIC_REPRESENTATION_CONTEXT(2) 
PARAMETRIC_REPRESENTATION_CONTEXT() REPRESENTATION_CONTEXT('2D SPACE',''
  ) );
#219 = PCURVE('',#220,#225);
#220 = PLANE('',#221);
#221 = AXIS2_PLACEMENT_3D('',#222,#223,#224);
#222 = CARTESIAN_POINT('',(-50.,-50.,26.8));
#223 = DIRECTION('',(0.,0.,1.));
#224 = DIRECTION('',(1.,0.,0.));
#225 = DEFINITIONAL_REPRESENTATION('',(#226),#230);
#226 = LINE('',#227,#228);
#227 = CARTESIAN_POINT('',(68.5,78.5));
#228 = VECTOR('',#229,1.);
#229 = DIRECTION('',(0.,-1.));
#230 = ( GEOMETRIC_REPRESENTATION_CONTEXT(2) 
PARAMETRIC_REPRESENTATION_CONTEXT() REPRESENTATION_CONTEXT('2D SPACE',''
  ) );
#231 = ORIENTED_EDGE('',*,*,#232,.T.);
#232 = EDGE_CURVE('',#203,#233,#235,.T.);
#233 = VERTEX_POINT('',#234);
#234 = CARTESIAN_POINT('',(18.5,28.5,31.8));
#235 = SURFACE_CURVE('',#236,(#240,#247),.PCURVE_S1.);
#236 = LINE('',#237,#238);
#237 = CARTESIAN_POINT('',(18.5,28.5,26.8));
#238 = VECTOR('',#239,1.);
#239 = DIRECTION('',(0.,0.,1.));
#240 = PCURVE('',#47,#241);
#241 = DEFINITIONAL_REPRESENTATION('',(#242),#246);
#242 = LINE('',#243,#244);
#243 = CARTESIAN_POINT('',(0.693598025148,-28.5));
#244 = VECTOR('',#245,1.);
#245 = DIRECTION('',(1.,0.));
#246 = ( GEOMETRIC_REPRESENTATION_CONTEXT(2) 
PARAMETRIC_REPRESENTATION_CONTEXT() REPRESENTATION_CONTEXT('2D SPACE',''
  ) );
#247 = PCURVE('',#248,#253);
#248 = PLANE('',#249);
#249 = AXIS2_PLACEMENT_3D('',#250,#251,#252);
#250 = CARTESIAN_POINT('',(18.5,28.5,26.8));
#251 = DIRECTION('',(0.,1.,0.));
#252 = DIRECTION('',(0.,0.,1.));
#253 = DEFINITIONAL_REPRESENTATION('',(#254),#258);
#254 = LINE('',#255,#256);
#255 = CARTESIAN_POINT('',(0.,0.));
#256 = VECTOR('',#257,1.);
#257 = DIRECTION('',(1.,0.));
#258 = ( GEOMETRIC_REPRESENTATION_CONTEXT(2) 
PARAMETRIC_REPRESENTATION_CONTEXT() REPRESENTATION_CONTEXT('2D SPACE',''
  ) );
#259 = ORIENTED_EDGE('',*,*,#260,.F.);
#260 = EDGE_CURVE('',#60,#233,#261,.T.);
#261 = SURFACE_CURVE('',#262,(#266,#273),.PCURVE_S1.);
#262 = LINE('',#263,#264);
#263 = CARTESIAN_POINT('',(18.5,15.5,31.8));
#264 = VECTOR('',#265,1.);
#265 = DIRECTION('',(0.,1.,0.));
#266 = PCURVE('',#47,#267);
#267 = DEFINITIONAL_REPRESENTATION('',(#268),#272);
#268 = LINE('',#269,#270);
#269 = CARTESIAN_POINT('',(5.693598025148,-15.5));
#270 = VECTOR('',#271,1.);
#271 = DIRECTION('',(0.,-1.));
#272 = ( GEOMETRIC_REPRESENTATION_CONTEXT(2) 
PARAMETRIC_REPRESENTATION_CONTEXT() REPRESENTATION_CONTEXT('2D SPACE',''
  ) );
#273 = PCURVE('',#102,#274);
#274 = DEFINITIONAL_REPRESENTATION('',(#275),#279);
#275 = LINE('',#276,#277);
#276 = CARTESIAN_POINT('',(0.,0.));
#277 = VECTOR('',#278,1.);
#278 = DIRECTION('',(0.,1.));
#279 = ( GEOMETRIC_REPRESENTATION_CONTEXT(2) 
PARAMETRIC_REPRESENTATION_CONTEXT() REPRESENTATION_CONTEXT('2D SPACE',''
  ) );
#280 = ORIENTED_EDGE('',*,*,#59,.T.);
#281 = ORIENTED_EDGE('',*,*,#21,.T.);
#282 = ORIENTED_EDGE('',*,*,#283,.F.);
#283 = EDGE_CURVE('',#284,#24,#286,.T.);
#284 = VERTEX_POINT('',#285);
#285 = CARTESIAN_POINT('',(18.5,-28.5,31.8));
#286 = SURFACE_CURVE('',#287,(#291,#298),.PCURVE_S1.);
#287 = LINE('',#288,#289);
#288 = CARTESIAN_POINT('',(18.5,-28.5,31.8));
#289 = VECTOR('',#290,1.);
#290 = DIRECTION('',(0.,1.,0.));
#291 = PCURVE('',#47,#292);
#292 = DEFINITIONAL_REPRESENTATION('',(#293),#297);
#293 = LINE('',#294,#295);
#294 = CARTESIAN_POINT('',(5.693598025148,28.5));
#295 = VECTOR('',#296,1.);
#296 = DIRECTION('',(0.,-1.));
#297 = ( GEOMETRIC_REPRESENTATION_CONTEXT(2) 
PARAMETRIC_REPRESENTATION_CONTEXT() REPRESENTATION_CONTEXT('2D SPACE',''
  ) );
#298 = PCURVE('',#185,#299);
#299 = DEFINITIONAL_REPRESENTATION('',(#300),#304);
#300 = LINE('',#301,#302);
#301 = CARTESIAN_POINT('',(0.,0.));
#302 = VECTOR('',#303,1.);
#303 = DIRECTION('',(0.,1.));
#304 = ( GEOMETRIC_REPRESENTATION_CONTEXT(2) 
PARAMETRIC_REPRESENTATION_CONTEXT() REPRESENTATION_CONTEXT('2D SPACE',''
  ) );
#305 = ORIENTED_EDGE('',*,*,#306,.F.);
#306 = EDGE_CURVE('',#307,#284,#309,.T.);
#307 = VERTEX_POINT('',#308);
#308 = CARTESIAN_POINT('',(18.5,-28.5,26.8));
#309 = SURFACE_CURVE('',#310,(#314,#321),.PCURVE_S1.);
#310 = LINE('',#311,#312);
#311 = CARTESIAN_POINT('',(18.5,-28.5,26.8));
#312 = VECTOR('',#313,1.);
#313 = DIRECTION('',(0.,0.,1.));
#314 = PCURVE('',#47,#315);
#315 = DEFINITIONAL_REPRESENTATION('',(#316),#320);
#316 = LINE('',#317,#318);
#317 = CARTESIAN_POINT('',(0.693598025148,28.5));
#318 = VECTOR('',#319,1.);
#319 = DIRECTION('',(1.,0.));
#320 = ( GEOMETRIC_REPRESENTATION_CONTEXT(2) 
PARAMETRIC_REPRESENTATION_CONTEXT() REPRESENTATION_CONTEXT('2D SPACE',''
  ) );
#321 = PCURVE('',#322,#327);
#322 = PLANE('',#323);
#323 = AXIS2_PLACEMENT_3D('',#324,#325,#326);
#324 = CARTESIAN_POINT('',(18.5,-28.5,26.8));
#325 = DIRECTION('',(0.,1.,0.));
#326 = DIRECTION('',(0.,0.,1.));
#327 = DEFINITIONAL_REPRESENTATION('',(#328),#332);
#328 = LINE('',#329,#330);
#329 = CARTESIAN_POINT('',(0.,0.));
#330 = VECTOR('',#331,1.);
#331 = DIRECTION('',(1.,0.));
#332 = ( GEOMETRIC_REPRESENTATION_CONTEXT(2) 
PARAMETRIC_REPRESENTATION_CONTEXT() REPRESENTATION_CONTEXT('2D SPACE',''
  ) );
#333 = ORIENTED_EDGE('',*,*,#334,.F.);
#334 = EDGE_CURVE('',#335,#307,#337,.T.);
#335 = VERTEX_POINT('',#336);
#336 = CARTESIAN_POINT('',(18.5,-12.65931873503,26.8));
#337 = SURFACE_CURVE('',#338,(#342,#349),.PCURVE_S1.);
#338 = LINE('',#339,#340);
#339 = CARTESIAN_POINT('',(18.5,28.5,26.8));
#340 = VECTOR('',#341,1.);
#341 = DIRECTION('',(0.,-1.,0.));
#342 = PCURVE('',#47,#343);
#343 = DEFINITIONAL_REPRESENTATION('',(#344),#348);
#344 = LINE('',#345,#346);
#345 = CARTESIAN_POINT('',(0.693598025148,-28.5));
#346 = VECTOR('',#347,1.);
#347 = DIRECTION('',(0.,1.));
#348 = ( GEOMETRIC_REPRESENTATION_CONTEXT(2) 
PARAMETRIC_REPRESENTATION_CONTEXT() REPRESENTATION_CONTEXT('2D SPACE',''
  ) );
#349 = PCURVE('',#350,#355);
#350 = PLANE('',#351);
#351 = AXIS2_PLACEMENT_3D('',#352,#353,#354);
#352 = CARTESIAN_POINT('',(-50.,-50.,26.8));
#353 = DIRECTION('',(0.,0.,1.));
#354 = DIRECTION('',(1.,0.,0.));
#355 = DEFINITIONAL_REPRESENTATION('',(#356),#360);
#356 = LINE('',#357,#358);
#357 = CARTESIAN_POINT('',(68.5,78.5));
#358 = VECTOR('',#359,1.);
#359 = DIRECTION('',(0.,-1.));
#360 = ( GEOMETRIC_REPRESENTATION_CONTEXT(2) 
PARAMETRIC_REPRESENTATION_CONTEXT() REPRESENTATION_CONTEXT('2D SPACE',''
  ) );
#361 = ORIENTED_EDGE('',*,*,#362,.F.);
#362 = EDGE_CURVE('',#205,#335,#363,.T.);
#363 = SURFACE_CURVE('',#364,(#415,#469),.PCURVE_S1.);
#364 = B_SPLINE_CURVE_WITH_KNOTS('',7,(#365,#366,#367,#368,#369,#370,
    #371,#372,#373,#374,#375,#376,#377,#378,#379,#380,#381,#382,#383,
    #384,#385,#386,#387,#388,#389,#390,#391,#392,#393,#394,#395,#396,
    #397,#398,#399,#400,#401,#402,#403,#404,#405,#406,#407,#408,#409,
    #410,#411,#412,#413,#414),.UNSPECIFIED.,.F.,.F.,(8,6,6,6,6,6,6,6,8),
  (0.,0.339268537252,0.515126365107,0.684070212938,1.,1.315929787062,
    1.484873634892,1.660731462747,2.),.UNSPECIFIED.);
#365 = CARTESIAN_POINT('',(18.5,12.659318735032,26.8));
#366 = CARTESIAN_POINT('',(18.5,12.606014485543,27.756997617361));
#367 = CARTESIAN_POINT('',(18.5,12.478288042415,28.709836642301));
#368 = CARTESIAN_POINT('',(18.5,12.276368662387,29.651608554742));
#369 = CARTESIAN_POINT('',(18.5,12.00096765597,30.575284418486));
#370 = CARTESIAN_POINT('',(18.5,11.653346592262,31.473730606434));
#371 = CARTESIAN_POINT('',(18.5,11.235420300511,32.339741510232));
#372 = CARTESIAN_POINT('',(18.5,10.498225345568,33.594421660884));
#373 = CARTESIAN_POINT('',(18.5,10.228401698808,34.01208312032));
#374 = CARTESIAN_POINT('',(18.5,9.940812048135,34.418055136863));
#375 = CARTESIAN_POINT('',(18.5,9.635906137378,34.811316822739));
#376 = CARTESIAN_POINT('',(18.5,9.314203363356,35.190851601668));
#377 = CARTESIAN_POINT('',(18.5,8.976301005056,35.555653932358));
#378 = CARTESIAN_POINT('',(18.5,8.28335881122,36.240093711793));
#379 = CARTESIAN_POINT('',(18.5,7.929510320825,36.560947509418));
#380 = CARTESIAN_POINT('',(18.5,7.561949392246,36.86641699389));
#381 = CARTESIAN_POINT('',(18.5,7.181354275813,37.155646356102));
#382 = CARTESIAN_POINT('',(18.5,6.788475498618,37.427813554904));
#383 = CARTESIAN_POINT('',(18.5,6.384142301596,37.682139463181));
#384 = CARTESIAN_POINT('',(18.5,5.193444379115,38.358770320412));
#385 = CARTESIAN_POINT('',(18.5,4.38047315776,38.734874861645));
#386 = CARTESIAN_POINT('',(18.5,3.536683734418,39.041157251475));
#387 = CARTESIAN_POINT('',(18.5,2.668996735925,39.273750898301));
#388 = CARTESIAN_POINT('',(18.5,1.784869999043,39.429871153108));
#389 = CARTESIAN_POINT('',(18.5,0.892314784638,39.507894736842));
#390 = CARTESIAN_POINT('',(18.5,-0.892314784637,39.507894736842));
#391 = CARTESIAN_POINT('',(18.5,-1.784869999049,39.429871153106));
#392 = CARTESIAN_POINT('',(18.5,-2.668996735916,39.273750898305));
#393 = CARTESIAN_POINT('',(18.5,-3.536683734429,39.041157251469));
#394 = CARTESIAN_POINT('',(18.5,-4.380473157755,38.734874861648));
#395 = CARTESIAN_POINT('',(18.5,-5.193444379118,38.35877032041));
#396 = CARTESIAN_POINT('',(18.5,-6.384142301598,37.68213946318));
#397 = CARTESIAN_POINT('',(18.5,-6.78847549862,37.427813554903));
#398 = CARTESIAN_POINT('',(18.5,-7.181354275814,37.155646356101));
#399 = CARTESIAN_POINT('',(18.5,-7.561949392248,36.866416993889));
#400 = CARTESIAN_POINT('',(18.5,-7.929510320826,36.560947509417));
#401 = CARTESIAN_POINT('',(18.5,-8.283358811222,36.240093711791));
#402 = CARTESIAN_POINT('',(18.5,-8.976301005058,35.555653932356));
#403 = CARTESIAN_POINT('',(18.5,-9.314203363358,35.190851601666));
#404 = CARTESIAN_POINT('',(18.5,-9.635906137379,34.811316822737));
#405 = CARTESIAN_POINT('',(18.5,-9.940812048137,34.418055136861));
#406 = CARTESIAN_POINT('',(18.5,-10.22840169881,34.012083120318));
#407 = CARTESIAN_POINT('',(18.5,-10.49822534556,33.594421660882));
#408 = CARTESIAN_POINT('',(18.5,-11.23542030051,32.33974151023));
#409 = CARTESIAN_POINT('',(18.5,-11.65334659226,31.473730606432));
#410 = CARTESIAN_POINT('',(18.5,-12.00096765597,30.575284418485));
#411 = CARTESIAN_POINT('',(18.5,-12.27636866238,29.651608554741));
#412 = CARTESIAN_POINT('',(18.5,-12.47828804241,28.7098366423));
#413 = CARTESIAN_POINT('',(18.5,-12.60601448554,27.756997617361));
#414 = CARTESIAN_POINT('',(18.5,-12.65931873503,26.8));
#415 = PCURVE('',#47,#416);
#416 = DEFINITIONAL_REPRESENTATION('',(#417),#468);
#417 = B_SPLINE_CURVE_WITH_KNOTS('',7,(#418,#419,#420,#421,#422,#423,
    #424,#425,#426,#427,#428,#429,#430,#431,#432,#433,#434,#435,#436,
    #437,#438,#439,#440,#441,#442,#443,#444,#445,#446,#447,#448,#449,
    #450,#451,#452,#453,#454,#455,#456,#457,#458,#459,#460,#461,#462,
    #463,#464,#465,#466,#467),.UNSPECIFIED.,.F.,.F.,(8,6,6,6,6,6,6,6,8),
  (0.,0.339268537252,0.515126365107,0.684070212938,1.,1.315929787062,
    1.484873634892,1.660731462747,2.),.UNSPECIFIED.);
#418 = CARTESIAN_POINT('',(0.693598025148,-12.65931873503));
#419 = CARTESIAN_POINT('',(1.650595642509,-12.60601448554));
#420 = CARTESIAN_POINT('',(2.603434667448,-12.47828804241));
#421 = CARTESIAN_POINT('',(3.54520657989,-12.27636866238));
#422 = CARTESIAN_POINT('',(4.468882443634,-12.00096765597));
#423 = CARTESIAN_POINT('',(5.367328631582,-11.65334659226));
#424 = CARTESIAN_POINT('',(6.233339535379,-11.23542030051));
#425 = CARTESIAN_POINT('',(7.488019686032,-10.49822534556));
#426 = CARTESIAN_POINT('',(7.905681145467,-10.2284016988));
#427 = CARTESIAN_POINT('',(8.311653162011,-9.940812048135));
#428 = CARTESIAN_POINT('',(8.704914847887,-9.635906137378));
#429 = CARTESIAN_POINT('',(9.084449626815,-9.314203363356));
#430 = CARTESIAN_POINT('',(9.449251957506,-8.976301005056));
#431 = CARTESIAN_POINT('',(10.13369173694,-8.28335881122));
#432 = CARTESIAN_POINT('',(10.454545534566,-7.929510320825));
#433 = CARTESIAN_POINT('',(10.760015019037,-7.561949392246));
#434 = CARTESIAN_POINT('',(11.049244381249,-7.181354275813));
#435 = CARTESIAN_POINT('',(11.321411580052,-6.788475498618));
#436 = CARTESIAN_POINT('',(11.575737488329,-6.384142301596));
#437 = CARTESIAN_POINT('',(12.252368345559,-5.193444379115));
#438 = CARTESIAN_POINT('',(12.628472886792,-4.38047315776));
#439 = CARTESIAN_POINT('',(12.934755276622,-3.536683734418));
#440 = CARTESIAN_POINT('',(13.167348923449,-2.668996735925));
#441 = CARTESIAN_POINT('',(13.323469178255,-1.784869999043));
#442 = CARTESIAN_POINT('',(13.40149276199,-0.892314784638));
#443 = CARTESIAN_POINT('',(13.40149276199,0.892314784637));
#444 = CARTESIAN_POINT('',(13.323469178254,1.784869999049));
#445 = CARTESIAN_POINT('',(13.167348923453,2.668996735916));
#446 = CARTESIAN_POINT('',(12.934755276617,3.536683734429));
#447 = CARTESIAN_POINT('',(12.628472886795,4.380473157755));
#448 = CARTESIAN_POINT('',(12.252368345558,5.193444379118));
#449 = CARTESIAN_POINT('',(11.575737488328,6.384142301598));
#450 = CARTESIAN_POINT('',(11.321411580051,6.78847549862));
#451 = CARTESIAN_POINT('',(11.049244381248,7.181354275814));
#452 = CARTESIAN_POINT('',(10.760015019036,7.561949392248));
#453 = CARTESIAN_POINT('',(10.454545534564,7.929510320826));
#454 = CARTESIAN_POINT('',(10.133691736939,8.283358811222));
#455 = CARTESIAN_POINT('',(9.449251957504,8.976301005058));
#456 = CARTESIAN_POINT('',(9.084449626814,9.314203363358));
#457 = CARTESIAN_POINT('',(8.704914847885,9.635906137379));
#458 = CARTESIAN_POINT('',(8.311653162009,9.940812048137));
#459 = CARTESIAN_POINT('',(7.905681145465,10.22840169881));
#460 = CARTESIAN_POINT('',(7.48801968603,10.498225345569));
#461 = CARTESIAN_POINT('',(6.233339535377,11.235420300512));
#462 = CARTESIAN_POINT('',(5.36732863158,11.653346592263));
#463 = CARTESIAN_POINT('',(4.468882443632,12.00096765597));
#464 = CARTESIAN_POINT('',(3.545206579889,12.276368662387));
#465 = CARTESIAN_POINT('',(2.603434667447,12.478288042415));
#466 = CARTESIAN_POINT('',(1.650595642508,12.606014485543));
#467 = CARTESIAN_POINT('',(0.693598025148,12.659318735032));
#468 = ( GEOMETRIC_REPRESENTATION_CONTEXT(2) 
PARAMETRIC_REPRESENTATION_CONTEXT() REPRESENTATION_CONTEXT('2D SPACE',''
  ) );
#469 = PCURVE('',#470,#478);
#470 = SURFACE_OF_LINEAR_EXTRUSION('',#471,#476);
#471 = ELLIPSE('',#472,13.507894736842,12.681578947368);
#472 = AXIS2_PLACEMENT_3D('',#473,#474,#475);
#473 = CARTESIAN_POINT('',(17.5,0.,26.));
#474 = DIRECTION('',(1.,0.,-0.));
#475 = DIRECTION('',(0.,1.110223024625E-16,1.));
#476 = VECTOR('',#477,1.);
#477 = DIRECTION('',(-1.,-0.,-0.));
#478 = DEFINITIONAL_REPRESENTATION('',(#479),#549);
#479 = B_SPLINE_CURVE_WITH_KNOTS('',3,(#480,#481,#482,#483,#484,#485,
    #486,#487,#488,#489,#490,#491,#492,#493,#494,#495,#496,#497,#498,
    #499,#500,#501,#502,#503,#504,#505,#506,#507,#508,#509,#510,#511,
    #512,#513,#514,#515,#516,#517,#518,#519,#520,#521,#522,#523,#524,
    #525,#526,#527,#528,#529,#530,#531,#532,#533,#534,#535,#536,#537,
    #538,#539,#540,#541,#542,#543,#544,#545,#546,#547,#548),
  .UNSPECIFIED.,.F.,.F.,(4,1,1,1,1,1,1,1,1,1,1,1,1,1,1,1,1,1,1,1,1,1,1,1
    ,1,1,1,1,1,1,1,1,1,1,1,1,1,1,1,1,1,1,1,1,1,1,1,1,1,1,1,1,1,1,1,1,1,1
    ,1,1,1,1,1,1,1,1,4),(0.,3.030303030302E-02,6.060606060605E-02,
    9.090909090907E-02,0.121212121212,0.151515151515,0.181818181818,
    0.212121212121,0.242424242424,0.272727272727,0.30303030303,
    0.333333333333,0.363636363636,0.393939393939,0.424242424242,
    0.454545454545,0.484848484848,0.515151515151,0.545454545454,
    0.575757575757,0.60606060606,0.636363636364,0.666666666667,
    0.69696969697,0.727272727273,0.757575757576,0.787878787879,
    0.818181818182,0.848484848485,0.878787878788,0.909090909091,
    0.939393939394,0.969696969697,1.,1.030303030303,1.060606060606,
    1.090909090909,1.121212121212,1.151515151515,1.181818181818,
    1.212121212121,1.242424242424,1.272727272727,1.30303030303,
    1.333333333333,1.363636363636,1.393939393939,1.424242424242,
    1.454545454545,1.484848484848,1.515151515151,1.545454545454,
    1.575757575757,1.60606060606,1.636363636363,1.666666666666,
    1.696969696969,1.727272727272,1.757575757575,1.787878787878,
    1.818181818181,1.848484848485,1.878787878788,1.909090909091,
    1.939393939394,1.969696969697,2.),.QUASI_UNIFORM_KNOTS.);
#480 = CARTESIAN_POINT('',(4.771648282406,-1.));
#481 = CARTESIAN_POINT('',(4.786439519912,-1.));
#482 = CARTESIAN_POINT('',(4.816026610787,-1.));
#483 = CARTESIAN_POINT('',(4.86043127917,-1.));
#484 = CARTESIAN_POINT('',(4.904870304932,-1.));
#485 = CARTESIAN_POINT('',(4.949353520499,-1.));
#486 = CARTESIAN_POINT('',(4.99389047586,-1.));
#487 = CARTESIAN_POINT('',(5.038490412917,-1.));
#488 = CARTESIAN_POINT('',(5.083162292512,-1.));
#489 = CARTESIAN_POINT('',(5.12791479191,-1.));
#490 = CARTESIAN_POINT('',(5.172756306371,-1.));
#491 = CARTESIAN_POINT('',(5.217694897159,-1.));
#492 = CARTESIAN_POINT('',(5.262738379134,-1.));
#493 = CARTESIAN_POINT('',(5.307893830894,-1.));
#494 = CARTESIAN_POINT('',(5.353165498158,-1.));
#495 = CARTESIAN_POINT('',(5.398558544988,-1.));
#496 = CARTESIAN_POINT('',(5.444076996829,-1.));
#497 = CARTESIAN_POINT('',(5.489724170282,-1.));
#498 = CARTESIAN_POINT('',(5.535502235881,-1.));
#499 = CARTESIAN_POINT('',(5.581412710338,-1.));
#500 = CARTESIAN_POINT('',(5.627455413711,-1.));
#501 = CARTESIAN_POINT('',(5.673628970179,-1.));
#502 = CARTESIAN_POINT('',(5.719931105612,-1.));
#503 = CARTESIAN_POINT('',(5.766358705806,-1.));
#504 = CARTESIAN_POINT('',(5.812905760812,-1.));
#505 = CARTESIAN_POINT('',(5.859574663158,-1.));
#506 = CARTESIAN_POINT('',(5.906352201078,-1.));
#507 = CARTESIAN_POINT('',(5.953227731226,-1.));
#508 = CARTESIAN_POINT('',(6.000190749593,-1.));
#509 = CARTESIAN_POINT('',(6.047231011722,-1.));
#510 = CARTESIAN_POINT('',(6.094337949782,-1.));
#511 = CARTESIAN_POINT('',(6.141500349617,-1.));
#512 = CARTESIAN_POINT('',(6.188705597648,-1.));
#513 = CARTESIAN_POINT('',(6.235940189605,-1.));
#514 = CARTESIAN_POINT('',(6.283185307179,-1.));
#515 = CARTESIAN_POINT('',(6.330430424754,-1.));
#516 = CARTESIAN_POINT('',(6.377665016711,-1.));
#517 = CARTESIAN_POINT('',(6.424870264742,-1.));
#518 = CARTESIAN_POINT('',(6.472032664577,-1.));
#519 = CARTESIAN_POINT('',(6.519139602637,-1.));
#520 = CARTESIAN_POINT('',(6.566179864766,-1.));
#521 = CARTESIAN_POINT('',(6.613142883133,-1.));
#522 = CARTESIAN_POINT('',(6.660018413281,-1.));
#523 = CARTESIAN_POINT('',(6.706795951201,-1.));
#524 = CARTESIAN_POINT('',(6.753464853548,-1.));
#525 = CARTESIAN_POINT('',(6.800011908554,-1.));
#526 = CARTESIAN_POINT('',(6.846439508747,-1.));
#527 = CARTESIAN_POINT('',(6.892741644181,-1.));
#528 = CARTESIAN_POINT('',(6.938915200649,-1.));
#529 = CARTESIAN_POINT('',(6.984957904021,-1.));
#530 = CARTESIAN_POINT('',(7.030868378478,-1.));
#531 = CARTESIAN_POINT('',(7.076646444078,-1.));
#532 = CARTESIAN_POINT('',(7.122293617531,-1.));
#533 = CARTESIAN_POINT('',(7.167812069371,-1.));
#534 = CARTESIAN_POINT('',(7.213205116201,-1.));
#535 = CARTESIAN_POINT('',(7.258476783466,-1.));
#536 = CARTESIAN_POINT('',(7.303632235225,-1.));
#537 = CARTESIAN_POINT('',(7.348675717201,-1.));
#538 = CARTESIAN_POINT('',(7.393614307988,-1.));
#539 = CARTESIAN_POINT('',(7.438455822449,-1.));
#540 = CARTESIAN_POINT('',(7.483208321847,-1.));
#541 = CARTESIAN_POINT('',(7.527880201442,-1.));
#542 = CARTESIAN_POINT('',(7.572480138499,-1.));
#543 = CARTESIAN_POINT('',(7.61701709386,-1.));
#544 = CARTESIAN_POINT('',(7.661500309427,-1.));
#545 = CARTESIAN_POINT('',(7.70593933519,-1.));
#546 = CARTESIAN_POINT('',(7.750344003573,-1.));
#547 = CARTESIAN_POINT('',(7.779931094447,-1.));
#548 = CARTESIAN_POINT('',(7.794722331953,-1.));
#549 = ( GEOMETRIC_REPRESENTATION_CONTEXT(2) 
PARAMETRIC_REPRESENTATION_CONTEXT() REPRESENTATION_CONTEXT('2D SPACE',''
  ) );
#550 = ADVANCED_FACE('',(#551,#599),#185,.T.);
#551 = FACE_BOUND('',#552,.T.);
#552 = EDGE_LOOP('',(#553,#554,#577,#598));
#553 = ORIENTED_EDGE('',*,*,#283,.F.);
#554 = ORIENTED_EDGE('',*,*,#555,.T.);
#555 = EDGE_CURVE('',#284,#556,#558,.T.);
#556 = VERTEX_POINT('',#557);
#557 = CARTESIAN_POINT('',(27.5,-28.5,31.8));
#558 = SURFACE_CURVE('',#559,(#563,#570),.PCURVE_S1.);
#559 = LINE('',#560,#561);
#560 = CARTESIAN_POINT('',(18.5,-28.5,31.8));
#561 = VECTOR('',#562,1.);
#562 = DIRECTION('',(1.,0.,0.));
#563 = PCURVE('',#185,#564);
#564 = DEFINITIONAL_REPRESENTATION('',(#565),#569);
#565 = LINE('',#566,#567);
#566 = CARTESIAN_POINT('',(0.,0.));
#567 = VECTOR('',#568,1.);
#568 = DIRECTION('',(1.,0.));
#569 = ( GEOMETRIC_REPRESENTATION_CONTEXT(2) 
PARAMETRIC_REPRESENTATION_CONTEXT() REPRESENTATION_CONTEXT('2D SPACE',''
  ) );
#570 = PCURVE('',#322,#571);
#571 = DEFINITIONAL_REPRESENTATION('',(#572),#576);
#572 = LINE('',#573,#574);
#573 = CARTESIAN_POINT('',(5.,0.));
#574 = VECTOR('',#575,1.);
#575 = DIRECTION('',(0.,1.));
#576 = ( GEOMETRIC_REPRESENTATION_CONTEXT(2) 
PARAMETRIC_REPRESENTATION_CONTEXT() REPRESENTATION_CONTEXT('2D SPACE',''
  ) );
#577 = ORIENTED_EDGE('',*,*,#578,.T.);
#578 = EDGE_CURVE('',#556,#145,#579,.T.);
#579 = SURFACE_CURVE('',#580,(#584,#591),.PCURVE_S1.);
#580 = LINE('',#581,#582);
#581 = CARTESIAN_POINT('',(27.5,-28.5,31.8));
#582 = VECTOR('',#583,1.);
#583 = DIRECTION('',(0.,1.,0.));
#584 = PCURVE('',#185,#585);
#585 = DEFINITIONAL_REPRESENTATION('',(#586),#590);
#586 = LINE('',#587,#588);
#587 = CARTESIAN_POINT('',(9.,0.));
#588 = VECTOR('',#589,1.);
#589 = DIRECTION('',(0.,1.));
#590 = ( GEOMETRIC_REPRESENTATION_CONTEXT(2) 
PARAMETRIC_REPRESENTATION_CONTEXT() REPRESENTATION_CONTEXT('2D SPACE',''
  ) );
#591 = PCURVE('',#132,#592);
#592 = DEFINITIONAL_REPRESENTATION('',(#593),#597);
#593 = LINE('',#594,#595);
#594 = CARTESIAN_POINT('',(5.693598025148,28.5));
#595 = VECTOR('',#596,1.);
#596 = DIRECTION('',(0.,-1.));
#597 = ( GEOMETRIC_REPRESENTATION_CONTEXT(2) 
PARAMETRIC_REPRESENTATION_CONTEXT() REPRESENTATION_CONTEXT('2D SPACE',''
  ) );
#598 = ORIENTED_EDGE('',*,*,#167,.T.);
#599 = FACE_BOUND('',#600,.T.);
#600 = EDGE_LOOP('',(#601));
#601 = ORIENTED_EDGE('',*,*,#602,.T.);
#602 = EDGE_CURVE('',#603,#603,#605,.T.);
#603 = VERTEX_POINT('',#604);
#604 = CARTESIAN_POINT('',(24.7,-22.,31.8));
#605 = SURFACE_CURVE('',#606,(#611,#622),.PCURVE_S1.);
#606 = CIRCLE('',#607,1.7);
#607 = AXIS2_PLACEMENT_3D('',#608,#609,#610);
#608 = CARTESIAN_POINT('',(23.,-22.,31.8));
#609 = DIRECTION('',(0.,0.,-1.));
#610 = DIRECTION('',(1.,0.,0.));
#611 = PCURVE('',#185,#612);
#612 = DEFINITIONAL_REPRESENTATION('',(#613),#621);
#613 = ( BOUNDED_CURVE() B_SPLINE_CURVE(2,(#614,#615,#616,#617,#618,#619
,#620),.UNSPECIFIED.,.T.,.F.) B_SPLINE_CURVE_WITH_KNOTS((1,2,2,2,2,1),(
    -2.094395102393,0.,2.094395102393,4.188790204786,6.28318530718,
8.377580409573),.UNSPECIFIED.) CURVE() GEOMETRIC_REPRESENTATION_ITEM() 
RATIONAL_B_SPLINE_CURVE((1.,0.5,1.,0.5,1.,0.5,1.)) REPRESENTATION_ITEM(
  '') );
#614 = CARTESIAN_POINT('',(6.2,6.5));
#615 = CARTESIAN_POINT('',(6.2,3.555513627133));
#616 = CARTESIAN_POINT('',(3.65,5.027756813566));
#617 = CARTESIAN_POINT('',(1.1,6.5));
#618 = CARTESIAN_POINT('',(3.65,7.972243186434));
#619 = CARTESIAN_POINT('',(6.2,9.444486372867));
#620 = CARTESIAN_POINT('',(6.2,6.5));
#621 = ( GEOMETRIC_REPRESENTATION_CONTEXT(2) 
PARAMETRIC_REPRESENTATION_CONTEXT() REPRESENTATION_CONTEXT('2D SPACE',''
  ) );
#622 = PCURVE('',#623,#628);
#623 = CYLINDRICAL_SURFACE('',#624,1.7);
#624 = AXIS2_PLACEMENT_3D('',#625,#626,#627);
#625 = CARTESIAN_POINT('',(23.,-22.,26.));
#626 = DIRECTION('',(-0.,-0.,-1.));
#627 = DIRECTION('',(1.,0.,0.));
#628 = DEFINITIONAL_REPRESENTATION('',(#629),#633);
#629 = LINE('',#630,#631);
#630 = CARTESIAN_POINT('',(-6.28318530718,-5.8));
#631 = VECTOR('',#632,1.);
#632 = DIRECTION('',(1.,-0.));
#633 = ( GEOMETRIC_REPRESENTATION_CONTEXT(2) 
PARAMETRIC_REPRESENTATION_CONTEXT() REPRESENTATION_CONTEXT('2D SPACE',''
  ) );
#634 = ADVANCED_FACE('',(#635),#132,.T.);
#635 = FACE_BOUND('',#636,.T.);
#636 = EDGE_LOOP('',(#637,#660,#683,#866,#889,#912,#933,#934,#935));
#637 = ORIENTED_EDGE('',*,*,#638,.F.);
#638 = EDGE_CURVE('',#639,#556,#641,.T.);
#639 = VERTEX_POINT('',#640);
#640 = CARTESIAN_POINT('',(27.5,-28.5,26.8));
#641 = SURFACE_CURVE('',#642,(#646,#653),.PCURVE_S1.);
#642 = LINE('',#643,#644);
#643 = CARTESIAN_POINT('',(27.5,-28.5,26.8));
#644 = VECTOR('',#645,1.);
#645 = DIRECTION('',(0.,0.,1.));
#646 = PCURVE('',#132,#647);
#647 = DEFINITIONAL_REPRESENTATION('',(#648),#652);
#648 = LINE('',#649,#650);
#649 = CARTESIAN_POINT('',(0.693598025148,28.5));
#650 = VECTOR('',#651,1.);
#651 = DIRECTION('',(1.,0.));
#652 = ( GEOMETRIC_REPRESENTATION_CONTEXT(2) 
PARAMETRIC_REPRESENTATION_CONTEXT() REPRESENTATION_CONTEXT('2D SPACE',''
  ) );
#653 = PCURVE('',#322,#654);
#654 = DEFINITIONAL_REPRESENTATION('',(#655),#659);
#655 = LINE('',#656,#657);
#656 = CARTESIAN_POINT('',(0.,9.));
#657 = VECTOR('',#658,1.);
#658 = DIRECTION('',(1.,0.));
#659 = ( GEOMETRIC_REPRESENTATION_CONTEXT(2) 
PARAMETRIC_REPRESENTATION_CONTEXT() REPRESENTATION_CONTEXT('2D SPACE',''
  ) );
#660 = ORIENTED_EDGE('',*,*,#661,.T.);
#661 = EDGE_CURVE('',#639,#662,#664,.T.);
#662 = VERTEX_POINT('',#663);
#663 = CARTESIAN_POINT('',(27.5,-12.65931873503,26.8));
#664 = SURFACE_CURVE('',#665,(#669,#676),.PCURVE_S1.);
#665 = LINE('',#666,#667);
#666 = CARTESIAN_POINT('',(27.5,-28.5,26.8));
#667 = VECTOR('',#668,1.);
#668 = DIRECTION('',(0.,1.,0.));
#669 = PCURVE('',#132,#670);
#670 = DEFINITIONAL_REPRESENTATION('',(#671),#675);
#671 = LINE('',#672,#673);
#672 = CARTESIAN_POINT('',(0.693598025148,28.5));
#673 = VECTOR('',#674,1.);
#674 = DIRECTION('',(0.,-1.));
#675 = ( GEOMETRIC_REPRESENTATION_CONTEXT(2) 
PARAMETRIC_REPRESENTATION_CONTEXT() REPRESENTATION_CONTEXT('2D SPACE',''
  ) );
#676 = PCURVE('',#350,#677);
#677 = DEFINITIONAL_REPRESENTATION('',(#678),#682);
#678 = LINE('',#679,#680);
#679 = CARTESIAN_POINT('',(77.5,21.5));
#680 = VECTOR('',#681,1.);
#681 = DIRECTION('',(0.,1.));
#682 = ( GEOMETRIC_REPRESENTATION_CONTEXT(2) 
PARAMETRIC_REPRESENTATION_CONTEXT() REPRESENTATION_CONTEXT('2D SPACE',''
  ) );
#683 = ORIENTED_EDGE('',*,*,#684,.T.);
#684 = EDGE_CURVE('',#662,#685,#687,.T.);
#685 = VERTEX_POINT('',#686);
#686 = CARTESIAN_POINT('',(27.5,12.659318735032,26.8));
#687 = SURFACE_CURVE('',#688,(#739,#793),.PCURVE_S1.);
#688 = B_SPLINE_CURVE_WITH_KNOTS('',7,(#689,#690,#691,#692,#693,#694,
    #695,#696,#697,#698,#699,#700,#701,#702,#703,#704,#705,#706,#707,
    #708,#709,#710,#711,#712,#713,#714,#715,#716,#717,#718,#719,#720,
    #721,#722,#723,#724,#725,#726,#727,#728,#729,#730,#731,#732,#733,
    #734,#735,#736,#737,#738),.UNSPECIFIED.,.F.,.F.,(8,6,6,6,6,6,6,6,8),
  (0.,0.339268537252,0.515126365107,0.684070212938,1.,1.315929787062,
    1.484873634893,1.660731462748,2.),.UNSPECIFIED.);
#689 = CARTESIAN_POINT('',(27.5,-12.65931873503,26.8));
#690 = CARTESIAN_POINT('',(27.5,-12.60601448554,27.756997617361));
#691 = CARTESIAN_POINT('',(27.5,-12.47828804241,28.7098366423));
#692 = CARTESIAN_POINT('',(27.5,-12.27636866238,29.651608554741));
#693 = CARTESIAN_POINT('',(27.5,-12.00096765597,30.575284418485));
#694 = CARTESIAN_POINT('',(27.5,-11.65334659226,31.473730606432));
#695 = CARTESIAN_POINT('',(27.5,-11.23542030051,32.33974151023));
#696 = CARTESIAN_POINT('',(27.5,-10.49822534556,33.594421660882));
#697 = CARTESIAN_POINT('',(27.5,-10.22840169881,34.012083120318));
#698 = CARTESIAN_POINT('',(27.5,-9.940812048137,34.418055136861));
#699 = CARTESIAN_POINT('',(27.5,-9.635906137379,34.811316822737));
#700 = CARTESIAN_POINT('',(27.5,-9.314203363358,35.190851601666));
#701 = CARTESIAN_POINT('',(27.5,-8.976301005058,35.555653932356));
#702 = CARTESIAN_POINT('',(27.5,-8.283358811222,36.240093711791));
#703 = CARTESIAN_POINT('',(27.5,-7.929510320826,36.560947509417));
#704 = CARTESIAN_POINT('',(27.5,-7.561949392248,36.866416993889));
#705 = CARTESIAN_POINT('',(27.5,-7.181354275814,37.155646356101));
#706 = CARTESIAN_POINT('',(27.5,-6.78847549862,37.427813554903));
#707 = CARTESIAN_POINT('',(27.5,-6.384142301598,37.68213946318));
#708 = CARTESIAN_POINT('',(27.5,-5.193444379118,38.35877032041));
#709 = CARTESIAN_POINT('',(27.5,-4.380473157755,38.734874861648));
#710 = CARTESIAN_POINT('',(27.5,-3.536683734429,39.041157251469));
#711 = CARTESIAN_POINT('',(27.5,-2.668996735916,39.273750898305));
#712 = CARTESIAN_POINT('',(27.5,-1.784869999049,39.429871153106));
#713 = CARTESIAN_POINT('',(27.5,-0.892314784637,39.507894736842));
#714 = CARTESIAN_POINT('',(27.5,0.892314784638,39.507894736842));
#715 = CARTESIAN_POINT('',(27.5,1.784869999043,39.429871153108));
#716 = CARTESIAN_POINT('',(27.5,2.668996735925,39.273750898301));
#717 = CARTESIAN_POINT('',(27.5,3.536683734418,39.041157251475));
#718 = CARTESIAN_POINT('',(27.5,4.38047315776,38.734874861645));
#719 = CARTESIAN_POINT('',(27.5,5.193444379115,38.358770320412));
#720 = CARTESIAN_POINT('',(27.5,6.384142301596,37.682139463181));
#721 = CARTESIAN_POINT('',(27.5,6.788475498618,37.427813554904));
#722 = CARTESIAN_POINT('',(27.5,7.181354275813,37.155646356102));
#723 = CARTESIAN_POINT('',(27.5,7.561949392246,36.86641699389));
#724 = CARTESIAN_POINT('',(27.5,7.929510320825,36.560947509418));
#725 = CARTESIAN_POINT('',(27.5,8.28335881122,36.240093711793));
#726 = CARTESIAN_POINT('',(27.5,8.976301005056,35.555653932358));
#727 = CARTESIAN_POINT('',(27.5,9.314203363356,35.190851601668));
#728 = CARTESIAN_POINT('',(27.5,9.635906137378,34.811316822739));
#729 = CARTESIAN_POINT('',(27.5,9.940812048135,34.418055136863));
#730 = CARTESIAN_POINT('',(27.5,10.228401698808,34.01208312032));
#731 = CARTESIAN_POINT('',(27.5,10.498225345568,33.594421660884));
#732 = CARTESIAN_POINT('',(27.5,11.235420300511,32.339741510232));
#733 = CARTESIAN_POINT('',(27.5,11.653346592262,31.473730606434));
#734 = CARTESIAN_POINT('',(27.5,12.00096765597,30.575284418486));
#735 = CARTESIAN_POINT('',(27.5,12.276368662387,29.651608554742));
#736 = CARTESIAN_POINT('',(27.5,12.478288042415,28.709836642301));
#737 = CARTESIAN_POINT('',(27.5,12.606014485543,27.756997617361));
#738 = CARTESIAN_POINT('',(27.5,12.659318735032,26.8));
#739 = PCURVE('',#132,#740);
#740 = DEFINITIONAL_REPRESENTATION('',(#741),#792);
#741 = B_SPLINE_CURVE_WITH_KNOTS('',7,(#742,#743,#744,#745,#746,#747,
    #748,#749,#750,#751,#752,#753,#754,#755,#756,#757,#758,#759,#760,
    #761,#762,#763,#764,#765,#766,#767,#768,#769,#770,#771,#772,#773,
    #774,#775,#776,#777,#778,#779,#780,#781,#782,#783,#784,#785,#786,
    #787,#788,#789,#790,#791),.UNSPECIFIED.,.F.,.F.,(8,6,6,6,6,6,6,6,8),
  (0.,0.339268537252,0.515126365107,0.684070212938,1.,1.315929787062,
    1.484873634893,1.660731462748,2.),.UNSPECIFIED.);
#742 = CARTESIAN_POINT('',(0.693598025148,12.659318735032));
#743 = CARTESIAN_POINT('',(1.650595642508,12.606014485543));
#744 = CARTESIAN_POINT('',(2.603434667447,12.478288042415));
#745 = CARTESIAN_POINT('',(3.545206579889,12.276368662387));
#746 = CARTESIAN_POINT('',(4.468882443632,12.00096765597));
#747 = CARTESIAN_POINT('',(5.36732863158,11.653346592263));
#748 = CARTESIAN_POINT('',(6.233339535377,11.235420300512));
#749 = CARTESIAN_POINT('',(7.48801968603,10.498225345569));
#750 = CARTESIAN_POINT('',(7.905681145465,10.22840169881));
#751 = CARTESIAN_POINT('',(8.311653162009,9.940812048137));
#752 = CARTESIAN_POINT('',(8.704914847885,9.635906137379));
#753 = CARTESIAN_POINT('',(9.084449626814,9.314203363358));
#754 = CARTESIAN_POINT('',(9.449251957504,8.976301005058));
#755 = CARTESIAN_POINT('',(10.133691736939,8.283358811222));
#756 = CARTESIAN_POINT('',(10.454545534564,7.929510320826));
#757 = CARTESIAN_POINT('',(10.760015019036,7.561949392248));
#758 = CARTESIAN_POINT('',(11.049244381248,7.181354275814));
#759 = CARTESIAN_POINT('',(11.321411580051,6.78847549862));
#760 = CARTESIAN_POINT('',(11.575737488328,6.384142301598));
#761 = CARTESIAN_POINT('',(12.252368345558,5.193444379118));
#762 = CARTESIAN_POINT('',(12.628472886795,4.380473157755));
#763 = CARTESIAN_POINT('',(12.934755276617,3.536683734429));
#764 = CARTESIAN_POINT('',(13.167348923453,2.668996735916));
#765 = CARTESIAN_POINT('',(13.323469178254,1.784869999049));
#766 = CARTESIAN_POINT('',(13.40149276199,0.892314784637));
#767 = CARTESIAN_POINT('',(13.40149276199,-0.892314784638));
#768 = CARTESIAN_POINT('',(13.323469178255,-1.784869999043));
#769 = CARTESIAN_POINT('',(13.167348923449,-2.668996735925));
#770 = CARTESIAN_POINT('',(12.934755276622,-3.536683734418));
#771 = CARTESIAN_POINT('',(12.628472886792,-4.38047315776));
#772 = CARTESIAN_POINT('',(12.252368345559,-5.193444379115));
#773 = CARTESIAN_POINT('',(11.575737488329,-6.384142301596));
#774 = CARTESIAN_POINT('',(11.321411580052,-6.788475498618));
#775 = CARTESIAN_POINT('',(11.049244381249,-7.181354275813));
#776 = CARTESIAN_POINT('',(10.760015019037,-7.561949392246));
#777 = CARTESIAN_POINT('',(10.454545534566,-7.929510320825));
#778 = CARTESIAN_POINT('',(10.13369173694,-8.28335881122));
#779 = CARTESIAN_POINT('',(9.449251957506,-8.976301005056));
#780 = CARTESIAN_POINT('',(9.084449626815,-9.314203363356));
#781 = CARTESIAN_POINT('',(8.704914847887,-9.635906137378));
#782 = CARTESIAN_POINT('',(8.311653162011,-9.940812048135));
#783 = CARTESIAN_POINT('',(7.905681145467,-10.2284016988));
#784 = CARTESIAN_POINT('',(7.488019686032,-10.49822534556));
#785 = CARTESIAN_POINT('',(6.233339535379,-11.23542030051));
#786 = CARTESIAN_POINT('',(5.367328631582,-11.65334659226));
#787 = CARTESIAN_POINT('',(4.468882443634,-12.00096765597));
#788 = CARTESIAN_POINT('',(3.54520657989,-12.27636866238));
#789 = CARTESIAN_POINT('',(2.603434667448,-12.47828804241));
#790 = CARTESIAN_POINT('',(1.650595642509,-12.60601448554));
#791 = CARTESIAN_POINT('',(0.693598025148,-12.65931873503));
#792 = ( GEOMETRIC_REPRESENTATION_CONTEXT(2) 
PARAMETRIC_REPRESENTATION_CONTEXT() REPRESENTATION_CONTEXT('2D SPACE',''
  ) );
#793 = PCURVE('',#470,#794);
#794 = DEFINITIONAL_REPRESENTATION('',(#795),#865);
#795 = B_SPLINE_CURVE_WITH_KNOTS('',3,(#796,#797,#798,#799,#800,#801,
    #802,#803,#804,#805,#806,#807,#808,#809,#810,#811,#812,#813,#814,
    #815,#816,#817,#818,#819,#820,#821,#822,#823,#824,#825,#826,#827,
    #828,#829,#830,#831,#832,#833,#834,#835,#836,#837,#838,#839,#840,
    #841,#842,#843,#844,#845,#846,#847,#848,#849,#850,#851,#852,#853,
    #854,#855,#856,#857,#858,#859,#860,#861,#862,#863,#864),
  .UNSPECIFIED.,.F.,.F.,(4,1,1,1,1,1,1,1,1,1,1,1,1,1,1,1,1,1,1,1,1,1,1,1
    ,1,1,1,1,1,1,1,1,1,1,1,1,1,1,1,1,1,1,1,1,1,1,1,1,1,1,1,1,1,1,1,1,1,1
    ,1,1,1,1,1,1,1,1,4),(0.,3.030303030304E-02,6.060606060607E-02,
    9.090909090911E-02,0.121212121212,0.151515151515,0.181818181818,
    0.212121212121,0.242424242424,0.272727272727,0.30303030303,
    0.333333333333,0.363636363636,0.393939393939,0.424242424242,
    0.454545454546,0.484848484849,0.515151515152,0.545454545455,
    0.575757575758,0.606060606061,0.636363636364,0.666666666667,
    0.69696969697,0.727272727273,0.757575757576,0.787878787879,
    0.818181818182,0.848484848485,0.878787878788,0.909090909091,
    0.939393939394,0.969696969697,1.,1.030303030303,1.060606060606,
    1.090909090909,1.121212121212,1.151515151515,1.181818181818,
    1.212121212121,1.242424242424,1.272727272727,1.303030303031,
    1.333333333334,1.363636363637,1.39393939394,1.424242424243,
    1.454545454546,1.484848484849,1.515151515152,1.545454545455,
    1.575757575758,1.606060606061,1.636363636364,1.666666666667,
    1.69696969697,1.727272727273,1.757575757576,1.787878787879,
    1.818181818182,1.848484848485,1.878787878788,1.909090909091,
    1.939393939394,1.969696969697,2.),.QUASI_UNIFORM_KNOTS.);
#796 = CARTESIAN_POINT('',(7.794722331953,-10.));
#797 = CARTESIAN_POINT('',(7.779931094447,-10.));
#798 = CARTESIAN_POINT('',(7.750344003573,-10.));
#799 = CARTESIAN_POINT('',(7.70593933519,-10.));
#800 = CARTESIAN_POINT('',(7.661500309427,-10.));
#801 = CARTESIAN_POINT('',(7.61701709386,-10.));
#802 = CARTESIAN_POINT('',(7.572480138499,-10.));
#803 = CARTESIAN_POINT('',(7.527880201442,-10.));
#804 = CARTESIAN_POINT('',(7.483208321847,-10.));
#805 = CARTESIAN_POINT('',(7.438455822449,-10.));
#806 = CARTESIAN_POINT('',(7.393614307988,-10.));
#807 = CARTESIAN_POINT('',(7.348675717201,-10.));
#808 = CARTESIAN_POINT('',(7.303632235225,-10.));
#809 = CARTESIAN_POINT('',(7.258476783466,-10.));
#810 = CARTESIAN_POINT('',(7.213205116201,-10.));
#811 = CARTESIAN_POINT('',(7.167812069371,-10.));
#812 = CARTESIAN_POINT('',(7.122293617531,-10.));
#813 = CARTESIAN_POINT('',(7.076646444078,-10.));
#814 = CARTESIAN_POINT('',(7.030868378478,-10.));
#815 = CARTESIAN_POINT('',(6.984957904021,-10.));
#816 = CARTESIAN_POINT('',(6.938915200649,-10.));
#817 = CARTESIAN_POINT('',(6.892741644181,-10.));
#818 = CARTESIAN_POINT('',(6.846439508747,-10.));
#819 = CARTESIAN_POINT('',(6.800011908554,-10.));
#820 = CARTESIAN_POINT('',(6.753464853548,-10.));
#821 = CARTESIAN_POINT('',(6.706795951201,-10.));
#822 = CARTESIAN_POINT('',(6.660018413281,-10.));
#823 = CARTESIAN_POINT('',(6.613142883133,-10.));
#824 = CARTESIAN_POINT('',(6.566179864766,-10.));
#825 = CARTESIAN_POINT('',(6.519139602637,-10.));
#826 = CARTESIAN_POINT('',(6.472032664577,-10.));
#827 = CARTESIAN_POINT('',(6.424870264742,-10.));
#828 = CARTESIAN_POINT('',(6.377665016711,-10.));
#829 = CARTESIAN_POINT('',(6.330430424754,-10.));
#830 = CARTESIAN_POINT('',(6.283185307179,-10.));
#831 = CARTESIAN_POINT('',(6.235940189605,-10.));
#832 = CARTESIAN_POINT('',(6.188705597648,-10.));
#833 = CARTESIAN_POINT('',(6.141500349617,-10.));
#834 = CARTESIAN_POINT('',(6.094337949782,-10.));
#835 = CARTESIAN_POINT('',(6.047231011722,-10.));
#836 = CARTESIAN_POINT('',(6.000190749593,-10.));
#837 = CARTESIAN_POINT('',(5.953227731226,-10.));
#838 = CARTESIAN_POINT('',(5.906352201078,-10.));
#839 = CARTESIAN_POINT('',(5.859574663158,-10.));
#840 = CARTESIAN_POINT('',(5.812905760812,-10.));
#841 = CARTESIAN_POINT('',(5.766358705806,-10.));
#842 = CARTESIAN_POINT('',(5.719931105612,-10.));
#843 = CARTESIAN_POINT('',(5.673628970179,-10.));
#844 = CARTESIAN_POINT('',(5.627455413711,-10.));
#845 = CARTESIAN_POINT('',(5.581412710338,-10.));
#846 = CARTESIAN_POINT('',(5.535502235881,-10.));
#847 = CARTESIAN_POINT('',(5.489724170282,-10.));
#848 = CARTESIAN_POINT('',(5.444076996829,-10.));
#849 = CARTESIAN_POINT('',(5.398558544988,-10.));
#850 = CARTESIAN_POINT('',(5.353165498158,-10.));
#851 = CARTESIAN_POINT('',(5.307893830894,-10.));
#852 = CARTESIAN_POINT('',(5.262738379134,-10.));
#853 = CARTESIAN_POINT('',(5.217694897159,-10.));
#854 = CARTESIAN_POINT('',(5.172756306371,-10.));
#855 = CARTESIAN_POINT('',(5.12791479191,-10.));
#856 = CARTESIAN_POINT('',(5.083162292512,-10.));
#857 = CARTESIAN_POINT('',(5.038490412917,-10.));
#858 = CARTESIAN_POINT('',(4.99389047586,-10.));
#859 = CARTESIAN_POINT('',(4.949353520499,-10.));
#860 = CARTESIAN_POINT('',(4.904870304932,-10.));
#861 = CARTESIAN_POINT('',(4.86043127917,-10.));
#862 = CARTESIAN_POINT('',(4.816026610787,-10.));
#863 = CARTESIAN_POINT('',(4.786439519912,-10.));
#864 = CARTESIAN_POINT('',(4.771648282406,-10.));
#865 = ( GEOMETRIC_REPRESENTATION_CONTEXT(2) 
PARAMETRIC_REPRESENTATION_CONTEXT() REPRESENTATION_CONTEXT('2D SPACE',''
  ) );
#866 = ORIENTED_EDGE('',*,*,#867,.T.);
#867 = EDGE_CURVE('',#685,#868,#870,.T.);
#868 = VERTEX_POINT('',#869);
#869 = CARTESIAN_POINT('',(27.5,28.5,26.8));
#870 = SURFACE_CURVE('',#871,(#875,#882),.PCURVE_S1.);
#871 = LINE('',#872,#873);
#872 = CARTESIAN_POINT('',(27.5,-28.5,26.8));
#873 = VECTOR('',#874,1.);
#874 = DIRECTION('',(0.,1.,0.));
#875 = PCURVE('',#132,#876);
#876 = DEFINITIONAL_REPRESENTATION('',(#877),#881);
#877 = LINE('',#878,#879);
#878 = CARTESIAN_POINT('',(0.693598025148,28.5));
#879 = VECTOR('',#880,1.);
#880 = DIRECTION('',(0.,-1.));
#881 = ( GEOMETRIC_REPRESENTATION_CONTEXT(2) 
PARAMETRIC_REPRESENTATION_CONTEXT() REPRESENTATION_CONTEXT('2D SPACE',''
  ) );
#882 = PCURVE('',#220,#883);
#883 = DEFINITIONAL_REPRESENTATION('',(#884),#888);
#884 = LINE('',#885,#886);
#885 = CARTESIAN_POINT('',(77.5,21.5));
#886 = VECTOR('',#887,1.);
#887 = DIRECTION('',(0.,1.));
#888 = ( GEOMETRIC_REPRESENTATION_CONTEXT(2) 
PARAMETRIC_REPRESENTATION_CONTEXT() REPRESENTATION_CONTEXT('2D SPACE',''
  ) );
#889 = ORIENTED_EDGE('',*,*,#890,.T.);
#890 = EDGE_CURVE('',#868,#891,#893,.T.);
#891 = VERTEX_POINT('',#892);
#892 = CARTESIAN_POINT('',(27.5,28.5,31.8));
#893 = SURFACE_CURVE('',#894,(#898,#905),.PCURVE_S1.);
#894 = LINE('',#895,#896);
#895 = CARTESIAN_POINT('',(27.5,28.5,26.8));
#896 = VECTOR('',#897,1.);
#897 = DIRECTION('',(0.,0.,1.));
#898 = PCURVE('',#132,#899);
#899 = DEFINITIONAL_REPRESENTATION('',(#900),#904);
#900 = LINE('',#901,#902);
#901 = CARTESIAN_POINT('',(0.693598025148,-28.5));
#902 = VECTOR('',#903,1.);
#903 = DIRECTION('',(1.,0.));
#904 = ( GEOMETRIC_REPRESENTATION_CONTEXT(2) 
PARAMETRIC_REPRESENTATION_CONTEXT() REPRESENTATION_CONTEXT('2D SPACE',''
  ) );
#905 = PCURVE('',#248,#906);
#906 = DEFINITIONAL_REPRESENTATION('',(#907),#911);
#907 = LINE('',#908,#909);
#908 = CARTESIAN_POINT('',(0.,9.));
#909 = VECTOR('',#910,1.);
#910 = DIRECTION('',(1.,0.));
#911 = ( GEOMETRIC_REPRESENTATION_CONTEXT(2) 
PARAMETRIC_REPRESENTATION_CONTEXT() REPRESENTATION_CONTEXT('2D SPACE',''
  ) );
#912 = ORIENTED_EDGE('',*,*,#913,.F.);
#913 = EDGE_CURVE('',#83,#891,#914,.T.);
#914 = SURFACE_CURVE('',#915,(#919,#926),.PCURVE_S1.);
#915 = LINE('',#916,#917);
#916 = CARTESIAN_POINT('',(27.5,15.5,31.8));
#917 = VECTOR('',#918,1.);
#918 = DIRECTION('',(0.,1.,0.));
#919 = PCURVE('',#132,#920);
#920 = DEFINITIONAL_REPRESENTATION('',(#921),#925);
#921 = LINE('',#922,#923);
#922 = CARTESIAN_POINT('',(5.693598025148,-15.5));
#923 = VECTOR('',#924,1.);
#924 = DIRECTION('',(0.,-1.));
#925 = ( GEOMETRIC_REPRESENTATION_CONTEXT(2) 
PARAMETRIC_REPRESENTATION_CONTEXT() REPRESENTATION_CONTEXT('2D SPACE',''
  ) );
#926 = PCURVE('',#102,#927);
#927 = DEFINITIONAL_REPRESENTATION('',(#928),#932);
#928 = LINE('',#929,#930);
#929 = CARTESIAN_POINT('',(9.,0.));
#930 = VECTOR('',#931,1.);
#931 = DIRECTION('',(0.,1.));
#932 = ( GEOMETRIC_REPRESENTATION_CONTEXT(2) 
PARAMETRIC_REPRESENTATION_CONTEXT() REPRESENTATION_CONTEXT('2D SPACE',''
  ) );
#933 = ORIENTED_EDGE('',*,*,#116,.T.);
#934 = ORIENTED_EDGE('',*,*,#144,.T.);
#935 = ORIENTED_EDGE('',*,*,#578,.F.);
#936 = ADVANCED_FACE('',(#937,#963),#102,.T.);
#937 = FACE_BOUND('',#938,.T.);
#938 = EDGE_LOOP('',(#939,#940,#941,#942));
#939 = ORIENTED_EDGE('',*,*,#260,.F.);
#940 = ORIENTED_EDGE('',*,*,#82,.F.);
#941 = ORIENTED_EDGE('',*,*,#913,.T.);
#942 = ORIENTED_EDGE('',*,*,#943,.F.);
#943 = EDGE_CURVE('',#233,#891,#944,.T.);
#944 = SURFACE_CURVE('',#945,(#949,#956),.PCURVE_S1.);
#945 = LINE('',#946,#947);
#946 = CARTESIAN_POINT('',(18.5,28.5,31.8));
#947 = VECTOR('',#948,1.);
#948 = DIRECTION('',(1.,0.,0.));
#949 = PCURVE('',#102,#950);
#950 = DEFINITIONAL_REPRESENTATION('',(#951),#955);
#951 = LINE('',#952,#953);
#952 = CARTESIAN_POINT('',(0.,13.));
#953 = VECTOR('',#954,1.);
#954 = DIRECTION('',(1.,0.));
#955 = ( GEOMETRIC_REPRESENTATION_CONTEXT(2) 
PARAMETRIC_REPRESENTATION_CONTEXT() REPRESENTATION_CONTEXT('2D SPACE',''
  ) );
#956 = PCURVE('',#248,#957);
#957 = DEFINITIONAL_REPRESENTATION('',(#958),#962);
#958 = LINE('',#959,#960);
#959 = CARTESIAN_POINT('',(5.,0.));
#960 = VECTOR('',#961,1.);
#961 = DIRECTION('',(0.,1.));
#962 = ( GEOMETRIC_REPRESENTATION_CONTEXT(2) 
PARAMETRIC_REPRESENTATION_CONTEXT() REPRESENTATION_CONTEXT('2D SPACE',''
  ) );
#963 = FACE_BOUND('',#964,.T.);
#964 = EDGE_LOOP('',(#965));
#965 = ORIENTED_EDGE('',*,*,#966,.T.);
#966 = EDGE_CURVE('',#967,#967,#969,.T.);
#967 = VERTEX_POINT('',#968);
#968 = CARTESIAN_POINT('',(24.7,22.,31.8));
#969 = SURFACE_CURVE('',#970,(#975,#986),.PCURVE_S1.);
#970 = CIRCLE('',#971,1.7);
#971 = AXIS2_PLACEMENT_3D('',#972,#973,#974);
#972 = CARTESIAN_POINT('',(23.,22.,31.8));
#973 = DIRECTION('',(0.,0.,-1.));
#974 = DIRECTION('',(1.,0.,0.));
#975 = PCURVE('',#102,#976);
#976 = DEFINITIONAL_REPRESENTATION('',(#977),#985);
#977 = ( BOUNDED_CURVE() B_SPLINE_CURVE(2,(#978,#979,#980,#981,#982,#983
,#984),.UNSPECIFIED.,.T.,.F.) B_SPLINE_CURVE_WITH_KNOTS((1,2,2,2,2,1),(
    -2.094395102393,0.,2.094395102393,4.188790204786,6.28318530718,
8.377580409573),.UNSPECIFIED.) CURVE() GEOMETRIC_REPRESENTATION_ITEM() 
RATIONAL_B_SPLINE_CURVE((1.,0.5,1.,0.5,1.,0.5,1.)) REPRESENTATION_ITEM(
  '') );
#978 = CARTESIAN_POINT('',(6.2,6.5));
#979 = CARTESIAN_POINT('',(6.2,3.555513627133));
#980 = CARTESIAN_POINT('',(3.65,5.027756813566));
#981 = CARTESIAN_POINT('',(1.1,6.5));
#982 = CARTESIAN_POINT('',(3.65,7.972243186434));
#983 = CARTESIAN_POINT('',(6.2,9.444486372867));
#984 = CARTESIAN_POINT('',(6.2,6.5));
#985 = ( GEOMETRIC_REPRESENTATION_CONTEXT(2) 
PARAMETRIC_REPRESENTATION_CONTEXT() REPRESENTATION_CONTEXT('2D SPACE',''
  ) );
#986 = PCURVE('',#987,#992);
#987 = CYLINDRICAL_SURFACE('',#988,1.7);
#988 = AXIS2_PLACEMENT_3D('',#989,#990,#991);
#989 = CARTESIAN_POINT('',(23.,22.,26.));
#990 = DIRECTION('',(-0.,-0.,-1.));
#991 = DIRECTION('',(1.,0.,0.));
#992 = DEFINITIONAL_REPRESENTATION('',(#993),#997);
#993 = LINE('',#994,#995);
#994 = CARTESIAN_POINT('',(-6.28318530718,-5.8));
#995 = VECTOR('',#996,1.);
#996 = DIRECTION('',(1.,-0.));
#997 = ( GEOMETRIC_REPRESENTATION_CONTEXT(2) 
PARAMETRIC_REPRESENTATION_CONTEXT() REPRESENTATION_CONTEXT('2D SPACE',''
  ) );
#998 = ADVANCED_FACE('',(#999,#1051),#220,.F.);
#999 = FACE_BOUND('',#1000,.F.);
#1000 = EDGE_LOOP('',(#1001,#1028,#1029,#1050));
#1001 = ORIENTED_EDGE('',*,*,#1002,.F.);
#1002 = EDGE_CURVE('',#685,#205,#1003,.T.);
#1003 = SURFACE_CURVE('',#1004,(#1010,#1019),.PCURVE_S1.);
#1004 = B_SPLINE_CURVE_WITH_KNOTS('',4,(#1005,#1006,#1007,#1008,#1009),
  .UNSPECIFIED.,.F.,.F.,(5,5),(0.,1.),.PIECEWISE_BEZIER_KNOTS.);
#1005 = CARTESIAN_POINT('',(27.5,12.659318735032,26.8));
#1006 = CARTESIAN_POINT('',(25.25,12.659318735032,26.8));
#1007 = CARTESIAN_POINT('',(23.,12.659318735032,26.8));
#1008 = CARTESIAN_POINT('',(20.75,12.659318735032,26.8));
#1009 = CARTESIAN_POINT('',(18.5,12.659318735032,26.8));
#1010 = PCURVE('',#220,#1011);
#1011 = DEFINITIONAL_REPRESENTATION('',(#1012),#1018);
#1012 = B_SPLINE_CURVE_WITH_KNOTS('',4,(#1013,#1014,#1015,#1016,#1017),
  .UNSPECIFIED.,.F.,.F.,(5,5),(0.,1.),.PIECEWISE_BEZIER_KNOTS.);
#1013 = CARTESIAN_POINT('',(77.5,62.659318735032));
#1014 = CARTESIAN_POINT('',(75.25,62.659318735032));
#1015 = CARTESIAN_POINT('',(73.,62.659318735032));
#1016 = CARTESIAN_POINT('',(70.75,62.659318735032));
#1017 = CARTESIAN_POINT('',(68.5,62.659318735032));
#1018 = ( GEOMETRIC_REPRESENTATION_CONTEXT(2) 
PARAMETRIC_REPRESENTATION_CONTEXT() REPRESENTATION_CONTEXT('2D SPACE',''
  ) );
#1019 = PCURVE('',#470,#1020);
#1020 = DEFINITIONAL_REPRESENTATION('',(#1021),#1027);
#1021 = B_SPLINE_CURVE_WITH_KNOTS('',4,(#1022,#1023,#1024,#1025,#1026),
  .UNSPECIFIED.,.F.,.F.,(5,5),(0.,1.),.PIECEWISE_BEZIER_KNOTS.);
#1022 = CARTESIAN_POINT('',(4.771648282406,-10.));
#1023 = CARTESIAN_POINT('',(4.771648282406,-7.75));
#1024 = CARTESIAN_POINT('',(4.771648282406,-5.5));
#1025 = CARTESIAN_POINT('',(4.771648282406,-3.25));
#1026 = CARTESIAN_POINT('',(4.771648282406,-1.));
#1027 = ( GEOMETRIC_REPRESENTATION_CONTEXT(2) 
PARAMETRIC_REPRESENTATION_CONTEXT() REPRESENTATION_CONTEXT('2D SPACE',''
  ) );
#1028 = ORIENTED_EDGE('',*,*,#867,.T.);
#1029 = ORIENTED_EDGE('',*,*,#1030,.F.);
#1030 = EDGE_CURVE('',#203,#868,#1031,.T.);
#1031 = SURFACE_CURVE('',#1032,(#1036,#1043),.PCURVE_S1.);
#1032 = LINE('',#1033,#1034);
#1033 = CARTESIAN_POINT('',(18.5,28.5,26.8));
#1034 = VECTOR('',#1035,1.);
#1035 = DIRECTION('',(1.,0.,0.));
#1036 = PCURVE('',#220,#1037);
#1037 = DEFINITIONAL_REPRESENTATION('',(#1038),#1042);
#1038 = LINE('',#1039,#1040);
#1039 = CARTESIAN_POINT('',(68.5,78.5));
#1040 = VECTOR('',#1041,1.);
#1041 = DIRECTION('',(1.,0.));
#1042 = ( GEOMETRIC_REPRESENTATION_CONTEXT(2) 
PARAMETRIC_REPRESENTATION_CONTEXT() REPRESENTATION_CONTEXT('2D SPACE',''
  ) );
#1043 = PCURVE('',#248,#1044);
#1044 = DEFINITIONAL_REPRESENTATION('',(#1045),#1049);
#1045 = LINE('',#1046,#1047);
#1046 = CARTESIAN_POINT('',(0.,0.));
#1047 = VECTOR('',#1048,1.);
#1048 = DIRECTION('',(0.,1.));
#1049 = ( GEOMETRIC_REPRESENTATION_CONTEXT(2) 
PARAMETRIC_REPRESENTATION_CONTEXT() REPRESENTATION_CONTEXT('2D SPACE',''
  ) );
#1050 = ORIENTED_EDGE('',*,*,#202,.T.);
#1051 = FACE_BOUND('',#1052,.F.);
#1052 = EDGE_LOOP('',(#1053));
#1053 = ORIENTED_EDGE('',*,*,#1054,.T.);
#1054 = EDGE_CURVE('',#1055,#1055,#1057,.T.);
#1055 = VERTEX_POINT('',#1056);
#1056 = CARTESIAN_POINT('',(24.7,22.,26.8));
#1057 = SURFACE_CURVE('',#1058,(#1063,#1074),.PCURVE_S1.);
#1058 = CIRCLE('',#1059,1.7);
#1059 = AXIS2_PLACEMENT_3D('',#1060,#1061,#1062);
#1060 = CARTESIAN_POINT('',(23.,22.,26.8));
#1061 = DIRECTION('',(0.,0.,-1.));
#1062 = DIRECTION('',(1.,0.,0.));
#1063 = PCURVE('',#220,#1064);
#1064 = DEFINITIONAL_REPRESENTATION('',(#1065),#1073);
#1065 = ( BOUNDED_CURVE() B_SPLINE_CURVE(2,(#1066,#1067,#1068,#1069,
#1070,#1071,#1072),.UNSPECIFIED.,.T.,.F.) B_SPLINE_CURVE_WITH_KNOTS((1,2
    ,2,2,2,1),(-2.094395102393,0.,2.094395102393,4.188790204786,
6.28318530718,8.377580409573),.UNSPECIFIED.) CURVE() 
GEOMETRIC_REPRESENTATION_ITEM() RATIONAL_B_SPLINE_CURVE((1.,0.5,1.,0.5,
1.,0.5,1.)) REPRESENTATION_ITEM('') );
#1066 = CARTESIAN_POINT('',(74.7,72.));
#1067 = CARTESIAN_POINT('',(74.7,69.055513627133));
#1068 = CARTESIAN_POINT('',(72.15,70.527756813566));
#1069 = CARTESIAN_POINT('',(69.6,72.));
#1070 = CARTESIAN_POINT('',(72.15,73.472243186434));
#1071 = CARTESIAN_POINT('',(74.7,74.944486372867));
#1072 = CARTESIAN_POINT('',(74.7,72.));
#1073 = ( GEOMETRIC_REPRESENTATION_CONTEXT(2) 
PARAMETRIC_REPRESENTATION_CONTEXT() REPRESENTATION_CONTEXT('2D SPACE',''
  ) );
#1074 = PCURVE('',#987,#1075);
#1075 = DEFINITIONAL_REPRESENTATION('',(#1076),#1080);
#1076 = LINE('',#1077,#1078);
#1077 = CARTESIAN_POINT('',(-6.28318530718,-0.8));
#1078 = VECTOR('',#1079,1.);
#1079 = DIRECTION('',(1.,-0.));
#1080 = ( GEOMETRIC_REPRESENTATION_CONTEXT(2) 
PARAMETRIC_REPRESENTATION_CONTEXT() REPRESENTATION_CONTEXT('2D SPACE',''
  ) );
#1081 = ADVANCED_FACE('',(#1082),#248,.T.);
#1082 = FACE_BOUND('',#1083,.T.);
#1083 = EDGE_LOOP('',(#1084,#1085,#1086,#1087));
#1084 = ORIENTED_EDGE('',*,*,#1030,.F.);
#1085 = ORIENTED_EDGE('',*,*,#232,.T.);
#1086 = ORIENTED_EDGE('',*,*,#943,.T.);
#1087 = ORIENTED_EDGE('',*,*,#890,.F.);
#1088 = ADVANCED_FACE('',(#1089),#322,.F.);
#1089 = FACE_BOUND('',#1090,.F.);
#1090 = EDGE_LOOP('',(#1091,#1112,#1113,#1114));
#1091 = ORIENTED_EDGE('',*,*,#1092,.F.);
#1092 = EDGE_CURVE('',#307,#639,#1093,.T.);
#1093 = SURFACE_CURVE('',#1094,(#1098,#1105),.PCURVE_S1.);
#1094 = LINE('',#1095,#1096);
#1095 = CARTESIAN_POINT('',(18.5,-28.5,26.8));
#1096 = VECTOR('',#1097,1.);
#1097 = DIRECTION('',(1.,0.,0.));
#1098 = PCURVE('',#322,#1099);
#1099 = DEFINITIONAL_REPRESENTATION('',(#1100),#1104);
#1100 = LINE('',#1101,#1102);
#1101 = CARTESIAN_POINT('',(0.,0.));
#1102 = VECTOR('',#1103,1.);
#1103 = DIRECTION('',(0.,1.));
#1104 = ( GEOMETRIC_REPRESENTATION_CONTEXT(2) 
PARAMETRIC_REPRESENTATION_CONTEXT() REPRESENTATION_CONTEXT('2D SPACE',''
  ) );
#1105 = PCURVE('',#350,#1106);
#1106 = DEFINITIONAL_REPRESENTATION('',(#1107),#1111);
#1107 = LINE('',#1108,#1109);
#1108 = CARTESIAN_POINT('',(68.5,21.5));
#1109 = VECTOR('',#1110,1.);
#1110 = DIRECTION('',(1.,0.));
#1111 = ( GEOMETRIC_REPRESENTATION_CONTEXT(2) 
PARAMETRIC_REPRESENTATION_CONTEXT() REPRESENTATION_CONTEXT('2D SPACE',''
  ) );
#1112 = ORIENTED_EDGE('',*,*,#306,.T.);
#1113 = ORIENTED_EDGE('',*,*,#555,.T.);
#1114 = ORIENTED_EDGE('',*,*,#638,.F.);
#1115 = ADVANCED_FACE('',(#1116,#1148),#350,.F.);
#1116 = FACE_BOUND('',#1117,.F.);
#1117 = EDGE_LOOP('',(#1118,#1119,#1120,#1147));
#1118 = ORIENTED_EDGE('',*,*,#1092,.T.);
#1119 = ORIENTED_EDGE('',*,*,#661,.T.);
#1120 = ORIENTED_EDGE('',*,*,#1121,.T.);
#1121 = EDGE_CURVE('',#662,#335,#1122,.T.);
#1122 = SURFACE_CURVE('',#1123,(#1129,#1138),.PCURVE_S1.);
#1123 = B_SPLINE_CURVE_WITH_KNOTS('',4,(#1124,#1125,#1126,#1127,#1128),
  .UNSPECIFIED.,.F.,.F.,(5,5),(0.,1.),.PIECEWISE_BEZIER_KNOTS.);
#1124 = CARTESIAN_POINT('',(27.5,-12.65931873503,26.8));
#1125 = CARTESIAN_POINT('',(25.25,-12.65931873503,26.8));
#1126 = CARTESIAN_POINT('',(23.,-12.65931873503,26.8));
#1127 = CARTESIAN_POINT('',(20.75,-12.65931873503,26.8));
#1128 = CARTESIAN_POINT('',(18.5,-12.65931873503,26.8));
#1129 = PCURVE('',#350,#1130);
#1130 = DEFINITIONAL_REPRESENTATION('',(#1131),#1137);
#1131 = B_SPLINE_CURVE_WITH_KNOTS('',4,(#1132,#1133,#1134,#1135,#1136),
  .UNSPECIFIED.,.F.,.F.,(5,5),(0.,1.),.PIECEWISE_BEZIER_KNOTS.);
#1132 = CARTESIAN_POINT('',(77.5,37.340681264968));
#1133 = CARTESIAN_POINT('',(75.25,37.340681264968));
#1134 = CARTESIAN_POINT('',(73.,37.340681264968));
#1135 = CARTESIAN_POINT('',(70.75,37.340681264968));
#1136 = CARTESIAN_POINT('',(68.5,37.340681264968));
#1137 = ( GEOMETRIC_REPRESENTATION_CONTEXT(2) 
PARAMETRIC_REPRESENTATION_CONTEXT() REPRESENTATION_CONTEXT('2D SPACE',''
  ) );
#1138 = PCURVE('',#470,#1139);
#1139 = DEFINITIONAL_REPRESENTATION('',(#1140),#1146);
#1140 = B_SPLINE_CURVE_WITH_KNOTS('',4,(#1141,#1142,#1143,#1144,#1145),
  .UNSPECIFIED.,.F.,.F.,(5,5),(0.,1.),.PIECEWISE_BEZIER_KNOTS.);
#1141 = CARTESIAN_POINT('',(7.794722331953,-10.));
#1142 = CARTESIAN_POINT('',(7.794722331953,-7.75));
#1143 = CARTESIAN_POINT('',(7.794722331953,-5.5));
#1144 = CARTESIAN_POINT('',(7.794722331953,-3.25));
#1145 = CARTESIAN_POINT('',(7.794722331953,-1.));
#1146 = ( GEOMETRIC_REPRESENTATION_CONTEXT(2) 
PARAMETRIC_REPRESENTATION_CONTEXT() REPRESENTATION_CONTEXT('2D SPACE',''
  ) );
#1147 = ORIENTED_EDGE('',*,*,#334,.T.);
#1148 = FACE_BOUND('',#1149,.F.);
#1149 = EDGE_LOOP('',(#1150));
#1150 = ORIENTED_EDGE('',*,*,#1151,.T.);
#1151 = EDGE_CURVE('',#1152,#1152,#1154,.T.);
#1152 = VERTEX_POINT('',#1153);
#1153 = CARTESIAN_POINT('',(24.7,-22.,26.8));
#1154 = SURFACE_CURVE('',#1155,(#1160,#1171),.PCURVE_S1.);
#1155 = CIRCLE('',#1156,1.7);
#1156 = AXIS2_PLACEMENT_3D('',#1157,#1158,#1159);
#1157 = CARTESIAN_POINT('',(23.,-22.,26.8));
#1158 = DIRECTION('',(0.,0.,-1.));
#1159 = DIRECTION('',(1.,0.,0.));
#1160 = PCURVE('',#350,#1161);
#1161 = DEFINITIONAL_REPRESENTATION('',(#1162),#1170);
#1162 = ( BOUNDED_CURVE() B_SPLINE_CURVE(2,(#1163,#1164,#1165,#1166,
#1167,#1168,#1169),.UNSPECIFIED.,.T.,.F.) B_SPLINE_CURVE_WITH_KNOTS((1,2
    ,2,2,2,1),(-2.094395102393,0.,2.094395102393,4.188790204786,
6.28318530718,8.377580409573),.UNSPECIFIED.) CURVE() 
GEOMETRIC_REPRESENTATION_ITEM() RATIONAL_B_SPLINE_CURVE((1.,0.5,1.,0.5,
1.,0.5,1.)) REPRESENTATION_ITEM('') );
#1163 = CARTESIAN_POINT('',(74.7,28.));
#1164 = CARTESIAN_POINT('',(74.7,25.055513627133));
#1165 = CARTESIAN_POINT('',(72.15,26.527756813566));
#1166 = CARTESIAN_POINT('',(69.6,28.));
#1167 = CARTESIAN_POINT('',(72.15,29.472243186434));
#1168 = CARTESIAN_POINT('',(74.7,30.944486372867));
#1169 = CARTESIAN_POINT('',(74.7,28.));
#1170 = ( GEOMETRIC_REPRESENTATION_CONTEXT(2) 
PARAMETRIC_REPRESENTATION_CONTEXT() REPRESENTATION_CONTEXT('2D SPACE',''
  ) );
#1171 = PCURVE('',#623,#1172);
#1172 = DEFINITIONAL_REPRESENTATION('',(#1173),#1177);
#1173 = LINE('',#1174,#1175);
#1174 = CARTESIAN_POINT('',(-6.28318530718,-0.8));
#1175 = VECTOR('',#1176,1.);
#1176 = DIRECTION('',(1.,-0.));
#1177 = ( GEOMETRIC_REPRESENTATION_CONTEXT(2) 
PARAMETRIC_REPRESENTATION_CONTEXT() REPRESENTATION_CONTEXT('2D SPACE',''
  ) );
#1178 = ADVANCED_FACE('',(#1179),#470,.T.);
#1179 = FACE_BOUND('',#1180,.T.);
#1180 = EDGE_LOOP('',(#1181,#1182,#1183,#1184));
#1181 = ORIENTED_EDGE('',*,*,#684,.F.);
#1182 = ORIENTED_EDGE('',*,*,#1121,.T.);
#1183 = ORIENTED_EDGE('',*,*,#362,.F.);
#1184 = ORIENTED_EDGE('',*,*,#1002,.F.);
#1185 = ADVANCED_FACE('',(#1186),#623,.F.);
#1186 = FACE_BOUND('',#1187,.T.);
#1187 = EDGE_LOOP('',(#1188,#1189,#1210,#1211));
#1188 = ORIENTED_EDGE('',*,*,#1151,.T.);
#1189 = ORIENTED_EDGE('',*,*,#1190,.T.);
#1190 = EDGE_CURVE('',#1152,#603,#1191,.T.);
#1191 = SEAM_CURVE('',#1192,(#1196,#1203),.PCURVE_S1.);
#1192 = LINE('',#1193,#1194);
#1193 = CARTESIAN_POINT('',(24.7,-22.,26.));
#1194 = VECTOR('',#1195,1.);
#1195 = DIRECTION('',(0.,0.,1.));
#1196 = PCURVE('',#623,#1197);
#1197 = DEFINITIONAL_REPRESENTATION('',(#1198),#1202);
#1198 = LINE('',#1199,#1200);
#1199 = CARTESIAN_POINT('',(-6.28318530718,0.));
#1200 = VECTOR('',#1201,1.);
#1201 = DIRECTION('',(-0.,-1.));
#1202 = ( GEOMETRIC_REPRESENTATION_CONTEXT(2) 
PARAMETRIC_REPRESENTATION_CONTEXT() REPRESENTATION_CONTEXT('2D SPACE',''
  ) );
#1203 = PCURVE('',#623,#1204);
#1204 = DEFINITIONAL_REPRESENTATION('',(#1205),#1209);
#1205 = LINE('',#1206,#1207);
#1206 = CARTESIAN_POINT('',(-0.,0.));
#1207 = VECTOR('',#1208,1.);
#1208 = DIRECTION('',(-0.,-1.));
#1209 = ( GEOMETRIC_REPRESENTATION_CONTEXT(2) 
PARAMETRIC_REPRESENTATION_CONTEXT() REPRESENTATION_CONTEXT('2D SPACE',''
  ) );
#1210 = ORIENTED_EDGE('',*,*,#602,.F.);
#1211 = ORIENTED_EDGE('',*,*,#1190,.F.);
#1212 = ADVANCED_FACE('',(#1213),#987,.F.);
#1213 = FACE_BOUND('',#1214,.T.);
#1214 = EDGE_LOOP('',(#1215,#1216,#1237,#1238));
#1215 = ORIENTED_EDGE('',*,*,#1054,.T.);
#1216 = ORIENTED_EDGE('',*,*,#1217,.T.);
#1217 = EDGE_CURVE('',#1055,#967,#1218,.T.);
#1218 = SEAM_CURVE('',#1219,(#1223,#1230),.PCURVE_S1.);
#1219 = LINE('',#1220,#1221);
#1220 = CARTESIAN_POINT('',(24.7,22.,26.));
#1221 = VECTOR('',#1222,1.);
#1222 = DIRECTION('',(0.,0.,1.));
#1223 = PCURVE('',#987,#1224);
#1224 = DEFINITIONAL_REPRESENTATION('',(#1225),#1229);
#1225 = LINE('',#1226,#1227);
#1226 = CARTESIAN_POINT('',(-6.28318530718,0.));
#1227 = VECTOR('',#1228,1.);
#1228 = DIRECTION('',(-0.,-1.));
#1229 = ( GEOMETRIC_REPRESENTATION_CONTEXT(2) 
PARAMETRIC_REPRESENTATION_CONTEXT() REPRESENTATION_CONTEXT('2D SPACE',''
  ) );
#1230 = PCURVE('',#987,#1231);
#1231 = DEFINITIONAL_REPRESENTATION('',(#1232),#1236);
#1232 = LINE('',#1233,#1234);
#1233 = CARTESIAN_POINT('',(-0.,0.));
#1234 = VECTOR('',#1235,1.);
#1235 = DIRECTION('',(-0.,-1.));
#1236 = ( GEOMETRIC_REPRESENTATION_CONTEXT(2) 
PARAMETRIC_REPRESENTATION_CONTEXT() REPRESENTATION_CONTEXT('2D SPACE',''
  ) );
#1237 = ORIENTED_EDGE('',*,*,#966,.F.);
#1238 = ORIENTED_EDGE('',*,*,#1217,.F.);
#1239 = ( GEOMETRIC_REPRESENTATION_CONTEXT(3) 
GLOBAL_UNCERTAINTY_ASSIGNED_CONTEXT((#1243)) 
GLOBAL_UNIT_ASSIGNED_CONTEXT((#1240,#1241,#1242)) REPRESENTATION_CONTEXT
('Context #1','3D Context with UNIT and UNCERTAINTY') );
#1240 = ( LENGTH_UNIT() NAMED_UNIT(*) SI_UNIT(.MILLI.,.METRE.) );
#1241 = ( NAMED_UNIT(*) PLANE_ANGLE_UNIT() SI_UNIT($,.RADIAN.) );
#1242 = ( NAMED_UNIT(*) SI_UNIT($,.STERADIAN.) SOLID_ANGLE_UNIT() );
#1243 = UNCERTAINTY_MEASURE_WITH_UNIT(LENGTH_MEASURE(2.E-06),#1240,
  'distance_accuracy_value','confusion accuracy');
#1244 = PRODUCT_RELATED_PRODUCT_CATEGORY('part',$,(#7));
ENDSEC;
END-ISO-10303-21;
