ISO-10303-21;
HEADER;
FILE_DESCRIPTION(('Open CASCADE Model'),'2;1');
FILE_NAME('Open CASCADE Shape Model','2026-09-24T11:22:09',('Author'),(
    'Open CASCADE'),'Open CASCADE STEP processor 7.9','Open CASCADE 7.9'
  ,'Unknown');
FILE_SCHEMA(('AUTOMOTIVE_DESIGN { 1 0 10303 214 1 1 1 1 }'));
ENDSEC;
DATA;
#1 = APPLICATION_PROTOCOL_DEFINITION('international standard',
  'automotive_design',2000,#2);
#2 = APPLICATION_CONTEXT(
  'core data for automotive mechanical design processes');
#3 = SHAPE_DEFINITION_REPRESENTATION(#4,#10);
#4 = PRODUCT_DEFINITION_SHAPE('','',#5);
#5 = PRODUCT_DEFINITION('design','',#6,#9);
#6 = PRODUCT_DEFINITION_FORMATION('','',#7);
#7 = PRODUCT('Open CASCADE STEP translator 7.9 2',
  'Open CASCADE STEP translator 7.9 2','',(#8));
#8 = PRODUCT_CONTEXT('',#2,'mechanical');
#9 = PRODUCT_DEFINITION_CONTEXT('part definition',#2,'design');
#10 = ADVANCED_BREP_SHAPE_REPRESENTATION('',(#11,#15),#1551);
#11 = AXIS2_PLACEMENT_3D('',#12,#13,#14);
#12 = CARTESIAN_POINT('',(0.,0.,0.));
#13 = DIRECTION('',(0.,0.,1.));
#14 = DIRECTION('',(1.,0.,-0.));
#15 = MANIFOLD_SOLID_BREP('',#16);
#16 = CLOSED_SHELL('',(#17,#550,#661,#710,#795,#1010,#1094,#1143,#1222,
    #1271,#1326,#1405,#1454,#1481,#1497,#1524));
#17 = ADVANCED_FACE('',(#18),#32,.T.);
#18 = FACE_BOUND('',#19,.T.);
#19 = EDGE_LOOP('',(#20,#55,#83,#111,#302,#330,#358,#386,#414,#442,#473,
    #496,#524));
#20 = ORIENTED_EDGE('',*,*,#21,.F.);
#21 = EDGE_CURVE('',#22,#24,#26,.T.);
#22 = VERTEX_POINT('',#23);
#23 = CARTESIAN_POINT('',(-18.5,-38.5,31.8));
#24 = VERTEX_POINT('',#25);
#25 = CARTESIAN_POINT('',(-18.5,-26.,31.8));
#26 = SURFACE_CURVE('',#27,(#31,#43),.PCURVE_S1.);
#27 = LINE('',#28,#29);
#28 = CARTESIAN_POINT('',(-18.5,-38.5,31.8));
#29 = VECTOR('',#30,1.);
#30 = DIRECTION('',(0.,1.,0.));
#31 = PCURVE('',#32,#37);
#32 = PLANE('',#33);
#33 = AXIS2_PLACEMENT_3D('',#34,#35,#36);
#34 = CARTESIAN_POINT('',(-18.5,-1.746000824833E-16,26.122357823109));
#35 = DIRECTION('',(1.,0.,0.));
#36 = DIRECTION('',(-0.,0.,1.));
#37 = DEFINITIONAL_REPRESENTATION('',(#38),#42);
#38 = LINE('',#39,#40);
#39 = CARTESIAN_POINT('',(5.677642176891,38.5));
#40 = VECTOR('',#41,1.);
#41 = DIRECTION('',(0.,-1.));
#42 = ( GEOMETRIC_REPRESENTATION_CONTEXT(2) 
PARAMETRIC_REPRESENTATION_CONTEXT() REPRESENTATION_CONTEXT('2D SPACE',''
  ) );
#43 = PCURVE('',#44,#49);
#44 = PLANE('',#45);
#45 = AXIS2_PLACEMENT_3D('',#46,#47,#48);
#46 = CARTESIAN_POINT('',(-27.5,-38.5,31.8));
#47 = DIRECTION('',(0.,0.,1.));
#48 = DIRECTION('',(1.,0.,0.));
#49 = DEFINITIONAL_REPRESENTATION('',(#50),#54);
#50 = LINE('',#51,#52);
#51 = CARTESIAN_POINT('',(9.,0.));
#52 = VECTOR('',#53,1.);
#53 = DIRECTION('',(0.,1.));
#54 = ( GEOMETRIC_REPRESENTATION_CONTEXT(2) 
PARAMETRIC_REPRESENTATION_CONTEXT() REPRESENTATION_CONTEXT('2D SPACE',''
  ) );
#55 = ORIENTED_EDGE('',*,*,#56,.F.);
#56 = EDGE_CURVE('',#57,#22,#59,.T.);
#57 = VERTEX_POINT('',#58);
#58 = CARTESIAN_POINT('',(-18.5,-38.5,26.8));
#59 = SURFACE_CURVE('',#60,(#64,#71),.PCURVE_S1.);
#60 = LINE('',#61,#62);
#61 = CARTESIAN_POINT('',(-18.5,-38.5,26.8));
#62 = VECTOR('',#63,1.);
#63 = DIRECTION('',(0.,0.,1.));
#64 = PCURVE('',#32,#65);
#65 = DEFINITIONAL_REPRESENTATION('',(#66),#70);
#66 = LINE('',#67,#68);
#67 = CARTESIAN_POINT('',(0.677642176891,38.5));
#68 = VECTOR('',#69,1.);
#69 = DIRECTION('',(1.,0.));
#70 = ( GEOMETRIC_REPRESENTATION_CONTEXT(2) 
PARAMETRIC_REPRESENTATION_CONTEXT() REPRESENTATION_CONTEXT('2D SPACE',''
  ) );
#71 = PCURVE('',#72,#77);
#72 = PLANE('',#73);
#73 = AXIS2_PLACEMENT_3D('',#74,#75,#76);
#74 = CARTESIAN_POINT('',(-27.5,-38.5,26.8));
#75 = DIRECTION('',(0.,1.,0.));
#76 = DIRECTION('',(0.,0.,1.));
#77 = DEFINITIONAL_REPRESENTATION('',(#78),#82);
#78 = LINE('',#79,#80);
#79 = CARTESIAN_POINT('',(0.,9.));
#80 = VECTOR('',#81,1.);
#81 = DIRECTION('',(1.,0.));
#82 = ( GEOMETRIC_REPRESENTATION_CONTEXT(2) 
PARAMETRIC_REPRESENTATION_CONTEXT() REPRESENTATION_CONTEXT('2D SPACE',''
  ) );
#83 = ORIENTED_EDGE('',*,*,#84,.T.);
#84 = EDGE_CURVE('',#57,#85,#87,.T.);
#85 = VERTEX_POINT('',#86);
#86 = CARTESIAN_POINT('',(-18.5,-13.26584070051,26.8));
#87 = SURFACE_CURVE('',#88,(#92,#99),.PCURVE_S1.);
#88 = LINE('',#89,#90);
#89 = CARTESIAN_POINT('',(-18.5,-38.5,26.8));
#90 = VECTOR('',#91,1.);
#91 = DIRECTION('',(0.,1.,0.));
#92 = PCURVE('',#32,#93);
#93 = DEFINITIONAL_REPRESENTATION('',(#94),#98);
#94 = LINE('',#95,#96);
#95 = CARTESIAN_POINT('',(0.677642176891,38.5));
#96 = VECTOR('',#97,1.);
#97 = DIRECTION('',(0.,-1.));
#98 = ( GEOMETRIC_REPRESENTATION_CONTEXT(2) 
PARAMETRIC_REPRESENTATION_CONTEXT() REPRESENTATION_CONTEXT('2D SPACE',''
  ) );
#99 = PCURVE('',#100,#105);
#100 = PLANE('',#101);
#101 = AXIS2_PLACEMENT_3D('',#102,#103,#104);
#102 = CARTESIAN_POINT('',(-50.,-50.,26.8));
#103 = DIRECTION('',(0.,0.,1.));
#104 = DIRECTION('',(1.,0.,0.));
#105 = DEFINITIONAL_REPRESENTATION('',(#106),#110);
#106 = LINE('',#107,#108);
#107 = CARTESIAN_POINT('',(31.5,11.5));
#108 = VECTOR('',#109,1.);
#109 = DIRECTION('',(0.,1.));
#110 = ( GEOMETRIC_REPRESENTATION_CONTEXT(2) 
PARAMETRIC_REPRESENTATION_CONTEXT() REPRESENTATION_CONTEXT('2D SPACE',''
  ) );
#111 = ORIENTED_EDGE('',*,*,#112,.T.);
#112 = EDGE_CURVE('',#85,#113,#115,.T.);
#113 = VERTEX_POINT('',#114);
#114 = CARTESIAN_POINT('',(-18.5,13.265840700511,26.8));
#115 = SURFACE_CURVE('',#116,(#167,#221),.PCURVE_S1.);
#116 = B_SPLINE_CURVE_WITH_KNOTS('',7,(#117,#118,#119,#120,#121,#122,
    #123,#124,#125,#126,#127,#128,#129,#130,#131,#132,#133,#134,#135,
    #136,#137,#138,#139,#140,#141,#142,#143,#144,#145,#146,#147,#148,
    #149,#150,#151,#152,#153,#154,#155,#156,#157,#158,#159,#160,#161,
    #162,#163,#164,#165,#166),.UNSPECIFIED.,.F.,.F.,(8,6,6,6,6,6,6,6,8),
  (0.,0.345628100968,0.521168548236,0.689560054595,1.,1.310439945405,
    1.478831451765,1.654371899033,2.000000000001),.UNSPECIFIED.);
#117 = CARTESIAN_POINT('',(-18.5,-13.26584070051,26.8));
#118 = CARTESIAN_POINT('',(-18.5,-13.21189088932,27.826733994388));
#119 = CARTESIAN_POINT('',(-18.5,-13.07713027783,28.849193887064));
#120 = CARTESIAN_POINT('',(-18.5,-12.86178255434,29.859815565392));
#121 = CARTESIAN_POINT('',(-18.5,-12.5665622861,30.850858878361));
#122 = CARTESIAN_POINT('',(-18.5,-12.19277480292,31.814430705203));
#123 = CARTESIAN_POINT('',(-18.5,-11.74244168164,32.742523799011));
#124 = CARTESIAN_POINT('',(-18.5,-10.95232354924,34.076322730756));
#125 = CARTESIAN_POINT('',(-18.5,-10.66720740093,34.514321278723));
#126 = CARTESIAN_POINT('',(-18.5,-10.36349673385,34.939994978615));
#127 = CARTESIAN_POINT('',(-18.5,-10.04164967689,35.352264778579));
#128 = CARTESIAN_POINT('',(-18.5,-9.702198531412,35.750052332992));
#129 = CARTESIAN_POINT('',(-18.5,-9.345759162464,36.132287689888));
#130 = CARTESIAN_POINT('',(-18.5,-8.615500708875,36.848655897083));
#131 = CARTESIAN_POINT('',(-18.5,-8.242975902108,37.184118793114));
#132 = CARTESIAN_POINT('',(-18.5,-7.856098451812,37.503368501301));
#133 = CARTESIAN_POINT('',(-18.5,-7.455574052424,37.80549418132));
#134 = CARTESIAN_POINT('',(-18.5,-7.042185992109,38.08961719114));
#135 = CARTESIAN_POINT('',(-18.5,-6.616802767174,38.354901529867));
#136 = CARTESIAN_POINT('',(-18.5,-5.375833575934,39.053471440485));
#137 = CARTESIAN_POINT('',(-18.5,-4.533483514763,39.439872698358));
#138 = CARTESIAN_POINT('',(-18.5,-3.659744009914,39.754576214207));
#139 = CARTESIAN_POINT('',(-18.5,-2.761636792546,39.993589165815));
#140 = CARTESIAN_POINT('',(-18.5,-1.846748498123,40.154028699762));
#141 = CARTESIAN_POINT('',(-18.5,-0.92324874504,40.234210526316));
#142 = CARTESIAN_POINT('',(-18.5,0.923248745041,40.234210526316));
#143 = CARTESIAN_POINT('',(-18.5,1.846748498118,40.154028699763));
#144 = CARTESIAN_POINT('',(-18.5,2.761636792552,39.993589165813));
#145 = CARTESIAN_POINT('',(-18.5,3.659744009907,39.75457621421));
#146 = CARTESIAN_POINT('',(-18.5,4.533483514764,39.439872698358));
#147 = CARTESIAN_POINT('',(-18.5,5.375833575932,39.053471440486));
#148 = CARTESIAN_POINT('',(-18.5,6.616802767172,38.354901529868));
#149 = CARTESIAN_POINT('',(-18.5,7.042185992108,38.089617191142));
#150 = CARTESIAN_POINT('',(-18.5,7.455574052423,37.805494181322));
#151 = CARTESIAN_POINT('',(-18.5,7.85609845181,37.503368501302));
#152 = CARTESIAN_POINT('',(-18.5,8.242975902107,37.184118793115));
#153 = CARTESIAN_POINT('',(-18.5,8.615500708874,36.848655897085));
#154 = CARTESIAN_POINT('',(-18.5,9.345759162463,36.13228768989));
#155 = CARTESIAN_POINT('',(-18.5,9.702198531411,35.750052332993));
#156 = CARTESIAN_POINT('',(-18.5,10.041649676896,35.352264778581));
#157 = CARTESIAN_POINT('',(-18.5,10.363496733858,34.939994978617));
#158 = CARTESIAN_POINT('',(-18.5,10.667207400932,34.514321278725));
#159 = CARTESIAN_POINT('',(-18.5,10.952323549244,34.076322730758));
#160 = CARTESIAN_POINT('',(-18.5,11.742441681646,32.742523799013));
#161 = CARTESIAN_POINT('',(-18.5,12.192774802926,31.814430705205));
#162 = CARTESIAN_POINT('',(-18.5,12.566562286101,30.850858878363));
#163 = CARTESIAN_POINT('',(-18.5,12.861782554348,29.859815565393));
#164 = CARTESIAN_POINT('',(-18.5,13.077130277838,28.849193887065));
#165 = CARTESIAN_POINT('',(-18.5,13.211890889329,27.826733994389));
#166 = CARTESIAN_POINT('',(-18.5,13.265840700511,26.8));
#167 = PCURVE('',#32,#168);
#168 = DEFINITIONAL_REPRESENTATION('',(#169),#220);
#169 = B_SPLINE_CURVE_WITH_KNOTS('',7,(#170,#171,#172,#173,#174,#175,
    #176,#177,#178,#179,#180,#181,#182,#183,#184,#185,#186,#187,#188,
    #189,#190,#191,#192,#193,#194,#195,#196,#197,#198,#199,#200,#201,
    #202,#203,#204,#205,#206,#207,#208,#209,#210,#211,#212,#213,#214,
    #215,#216,#217,#218,#219),.UNSPECIFIED.,.F.,.F.,(8,6,6,6,6,6,6,6,8),
  (0.,0.345628100968,0.521168548236,0.689560054595,1.,1.310439945405,
    1.478831451765,1.654371899033,2.000000000001),.UNSPECIFIED.);
#170 = CARTESIAN_POINT('',(0.677642176891,13.265840700511));
#171 = CARTESIAN_POINT('',(1.704376171279,13.211890889329));
#172 = CARTESIAN_POINT('',(2.726836063955,13.077130277838));
#173 = CARTESIAN_POINT('',(3.737457742283,12.861782554349));
#174 = CARTESIAN_POINT('',(4.728501055252,12.566562286101));
#175 = CARTESIAN_POINT('',(5.692072882094,12.192774802927));
#176 = CARTESIAN_POINT('',(6.620165975902,11.742441681647));
#177 = CARTESIAN_POINT('',(7.953964907647,10.952323549245));
#178 = CARTESIAN_POINT('',(8.391963455614,10.667207400933));
#179 = CARTESIAN_POINT('',(8.817637155506,10.363496733859));
#180 = CARTESIAN_POINT('',(9.22990695547,10.041649676897));
#181 = CARTESIAN_POINT('',(9.627694509883,9.702198531412));
#182 = CARTESIAN_POINT('',(10.009929866779,9.345759162464));
#183 = CARTESIAN_POINT('',(10.726298073974,8.615500708875));
#184 = CARTESIAN_POINT('',(11.061760970005,8.242975902108));
#185 = CARTESIAN_POINT('',(11.381010678192,7.856098451812));
#186 = CARTESIAN_POINT('',(11.683136358211,7.455574052424));
#187 = CARTESIAN_POINT('',(11.967259368031,7.042185992109));
#188 = CARTESIAN_POINT('',(12.232543706758,6.616802767174));
#189 = CARTESIAN_POINT('',(12.931113617376,5.375833575934));
#190 = CARTESIAN_POINT('',(13.317514875249,4.533483514763));
#191 = CARTESIAN_POINT('',(13.632218391098,3.659744009914));
#192 = CARTESIAN_POINT('',(13.871231342706,2.761636792546));
#193 = CARTESIAN_POINT('',(14.031670876653,1.846748498123));
#194 = CARTESIAN_POINT('',(14.111852703207,0.92324874504));
#195 = CARTESIAN_POINT('',(14.111852703207,-0.923248745041));
#196 = CARTESIAN_POINT('',(14.031670876654,-1.846748498118));
#197 = CARTESIAN_POINT('',(13.871231342705,-2.761636792552));
#198 = CARTESIAN_POINT('',(13.632218391101,-3.659744009907));
#199 = CARTESIAN_POINT('',(13.317514875249,-4.533483514764));
#200 = CARTESIAN_POINT('',(12.931113617377,-5.375833575932));
#201 = CARTESIAN_POINT('',(12.232543706759,-6.616802767172));
#202 = CARTESIAN_POINT('',(11.967259368033,-7.042185992108));
#203 = CARTESIAN_POINT('',(11.683136358213,-7.455574052423));
#204 = CARTESIAN_POINT('',(11.381010678193,-7.85609845181));
#205 = CARTESIAN_POINT('',(11.061760970006,-8.242975902107));
#206 = CARTESIAN_POINT('',(10.726298073976,-8.615500708874));
#207 = CARTESIAN_POINT('',(10.009929866781,-9.345759162463));
#208 = CARTESIAN_POINT('',(9.627694509884,-9.702198531411));
#209 = CARTESIAN_POINT('',(9.229906955472,-10.04164967689));
#210 = CARTESIAN_POINT('',(8.817637155508,-10.36349673385));
#211 = CARTESIAN_POINT('',(8.391963455616,-10.66720740093));
#212 = CARTESIAN_POINT('',(7.953964907649,-10.95232354924));
#213 = CARTESIAN_POINT('',(6.620165975904,-11.74244168164));
#214 = CARTESIAN_POINT('',(5.692072882096,-12.19277480292));
#215 = CARTESIAN_POINT('',(4.728501055254,-12.5665622861));
#216 = CARTESIAN_POINT('',(3.737457742284,-12.86178255434));
#217 = CARTESIAN_POINT('',(2.726836063956,-13.07713027783));
#218 = CARTESIAN_POINT('',(1.70437617128,-13.21189088932));
#219 = CARTESIAN_POINT('',(0.677642176891,-13.26584070051));
#220 = ( GEOMETRIC_REPRESENTATION_CONTEXT(2) 
PARAMETRIC_REPRESENTATION_CONTEXT() REPRESENTATION_CONTEXT('2D SPACE',''
  ) );
#221 = PCURVE('',#222,#230);
#222 = SURFACE_OF_LINEAR_EXTRUSION('',#223,#228);
#223 = ELLIPSE('',#224,14.234210526316,13.286842105263);
#224 = AXIS2_PLACEMENT_3D('',#225,#226,#227);
#225 = CARTESIAN_POINT('',(-28.5,0.,26.));
#226 = DIRECTION('',(1.,0.,-0.));
#227 = DIRECTION('',(0.,1.110223024625E-16,1.));
#228 = VECTOR('',#229,1.);
#229 = DIRECTION('',(-1.,-0.,-0.));
#230 = DEFINITIONAL_REPRESENTATION('',(#231),#301);
#231 = B_SPLINE_CURVE_WITH_KNOTS('',3,(#232,#233,#234,#235,#236,#237,
    #238,#239,#240,#241,#242,#243,#244,#245,#246,#247,#248,#249,#250,
    #251,#252,#253,#254,#255,#256,#257,#258,#259,#260,#261,#262,#263,
    #264,#265,#266,#267,#268,#269,#270,#271,#272,#273,#274,#275,#276,
    #277,#278,#279,#280,#281,#282,#283,#284,#285,#286,#287,#288,#289,
    #290,#291,#292,#293,#294,#295,#296,#297,#298,#299,#300),
  .UNSPECIFIED.,.F.,.F.,(4,1,1,1,1,1,1,1,1,1,1,1,1,1,1,1,1,1,1,1,1,1,1,1
    ,1,1,1,1,1,1,1,1,1,1,1,1,1,1,1,1,1,1,1,1,1,1,1,1,1,1,1,1,1,1,1,1,1,1
    ,1,1,1,1,1,1,1,1,4),(0.,3.030303030305E-02,6.060606060609E-02,
    9.090909090914E-02,0.121212121212,0.151515151515,0.181818181818,
    0.212121212121,0.242424242424,0.272727272727,0.30303030303,
    0.333333333334,0.363636363637,0.39393939394,0.424242424243,
    0.454545454546,0.484848484849,0.515151515152,0.545454545455,
    0.575757575758,0.606060606061,0.636363636364,0.666666666667,
    0.69696969697,0.727272727273,0.757575757576,0.787878787879,
    0.818181818182,0.848484848485,0.878787878788,0.909090909091,
    0.939393939394,0.969696969697,1.000000000001,1.030303030304,
    1.060606060607,1.09090909091,1.121212121213,1.151515151516,
    1.181818181819,1.212121212122,1.242424242425,1.272727272728,
    1.303030303031,1.333333333334,1.363636363637,1.39393939394,
    1.424242424243,1.454545454546,1.484848484849,1.515151515152,
    1.545454545455,1.575757575758,1.606060606061,1.636363636364,
    1.666666666668,1.696969696971,1.727272727274,1.757575757577,
    1.78787878788,1.818181818183,1.848484848486,1.878787878789,
    1.909090909092,1.939393939395,1.969696969698,2.000000000001),
  .QUASI_UNIFORM_KNOTS.);
#232 = CARTESIAN_POINT('',(7.797749378383,-10.));
#233 = CARTESIAN_POINT('',(7.782969726732,-10.));
#234 = CARTESIAN_POINT('',(7.753405749248,-10.));
#235 = CARTESIAN_POINT('',(7.709034604145,-10.));
#236 = CARTESIAN_POINT('',(7.664626952328,-10.));
#237 = CARTESIAN_POINT('',(7.62017206624,-10.));
#238 = CARTESIAN_POINT('',(7.575659546762,-10.));
#239 = CARTESIAN_POINT('',(7.531079342723,-10.));
#240 = CARTESIAN_POINT('',(7.486421705799,-10.));
#241 = CARTESIAN_POINT('',(7.441677173971,-10.));
#242 = CARTESIAN_POINT('',(7.396836570213,-10.));
#243 = CARTESIAN_POINT('',(7.351890978674,-10.));
#244 = CARTESIAN_POINT('',(7.3068318634,-10.));
#245 = CARTESIAN_POINT('',(7.261650706123,-10.));
#246 = CARTESIAN_POINT('',(7.216343066854,-10.));
#247 = CARTESIAN_POINT('',(7.170903218721,-10.));
#248 = CARTESIAN_POINT('',(7.125326560164,-10.));
#249 = CARTESIAN_POINT('',(7.079609294281,-10.));
#250 = CARTESIAN_POINT('',(7.0337487519,-10.));
#251 = CARTESIAN_POINT('',(6.98774318549,-10.));
#252 = CARTESIAN_POINT('',(6.941592304996,-10.));
#253 = CARTESIAN_POINT('',(6.895297522044,-10.));
#254 = CARTESIAN_POINT('',(6.848861201319,-10.));
#255 = CARTESIAN_POINT('',(6.802286353678,-10.));
#256 = CARTESIAN_POINT('',(6.755580094234,-10.));
#257 = CARTESIAN_POINT('',(6.70874025339,-10.));
#258 = CARTESIAN_POINT('',(6.661779050162,-10.));
#259 = CARTESIAN_POINT('',(6.614708990882,-10.));
#260 = CARTESIAN_POINT('',(6.567541616931,-10.));
#261 = CARTESIAN_POINT('',(6.520288408294,-10.));
#262 = CARTESIAN_POINT('',(6.472961131206,-10.));
#263 = CARTESIAN_POINT('',(6.425572262526,-10.));
#264 = CARTESIAN_POINT('',(6.378135767158,-10.));
#265 = CARTESIAN_POINT('',(6.33066660362,-10.));
#266 = CARTESIAN_POINT('',(6.283185307179,-10.));
#267 = CARTESIAN_POINT('',(6.235704010738,-10.));
#268 = CARTESIAN_POINT('',(6.188234847199,-10.));
#269 = CARTESIAN_POINT('',(6.140798351832,-10.));
#270 = CARTESIAN_POINT('',(6.093409483151,-10.));
#271 = CARTESIAN_POINT('',(6.046082206064,-10.));
#272 = CARTESIAN_POINT('',(5.998828997427,-10.));
#273 = CARTESIAN_POINT('',(5.951661623476,-10.));
#274 = CARTESIAN_POINT('',(5.904591564196,-10.));
#275 = CARTESIAN_POINT('',(5.857630360969,-10.));
#276 = CARTESIAN_POINT('',(5.810790520124,-10.));
#277 = CARTESIAN_POINT('',(5.76408426068,-10.));
#278 = CARTESIAN_POINT('',(5.717509413039,-10.));
#279 = CARTESIAN_POINT('',(5.671073092314,-10.));
#280 = CARTESIAN_POINT('',(5.624778309362,-10.));
#281 = CARTESIAN_POINT('',(5.578627428869,-10.));
#282 = CARTESIAN_POINT('',(5.532621862458,-10.));
#283 = CARTESIAN_POINT('',(5.486761320078,-10.));
#284 = CARTESIAN_POINT('',(5.441044054195,-10.));
#285 = CARTESIAN_POINT('',(5.395467395638,-10.));
#286 = CARTESIAN_POINT('',(5.350027547504,-10.));
#287 = CARTESIAN_POINT('',(5.304719908236,-10.));
#288 = CARTESIAN_POINT('',(5.259538750958,-10.));
#289 = CARTESIAN_POINT('',(5.214479635685,-10.));
#290 = CARTESIAN_POINT('',(5.169534044146,-10.));
#291 = CARTESIAN_POINT('',(5.124693440388,-10.));
#292 = CARTESIAN_POINT('',(5.07994890856,-10.));
#293 = CARTESIAN_POINT('',(5.035291271636,-10.));
#294 = CARTESIAN_POINT('',(4.990711067597,-10.));
#295 = CARTESIAN_POINT('',(4.946198548119,-10.));
#296 = CARTESIAN_POINT('',(4.901743662031,-10.));
#297 = CARTESIAN_POINT('',(4.857336010214,-10.));
#298 = CARTESIAN_POINT('',(4.812964865111,-10.));
#299 = CARTESIAN_POINT('',(4.783400887627,-10.));
#300 = CARTESIAN_POINT('',(4.768621235976,-10.));
#301 = ( GEOMETRIC_REPRESENTATION_CONTEXT(2) 
PARAMETRIC_REPRESENTATION_CONTEXT() REPRESENTATION_CONTEXT('2D SPACE',''
  ) );
#302 = ORIENTED_EDGE('',*,*,#303,.T.);
#303 = EDGE_CURVE('',#113,#304,#306,.T.);
#304 = VERTEX_POINT('',#305);
#305 = CARTESIAN_POINT('',(-18.5,38.5,26.8));
#306 = SURFACE_CURVE('',#307,(#311,#318),.PCURVE_S1.);
#307 = LINE('',#308,#309);
#308 = CARTESIAN_POINT('',(-18.5,-38.5,26.8));
#309 = VECTOR('',#310,1.);
#310 = DIRECTION('',(0.,1.,0.));
#311 = PCURVE('',#32,#312);
#312 = DEFINITIONAL_REPRESENTATION('',(#313),#317);
#313 = LINE('',#314,#315);
#314 = CARTESIAN_POINT('',(0.677642176891,38.5));
#315 = VECTOR('',#316,1.);
#316 = DIRECTION('',(0.,-1.));
#317 = ( GEOMETRIC_REPRESENTATION_CONTEXT(2) 
PARAMETRIC_REPRESENTATION_CONTEXT() REPRESENTATION_CONTEXT('2D SPACE',''
  ) );
#318 = PCURVE('',#319,#324);
#319 = PLANE('',#320);
#320 = AXIS2_PLACEMENT_3D('',#321,#322,#323);
#321 = CARTESIAN_POINT('',(-50.,-50.,26.8));
#322 = DIRECTION('',(0.,0.,1.));
#323 = DIRECTION('',(1.,0.,0.));
#324 = DEFINITIONAL_REPRESENTATION('',(#325),#329);
#325 = LINE('',#326,#327);
#326 = CARTESIAN_POINT('',(31.5,11.5));
#327 = VECTOR('',#328,1.);
#328 = DIRECTION('',(0.,1.));
#329 = ( GEOMETRIC_REPRESENTATION_CONTEXT(2) 
PARAMETRIC_REPRESENTATION_CONTEXT() REPRESENTATION_CONTEXT('2D SPACE',''
  ) );
#330 = ORIENTED_EDGE('',*,*,#331,.T.);
#331 = EDGE_CURVE('',#304,#332,#334,.T.);
#332 = VERTEX_POINT('',#333);
#333 = CARTESIAN_POINT('',(-18.5,38.5,31.8));
#334 = SURFACE_CURVE('',#335,(#339,#346),.PCURVE_S1.);
#335 = LINE('',#336,#337);
#336 = CARTESIAN_POINT('',(-18.5,38.5,26.8));
#337 = VECTOR('',#338,1.);
#338 = DIRECTION('',(0.,0.,1.));
#339 = PCURVE('',#32,#340);
#340 = DEFINITIONAL_REPRESENTATION('',(#341),#345);
#341 = LINE('',#342,#343);
#342 = CARTESIAN_POINT('',(0.677642176891,-38.5));
#343 = VECTOR('',#344,1.);
#344 = DIRECTION('',(1.,0.));
#345 = ( GEOMETRIC_REPRESENTATION_CONTEXT(2) 
PARAMETRIC_REPRESENTATION_CONTEXT() REPRESENTATION_CONTEXT('2D SPACE',''
  ) );
#346 = PCURVE('',#347,#352);
#347 = PLANE('',#348);
#348 = AXIS2_PLACEMENT_3D('',#349,#350,#351);
#349 = CARTESIAN_POINT('',(-27.5,38.5,26.8));
#350 = DIRECTION('',(0.,1.,0.));
#351 = DIRECTION('',(0.,0.,1.));
#352 = DEFINITIONAL_REPRESENTATION('',(#353),#357);
#353 = LINE('',#354,#355);
#354 = CARTESIAN_POINT('',(0.,9.));
#355 = VECTOR('',#356,1.);
#356 = DIRECTION('',(1.,0.));
#357 = ( GEOMETRIC_REPRESENTATION_CONTEXT(2) 
PARAMETRIC_REPRESENTATION_CONTEXT() REPRESENTATION_CONTEXT('2D SPACE',''
  ) );
#358 = ORIENTED_EDGE('',*,*,#359,.F.);
#359 = EDGE_CURVE('',#360,#332,#362,.T.);
#360 = VERTEX_POINT('',#361);
#361 = CARTESIAN_POINT('',(-18.5,26.,31.8));
#362 = SURFACE_CURVE('',#363,(#367,#374),.PCURVE_S1.);
#363 = LINE('',#364,#365);
#364 = CARTESIAN_POINT('',(-18.5,15.,31.8));
#365 = VECTOR('',#366,1.);
#366 = DIRECTION('',(0.,1.,0.));
#367 = PCURVE('',#32,#368);
#368 = DEFINITIONAL_REPRESENTATION('',(#369),#373);
#369 = LINE('',#370,#371);
#370 = CARTESIAN_POINT('',(5.677642176891,-15.));
#371 = VECTOR('',#372,1.);
#372 = DIRECTION('',(0.,-1.));
#373 = ( GEOMETRIC_REPRESENTATION_CONTEXT(2) 
PARAMETRIC_REPRESENTATION_CONTEXT() REPRESENTATION_CONTEXT('2D SPACE',''
  ) );
#374 = PCURVE('',#375,#380);
#375 = PLANE('',#376);
#376 = AXIS2_PLACEMENT_3D('',#377,#378,#379);
#377 = CARTESIAN_POINT('',(-27.5,15.,31.8));
#378 = DIRECTION('',(0.,0.,1.));
#379 = DIRECTION('',(1.,0.,0.));
#380 = DEFINITIONAL_REPRESENTATION('',(#381),#385);
#381 = LINE('',#382,#383);
#382 = CARTESIAN_POINT('',(9.,0.));
#383 = VECTOR('',#384,1.);
#384 = DIRECTION('',(0.,1.));
#385 = ( GEOMETRIC_REPRESENTATION_CONTEXT(2) 
PARAMETRIC_REPRESENTATION_CONTEXT() REPRESENTATION_CONTEXT('2D SPACE',''
  ) );
#386 = ORIENTED_EDGE('',*,*,#387,.T.);
#387 = EDGE_CURVE('',#360,#388,#390,.T.);
#388 = VERTEX_POINT('',#389);
#389 = CARTESIAN_POINT('',(-18.5,26.,33.8));
#390 = SURFACE_CURVE('',#391,(#395,#402),.PCURVE_S1.);
#391 = LINE('',#392,#393);
#392 = CARTESIAN_POINT('',(-18.5,26.,31.8));
#393 = VECTOR('',#394,1.);
#394 = DIRECTION('',(0.,0.,1.));
#395 = PCURVE('',#32,#396);
#396 = DEFINITIONAL_REPRESENTATION('',(#397),#401);
#397 = LINE('',#398,#399);
#398 = CARTESIAN_POINT('',(5.677642176891,-26.));
#399 = VECTOR('',#400,1.);
#400 = DIRECTION('',(1.,0.));
#401 = ( GEOMETRIC_REPRESENTATION_CONTEXT(2) 
PARAMETRIC_REPRESENTATION_CONTEXT() REPRESENTATION_CONTEXT('2D SPACE',''
  ) );
#402 = PCURVE('',#403,#408);
#403 = PLANE('',#404);
#404 = AXIS2_PLACEMENT_3D('',#405,#406,#407);
#405 = CARTESIAN_POINT('',(-27.5,26.,31.8));
#406 = DIRECTION('',(0.,1.,0.));
#407 = DIRECTION('',(0.,0.,1.));
#408 = DEFINITIONAL_REPRESENTATION('',(#409),#413);
#409 = LINE('',#410,#411);
#410 = CARTESIAN_POINT('',(0.,9.));
#411 = VECTOR('',#412,1.);
#412 = DIRECTION('',(1.,0.));
#413 = ( GEOMETRIC_REPRESENTATION_CONTEXT(2) 
PARAMETRIC_REPRESENTATION_CONTEXT() REPRESENTATION_CONTEXT('2D SPACE',''
  ) );
#414 = ORIENTED_EDGE('',*,*,#415,.F.);
#415 = EDGE_CURVE('',#416,#388,#418,.T.);
#416 = VERTEX_POINT('',#417);
#417 = CARTESIAN_POINT('',(-18.5,15.625384186259,33.8));
#418 = SURFACE_CURVE('',#419,(#423,#430),.PCURVE_S1.);
#419 = LINE('',#420,#421);
#420 = CARTESIAN_POINT('',(-18.5,15.,33.8));
#421 = VECTOR('',#422,1.);
#422 = DIRECTION('',(0.,1.,0.));
#423 = PCURVE('',#32,#424);
#424 = DEFINITIONAL_REPRESENTATION('',(#425),#429);
#425 = LINE('',#426,#427);
#426 = CARTESIAN_POINT('',(7.677642176891,-15.));
#427 = VECTOR('',#428,1.);
#428 = DIRECTION('',(0.,-1.));
#429 = ( GEOMETRIC_REPRESENTATION_CONTEXT(2) 
PARAMETRIC_REPRESENTATION_CONTEXT() REPRESENTATION_CONTEXT('2D SPACE',''
  ) );
#430 = PCURVE('',#431,#436);
#431 = PLANE('',#432);
#432 = AXIS2_PLACEMENT_3D('',#433,#434,#435);
#433 = CARTESIAN_POINT('',(-27.5,15.,33.8));
#434 = DIRECTION('',(0.,0.,1.));
#435 = DIRECTION('',(1.,0.,0.));
#436 = DEFINITIONAL_REPRESENTATION('',(#437),#441);
#437 = LINE('',#438,#439);
#438 = CARTESIAN_POINT('',(9.,0.));
#439 = VECTOR('',#440,1.);
#440 = DIRECTION('',(0.,1.));
#441 = ( GEOMETRIC_REPRESENTATION_CONTEXT(2) 
PARAMETRIC_REPRESENTATION_CONTEXT() REPRESENTATION_CONTEXT('2D SPACE',''
  ) );
#442 = ORIENTED_EDGE('',*,*,#443,.T.);
#443 = EDGE_CURVE('',#416,#444,#446,.T.);
#444 = VERTEX_POINT('',#445);
#445 = CARTESIAN_POINT('',(-18.5,2.024404036218E-15,44.234210526316));
#446 = SURFACE_CURVE('',#447,(#452,#459),.PCURVE_S1.);
#447 = ELLIPSE('',#448,18.234210526316,17.286842105263);
#448 = AXIS2_PLACEMENT_3D('',#449,#450,#451);
#449 = CARTESIAN_POINT('',(-18.5,0.,26.));
#450 = DIRECTION('',(1.,0.,-0.));
#451 = DIRECTION('',(0.,1.110223024625E-16,1.));
#452 = PCURVE('',#32,#453);
#453 = DEFINITIONAL_REPRESENTATION('',(#454),#458);
#454 = ELLIPSE('',#455,18.234210526316,17.286842105263);
#455 = AXIS2_PLACEMENT_2D('',#456,#457);
#456 = CARTESIAN_POINT('',(-0.122357823109,-1.746000824833E-16));
#457 = DIRECTION('',(1.,-1.110223024625E-16));
#458 = ( GEOMETRIC_REPRESENTATION_CONTEXT(2) 
PARAMETRIC_REPRESENTATION_CONTEXT() REPRESENTATION_CONTEXT('2D SPACE',''
  ) );
#459 = PCURVE('',#460,#468);
#460 = SURFACE_OF_LINEAR_EXTRUSION('',#461,#466);
#461 = ELLIPSE('',#462,18.234210526316,17.286842105263);
#462 = AXIS2_PLACEMENT_3D('',#463,#464,#465);
#463 = CARTESIAN_POINT('',(-27.5,0.,26.));
#464 = DIRECTION('',(1.,0.,-0.));
#465 = DIRECTION('',(0.,1.110223024625E-16,1.));
#466 = VECTOR('',#467,1.);
#467 = DIRECTION('',(-1.,-0.,-0.));
#468 = DEFINITIONAL_REPRESENTATION('',(#469),#472);
#469 = B_SPLINE_CURVE_WITH_KNOTS('',1,(#470,#471),.UNSPECIFIED.,.F.,.F.,
  (2,2),(4.756276642726,6.28318530718),.PIECEWISE_BEZIER_KNOTS.);
#470 = CARTESIAN_POINT('',(4.756276642726,-9.));
#471 = CARTESIAN_POINT('',(6.28318530718,-9.));
#472 = ( GEOMETRIC_REPRESENTATION_CONTEXT(2) 
PARAMETRIC_REPRESENTATION_CONTEXT() REPRESENTATION_CONTEXT('2D SPACE',''
  ) );
#473 = ORIENTED_EDGE('',*,*,#474,.T.);
#474 = EDGE_CURVE('',#444,#475,#477,.T.);
#475 = VERTEX_POINT('',#476);
#476 = CARTESIAN_POINT('',(-18.5,-15.62538418625,33.8));
#477 = SURFACE_CURVE('',#478,(#483,#490),.PCURVE_S1.);
#478 = ELLIPSE('',#479,18.234210526316,17.286842105263);
#479 = AXIS2_PLACEMENT_3D('',#480,#481,#482);
#480 = CARTESIAN_POINT('',(-18.5,0.,26.));
#481 = DIRECTION('',(1.,0.,-0.));
#482 = DIRECTION('',(0.,1.110223024625E-16,1.));
#483 = PCURVE('',#32,#484);
#484 = DEFINITIONAL_REPRESENTATION('',(#485),#489);
#485 = ELLIPSE('',#486,18.234210526316,17.286842105263);
#486 = AXIS2_PLACEMENT_2D('',#487,#488);
#487 = CARTESIAN_POINT('',(-0.122357823109,-1.746000824833E-16));
#488 = DIRECTION('',(1.,-1.110223024625E-16));
#489 = ( GEOMETRIC_REPRESENTATION_CONTEXT(2) 
PARAMETRIC_REPRESENTATION_CONTEXT() REPRESENTATION_CONTEXT('2D SPACE',''
  ) );
#490 = PCURVE('',#460,#491);
#491 = DEFINITIONAL_REPRESENTATION('',(#492),#495);
#492 = B_SPLINE_CURVE_WITH_KNOTS('',1,(#493,#494),.UNSPECIFIED.,.F.,.F.,
  (2,2),(0.,1.526908664453),.PIECEWISE_BEZIER_KNOTS.);
#493 = CARTESIAN_POINT('',(6.28318530718,-9.));
#494 = CARTESIAN_POINT('',(7.810093971633,-9.));
#495 = ( GEOMETRIC_REPRESENTATION_CONTEXT(2) 
PARAMETRIC_REPRESENTATION_CONTEXT() REPRESENTATION_CONTEXT('2D SPACE',''
  ) );
#496 = ORIENTED_EDGE('',*,*,#497,.F.);
#497 = EDGE_CURVE('',#498,#475,#500,.T.);
#498 = VERTEX_POINT('',#499);
#499 = CARTESIAN_POINT('',(-18.5,-26.,33.8));
#500 = SURFACE_CURVE('',#501,(#505,#512),.PCURVE_S1.);
#501 = LINE('',#502,#503);
#502 = CARTESIAN_POINT('',(-18.5,-26.,33.8));
#503 = VECTOR('',#504,1.);
#504 = DIRECTION('',(0.,1.,0.));
#505 = PCURVE('',#32,#506);
#506 = DEFINITIONAL_REPRESENTATION('',(#507),#511);
#507 = LINE('',#508,#509);
#508 = CARTESIAN_POINT('',(7.677642176891,26.));
#509 = VECTOR('',#510,1.);
#510 = DIRECTION('',(0.,-1.));
#511 = ( GEOMETRIC_REPRESENTATION_CONTEXT(2) 
PARAMETRIC_REPRESENTATION_CONTEXT() REPRESENTATION_CONTEXT('2D SPACE',''
  ) );
#512 = PCURVE('',#513,#518);
#513 = PLANE('',#514);
#514 = AXIS2_PLACEMENT_3D('',#515,#516,#517);
#515 = CARTESIAN_POINT('',(-27.5,-26.,33.8));
#516 = DIRECTION('',(0.,0.,1.));
#517 = DIRECTION('',(1.,0.,0.));
#518 = DEFINITIONAL_REPRESENTATION('',(#519),#523);
#519 = LINE('',#520,#521);
#520 = CARTESIAN_POINT('',(9.,0.));
#521 = VECTOR('',#522,1.);
#522 = DIRECTION('',(0.,1.));
#523 = ( GEOMETRIC_REPRESENTATION_CONTEXT(2) 
PARAMETRIC_REPRESENTATION_CONTEXT() REPRESENTATION_CONTEXT('2D SPACE',''
  ) );
#524 = ORIENTED_EDGE('',*,*,#525,.F.);
#525 = EDGE_CURVE('',#24,#498,#526,.T.);
#526 = SURFACE_CURVE('',#527,(#531,#538),.PCURVE_S1.);
#527 = LINE('',#528,#529);
#528 = CARTESIAN_POINT('',(-18.5,-26.,31.8));
#529 = VECTOR('',#530,1.);
#530 = DIRECTION('',(0.,0.,1.));
#531 = PCURVE('',#32,#532);
#532 = DEFINITIONAL_REPRESENTATION('',(#533),#537);
#533 = LINE('',#534,#535);
#534 = CARTESIAN_POINT('',(5.677642176891,26.));
#535 = VECTOR('',#536,1.);
#536 = DIRECTION('',(1.,0.));
#537 = ( GEOMETRIC_REPRESENTATION_CONTEXT(2) 
PARAMETRIC_REPRESENTATION_CONTEXT() REPRESENTATION_CONTEXT('2D SPACE',''
  ) );
#538 = PCURVE('',#539,#544);
#539 = PLANE('',#540);
#540 = AXIS2_PLACEMENT_3D('',#541,#542,#543);
#541 = CARTESIAN_POINT('',(-27.5,-26.,31.8));
#542 = DIRECTION('',(0.,1.,0.));
#543 = DIRECTION('',(0.,0.,1.));
#544 = DEFINITIONAL_REPRESENTATION('',(#545),#549);
#545 = LINE('',#546,#547);
#546 = CARTESIAN_POINT('',(0.,9.));
#547 = VECTOR('',#548,1.);
#548 = DIRECTION('',(1.,0.));
#549 = ( GEOMETRIC_REPRESENTATION_CONTEXT(2) 
PARAMETRIC_REPRESENTATION_CONTEXT() REPRESENTATION_CONTEXT('2D SPACE',''
  ) );
#550 = ADVANCED_FACE('',(#551,#626),#44,.T.);
#551 = FACE_BOUND('',#552,.T.);
#552 = EDGE_LOOP('',(#553,#583,#604,#605));
#553 = ORIENTED_EDGE('',*,*,#554,.F.);
#554 = EDGE_CURVE('',#555,#557,#559,.T.);
#555 = VERTEX_POINT('',#556);
#556 = CARTESIAN_POINT('',(-27.5,-38.5,31.8));
#557 = VERTEX_POINT('',#558);
#558 = CARTESIAN_POINT('',(-27.5,-26.,31.8));
#559 = SURFACE_CURVE('',#560,(#564,#571),.PCURVE_S1.);
#560 = LINE('',#561,#562);
#561 = CARTESIAN_POINT('',(-27.5,-38.5,31.8));
#562 = VECTOR('',#563,1.);
#563 = DIRECTION('',(0.,1.,0.));
#564 = PCURVE('',#44,#565);
#565 = DEFINITIONAL_REPRESENTATION('',(#566),#570);
#566 = LINE('',#567,#568);
#567 = CARTESIAN_POINT('',(0.,0.));
#568 = VECTOR('',#569,1.);
#569 = DIRECTION('',(0.,1.));
#570 = ( GEOMETRIC_REPRESENTATION_CONTEXT(2) 
PARAMETRIC_REPRESENTATION_CONTEXT() REPRESENTATION_CONTEXT('2D SPACE',''
  ) );
#571 = PCURVE('',#572,#577);
#572 = PLANE('',#573);
#573 = AXIS2_PLACEMENT_3D('',#574,#575,#576);
#574 = CARTESIAN_POINT('',(-27.5,-1.746000824833E-16,26.122357823109));
#575 = DIRECTION('',(1.,0.,0.));
#576 = DIRECTION('',(-0.,0.,1.));
#577 = DEFINITIONAL_REPRESENTATION('',(#578),#582);
#578 = LINE('',#579,#580);
#579 = CARTESIAN_POINT('',(5.677642176891,38.5));
#580 = VECTOR('',#581,1.);
#581 = DIRECTION('',(0.,-1.));
#582 = ( GEOMETRIC_REPRESENTATION_CONTEXT(2) 
PARAMETRIC_REPRESENTATION_CONTEXT() REPRESENTATION_CONTEXT('2D SPACE',''
  ) );
#583 = ORIENTED_EDGE('',*,*,#584,.T.);
#584 = EDGE_CURVE('',#555,#22,#585,.T.);
#585 = SURFACE_CURVE('',#586,(#590,#597),.PCURVE_S1.);
#586 = LINE('',#587,#588);
#587 = CARTESIAN_POINT('',(-27.5,-38.5,31.8));
#588 = VECTOR('',#589,1.);
#589 = DIRECTION('',(1.,0.,0.));
#590 = PCURVE('',#44,#591);
#591 = DEFINITIONAL_REPRESENTATION('',(#592),#596);
#592 = LINE('',#593,#594);
#593 = CARTESIAN_POINT('',(0.,0.));
#594 = VECTOR('',#595,1.);
#595 = DIRECTION('',(1.,0.));
#596 = ( GEOMETRIC_REPRESENTATION_CONTEXT(2) 
PARAMETRIC_REPRESENTATION_CONTEXT() REPRESENTATION_CONTEXT('2D SPACE',''
  ) );
#597 = PCURVE('',#72,#598);
#598 = DEFINITIONAL_REPRESENTATION('',(#599),#603);
#599 = LINE('',#600,#601);
#600 = CARTESIAN_POINT('',(5.,0.));
#601 = VECTOR('',#602,1.);
#602 = DIRECTION('',(0.,1.));
#603 = ( GEOMETRIC_REPRESENTATION_CONTEXT(2) 
PARAMETRIC_REPRESENTATION_CONTEXT() REPRESENTATION_CONTEXT('2D SPACE',''
  ) );
#604 = ORIENTED_EDGE('',*,*,#21,.T.);
#605 = ORIENTED_EDGE('',*,*,#606,.F.);
#606 = EDGE_CURVE('',#557,#24,#607,.T.);
#607 = SURFACE_CURVE('',#608,(#612,#619),.PCURVE_S1.);
#608 = LINE('',#609,#610);
#609 = CARTESIAN_POINT('',(-27.5,-26.,31.8));
#610 = VECTOR('',#611,1.);
#611 = DIRECTION('',(1.,0.,0.));
#612 = PCURVE('',#44,#613);
#613 = DEFINITIONAL_REPRESENTATION('',(#614),#618);
#614 = LINE('',#615,#616);
#615 = CARTESIAN_POINT('',(0.,12.5));
#616 = VECTOR('',#617,1.);
#617 = DIRECTION('',(1.,0.));
#618 = ( GEOMETRIC_REPRESENTATION_CONTEXT(2) 
PARAMETRIC_REPRESENTATION_CONTEXT() REPRESENTATION_CONTEXT('2D SPACE',''
  ) );
#619 = PCURVE('',#539,#620);
#620 = DEFINITIONAL_REPRESENTATION('',(#621),#625);
#621 = LINE('',#622,#623);
#622 = CARTESIAN_POINT('',(0.,0.));
#623 = VECTOR('',#624,1.);
#624 = DIRECTION('',(0.,1.));
#625 = ( GEOMETRIC_REPRESENTATION_CONTEXT(2) 
PARAMETRIC_REPRESENTATION_CONTEXT() REPRESENTATION_CONTEXT('2D SPACE',''
  ) );
#626 = FACE_BOUND('',#627,.T.);
#627 = EDGE_LOOP('',(#628));
#628 = ORIENTED_EDGE('',*,*,#629,.T.);
#629 = EDGE_CURVE('',#630,#630,#632,.T.);
#630 = VERTEX_POINT('',#631);
#631 = CARTESIAN_POINT('',(-21.3,-32.,31.8));
#632 = SURFACE_CURVE('',#633,(#638,#649),.PCURVE_S1.);
#633 = CIRCLE('',#634,1.7);
#634 = AXIS2_PLACEMENT_3D('',#635,#636,#637);
#635 = CARTESIAN_POINT('',(-23.,-32.,31.8));
#636 = DIRECTION('',(0.,0.,-1.));
#637 = DIRECTION('',(1.,0.,0.));
#638 = PCURVE('',#44,#639);
#639 = DEFINITIONAL_REPRESENTATION('',(#640),#648);
#640 = ( BOUNDED_CURVE() B_SPLINE_CURVE(2,(#641,#642,#643,#644,#645,#646
,#647),.UNSPECIFIED.,.T.,.F.) B_SPLINE_CURVE_WITH_KNOTS((1,2,2,2,2,1),(
    -2.094395102393,0.,2.094395102393,4.188790204786,6.28318530718,
8.377580409573),.UNSPECIFIED.) CURVE() GEOMETRIC_REPRESENTATION_ITEM() 
RATIONAL_B_SPLINE_CURVE((1.,0.5,1.,0.5,1.,0.5,1.)) REPRESENTATION_ITEM(
  '') );
#641 = CARTESIAN_POINT('',(6.2,6.5));
#642 = CARTESIAN_POINT('',(6.2,3.555513627133));
#643 = CARTESIAN_POINT('',(3.65,5.027756813566));
#644 = CARTESIAN_POINT('',(1.1,6.5));
#645 = CARTESIAN_POINT('',(3.65,7.972243186434));
#646 = CARTESIAN_POINT('',(6.2,9.444486372867));
#647 = CARTESIAN_POINT('',(6.2,6.5));
#648 = ( GEOMETRIC_REPRESENTATION_CONTEXT(2) 
PARAMETRIC_REPRESENTATION_CONTEXT() REPRESENTATION_CONTEXT('2D SPACE',''
  ) );
#649 = PCURVE('',#650,#655);
#650 = CYLINDRICAL_SURFACE('',#651,1.7);
#651 = AXIS2_PLACEMENT_3D('',#652,#653,#654);
#652 = CARTESIAN_POINT('',(-23.,-32.,26.));
#653 = DIRECTION('',(-0.,-0.,-1.));
#654 = DIRECTION('',(1.,0.,0.));
#655 = DEFINITIONAL_REPRESENTATION('',(#656),#660);
#656 = LINE('',#657,#658);
#657 = CARTESIAN_POINT('',(-6.28318530718,-5.8));
#658 = VECTOR('',#659,1.);
#659 = DIRECTION('',(1.,-0.));
#660 = ( GEOMETRIC_REPRESENTATION_CONTEXT(2) 
PARAMETRIC_REPRESENTATION_CONTEXT() REPRESENTATION_CONTEXT('2D SPACE',''
  ) );
#661 = ADVANCED_FACE('',(#662),#72,.F.);
#662 = FACE_BOUND('',#663,.F.);
#663 = EDGE_LOOP('',(#664,#687,#708,#709));
#664 = ORIENTED_EDGE('',*,*,#665,.F.);
#665 = EDGE_CURVE('',#666,#57,#668,.T.);
#666 = VERTEX_POINT('',#667);
#667 = CARTESIAN_POINT('',(-27.5,-38.5,26.8));
#668 = SURFACE_CURVE('',#669,(#673,#680),.PCURVE_S1.);
#669 = LINE('',#670,#671);
#670 = CARTESIAN_POINT('',(-27.5,-38.5,26.8));
#671 = VECTOR('',#672,1.);
#672 = DIRECTION('',(1.,0.,0.));
#673 = PCURVE('',#72,#674);
#674 = DEFINITIONAL_REPRESENTATION('',(#675),#679);
#675 = LINE('',#676,#677);
#676 = CARTESIAN_POINT('',(0.,0.));
#677 = VECTOR('',#678,1.);
#678 = DIRECTION('',(0.,1.));
#679 = ( GEOMETRIC_REPRESENTATION_CONTEXT(2) 
PARAMETRIC_REPRESENTATION_CONTEXT() REPRESENTATION_CONTEXT('2D SPACE',''
  ) );
#680 = PCURVE('',#100,#681);
#681 = DEFINITIONAL_REPRESENTATION('',(#682),#686);
#682 = LINE('',#683,#684);
#683 = CARTESIAN_POINT('',(22.5,11.5));
#684 = VECTOR('',#685,1.);
#685 = DIRECTION('',(1.,0.));
#686 = ( GEOMETRIC_REPRESENTATION_CONTEXT(2) 
PARAMETRIC_REPRESENTATION_CONTEXT() REPRESENTATION_CONTEXT('2D SPACE',''
  ) );
#687 = ORIENTED_EDGE('',*,*,#688,.T.);
#688 = EDGE_CURVE('',#666,#555,#689,.T.);
#689 = SURFACE_CURVE('',#690,(#694,#701),.PCURVE_S1.);
#690 = LINE('',#691,#692);
#691 = CARTESIAN_POINT('',(-27.5,-38.5,26.8));
#692 = VECTOR('',#693,1.);
#693 = DIRECTION('',(0.,0.,1.));
#694 = PCURVE('',#72,#695);
#695 = DEFINITIONAL_REPRESENTATION('',(#696),#700);
#696 = LINE('',#697,#698);
#697 = CARTESIAN_POINT('',(0.,0.));
#698 = VECTOR('',#699,1.);
#699 = DIRECTION('',(1.,0.));
#700 = ( GEOMETRIC_REPRESENTATION_CONTEXT(2) 
PARAMETRIC_REPRESENTATION_CONTEXT() REPRESENTATION_CONTEXT('2D SPACE',''
  ) );
#701 = PCURVE('',#572,#702);
#702 = DEFINITIONAL_REPRESENTATION('',(#703),#707);
#703 = LINE('',#704,#705);
#704 = CARTESIAN_POINT('',(0.677642176891,38.5));
#705 = VECTOR('',#706,1.);
#706 = DIRECTION('',(1.,0.));
#707 = ( GEOMETRIC_REPRESENTATION_CONTEXT(2) 
PARAMETRIC_REPRESENTATION_CONTEXT() REPRESENTATION_CONTEXT('2D SPACE',''
  ) );
#708 = ORIENTED_EDGE('',*,*,#584,.T.);
#709 = ORIENTED_EDGE('',*,*,#56,.F.);
#710 = ADVANCED_FACE('',(#711,#765),#100,.F.);
#711 = FACE_BOUND('',#712,.F.);
#712 = EDGE_LOOP('',(#713,#736,#737,#738));
#713 = ORIENTED_EDGE('',*,*,#714,.F.);
#714 = EDGE_CURVE('',#666,#715,#717,.T.);
#715 = VERTEX_POINT('',#716);
#716 = CARTESIAN_POINT('',(-27.5,-13.26584070051,26.8));
#717 = SURFACE_CURVE('',#718,(#722,#729),.PCURVE_S1.);
#718 = LINE('',#719,#720);
#719 = CARTESIAN_POINT('',(-27.5,-38.5,26.8));
#720 = VECTOR('',#721,1.);
#721 = DIRECTION('',(0.,1.,0.));
#722 = PCURVE('',#100,#723);
#723 = DEFINITIONAL_REPRESENTATION('',(#724),#728);
#724 = LINE('',#725,#726);
#725 = CARTESIAN_POINT('',(22.5,11.5));
#726 = VECTOR('',#727,1.);
#727 = DIRECTION('',(0.,1.));
#728 = ( GEOMETRIC_REPRESENTATION_CONTEXT(2) 
PARAMETRIC_REPRESENTATION_CONTEXT() REPRESENTATION_CONTEXT('2D SPACE',''
  ) );
#729 = PCURVE('',#572,#730);
#730 = DEFINITIONAL_REPRESENTATION('',(#731),#735);
#731 = LINE('',#732,#733);
#732 = CARTESIAN_POINT('',(0.677642176891,38.5));
#733 = VECTOR('',#734,1.);
#734 = DIRECTION('',(0.,-1.));
#735 = ( GEOMETRIC_REPRESENTATION_CONTEXT(2) 
PARAMETRIC_REPRESENTATION_CONTEXT() REPRESENTATION_CONTEXT('2D SPACE',''
  ) );
#736 = ORIENTED_EDGE('',*,*,#665,.T.);
#737 = ORIENTED_EDGE('',*,*,#84,.T.);
#738 = ORIENTED_EDGE('',*,*,#739,.T.);
#739 = EDGE_CURVE('',#85,#715,#740,.T.);
#740 = SURFACE_CURVE('',#741,(#747,#756),.PCURVE_S1.);
#741 = B_SPLINE_CURVE_WITH_KNOTS('',4,(#742,#743,#744,#745,#746),
  .UNSPECIFIED.,.F.,.F.,(5,5),(0.,1.),.PIECEWISE_BEZIER_KNOTS.);
#742 = CARTESIAN_POINT('',(-18.5,-13.26584070051,26.8));
#743 = CARTESIAN_POINT('',(-20.75,-13.26584070051,26.8));
#744 = CARTESIAN_POINT('',(-23.,-13.26584070051,26.8));
#745 = CARTESIAN_POINT('',(-25.25,-13.26584070051,26.8));
#746 = CARTESIAN_POINT('',(-27.5,-13.26584070051,26.8));
#747 = PCURVE('',#100,#748);
#748 = DEFINITIONAL_REPRESENTATION('',(#749),#755);
#749 = B_SPLINE_CURVE_WITH_KNOTS('',4,(#750,#751,#752,#753,#754),
  .UNSPECIFIED.,.F.,.F.,(5,5),(0.,1.),.PIECEWISE_BEZIER_KNOTS.);
#750 = CARTESIAN_POINT('',(31.5,36.734159299489));
#751 = CARTESIAN_POINT('',(29.25,36.734159299489));
#752 = CARTESIAN_POINT('',(27.,36.734159299489));
#753 = CARTESIAN_POINT('',(24.75,36.734159299489));
#754 = CARTESIAN_POINT('',(22.5,36.734159299489));
#755 = ( GEOMETRIC_REPRESENTATION_CONTEXT(2) 
PARAMETRIC_REPRESENTATION_CONTEXT() REPRESENTATION_CONTEXT('2D SPACE',''
  ) );
#756 = PCURVE('',#222,#757);
#757 = DEFINITIONAL_REPRESENTATION('',(#758),#764);
#758 = B_SPLINE_CURVE_WITH_KNOTS('',4,(#759,#760,#761,#762,#763),
  .UNSPECIFIED.,.F.,.F.,(5,5),(0.,1.),.PIECEWISE_BEZIER_KNOTS.);
#759 = CARTESIAN_POINT('',(7.797749378383,-10.));
#760 = CARTESIAN_POINT('',(7.797749378383,-7.75));
#761 = CARTESIAN_POINT('',(7.797749378383,-5.5));
#762 = CARTESIAN_POINT('',(7.797749378383,-3.25));
#763 = CARTESIAN_POINT('',(7.797749378383,-1.));
#764 = ( GEOMETRIC_REPRESENTATION_CONTEXT(2) 
PARAMETRIC_REPRESENTATION_CONTEXT() REPRESENTATION_CONTEXT('2D SPACE',''
  ) );
#765 = FACE_BOUND('',#766,.F.);
#766 = EDGE_LOOP('',(#767));
#767 = ORIENTED_EDGE('',*,*,#768,.T.);
#768 = EDGE_CURVE('',#769,#769,#771,.T.);
#769 = VERTEX_POINT('',#770);
#770 = CARTESIAN_POINT('',(-21.3,-32.,26.8));
#771 = SURFACE_CURVE('',#772,(#777,#788),.PCURVE_S1.);
#772 = CIRCLE('',#773,1.7);
#773 = AXIS2_PLACEMENT_3D('',#774,#775,#776);
#774 = CARTESIAN_POINT('',(-23.,-32.,26.8));
#775 = DIRECTION('',(0.,0.,-1.));
#776 = DIRECTION('',(1.,0.,0.));
#777 = PCURVE('',#100,#778);
#778 = DEFINITIONAL_REPRESENTATION('',(#779),#787);
#779 = ( BOUNDED_CURVE() B_SPLINE_CURVE(2,(#780,#781,#782,#783,#784,#785
,#786),.UNSPECIFIED.,.T.,.F.) B_SPLINE_CURVE_WITH_KNOTS((1,2,2,2,2,1),(
    -2.094395102393,0.,2.094395102393,4.188790204786,6.28318530718,
8.377580409573),.UNSPECIFIED.) CURVE() GEOMETRIC_REPRESENTATION_ITEM() 
RATIONAL_B_SPLINE_CURVE((1.,0.5,1.,0.5,1.,0.5,1.)) REPRESENTATION_ITEM(
  '') );
#780 = CARTESIAN_POINT('',(28.7,18.));
#781 = CARTESIAN_POINT('',(28.7,15.055513627133));
#782 = CARTESIAN_POINT('',(26.15,16.527756813566));
#783 = CARTESIAN_POINT('',(23.6,18.));
#784 = CARTESIAN_POINT('',(26.15,19.472243186434));
#785 = CARTESIAN_POINT('',(28.7,20.944486372867));
#786 = CARTESIAN_POINT('',(28.7,18.));
#787 = ( GEOMETRIC_REPRESENTATION_CONTEXT(2) 
PARAMETRIC_REPRESENTATION_CONTEXT() REPRESENTATION_CONTEXT('2D SPACE',''
  ) );
#788 = PCURVE('',#650,#789);
#789 = DEFINITIONAL_REPRESENTATION('',(#790),#794);
#790 = LINE('',#791,#792);
#791 = CARTESIAN_POINT('',(-6.28318530718,-0.8));
#792 = VECTOR('',#793,1.);
#793 = DIRECTION('',(1.,-0.));
#794 = ( GEOMETRIC_REPRESENTATION_CONTEXT(2) 
PARAMETRIC_REPRESENTATION_CONTEXT() REPRESENTATION_CONTEXT('2D SPACE',''
  ) );
#795 = ADVANCED_FACE('',(#796),#222,.T.);
#796 = FACE_BOUND('',#797,.T.);
#797 = EDGE_LOOP('',(#798,#799,#800,#983));
#798 = ORIENTED_EDGE('',*,*,#112,.F.);
#799 = ORIENTED_EDGE('',*,*,#739,.T.);
#800 = ORIENTED_EDGE('',*,*,#801,.T.);
#801 = EDGE_CURVE('',#715,#802,#804,.T.);
#802 = VERTEX_POINT('',#803);
#803 = CARTESIAN_POINT('',(-27.5,13.265840700511,26.8));
#804 = SURFACE_CURVE('',#805,(#856,#929),.PCURVE_S1.);
#805 = B_SPLINE_CURVE_WITH_KNOTS('',7,(#806,#807,#808,#809,#810,#811,
    #812,#813,#814,#815,#816,#817,#818,#819,#820,#821,#822,#823,#824,
    #825,#826,#827,#828,#829,#830,#831,#832,#833,#834,#835,#836,#837,
    #838,#839,#840,#841,#842,#843,#844,#845,#846,#847,#848,#849,#850,
    #851,#852,#853,#854,#855),.UNSPECIFIED.,.F.,.F.,(8,6,6,6,6,6,6,6,8),
  (0.,0.345628100968,0.521168548236,0.689560054595,1.,1.310439945405,
    1.478831451765,1.654371899033,2.000000000001),.UNSPECIFIED.);
#806 = CARTESIAN_POINT('',(-27.5,-13.26584070051,26.8));
#807 = CARTESIAN_POINT('',(-27.5,-13.21189088932,27.826733994388));
#808 = CARTESIAN_POINT('',(-27.5,-13.07713027783,28.849193887064));
#809 = CARTESIAN_POINT('',(-27.5,-12.86178255434,29.859815565392));
#810 = CARTESIAN_POINT('',(-27.5,-12.5665622861,30.850858878361));
#811 = CARTESIAN_POINT('',(-27.5,-12.19277480292,31.814430705203));
#812 = CARTESIAN_POINT('',(-27.5,-11.74244168164,32.742523799011));
#813 = CARTESIAN_POINT('',(-27.5,-10.95232354924,34.076322730756));
#814 = CARTESIAN_POINT('',(-27.5,-10.66720740093,34.514321278723));
#815 = CARTESIAN_POINT('',(-27.5,-10.36349673385,34.939994978615));
#816 = CARTESIAN_POINT('',(-27.5,-10.04164967689,35.352264778579));
#817 = CARTESIAN_POINT('',(-27.5,-9.702198531412,35.750052332992));
#818 = CARTESIAN_POINT('',(-27.5,-9.345759162464,36.132287689888));
#819 = CARTESIAN_POINT('',(-27.5,-8.615500708875,36.848655897083));
#820 = CARTESIAN_POINT('',(-27.5,-8.242975902108,37.184118793114));
#821 = CARTESIAN_POINT('',(-27.5,-7.856098451812,37.503368501301));
#822 = CARTESIAN_POINT('',(-27.5,-7.455574052424,37.80549418132));
#823 = CARTESIAN_POINT('',(-27.5,-7.042185992109,38.08961719114));
#824 = CARTESIAN_POINT('',(-27.5,-6.616802767174,38.354901529867));
#825 = CARTESIAN_POINT('',(-27.5,-5.375833575934,39.053471440485));
#826 = CARTESIAN_POINT('',(-27.5,-4.533483514763,39.439872698358));
#827 = CARTESIAN_POINT('',(-27.5,-3.659744009914,39.754576214207));
#828 = CARTESIAN_POINT('',(-27.5,-2.761636792546,39.993589165815));
#829 = CARTESIAN_POINT('',(-27.5,-1.846748498123,40.154028699762));
#830 = CARTESIAN_POINT('',(-27.5,-0.92324874504,40.234210526316));
#831 = CARTESIAN_POINT('',(-27.5,0.923248745041,40.234210526316));
#832 = CARTESIAN_POINT('',(-27.5,1.846748498118,40.154028699763));
#833 = CARTESIAN_POINT('',(-27.5,2.761636792552,39.993589165813));
#834 = CARTESIAN_POINT('',(-27.5,3.659744009907,39.75457621421));
#835 = CARTESIAN_POINT('',(-27.5,4.533483514764,39.439872698358));
#836 = CARTESIAN_POINT('',(-27.5,5.375833575932,39.053471440486));
#837 = CARTESIAN_POINT('',(-27.5,6.616802767172,38.354901529868));
#838 = CARTESIAN_POINT('',(-27.5,7.042185992108,38.089617191142));
#839 = CARTESIAN_POINT('',(-27.5,7.455574052423,37.805494181322));
#840 = CARTESIAN_POINT('',(-27.5,7.85609845181,37.503368501302));
#841 = CARTESIAN_POINT('',(-27.5,8.242975902107,37.184118793115));
#842 = CARTESIAN_POINT('',(-27.5,8.615500708874,36.848655897085));
#843 = CARTESIAN_POINT('',(-27.5,9.345759162463,36.13228768989));
#844 = CARTESIAN_POINT('',(-27.5,9.702198531411,35.750052332993));
#845 = CARTESIAN_POINT('',(-27.5,10.041649676896,35.352264778581));
#846 = CARTESIAN_POINT('',(-27.5,10.363496733858,34.939994978617));
#847 = CARTESIAN_POINT('',(-27.5,10.667207400932,34.514321278725));
#848 = CARTESIAN_POINT('',(-27.5,10.952323549244,34.076322730758));
#849 = CARTESIAN_POINT('',(-27.5,11.742441681646,32.742523799013));
#850 = CARTESIAN_POINT('',(-27.5,12.192774802926,31.814430705205));
#851 = CARTESIAN_POINT('',(-27.5,12.566562286101,30.850858878363));
#852 = CARTESIAN_POINT('',(-27.5,12.861782554348,29.859815565393));
#853 = CARTESIAN_POINT('',(-27.5,13.077130277838,28.849193887065));
#854 = CARTESIAN_POINT('',(-27.5,13.211890889329,27.826733994389));
#855 = CARTESIAN_POINT('',(-27.5,13.265840700511,26.8));
#856 = PCURVE('',#222,#857);
#857 = DEFINITIONAL_REPRESENTATION('',(#858),#928);
#858 = B_SPLINE_CURVE_WITH_KNOTS('',3,(#859,#860,#861,#862,#863,#864,
    #865,#866,#867,#868,#869,#870,#871,#872,#873,#874,#875,#876,#877,
    #878,#879,#880,#881,#882,#883,#884,#885,#886,#887,#888,#889,#890,
    #891,#892,#893,#894,#895,#896,#897,#898,#899,#900,#901,#902,#903,
    #904,#905,#906,#907,#908,#909,#910,#911,#912,#913,#914,#915,#916,
    #917,#918,#919,#920,#921,#922,#923,#924,#925,#926,#927),
  .UNSPECIFIED.,.F.,.F.,(4,1,1,1,1,1,1,1,1,1,1,1,1,1,1,1,1,1,1,1,1,1,1,1
    ,1,1,1,1,1,1,1,1,1,1,1,1,1,1,1,1,1,1,1,1,1,1,1,1,1,1,1,1,1,1,1,1,1,1
    ,1,1,1,1,1,1,1,1,4),(0.,3.030303030305E-02,6.060606060609E-02,
    9.090909090914E-02,0.121212121212,0.151515151515,0.181818181818,
    0.212121212121,0.242424242424,0.272727272727,0.30303030303,
    0.333333333334,0.363636363637,0.39393939394,0.424242424243,
    0.454545454546,0.484848484849,0.515151515152,0.545454545455,
    0.575757575758,0.606060606061,0.636363636364,0.666666666667,
    0.69696969697,0.727272727273,0.757575757576,0.787878787879,
    0.818181818182,0.848484848485,0.878787878788,0.909090909091,
    0.939393939394,0.969696969697,1.000000000001,1.030303030304,
    1.060606060607,1.09090909091,1.121212121213,1.151515151516,
    1.181818181819,1.212121212122,1.242424242425,1.272727272728,
    1.303030303031,1.333333333334,1.363636363637,1.39393939394,
    1.424242424243,1.454545454546,1.484848484849,1.515151515152,
    1.545454545455,1.575757575758,1.606060606061,1.636363636364,
    1.666666666668,1.696969696971,1.727272727274,1.757575757577,
    1.78787878788,1.818181818183,1.848484848486,1.878787878789,
    1.909090909092,1.939393939395,1.969696969698,2.000000000001),
  .QUASI_UNIFORM_KNOTS.);
#859 = CARTESIAN_POINT('',(7.797749378383,-1.));
#860 = CARTESIAN_POINT('',(7.782969726732,-1.));
#861 = CARTESIAN_POINT('',(7.753405749248,-1.));
#862 = CARTESIAN_POINT('',(7.709034604145,-1.));
#863 = CARTESIAN_POINT('',(7.664626952328,-1.));
#864 = CARTESIAN_POINT('',(7.62017206624,-1.));
#865 = CARTESIAN_POINT('',(7.575659546762,-1.));
#866 = CARTESIAN_POINT('',(7.531079342723,-1.));
#867 = CARTESIAN_POINT('',(7.486421705799,-1.));
#868 = CARTESIAN_POINT('',(7.441677173971,-1.));
#869 = CARTESIAN_POINT('',(7.396836570213,-1.));
#870 = CARTESIAN_POINT('',(7.351890978674,-1.));
#871 = CARTESIAN_POINT('',(7.3068318634,-1.));
#872 = CARTESIAN_POINT('',(7.261650706123,-1.));
#873 = CARTESIAN_POINT('',(7.216343066854,-1.));
#874 = CARTESIAN_POINT('',(7.170903218721,-1.));
#875 = CARTESIAN_POINT('',(7.125326560164,-1.));
#876 = CARTESIAN_POINT('',(7.079609294281,-1.));
#877 = CARTESIAN_POINT('',(7.0337487519,-1.));
#878 = CARTESIAN_POINT('',(6.98774318549,-1.));
#879 = CARTESIAN_POINT('',(6.941592304996,-1.));
#880 = CARTESIAN_POINT('',(6.895297522044,-1.));
#881 = CARTESIAN_POINT('',(6.848861201319,-1.));
#882 = CARTESIAN_POINT('',(6.802286353678,-1.));
#883 = CARTESIAN_POINT('',(6.755580094234,-1.));
#884 = CARTESIAN_POINT('',(6.70874025339,-1.));
#885 = CARTESIAN_POINT('',(6.661779050162,-1.));
#886 = CARTESIAN_POINT('',(6.614708990882,-1.));
#887 = CARTESIAN_POINT('',(6.567541616931,-1.));
#888 = CARTESIAN_POINT('',(6.520288408294,-1.));
#889 = CARTESIAN_POINT('',(6.472961131206,-1.));
#890 = CARTESIAN_POINT('',(6.425572262526,-1.));
#891 = CARTESIAN_POINT('',(6.378135767158,-1.));
#892 = CARTESIAN_POINT('',(6.33066660362,-1.));
#893 = CARTESIAN_POINT('',(6.283185307179,-1.));
#894 = CARTESIAN_POINT('',(6.235704010738,-1.));
#895 = CARTESIAN_POINT('',(6.188234847199,-1.));
#896 = CARTESIAN_POINT('',(6.140798351832,-1.));
#897 = CARTESIAN_POINT('',(6.093409483151,-1.));
#898 = CARTESIAN_POINT('',(6.046082206064,-1.));
#899 = CARTESIAN_POINT('',(5.998828997427,-1.));
#900 = CARTESIAN_POINT('',(5.951661623476,-1.));
#901 = CARTESIAN_POINT('',(5.904591564196,-1.));
#902 = CARTESIAN_POINT('',(5.857630360969,-1.));
#903 = CARTESIAN_POINT('',(5.810790520124,-1.));
#904 = CARTESIAN_POINT('',(5.76408426068,-1.));
#905 = CARTESIAN_POINT('',(5.717509413039,-1.));
#906 = CARTESIAN_POINT('',(5.671073092314,-1.));
#907 = CARTESIAN_POINT('',(5.624778309362,-1.));
#908 = CARTESIAN_POINT('',(5.578627428869,-1.));
#909 = CARTESIAN_POINT('',(5.532621862458,-1.));
#910 = CARTESIAN_POINT('',(5.486761320078,-1.));
#911 = CARTESIAN_POINT('',(5.441044054195,-1.));
#912 = CARTESIAN_POINT('',(5.395467395638,-1.));
#913 = CARTESIAN_POINT('',(5.350027547504,-1.));
#914 = CARTESIAN_POINT('',(5.304719908236,-1.));
#915 = CARTESIAN_POINT('',(5.259538750958,-1.));
#916 = CARTESIAN_POINT('',(5.214479635685,-1.));
#917 = CARTESIAN_POINT('',(5.169534044146,-1.));
#918 = CARTESIAN_POINT('',(5.124693440388,-1.));
#919 = CARTESIAN_POINT('',(5.07994890856,-1.));
#920 = CARTESIAN_POINT('',(5.035291271636,-1.));
#921 = CARTESIAN_POINT('',(4.990711067597,-1.));
#922 = CARTESIAN_POINT('',(4.946198548119,-1.));
#923 = CARTESIAN_POINT('',(4.901743662031,-1.));
#924 = CARTESIAN_POINT('',(4.857336010214,-1.));
#925 = CARTESIAN_POINT('',(4.812964865111,-1.));
#926 = CARTESIAN_POINT('',(4.783400887627,-1.));
#927 = CARTESIAN_POINT('',(4.768621235976,-1.));
#928 = ( GEOMETRIC_REPRESENTATION_CONTEXT(2) 
PARAMETRIC_REPRESENTATION_CONTEXT() REPRESENTATION_CONTEXT('2D SPACE',''
  ) );
#929 = PCURVE('',#572,#930);
#930 = DEFINITIONAL_REPRESENTATION('',(#931),#982);
#931 = B_SPLINE_CURVE_WITH_KNOTS('',7,(#932,#933,#934,#935,#936,#937,
    #938,#939,#940,#941,#942,#943,#944,#945,#946,#947,#948,#949,#950,
    #951,#952,#953,#954,#955,#956,#957,#958,#959,#960,#961,#962,#963,
    #964,#965,#966,#967,#968,#969,#970,#971,#972,#973,#974,#975,#976,
    #977,#978,#979,#980,#981),.UNSPECIFIED.,.F.,.F.,(8,6,6,6,6,6,6,6,8),
  (0.,0.345628100968,0.521168548236,0.689560054595,1.,1.310439945405,
    1.478831451765,1.654371899033,2.000000000001),.UNSPECIFIED.);
#932 = CARTESIAN_POINT('',(0.677642176891,13.265840700511));
#933 = CARTESIAN_POINT('',(1.704376171279,13.211890889329));
#934 = CARTESIAN_POINT('',(2.726836063955,13.077130277838));
#935 = CARTESIAN_POINT('',(3.737457742283,12.861782554349));
#936 = CARTESIAN_POINT('',(4.728501055252,12.566562286101));
#937 = CARTESIAN_POINT('',(5.692072882094,12.192774802927));
#938 = CARTESIAN_POINT('',(6.620165975902,11.742441681647));
#939 = CARTESIAN_POINT('',(7.953964907647,10.952323549245));
#940 = CARTESIAN_POINT('',(8.391963455614,10.667207400933));
#941 = CARTESIAN_POINT('',(8.817637155506,10.363496733859));
#942 = CARTESIAN_POINT('',(9.22990695547,10.041649676897));
#943 = CARTESIAN_POINT('',(9.627694509883,9.702198531412));
#944 = CARTESIAN_POINT('',(10.009929866779,9.345759162464));
#945 = CARTESIAN_POINT('',(10.726298073974,8.615500708875));
#946 = CARTESIAN_POINT('',(11.061760970005,8.242975902108));
#947 = CARTESIAN_POINT('',(11.381010678192,7.856098451812));
#948 = CARTESIAN_POINT('',(11.683136358211,7.455574052424));
#949 = CARTESIAN_POINT('',(11.967259368031,7.042185992109));
#950 = CARTESIAN_POINT('',(12.232543706758,6.616802767174));
#951 = CARTESIAN_POINT('',(12.931113617376,5.375833575934));
#952 = CARTESIAN_POINT('',(13.317514875249,4.533483514763));
#953 = CARTESIAN_POINT('',(13.632218391098,3.659744009914));
#954 = CARTESIAN_POINT('',(13.871231342706,2.761636792546));
#955 = CARTESIAN_POINT('',(14.031670876653,1.846748498123));
#956 = CARTESIAN_POINT('',(14.111852703207,0.92324874504));
#957 = CARTESIAN_POINT('',(14.111852703207,-0.923248745041));
#958 = CARTESIAN_POINT('',(14.031670876654,-1.846748498118));
#959 = CARTESIAN_POINT('',(13.871231342705,-2.761636792552));
#960 = CARTESIAN_POINT('',(13.632218391101,-3.659744009907));
#961 = CARTESIAN_POINT('',(13.317514875249,-4.533483514764));
#962 = CARTESIAN_POINT('',(12.931113617377,-5.375833575932));
#963 = CARTESIAN_POINT('',(12.232543706759,-6.616802767172));
#964 = CARTESIAN_POINT('',(11.967259368033,-7.042185992108));
#965 = CARTESIAN_POINT('',(11.683136358213,-7.455574052423));
#966 = CARTESIAN_POINT('',(11.381010678193,-7.85609845181));
#967 = CARTESIAN_POINT('',(11.061760970006,-8.242975902107));
#968 = CARTESIAN_POINT('',(10.726298073976,-8.615500708874));
#969 = CARTESIAN_POINT('',(10.009929866781,-9.345759162463));
#970 = CARTESIAN_POINT('',(9.627694509884,-9.702198531411));
#971 = CARTESIAN_POINT('',(9.229906955472,-10.04164967689));
#972 = CARTESIAN_POINT('',(8.817637155508,-10.36349673385));
#973 = CARTESIAN_POINT('',(8.391963455616,-10.66720740093));
#974 = CARTESIAN_POINT('',(7.953964907649,-10.95232354924));
#975 = CARTESIAN_POINT('',(6.620165975904,-11.74244168164));
#976 = CARTESIAN_POINT('',(5.692072882096,-12.19277480292));
#977 = CARTESIAN_POINT('',(4.728501055254,-12.5665622861));
#978 = CARTESIAN_POINT('',(3.737457742284,-12.86178255434));
#979 = CARTESIAN_POINT('',(2.726836063956,-13.07713027783));
#980 = CARTESIAN_POINT('',(1.70437617128,-13.21189088932));
#981 = CARTESIAN_POINT('',(0.677642176891,-13.26584070051));
#982 = ( GEOMETRIC_REPRESENTATION_CONTEXT(2) 
PARAMETRIC_REPRESENTATION_CONTEXT() REPRESENTATION_CONTEXT('2D SPACE',''
  ) );
#983 = ORIENTED_EDGE('',*,*,#984,.F.);
#984 = EDGE_CURVE('',#113,#802,#985,.T.);
#985 = SURFACE_CURVE('',#986,(#992,#1001),.PCURVE_S1.);
#986 = B_SPLINE_CURVE_WITH_KNOTS('',4,(#987,#988,#989,#990,#991),
  .UNSPECIFIED.,.F.,.F.,(5,5),(0.,1.),.PIECEWISE_BEZIER_KNOTS.);
#987 = CARTESIAN_POINT('',(-18.5,13.265840700511,26.8));
#988 = CARTESIAN_POINT('',(-20.75,13.265840700511,26.8));
#989 = CARTESIAN_POINT('',(-23.,13.265840700511,26.8));
#990 = CARTESIAN_POINT('',(-25.25,13.265840700511,26.8));
#991 = CARTESIAN_POINT('',(-27.5,13.265840700511,26.8));
#992 = PCURVE('',#222,#993);
#993 = DEFINITIONAL_REPRESENTATION('',(#994),#1000);
#994 = B_SPLINE_CURVE_WITH_KNOTS('',4,(#995,#996,#997,#998,#999),
  .UNSPECIFIED.,.F.,.F.,(5,5),(0.,1.),.PIECEWISE_BEZIER_KNOTS.);
#995 = CARTESIAN_POINT('',(4.768621235976,-10.));
#996 = CARTESIAN_POINT('',(4.768621235976,-7.75));
#997 = CARTESIAN_POINT('',(4.768621235976,-5.5));
#998 = CARTESIAN_POINT('',(4.768621235976,-3.25));
#999 = CARTESIAN_POINT('',(4.768621235976,-1.));
#1000 = ( GEOMETRIC_REPRESENTATION_CONTEXT(2) 
PARAMETRIC_REPRESENTATION_CONTEXT() REPRESENTATION_CONTEXT('2D SPACE',''
  ) );
#1001 = PCURVE('',#319,#1002);
#1002 = DEFINITIONAL_REPRESENTATION('',(#1003),#1009);
#1003 = B_SPLINE_CURVE_WITH_KNOTS('',4,(#1004,#1005,#1006,#1007,#1008),
  .UNSPECIFIED.,.F.,.F.,(5,5),(0.,1.),.PIECEWISE_BEZIER_KNOTS.);
#1004 = CARTESIAN_POINT('',(31.5,63.265840700511));
#1005 = CARTESIAN_POINT('',(29.25,63.265840700511));
#1006 = CARTESIAN_POINT('',(27.,63.265840700511));
#1007 = CARTESIAN_POINT('',(24.75,63.265840700511));
#1008 = CARTESIAN_POINT('',(22.5,63.265840700511));
#1009 = ( GEOMETRIC_REPRESENTATION_CONTEXT(2) 
PARAMETRIC_REPRESENTATION_CONTEXT() REPRESENTATION_CONTEXT('2D SPACE',''
  ) );
#1010 = ADVANCED_FACE('',(#1011,#1059),#319,.F.);
#1011 = FACE_BOUND('',#1012,.F.);
#1012 = EDGE_LOOP('',(#1013,#1036,#1037,#1038));
#1013 = ORIENTED_EDGE('',*,*,#1014,.F.);
#1014 = EDGE_CURVE('',#802,#1015,#1017,.T.);
#1015 = VERTEX_POINT('',#1016);
#1016 = CARTESIAN_POINT('',(-27.5,38.5,26.8));
#1017 = SURFACE_CURVE('',#1018,(#1022,#1029),.PCURVE_S1.);
#1018 = LINE('',#1019,#1020);
#1019 = CARTESIAN_POINT('',(-27.5,-38.5,26.8));
#1020 = VECTOR('',#1021,1.);
#1021 = DIRECTION('',(0.,1.,0.));
#1022 = PCURVE('',#319,#1023);
#1023 = DEFINITIONAL_REPRESENTATION('',(#1024),#1028);
#1024 = LINE('',#1025,#1026);
#1025 = CARTESIAN_POINT('',(22.5,11.5));
#1026 = VECTOR('',#1027,1.);
#1027 = DIRECTION('',(0.,1.));
#1028 = ( GEOMETRIC_REPRESENTATION_CONTEXT(2) 
PARAMETRIC_REPRESENTATION_CONTEXT() REPRESENTATION_CONTEXT('2D SPACE',''
  ) );
#1029 = PCURVE('',#572,#1030);
#1030 = DEFINITIONAL_REPRESENTATION('',(#1031),#1035);
#1031 = LINE('',#1032,#1033);
#1032 = CARTESIAN_POINT('',(0.677642176891,38.5));
#1033 = VECTOR('',#1034,1.);
#1034 = DIRECTION('',(0.,-1.));
#1035 = ( GEOMETRIC_REPRESENTATION_CONTEXT(2) 
PARAMETRIC_REPRESENTATION_CONTEXT() REPRESENTATION_CONTEXT('2D SPACE',''
  ) );
#1036 = ORIENTED_EDGE('',*,*,#984,.F.);
#1037 = ORIENTED_EDGE('',*,*,#303,.T.);
#1038 = ORIENTED_EDGE('',*,*,#1039,.F.);
#1039 = EDGE_CURVE('',#1015,#304,#1040,.T.);
#1040 = SURFACE_CURVE('',#1041,(#1045,#1052),.PCURVE_S1.);
#1041 = LINE('',#1042,#1043);
#1042 = CARTESIAN_POINT('',(-27.5,38.5,26.8));
#1043 = VECTOR('',#1044,1.);
#1044 = DIRECTION('',(1.,0.,0.));
#1045 = PCURVE('',#319,#1046);
#1046 = DEFINITIONAL_REPRESENTATION('',(#1047),#1051);
#1047 = LINE('',#1048,#1049);
#1048 = CARTESIAN_POINT('',(22.5,88.5));
#1049 = VECTOR('',#1050,1.);
#1050 = DIRECTION('',(1.,0.));
#1051 = ( GEOMETRIC_REPRESENTATION_CONTEXT(2) 
PARAMETRIC_REPRESENTATION_CONTEXT() REPRESENTATION_CONTEXT('2D SPACE',''
  ) );
#1052 = PCURVE('',#347,#1053);
#1053 = DEFINITIONAL_REPRESENTATION('',(#1054),#1058);
#1054 = LINE('',#1055,#1056);
#1055 = CARTESIAN_POINT('',(0.,0.));
#1056 = VECTOR('',#1057,1.);
#1057 = DIRECTION('',(0.,1.));
#1058 = ( GEOMETRIC_REPRESENTATION_CONTEXT(2) 
PARAMETRIC_REPRESENTATION_CONTEXT() REPRESENTATION_CONTEXT('2D SPACE',''
  ) );
#1059 = FACE_BOUND('',#1060,.F.);
#1060 = EDGE_LOOP('',(#1061));
#1061 = ORIENTED_EDGE('',*,*,#1062,.T.);
#1062 = EDGE_CURVE('',#1063,#1063,#1065,.T.);
#1063 = VERTEX_POINT('',#1064);
#1064 = CARTESIAN_POINT('',(-21.3,32.,26.8));
#1065 = SURFACE_CURVE('',#1066,(#1071,#1082),.PCURVE_S1.);
#1066 = CIRCLE('',#1067,1.7);
#1067 = AXIS2_PLACEMENT_3D('',#1068,#1069,#1070);
#1068 = CARTESIAN_POINT('',(-23.,32.,26.8));
#1069 = DIRECTION('',(0.,0.,-1.));
#1070 = DIRECTION('',(1.,0.,0.));
#1071 = PCURVE('',#319,#1072);
#1072 = DEFINITIONAL_REPRESENTATION('',(#1073),#1081);
#1073 = ( BOUNDED_CURVE() B_SPLINE_CURVE(2,(#1074,#1075,#1076,#1077,
#1078,#1079,#1080),.UNSPECIFIED.,.T.,.F.) B_SPLINE_CURVE_WITH_KNOTS((1,2
    ,2,2,2,1),(-2.094395102393,0.,2.094395102393,4.188790204786,
6.28318530718,8.377580409573),.UNSPECIFIED.) CURVE() 
GEOMETRIC_REPRESENTATION_ITEM() RATIONAL_B_SPLINE_CURVE((1.,0.5,1.,0.5,
1.,0.5,1.)) REPRESENTATION_ITEM('') );
#1074 = CARTESIAN_POINT('',(28.7,82.));
#1075 = CARTESIAN_POINT('',(28.7,79.055513627133));
#1076 = CARTESIAN_POINT('',(26.15,80.527756813566));
#1077 = CARTESIAN_POINT('',(23.6,82.));
#1078 = CARTESIAN_POINT('',(26.15,83.472243186434));
#1079 = CARTESIAN_POINT('',(28.7,84.944486372867));
#1080 = CARTESIAN_POINT('',(28.7,82.));
#1081 = ( GEOMETRIC_REPRESENTATION_CONTEXT(2) 
PARAMETRIC_REPRESENTATION_CONTEXT() REPRESENTATION_CONTEXT('2D SPACE',''
  ) );
#1082 = PCURVE('',#1083,#1088);
#1083 = CYLINDRICAL_SURFACE('',#1084,1.7);
#1084 = AXIS2_PLACEMENT_3D('',#1085,#1086,#1087);
#1085 = CARTESIAN_POINT('',(-23.,32.,26.));
#1086 = DIRECTION('',(-0.,-0.,-1.));
#1087 = DIRECTION('',(1.,0.,0.));
#1088 = DEFINITIONAL_REPRESENTATION('',(#1089),#1093);
#1089 = LINE('',#1090,#1091);
#1090 = CARTESIAN_POINT('',(-6.28318530718,-0.8));
#1091 = VECTOR('',#1092,1.);
#1092 = DIRECTION('',(1.,-0.));
#1093 = ( GEOMETRIC_REPRESENTATION_CONTEXT(2) 
PARAMETRIC_REPRESENTATION_CONTEXT() REPRESENTATION_CONTEXT('2D SPACE',''
  ) );
#1094 = ADVANCED_FACE('',(#1095),#347,.T.);
#1095 = FACE_BOUND('',#1096,.T.);
#1096 = EDGE_LOOP('',(#1097,#1098,#1121,#1142));
#1097 = ORIENTED_EDGE('',*,*,#1039,.F.);
#1098 = ORIENTED_EDGE('',*,*,#1099,.T.);
#1099 = EDGE_CURVE('',#1015,#1100,#1102,.T.);
#1100 = VERTEX_POINT('',#1101);
#1101 = CARTESIAN_POINT('',(-27.5,38.5,31.8));
#1102 = SURFACE_CURVE('',#1103,(#1107,#1114),.PCURVE_S1.);
#1103 = LINE('',#1104,#1105);
#1104 = CARTESIAN_POINT('',(-27.5,38.5,26.8));
#1105 = VECTOR('',#1106,1.);
#1106 = DIRECTION('',(0.,0.,1.));
#1107 = PCURVE('',#347,#1108);
#1108 = DEFINITIONAL_REPRESENTATION('',(#1109),#1113);
#1109 = LINE('',#1110,#1111);
#1110 = CARTESIAN_POINT('',(0.,0.));
#1111 = VECTOR('',#1112,1.);
#1112 = DIRECTION('',(1.,0.));
#1113 = ( GEOMETRIC_REPRESENTATION_CONTEXT(2) 
PARAMETRIC_REPRESENTATION_CONTEXT() REPRESENTATION_CONTEXT('2D SPACE',''
  ) );
#1114 = PCURVE('',#572,#1115);
#1115 = DEFINITIONAL_REPRESENTATION('',(#1116),#1120);
#1116 = LINE('',#1117,#1118);
#1117 = CARTESIAN_POINT('',(0.677642176891,-38.5));
#1118 = VECTOR('',#1119,1.);
#1119 = DIRECTION('',(1.,0.));
#1120 = ( GEOMETRIC_REPRESENTATION_CONTEXT(2) 
PARAMETRIC_REPRESENTATION_CONTEXT() REPRESENTATION_CONTEXT('2D SPACE',''
  ) );
#1121 = ORIENTED_EDGE('',*,*,#1122,.T.);
#1122 = EDGE_CURVE('',#1100,#332,#1123,.T.);
#1123 = SURFACE_CURVE('',#1124,(#1128,#1135),.PCURVE_S1.);
#1124 = LINE('',#1125,#1126);
#1125 = CARTESIAN_POINT('',(-27.5,38.5,31.8));
#1126 = VECTOR('',#1127,1.);
#1127 = DIRECTION('',(1.,0.,0.));
#1128 = PCURVE('',#347,#1129);
#1129 = DEFINITIONAL_REPRESENTATION('',(#1130),#1134);
#1130 = LINE('',#1131,#1132);
#1131 = CARTESIAN_POINT('',(5.,0.));
#1132 = VECTOR('',#1133,1.);
#1133 = DIRECTION('',(0.,1.));
#1134 = ( GEOMETRIC_REPRESENTATION_CONTEXT(2) 
PARAMETRIC_REPRESENTATION_CONTEXT() REPRESENTATION_CONTEXT('2D SPACE',''
  ) );
#1135 = PCURVE('',#375,#1136);
#1136 = DEFINITIONAL_REPRESENTATION('',(#1137),#1141);
#1137 = LINE('',#1138,#1139);
#1138 = CARTESIAN_POINT('',(0.,23.5));
#1139 = VECTOR('',#1140,1.);
#1140 = DIRECTION('',(1.,0.));
#1141 = ( GEOMETRIC_REPRESENTATION_CONTEXT(2) 
PARAMETRIC_REPRESENTATION_CONTEXT() REPRESENTATION_CONTEXT('2D SPACE',''
  ) );
#1142 = ORIENTED_EDGE('',*,*,#331,.F.);
#1143 = ADVANCED_FACE('',(#1144,#1192),#375,.T.);
#1144 = FACE_BOUND('',#1145,.T.);
#1145 = EDGE_LOOP('',(#1146,#1169,#1190,#1191));
#1146 = ORIENTED_EDGE('',*,*,#1147,.F.);
#1147 = EDGE_CURVE('',#1148,#1100,#1150,.T.);
#1148 = VERTEX_POINT('',#1149);
#1149 = CARTESIAN_POINT('',(-27.5,26.,31.8));
#1150 = SURFACE_CURVE('',#1151,(#1155,#1162),.PCURVE_S1.);
#1151 = LINE('',#1152,#1153);
#1152 = CARTESIAN_POINT('',(-27.5,15.,31.8));
#1153 = VECTOR('',#1154,1.);
#1154 = DIRECTION('',(0.,1.,0.));
#1155 = PCURVE('',#375,#1156);
#1156 = DEFINITIONAL_REPRESENTATION('',(#1157),#1161);
#1157 = LINE('',#1158,#1159);
#1158 = CARTESIAN_POINT('',(0.,0.));
#1159 = VECTOR('',#1160,1.);
#1160 = DIRECTION('',(0.,1.));
#1161 = ( GEOMETRIC_REPRESENTATION_CONTEXT(2) 
PARAMETRIC_REPRESENTATION_CONTEXT() REPRESENTATION_CONTEXT('2D SPACE',''
  ) );
#1162 = PCURVE('',#572,#1163);
#1163 = DEFINITIONAL_REPRESENTATION('',(#1164),#1168);
#1164 = LINE('',#1165,#1166);
#1165 = CARTESIAN_POINT('',(5.677642176891,-15.));
#1166 = VECTOR('',#1167,1.);
#1167 = DIRECTION('',(0.,-1.));
#1168 = ( GEOMETRIC_REPRESENTATION_CONTEXT(2) 
PARAMETRIC_REPRESENTATION_CONTEXT() REPRESENTATION_CONTEXT('2D SPACE',''
  ) );
#1169 = ORIENTED_EDGE('',*,*,#1170,.T.);
#1170 = EDGE_CURVE('',#1148,#360,#1171,.T.);
#1171 = SURFACE_CURVE('',#1172,(#1176,#1183),.PCURVE_S1.);
#1172 = LINE('',#1173,#1174);
#1173 = CARTESIAN_POINT('',(-27.5,26.,31.8));
#1174 = VECTOR('',#1175,1.);
#1175 = DIRECTION('',(1.,0.,0.));
#1176 = PCURVE('',#375,#1177);
#1177 = DEFINITIONAL_REPRESENTATION('',(#1178),#1182);
#1178 = LINE('',#1179,#1180);
#1179 = CARTESIAN_POINT('',(0.,11.));
#1180 = VECTOR('',#1181,1.);
#1181 = DIRECTION('',(1.,0.));
#1182 = ( GEOMETRIC_REPRESENTATION_CONTEXT(2) 
PARAMETRIC_REPRESENTATION_CONTEXT() REPRESENTATION_CONTEXT('2D SPACE',''
  ) );
#1183 = PCURVE('',#403,#1184);
#1184 = DEFINITIONAL_REPRESENTATION('',(#1185),#1189);
#1185 = LINE('',#1186,#1187);
#1186 = CARTESIAN_POINT('',(0.,0.));
#1187 = VECTOR('',#1188,1.);
#1188 = DIRECTION('',(0.,1.));
#1189 = ( GEOMETRIC_REPRESENTATION_CONTEXT(2) 
PARAMETRIC_REPRESENTATION_CONTEXT() REPRESENTATION_CONTEXT('2D SPACE',''
  ) );
#1190 = ORIENTED_EDGE('',*,*,#359,.T.);
#1191 = ORIENTED_EDGE('',*,*,#1122,.F.);
#1192 = FACE_BOUND('',#1193,.T.);
#1193 = EDGE_LOOP('',(#1194));
#1194 = ORIENTED_EDGE('',*,*,#1195,.T.);
#1195 = EDGE_CURVE('',#1196,#1196,#1198,.T.);
#1196 = VERTEX_POINT('',#1197);
#1197 = CARTESIAN_POINT('',(-21.3,32.,31.8));
#1198 = SURFACE_CURVE('',#1199,(#1204,#1215),.PCURVE_S1.);
#1199 = CIRCLE('',#1200,1.7);
#1200 = AXIS2_PLACEMENT_3D('',#1201,#1202,#1203);
#1201 = CARTESIAN_POINT('',(-23.,32.,31.8));
#1202 = DIRECTION('',(0.,0.,-1.));
#1203 = DIRECTION('',(1.,0.,0.));
#1204 = PCURVE('',#375,#1205);
#1205 = DEFINITIONAL_REPRESENTATION('',(#1206),#1214);
#1206 = ( BOUNDED_CURVE() B_SPLINE_CURVE(2,(#1207,#1208,#1209,#1210,
#1211,#1212,#1213),.UNSPECIFIED.,.T.,.F.) B_SPLINE_CURVE_WITH_KNOTS((1,2
    ,2,2,2,1),(-2.094395102393,0.,2.094395102393,4.188790204786,
6.28318530718,8.377580409573),.UNSPECIFIED.) CURVE() 
GEOMETRIC_REPRESENTATION_ITEM() RATIONAL_B_SPLINE_CURVE((1.,0.5,1.,0.5,
1.,0.5,1.)) REPRESENTATION_ITEM('') );
#1207 = CARTESIAN_POINT('',(6.2,17.));
#1208 = CARTESIAN_POINT('',(6.2,14.055513627133));
#1209 = CARTESIAN_POINT('',(3.65,15.527756813566));
#1210 = CARTESIAN_POINT('',(1.1,17.));
#1211 = CARTESIAN_POINT('',(3.65,18.472243186434));
#1212 = CARTESIAN_POINT('',(6.2,19.944486372867));
#1213 = CARTESIAN_POINT('',(6.2,17.));
#1214 = ( GEOMETRIC_REPRESENTATION_CONTEXT(2) 
PARAMETRIC_REPRESENTATION_CONTEXT() REPRESENTATION_CONTEXT('2D SPACE',''
  ) );
#1215 = PCURVE('',#1083,#1216);
#1216 = DEFINITIONAL_REPRESENTATION('',(#1217),#1221);
#1217 = LINE('',#1218,#1219);
#1218 = CARTESIAN_POINT('',(-6.28318530718,-5.8));
#1219 = VECTOR('',#1220,1.);
#1220 = DIRECTION('',(1.,-0.));
#1221 = ( GEOMETRIC_REPRESENTATION_CONTEXT(2) 
PARAMETRIC_REPRESENTATION_CONTEXT() REPRESENTATION_CONTEXT('2D SPACE',''
  ) );
#1222 = ADVANCED_FACE('',(#1223),#403,.T.);
#1223 = FACE_BOUND('',#1224,.T.);
#1224 = EDGE_LOOP('',(#1225,#1226,#1249,#1270));
#1225 = ORIENTED_EDGE('',*,*,#1170,.F.);
#1226 = ORIENTED_EDGE('',*,*,#1227,.T.);
#1227 = EDGE_CURVE('',#1148,#1228,#1230,.T.);
#1228 = VERTEX_POINT('',#1229);
#1229 = CARTESIAN_POINT('',(-27.5,26.,33.8));
#1230 = SURFACE_CURVE('',#1231,(#1235,#1242),.PCURVE_S1.);
#1231 = LINE('',#1232,#1233);
#1232 = CARTESIAN_POINT('',(-27.5,26.,31.8));
#1233 = VECTOR('',#1234,1.);
#1234 = DIRECTION('',(0.,0.,1.));
#1235 = PCURVE('',#403,#1236);
#1236 = DEFINITIONAL_REPRESENTATION('',(#1237),#1241);
#1237 = LINE('',#1238,#1239);
#1238 = CARTESIAN_POINT('',(0.,0.));
#1239 = VECTOR('',#1240,1.);
#1240 = DIRECTION('',(1.,0.));
#1241 = ( GEOMETRIC_REPRESENTATION_CONTEXT(2) 
PARAMETRIC_REPRESENTATION_CONTEXT() REPRESENTATION_CONTEXT('2D SPACE',''
  ) );
#1242 = PCURVE('',#572,#1243);
#1243 = DEFINITIONAL_REPRESENTATION('',(#1244),#1248);
#1244 = LINE('',#1245,#1246);
#1245 = CARTESIAN_POINT('',(5.677642176891,-26.));
#1246 = VECTOR('',#1247,1.);
#1247 = DIRECTION('',(1.,0.));
#1248 = ( GEOMETRIC_REPRESENTATION_CONTEXT(2) 
PARAMETRIC_REPRESENTATION_CONTEXT() REPRESENTATION_CONTEXT('2D SPACE',''
  ) );
#1249 = ORIENTED_EDGE('',*,*,#1250,.T.);
#1250 = EDGE_CURVE('',#1228,#388,#1251,.T.);
#1251 = SURFACE_CURVE('',#1252,(#1256,#1263),.PCURVE_S1.);
#1252 = LINE('',#1253,#1254);
#1253 = CARTESIAN_POINT('',(-27.5,26.,33.8));
#1254 = VECTOR('',#1255,1.);
#1255 = DIRECTION('',(1.,0.,0.));
#1256 = PCURVE('',#403,#1257);
#1257 = DEFINITIONAL_REPRESENTATION('',(#1258),#1262);
#1258 = LINE('',#1259,#1260);
#1259 = CARTESIAN_POINT('',(2.,0.));
#1260 = VECTOR('',#1261,1.);
#1261 = DIRECTION('',(0.,1.));
#1262 = ( GEOMETRIC_REPRESENTATION_CONTEXT(2) 
PARAMETRIC_REPRESENTATION_CONTEXT() REPRESENTATION_CONTEXT('2D SPACE',''
  ) );
#1263 = PCURVE('',#431,#1264);
#1264 = DEFINITIONAL_REPRESENTATION('',(#1265),#1269);
#1265 = LINE('',#1266,#1267);
#1266 = CARTESIAN_POINT('',(0.,11.));
#1267 = VECTOR('',#1268,1.);
#1268 = DIRECTION('',(1.,0.));
#1269 = ( GEOMETRIC_REPRESENTATION_CONTEXT(2) 
PARAMETRIC_REPRESENTATION_CONTEXT() REPRESENTATION_CONTEXT('2D SPACE',''
  ) );
#1270 = ORIENTED_EDGE('',*,*,#387,.F.);
#1271 = ADVANCED_FACE('',(#1272),#431,.T.);
#1272 = FACE_BOUND('',#1273,.T.);
#1273 = EDGE_LOOP('',(#1274,#1297,#1324,#1325));
#1274 = ORIENTED_EDGE('',*,*,#1275,.F.);
#1275 = EDGE_CURVE('',#1276,#1228,#1278,.T.);
#1276 = VERTEX_POINT('',#1277);
#1277 = CARTESIAN_POINT('',(-27.5,15.625384186259,33.8));
#1278 = SURFACE_CURVE('',#1279,(#1283,#1290),.PCURVE_S1.);
#1279 = LINE('',#1280,#1281);
#1280 = CARTESIAN_POINT('',(-27.5,15.,33.8));
#1281 = VECTOR('',#1282,1.);
#1282 = DIRECTION('',(0.,1.,0.));
#1283 = PCURVE('',#431,#1284);
#1284 = DEFINITIONAL_REPRESENTATION('',(#1285),#1289);
#1285 = LINE('',#1286,#1287);
#1286 = CARTESIAN_POINT('',(0.,0.));
#1287 = VECTOR('',#1288,1.);
#1288 = DIRECTION('',(0.,1.));
#1289 = ( GEOMETRIC_REPRESENTATION_CONTEXT(2) 
PARAMETRIC_REPRESENTATION_CONTEXT() REPRESENTATION_CONTEXT('2D SPACE',''
  ) );
#1290 = PCURVE('',#572,#1291);
#1291 = DEFINITIONAL_REPRESENTATION('',(#1292),#1296);
#1292 = LINE('',#1293,#1294);
#1293 = CARTESIAN_POINT('',(7.677642176891,-15.));
#1294 = VECTOR('',#1295,1.);
#1295 = DIRECTION('',(0.,-1.));
#1296 = ( GEOMETRIC_REPRESENTATION_CONTEXT(2) 
PARAMETRIC_REPRESENTATION_CONTEXT() REPRESENTATION_CONTEXT('2D SPACE',''
  ) );
#1297 = ORIENTED_EDGE('',*,*,#1298,.F.);
#1298 = EDGE_CURVE('',#416,#1276,#1299,.T.);
#1299 = SURFACE_CURVE('',#1300,(#1306,#1315),.PCURVE_S1.);
#1300 = B_SPLINE_CURVE_WITH_KNOTS('',4,(#1301,#1302,#1303,#1304,#1305),
  .UNSPECIFIED.,.F.,.F.,(5,5),(0.,1.),.PIECEWISE_BEZIER_KNOTS.);
#1301 = CARTESIAN_POINT('',(-18.5,15.625384186259,33.8));
#1302 = CARTESIAN_POINT('',(-20.74999999977,15.625384186259,33.8));
#1303 = CARTESIAN_POINT('',(-23.00000000001,15.625384186259,33.8));
#1304 = CARTESIAN_POINT('',(-25.25000000022,15.625384186259,33.8));
#1305 = CARTESIAN_POINT('',(-27.5,15.625384186259,33.8));
#1306 = PCURVE('',#431,#1307);
#1307 = DEFINITIONAL_REPRESENTATION('',(#1308),#1314);
#1308 = B_SPLINE_CURVE_WITH_KNOTS('',4,(#1309,#1310,#1311,#1312,#1313),
  .UNSPECIFIED.,.F.,.F.,(5,5),(0.,1.),.PIECEWISE_BEZIER_KNOTS.);
#1309 = CARTESIAN_POINT('',(9.,0.625384186259));
#1310 = CARTESIAN_POINT('',(6.750000000225,0.625384186259));
#1311 = CARTESIAN_POINT('',(4.499999999981,0.625384186259));
#1312 = CARTESIAN_POINT('',(2.249999999775,0.625384186259));
#1313 = CARTESIAN_POINT('',(0.,0.625384186259));
#1314 = ( GEOMETRIC_REPRESENTATION_CONTEXT(2) 
PARAMETRIC_REPRESENTATION_CONTEXT() REPRESENTATION_CONTEXT('2D SPACE',''
  ) );
#1315 = PCURVE('',#460,#1316);
#1316 = DEFINITIONAL_REPRESENTATION('',(#1317),#1323);
#1317 = B_SPLINE_CURVE_WITH_KNOTS('',4,(#1318,#1319,#1320,#1321,#1322),
  .UNSPECIFIED.,.F.,.F.,(5,5),(0.,1.),.PIECEWISE_BEZIER_KNOTS.);
#1318 = CARTESIAN_POINT('',(5.154410265294,-8.9999999991));
#1319 = CARTESIAN_POINT('',(5.154410265294,-6.749999999325));
#1320 = CARTESIAN_POINT('',(5.154410265294,-4.500000000019));
#1321 = CARTESIAN_POINT('',(5.154410265294,-2.250000000675));
#1322 = CARTESIAN_POINT('',(5.154410265294,-8.999396783338E-10));
#1323 = ( GEOMETRIC_REPRESENTATION_CONTEXT(2) 
PARAMETRIC_REPRESENTATION_CONTEXT() REPRESENTATION_CONTEXT('2D SPACE',''
  ) );
#1324 = ORIENTED_EDGE('',*,*,#415,.T.);
#1325 = ORIENTED_EDGE('',*,*,#1250,.F.);
#1326 = ADVANCED_FACE('',(#1327),#460,.F.);
#1327 = FACE_BOUND('',#1328,.F.);
#1328 = EDGE_LOOP('',(#1329,#1330,#1331,#1332,#1361,#1384));
#1329 = ORIENTED_EDGE('',*,*,#1298,.F.);
#1330 = ORIENTED_EDGE('',*,*,#443,.T.);
#1331 = ORIENTED_EDGE('',*,*,#474,.T.);
#1332 = ORIENTED_EDGE('',*,*,#1333,.T.);
#1333 = EDGE_CURVE('',#475,#1334,#1336,.T.);
#1334 = VERTEX_POINT('',#1335);
#1335 = CARTESIAN_POINT('',(-27.5,-15.62538418625,33.8));
#1336 = SURFACE_CURVE('',#1337,(#1343,#1352),.PCURVE_S1.);
#1337 = B_SPLINE_CURVE_WITH_KNOTS('',4,(#1338,#1339,#1340,#1341,#1342),
  .UNSPECIFIED.,.F.,.F.,(5,5),(0.,1.),.PIECEWISE_BEZIER_KNOTS.);
#1338 = CARTESIAN_POINT('',(-18.5,-15.62538418625,33.8));
#1339 = CARTESIAN_POINT('',(-20.74999999977,-15.62538418625,33.8));
#1340 = CARTESIAN_POINT('',(-23.00000000001,-15.62538418625,33.8));
#1341 = CARTESIAN_POINT('',(-25.25000000022,-15.62538418625,33.8));
#1342 = CARTESIAN_POINT('',(-27.5,-15.62538418625,33.8));
#1343 = PCURVE('',#460,#1344);
#1344 = DEFINITIONAL_REPRESENTATION('',(#1345),#1351);
#1345 = B_SPLINE_CURVE_WITH_KNOTS('',4,(#1346,#1347,#1348,#1349,#1350),
  .UNSPECIFIED.,.F.,.F.,(5,5),(0.,1.),.PIECEWISE_BEZIER_KNOTS.);
#1346 = CARTESIAN_POINT('',(7.411960349066,-8.9999999991));
#1347 = CARTESIAN_POINT('',(7.411960349066,-6.749999999325));
#1348 = CARTESIAN_POINT('',(7.411960349066,-4.500000000019));
#1349 = CARTESIAN_POINT('',(7.411960349066,-2.250000000675));
#1350 = CARTESIAN_POINT('',(7.411960349066,-8.999396783338E-10));
#1351 = ( GEOMETRIC_REPRESENTATION_CONTEXT(2) 
PARAMETRIC_REPRESENTATION_CONTEXT() REPRESENTATION_CONTEXT('2D SPACE',''
  ) );
#1352 = PCURVE('',#513,#1353);
#1353 = DEFINITIONAL_REPRESENTATION('',(#1354),#1360);
#1354 = B_SPLINE_CURVE_WITH_KNOTS('',4,(#1355,#1356,#1357,#1358,#1359),
  .UNSPECIFIED.,.F.,.F.,(5,5),(0.,1.),.PIECEWISE_BEZIER_KNOTS.);
#1355 = CARTESIAN_POINT('',(9.,10.374615813741));
#1356 = CARTESIAN_POINT('',(6.750000000225,10.374615813741));
#1357 = CARTESIAN_POINT('',(4.499999999981,10.374615813741));
#1358 = CARTESIAN_POINT('',(2.249999999775,10.374615813741));
#1359 = CARTESIAN_POINT('',(0.,10.374615813741));
#1360 = ( GEOMETRIC_REPRESENTATION_CONTEXT(2) 
PARAMETRIC_REPRESENTATION_CONTEXT() REPRESENTATION_CONTEXT('2D SPACE',''
  ) );
#1361 = ORIENTED_EDGE('',*,*,#1362,.F.);
#1362 = EDGE_CURVE('',#1363,#1334,#1365,.T.);
#1363 = VERTEX_POINT('',#1364);
#1364 = CARTESIAN_POINT('',(-27.5,2.024404036218E-15,44.234210526316));
#1365 = SURFACE_CURVE('',#1366,(#1371,#1377),.PCURVE_S1.);
#1366 = ELLIPSE('',#1367,18.234210526316,17.286842105263);
#1367 = AXIS2_PLACEMENT_3D('',#1368,#1369,#1370);
#1368 = CARTESIAN_POINT('',(-27.5,0.,26.));
#1369 = DIRECTION('',(1.,0.,-0.));
#1370 = DIRECTION('',(0.,1.110223024625E-16,1.));
#1371 = PCURVE('',#460,#1372);
#1372 = DEFINITIONAL_REPRESENTATION('',(#1373),#1376);
#1373 = B_SPLINE_CURVE_WITH_KNOTS('',1,(#1374,#1375),.UNSPECIFIED.,.F.,
  .F.,(2,2),(0.,1.526908664453),.PIECEWISE_BEZIER_KNOTS.);
#1374 = CARTESIAN_POINT('',(6.28318530718,0.));
#1375 = CARTESIAN_POINT('',(7.810093971633,0.));
#1376 = ( GEOMETRIC_REPRESENTATION_CONTEXT(2) 
PARAMETRIC_REPRESENTATION_CONTEXT() REPRESENTATION_CONTEXT('2D SPACE',''
  ) );
#1377 = PCURVE('',#572,#1378);
#1378 = DEFINITIONAL_REPRESENTATION('',(#1379),#1383);
#1379 = ELLIPSE('',#1380,18.234210526316,17.286842105263);
#1380 = AXIS2_PLACEMENT_2D('',#1381,#1382);
#1381 = CARTESIAN_POINT('',(-0.122357823109,-1.746000824833E-16));
#1382 = DIRECTION('',(1.,-1.110223024625E-16));
#1383 = ( GEOMETRIC_REPRESENTATION_CONTEXT(2) 
PARAMETRIC_REPRESENTATION_CONTEXT() REPRESENTATION_CONTEXT('2D SPACE',''
  ) );
#1384 = ORIENTED_EDGE('',*,*,#1385,.F.);
#1385 = EDGE_CURVE('',#1276,#1363,#1386,.T.);
#1386 = SURFACE_CURVE('',#1387,(#1392,#1398),.PCURVE_S1.);
#1387 = ELLIPSE('',#1388,18.234210526316,17.286842105263);
#1388 = AXIS2_PLACEMENT_3D('',#1389,#1390,#1391);
#1389 = CARTESIAN_POINT('',(-27.5,0.,26.));
#1390 = DIRECTION('',(1.,0.,-0.));
#1391 = DIRECTION('',(0.,1.110223024625E-16,1.));
#1392 = PCURVE('',#460,#1393);
#1393 = DEFINITIONAL_REPRESENTATION('',(#1394),#1397);
#1394 = B_SPLINE_CURVE_WITH_KNOTS('',1,(#1395,#1396),.UNSPECIFIED.,.F.,
  .F.,(2,2),(4.756276642726,6.28318530718),.PIECEWISE_BEZIER_KNOTS.);
#1395 = CARTESIAN_POINT('',(4.756276642726,0.));
#1396 = CARTESIAN_POINT('',(6.28318530718,0.));
#1397 = ( GEOMETRIC_REPRESENTATION_CONTEXT(2) 
PARAMETRIC_REPRESENTATION_CONTEXT() REPRESENTATION_CONTEXT('2D SPACE',''
  ) );
#1398 = PCURVE('',#572,#1399);
#1399 = DEFINITIONAL_REPRESENTATION('',(#1400),#1404);
#1400 = ELLIPSE('',#1401,18.234210526316,17.286842105263);
#1401 = AXIS2_PLACEMENT_2D('',#1402,#1403);
#1402 = CARTESIAN_POINT('',(-0.122357823109,-1.746000824833E-16));
#1403 = DIRECTION('',(1.,-1.110223024625E-16));
#1404 = ( GEOMETRIC_REPRESENTATION_CONTEXT(2) 
PARAMETRIC_REPRESENTATION_CONTEXT() REPRESENTATION_CONTEXT('2D SPACE',''
  ) );
#1405 = ADVANCED_FACE('',(#1406),#513,.T.);
#1406 = FACE_BOUND('',#1407,.T.);
#1407 = EDGE_LOOP('',(#1408,#1431,#1452,#1453));
#1408 = ORIENTED_EDGE('',*,*,#1409,.F.);
#1409 = EDGE_CURVE('',#1410,#1334,#1412,.T.);
#1410 = VERTEX_POINT('',#1411);
#1411 = CARTESIAN_POINT('',(-27.5,-26.,33.8));
#1412 = SURFACE_CURVE('',#1413,(#1417,#1424),.PCURVE_S1.);
#1413 = LINE('',#1414,#1415);
#1414 = CARTESIAN_POINT('',(-27.5,-26.,33.8));
#1415 = VECTOR('',#1416,1.);
#1416 = DIRECTION('',(0.,1.,0.));
#1417 = PCURVE('',#513,#1418);
#1418 = DEFINITIONAL_REPRESENTATION('',(#1419),#1423);
#1419 = LINE('',#1420,#1421);
#1420 = CARTESIAN_POINT('',(0.,0.));
#1421 = VECTOR('',#1422,1.);
#1422 = DIRECTION('',(0.,1.));
#1423 = ( GEOMETRIC_REPRESENTATION_CONTEXT(2) 
PARAMETRIC_REPRESENTATION_CONTEXT() REPRESENTATION_CONTEXT('2D SPACE',''
  ) );
#1424 = PCURVE('',#572,#1425);
#1425 = DEFINITIONAL_REPRESENTATION('',(#1426),#1430);
#1426 = LINE('',#1427,#1428);
#1427 = CARTESIAN_POINT('',(7.677642176891,26.));
#1428 = VECTOR('',#1429,1.);
#1429 = DIRECTION('',(0.,-1.));
#1430 = ( GEOMETRIC_REPRESENTATION_CONTEXT(2) 
PARAMETRIC_REPRESENTATION_CONTEXT() REPRESENTATION_CONTEXT('2D SPACE',''
  ) );
#1431 = ORIENTED_EDGE('',*,*,#1432,.T.);
#1432 = EDGE_CURVE('',#1410,#498,#1433,.T.);
#1433 = SURFACE_CURVE('',#1434,(#1438,#1445),.PCURVE_S1.);
#1434 = LINE('',#1435,#1436);
#1435 = CARTESIAN_POINT('',(-27.5,-26.,33.8));
#1436 = VECTOR('',#1437,1.);
#1437 = DIRECTION('',(1.,0.,0.));
#1438 = PCURVE('',#513,#1439);
#1439 = DEFINITIONAL_REPRESENTATION('',(#1440),#1444);
#1440 = LINE('',#1441,#1442);
#1441 = CARTESIAN_POINT('',(0.,0.));
#1442 = VECTOR('',#1443,1.);
#1443 = DIRECTION('',(1.,0.));
#1444 = ( GEOMETRIC_REPRESENTATION_CONTEXT(2) 
PARAMETRIC_REPRESENTATION_CONTEXT() REPRESENTATION_CONTEXT('2D SPACE',''
  ) );
#1445 = PCURVE('',#539,#1446);
#1446 = DEFINITIONAL_REPRESENTATION('',(#1447),#1451);
#1447 = LINE('',#1448,#1449);
#1448 = CARTESIAN_POINT('',(2.,0.));
#1449 = VECTOR('',#1450,1.);
#1450 = DIRECTION('',(0.,1.));
#1451 = ( GEOMETRIC_REPRESENTATION_CONTEXT(2) 
PARAMETRIC_REPRESENTATION_CONTEXT() REPRESENTATION_CONTEXT('2D SPACE',''
  ) );
#1452 = ORIENTED_EDGE('',*,*,#497,.T.);
#1453 = ORIENTED_EDGE('',*,*,#1333,.T.);
#1454 = ADVANCED_FACE('',(#1455),#539,.F.);
#1455 = FACE_BOUND('',#1456,.F.);
#1456 = EDGE_LOOP('',(#1457,#1458,#1479,#1480));
#1457 = ORIENTED_EDGE('',*,*,#606,.F.);
#1458 = ORIENTED_EDGE('',*,*,#1459,.T.);
#1459 = EDGE_CURVE('',#557,#1410,#1460,.T.);
#1460 = SURFACE_CURVE('',#1461,(#1465,#1472),.PCURVE_S1.);
#1461 = LINE('',#1462,#1463);
#1462 = CARTESIAN_POINT('',(-27.5,-26.,31.8));
#1463 = VECTOR('',#1464,1.);
#1464 = DIRECTION('',(0.,0.,1.));
#1465 = PCURVE('',#539,#1466);
#1466 = DEFINITIONAL_REPRESENTATION('',(#1467),#1471);
#1467 = LINE('',#1468,#1469);
#1468 = CARTESIAN_POINT('',(0.,0.));
#1469 = VECTOR('',#1470,1.);
#1470 = DIRECTION('',(1.,0.));
#1471 = ( GEOMETRIC_REPRESENTATION_CONTEXT(2) 
PARAMETRIC_REPRESENTATION_CONTEXT() REPRESENTATION_CONTEXT('2D SPACE',''
  ) );
#1472 = PCURVE('',#572,#1473);
#1473 = DEFINITIONAL_REPRESENTATION('',(#1474),#1478);
#1474 = LINE('',#1475,#1476);
#1475 = CARTESIAN_POINT('',(5.677642176891,26.));
#1476 = VECTOR('',#1477,1.);
#1477 = DIRECTION('',(1.,0.));
#1478 = ( GEOMETRIC_REPRESENTATION_CONTEXT(2) 
PARAMETRIC_REPRESENTATION_CONTEXT() REPRESENTATION_CONTEXT('2D SPACE',''
  ) );
#1479 = ORIENTED_EDGE('',*,*,#1432,.T.);
#1480 = ORIENTED_EDGE('',*,*,#525,.F.);
#1481 = ADVANCED_FACE('',(#1482),#572,.F.);
#1482 = FACE_BOUND('',#1483,.F.);
#1483 = EDGE_LOOP('',(#1484,#1485,#1486,#1487,#1488,#1489,#1490,#1491,
    #1492,#1493,#1494,#1495,#1496));
#1484 = ORIENTED_EDGE('',*,*,#554,.F.);
#1485 = ORIENTED_EDGE('',*,*,#688,.F.);
#1486 = ORIENTED_EDGE('',*,*,#714,.T.);
#1487 = ORIENTED_EDGE('',*,*,#801,.T.);
#1488 = ORIENTED_EDGE('',*,*,#1014,.T.);
#1489 = ORIENTED_EDGE('',*,*,#1099,.T.);
#1490 = ORIENTED_EDGE('',*,*,#1147,.F.);
#1491 = ORIENTED_EDGE('',*,*,#1227,.T.);
#1492 = ORIENTED_EDGE('',*,*,#1275,.F.);
#1493 = ORIENTED_EDGE('',*,*,#1385,.T.);
#1494 = ORIENTED_EDGE('',*,*,#1362,.T.);
#1495 = ORIENTED_EDGE('',*,*,#1409,.F.);
#1496 = ORIENTED_EDGE('',*,*,#1459,.F.);
#1497 = ADVANCED_FACE('',(#1498),#650,.F.);
#1498 = FACE_BOUND('',#1499,.T.);
#1499 = EDGE_LOOP('',(#1500,#1501,#1522,#1523));
#1500 = ORIENTED_EDGE('',*,*,#768,.T.);
#1501 = ORIENTED_EDGE('',*,*,#1502,.T.);
#1502 = EDGE_CURVE('',#769,#630,#1503,.T.);
#1503 = SEAM_CURVE('',#1504,(#1508,#1515),.PCURVE_S1.);
#1504 = LINE('',#1505,#1506);
#1505 = CARTESIAN_POINT('',(-21.3,-32.,26.));
#1506 = VECTOR('',#1507,1.);
#1507 = DIRECTION('',(0.,0.,1.));
#1508 = PCURVE('',#650,#1509);
#1509 = DEFINITIONAL_REPRESENTATION('',(#1510),#1514);
#1510 = LINE('',#1511,#1512);
#1511 = CARTESIAN_POINT('',(-6.28318530718,0.));
#1512 = VECTOR('',#1513,1.);
#1513 = DIRECTION('',(-0.,-1.));
#1514 = ( GEOMETRIC_REPRESENTATION_CONTEXT(2) 
PARAMETRIC_REPRESENTATION_CONTEXT() REPRESENTATION_CONTEXT('2D SPACE',''
  ) );
#1515 = PCURVE('',#650,#1516);
#1516 = DEFINITIONAL_REPRESENTATION('',(#1517),#1521);
#1517 = LINE('',#1518,#1519);
#1518 = CARTESIAN_POINT('',(-0.,0.));
#1519 = VECTOR('',#1520,1.);
#1520 = DIRECTION('',(-0.,-1.));
#1521 = ( GEOMETRIC_REPRESENTATION_CONTEXT(2) 
PARAMETRIC_REPRESENTATION_CONTEXT() REPRESENTATION_CONTEXT('2D SPACE',''
  ) );
#1522 = ORIENTED_EDGE('',*,*,#629,.F.);
#1523 = ORIENTED_EDGE('',*,*,#1502,.F.);
#1524 = ADVANCED_FACE('',(#1525),#1083,.F.);
#1525 = FACE_BOUND('',#1526,.T.);
#1526 = EDGE_LOOP('',(#1527,#1528,#1549,#1550));
#1527 = ORIENTED_EDGE('',*,*,#1062,.T.);
#1528 = ORIENTED_EDGE('',*,*,#1529,.T.);
#1529 = EDGE_CURVE('',#1063,#1196,#1530,.T.);
#1530 = SEAM_CURVE('',#1531,(#1535,#1542),.PCURVE_S1.);
#1531 = LINE('',#1532,#1533);
#1532 = CARTESIAN_POINT('',(-21.3,32.,26.));
#1533 = VECTOR('',#1534,1.);
#1534 = DIRECTION('',(0.,0.,1.));
#1535 = PCURVE('',#1083,#1536);
#1536 = DEFINITIONAL_REPRESENTATION('',(#1537),#1541);
#1537 = LINE('',#1538,#1539);
#1538 = CARTESIAN_POINT('',(-6.28318530718,0.));
#1539 = VECTOR('',#1540,1.);
#1540 = DIRECTION('',(-0.,-1.));
#1541 = ( GEOMETRIC_REPRESENTATION_CONTEXT(2) 
PARAMETRIC_REPRESENTATION_CONTEXT() REPRESENTATION_CONTEXT('2D SPACE',''
  ) );
#1542 = PCURVE('',#1083,#1543);
#1543 = DEFINITIONAL_REPRESENTATION('',(#1544),#1548);
#1544 = LINE('',#1545,#1546);
#1545 = CARTESIAN_POINT('',(-0.,0.));
#1546 = VECTOR('',#1547,1.);
#1547 = DIRECTION('',(-0.,-1.));
#1548 = ( GEOMETRIC_REPRESENTATION_CONTEXT(2) 
PARAMETRIC_REPRESENTATION_CONTEXT() REPRESENTATION_CONTEXT('2D SPACE',''
  ) );
#1549 = ORIENTED_EDGE('',*,*,#1195,.F.);
#1550 = ORIENTED_EDGE('',*,*,#1529,.F.);
#1551 = ( GEOMETRIC_REPRESENTATION_CONTEXT(3) 
GLOBAL_UNCERTAINTY_ASSIGNED_CONTEXT((#1555)) 
GLOBAL_UNIT_ASSIGNED_CONTEXT((#1552,#1553,#1554)) REPRESENTATION_CONTEXT
('Context #1','3D Context with UNIT and UNCERTAINTY') );
#1552 = ( LENGTH_UNIT() NAMED_UNIT(*) SI_UNIT(.MILLI.,.METRE.) );
#1553 = ( NAMED_UNIT(*) PLANE_ANGLE_UNIT() SI_UNIT($,.RADIAN.) );
#1554 = ( NAMED_UNIT(*) SI_UNIT($,.STERADIAN.) SOLID_ANGLE_UNIT() );
#1555 = UNCERTAINTY_MEASURE_WITH_UNIT(LENGTH_MEASURE(1.E-06),#1552,
  'distance_accuracy_value','confusion accuracy');
#1556 = PRODUCT_RELATED_PRODUCT_CATEGORY('part',$,(#7));
ENDSEC;
END-ISO-10303-21;
