ISO-10303-21;
HEADER;
FILE_DESCRIPTION(('Open CASCADE Model'),'2;1');
FILE_NAME('Open CASCADE Shape Model','2026-09-24T11:22:09',('Author'),(
    'Open CASCADE'),'Open CASCADE STEP processor 7.9','Open CASCADE 7.9'
  ,'Unknown');
FILE_SCHEMA(('AUTOMOTIVE_DESIGN { 1 0 10303 214 1 1 1 1 }'));
ENDSEC;
DATA;
#1 = APPLICATION_PROTOCOL_DEFINITION('international standard',
  'automotive_design',2000,#2);
#2 = APPLICATION_CONTEXT(
  'core data for automotive mechanical design processes');
#3 = SHAPE_DEFINITION_REPRESENTATION(#4,#10);
#4 = PRODUCT_DEFINITION_SHAPE('','',#5);
#5 = PRODUCT_DEFINITION('design','',#6,#9);
#6 = PRODUCT_DEFINITION_FORMATION('','',#7);
#7 = PRODUCT('Open CASCADE STEP translator 7.9 3',
  'Open CASCADE STEP translator 7.9 3','',(#8));
#8 = PRODUCT_CONTEXT('',#2,'mechanical');
#9 = PRODUCT_DEFINITION_CONTEXT('part definition',#2,'design');
#10 = ADVANCED_BREP_SHAPE_REPRESENTATION('',(#11,#15),#1707);
#11 = AXIS2_PLACEMENT_3D('',#12,#13,#14);
#12 = CARTESIAN_POINT('',(0.,0.,0.));
#13 = DIRECTION('',(0.,0.,1.));
#14 = DIRECTION('',(1.,0.,-0.));
#15 = MANIFOLD_SOLID_BREP('',#16);
#16 = CLOSED_SHELL('',(#17,#198,#718,#767,#1207,#1234,#1322,#1349,#1406,
    #1433,#1440,#1467,#1494,#1556,#1583,#1646,#1653,#1680));
#17 = ADVANCED_FACE('',(#18),#33,.F.);
#18 = FACE_BOUND('',#19,.F.);
#19 = EDGE_LOOP('',(#20,#58,#81,#115,#143,#166));
#20 = ORIENTED_EDGE('',*,*,#21,.F.);
#21 = EDGE_CURVE('',#22,#24,#26,.T.);
#22 = VERTEX_POINT('',#23);
#23 = CARTESIAN_POINT('',(18.5,1.943766784956E-15,43.507894736842));
#24 = VERTEX_POINT('',#25);
#25 = CARTESIAN_POINT('',(18.5,-15.,33.660529888417));
#26 = SURFACE_CURVE('',#27,(#32,#46),.PCURVE_S1.);
#27 = ELLIPSE('',#28,17.507894736842,16.681578947368);
#28 = AXIS2_PLACEMENT_3D('',#29,#30,#31);
#29 = CARTESIAN_POINT('',(18.5,0.,26.));
#30 = DIRECTION('',(1.,0.,-0.));
#31 = DIRECTION('',(0.,1.110223024625E-16,1.));
#32 = PCURVE('',#33,#41);
#33 = SURFACE_OF_LINEAR_EXTRUSION('',#34,#39);
#34 = ELLIPSE('',#35,17.507894736842,16.681578947368);
#35 = AXIS2_PLACEMENT_3D('',#36,#37,#38);
#36 = CARTESIAN_POINT('',(18.5,0.,26.));
#37 = DIRECTION('',(1.,0.,-0.));
#38 = DIRECTION('',(0.,1.110223024625E-16,1.));
#39 = VECTOR('',#40,1.);
#40 = DIRECTION('',(-1.,-0.,-0.));
#41 = DEFINITIONAL_REPRESENTATION('',(#42),#45);
#42 = B_SPLINE_CURVE_WITH_KNOTS('',1,(#43,#44),.UNSPECIFIED.,.F.,.F.,(2,
    2),(0.,1.525086739084),.PIECEWISE_BEZIER_KNOTS.);
#43 = CARTESIAN_POINT('',(6.28318530718,0.));
#44 = CARTESIAN_POINT('',(7.808272046263,0.));
#45 = ( GEOMETRIC_REPRESENTATION_CONTEXT(2) 
PARAMETRIC_REPRESENTATION_CONTEXT() REPRESENTATION_CONTEXT('2D SPACE',''
  ) );
#46 = PCURVE('',#47,#52);
#47 = PLANE('',#48);
#48 = AXIS2_PLACEMENT_3D('',#49,#50,#51);
#49 = CARTESIAN_POINT('',(18.5,-2.625415892908E-16,26.106401974852));
#50 = DIRECTION('',(1.,0.,0.));
#51 = DIRECTION('',(-0.,0.,1.));
#52 = DEFINITIONAL_REPRESENTATION('',(#53),#57);
#53 = ELLIPSE('',#54,17.507894736842,16.681578947368);
#54 = AXIS2_PLACEMENT_2D('',#55,#56);
#55 = CARTESIAN_POINT('',(-0.106401974852,-2.625415892908E-16));
#56 = DIRECTION('',(1.,-1.110223024625E-16));
#57 = ( GEOMETRIC_REPRESENTATION_CONTEXT(2) 
PARAMETRIC_REPRESENTATION_CONTEXT() REPRESENTATION_CONTEXT('2D SPACE',''
  ) );
#58 = ORIENTED_EDGE('',*,*,#59,.F.);
#59 = EDGE_CURVE('',#60,#22,#62,.T.);
#60 = VERTEX_POINT('',#61);
#61 = CARTESIAN_POINT('',(18.5,15.,33.660529888417));
#62 = SURFACE_CURVE('',#63,(#68,#74),.PCURVE_S1.);
#63 = ELLIPSE('',#64,17.507894736842,16.681578947368);
#64 = AXIS2_PLACEMENT_3D('',#65,#66,#67);
#65 = CARTESIAN_POINT('',(18.5,0.,26.));
#66 = DIRECTION('',(1.,0.,-0.));
#67 = DIRECTION('',(0.,1.110223024625E-16,1.));
#68 = PCURVE('',#33,#69);
#69 = DEFINITIONAL_REPRESENTATION('',(#70),#73);
#70 = B_SPLINE_CURVE_WITH_KNOTS('',1,(#71,#72),.UNSPECIFIED.,.F.,.F.,(2,
    2),(4.758098568096,6.28318530718),.PIECEWISE_BEZIER_KNOTS.);
#71 = CARTESIAN_POINT('',(4.758098568096,0.));
#72 = CARTESIAN_POINT('',(6.28318530718,0.));
#73 = ( GEOMETRIC_REPRESENTATION_CONTEXT(2) 
PARAMETRIC_REPRESENTATION_CONTEXT() REPRESENTATION_CONTEXT('2D SPACE',''
  ) );
#74 = PCURVE('',#47,#75);
#75 = DEFINITIONAL_REPRESENTATION('',(#76),#80);
#76 = ELLIPSE('',#77,17.507894736842,16.681578947368);
#77 = AXIS2_PLACEMENT_2D('',#78,#79);
#78 = CARTESIAN_POINT('',(-0.106401974852,-2.625415892908E-16));
#79 = DIRECTION('',(1.,-1.110223024625E-16));
#80 = ( GEOMETRIC_REPRESENTATION_CONTEXT(2) 
PARAMETRIC_REPRESENTATION_CONTEXT() REPRESENTATION_CONTEXT('2D SPACE',''
  ) );
#81 = ORIENTED_EDGE('',*,*,#82,.F.);
#82 = EDGE_CURVE('',#83,#60,#85,.T.);
#83 = VERTEX_POINT('',#84);
#84 = CARTESIAN_POINT('',(27.5,15.,33.660529888417));
#85 = SURFACE_CURVE('',#86,(#92,#101),.PCURVE_S1.);
#86 = B_SPLINE_CURVE_WITH_KNOTS('',4,(#87,#88,#89,#90,#91),
  .UNSPECIFIED.,.F.,.F.,(5,5),(0.,1.),.PIECEWISE_BEZIER_KNOTS.);
#87 = CARTESIAN_POINT('',(27.5,15.,33.660529888418));
#88 = CARTESIAN_POINT('',(25.250000000225,15.,33.660529888418));
#89 = CARTESIAN_POINT('',(22.999999999981,15.,33.660529888418));
#90 = CARTESIAN_POINT('',(20.749999999775,15.,33.660529888418));
#91 = CARTESIAN_POINT('',(18.5,15.,33.660529888418));
#92 = PCURVE('',#33,#93);
#93 = DEFINITIONAL_REPRESENTATION('',(#94),#100);
#94 = B_SPLINE_CURVE_WITH_KNOTS('',4,(#95,#96,#97,#98,#99),
  .UNSPECIFIED.,.F.,.F.,(5,5),(0.,1.),.PIECEWISE_BEZIER_KNOTS.);
#95 = CARTESIAN_POINT('',(5.165258038414,-8.9999999991));
#96 = CARTESIAN_POINT('',(5.165258038414,-6.749999999325));
#97 = CARTESIAN_POINT('',(5.165258038414,-4.500000000019));
#98 = CARTESIAN_POINT('',(5.165258038414,-2.250000000675));
#99 = CARTESIAN_POINT('',(5.165258038414,-8.999396783338E-10));
#100 = ( GEOMETRIC_REPRESENTATION_CONTEXT(2) 
PARAMETRIC_REPRESENTATION_CONTEXT() REPRESENTATION_CONTEXT('2D SPACE',''
  ) );
#101 = PCURVE('',#102,#107);
#102 = PLANE('',#103);
#103 = AXIS2_PLACEMENT_3D('',#104,#105,#106);
#104 = CARTESIAN_POINT('',(18.5,15.,31.8));
#105 = DIRECTION('',(0.,1.,0.));
#106 = DIRECTION('',(0.,0.,1.));
#107 = DEFINITIONAL_REPRESENTATION('',(#108),#114);
#108 = B_SPLINE_CURVE_WITH_KNOTS('',4,(#109,#110,#111,#112,#113),
  .UNSPECIFIED.,.F.,.F.,(5,5),(0.,1.),.PIECEWISE_BEZIER_KNOTS.);
#109 = CARTESIAN_POINT('',(1.860529888418,9.));
#110 = CARTESIAN_POINT('',(1.860529888418,6.750000000225));
#111 = CARTESIAN_POINT('',(1.860529888418,4.499999999981));
#112 = CARTESIAN_POINT('',(1.860529888418,2.249999999775));
#113 = CARTESIAN_POINT('',(1.860529888418,0.));
#114 = ( GEOMETRIC_REPRESENTATION_CONTEXT(2) 
PARAMETRIC_REPRESENTATION_CONTEXT() REPRESENTATION_CONTEXT('2D SPACE',''
  ) );
#115 = ORIENTED_EDGE('',*,*,#116,.T.);
#116 = EDGE_CURVE('',#83,#117,#119,.T.);
#117 = VERTEX_POINT('',#118);
#118 = CARTESIAN_POINT('',(27.5,1.943766784956E-15,43.507894736842));
#119 = SURFACE_CURVE('',#120,(#125,#131),.PCURVE_S1.);
#120 = ELLIPSE('',#121,17.507894736842,16.681578947368);
#121 = AXIS2_PLACEMENT_3D('',#122,#123,#124);
#122 = CARTESIAN_POINT('',(27.5,0.,26.));
#123 = DIRECTION('',(1.,0.,-0.));
#124 = DIRECTION('',(0.,1.110223024625E-16,1.));
#125 = PCURVE('',#33,#126);
#126 = DEFINITIONAL_REPRESENTATION('',(#127),#130);
#127 = B_SPLINE_CURVE_WITH_KNOTS('',1,(#128,#129),.UNSPECIFIED.,.F.,.F.,
  (2,2),(4.758098568096,6.28318530718),.PIECEWISE_BEZIER_KNOTS.);
#128 = CARTESIAN_POINT('',(4.758098568096,-9.));
#129 = CARTESIAN_POINT('',(6.28318530718,-9.));
#130 = ( GEOMETRIC_REPRESENTATION_CONTEXT(2) 
PARAMETRIC_REPRESENTATION_CONTEXT() REPRESENTATION_CONTEXT('2D SPACE',''
  ) );
#131 = PCURVE('',#132,#137);
#132 = PLANE('',#133);
#133 = AXIS2_PLACEMENT_3D('',#134,#135,#136);
#134 = CARTESIAN_POINT('',(27.5,-2.625415892908E-16,26.106401974852));
#135 = DIRECTION('',(1.,0.,0.));
#136 = DIRECTION('',(-0.,0.,1.));
#137 = DEFINITIONAL_REPRESENTATION('',(#138),#142);
#138 = ELLIPSE('',#139,17.507894736842,16.681578947368);
#139 = AXIS2_PLACEMENT_2D('',#140,#141);
#140 = CARTESIAN_POINT('',(-0.106401974852,-2.625415892908E-16));
#141 = DIRECTION('',(1.,-1.110223024625E-16));
#142 = ( GEOMETRIC_REPRESENTATION_CONTEXT(2) 
PARAMETRIC_REPRESENTATION_CONTEXT() REPRESENTATION_CONTEXT('2D SPACE',''
  ) );
#143 = ORIENTED_EDGE('',*,*,#144,.T.);
#144 = EDGE_CURVE('',#117,#145,#147,.T.);
#145 = VERTEX_POINT('',#146);
#146 = CARTESIAN_POINT('',(27.5,-15.,33.660529888417));
#147 = SURFACE_CURVE('',#148,(#153,#159),.PCURVE_S1.);
#148 = ELLIPSE('',#149,17.507894736842,16.681578947368);
#149 = AXIS2_PLACEMENT_3D('',#150,#151,#152);
#150 = CARTESIAN_POINT('',(27.5,0.,26.));
#151 = DIRECTION('',(1.,0.,-0.));
#152 = DIRECTION('',(0.,1.110223024625E-16,1.));
#153 = PCURVE('',#33,#154);
#154 = DEFINITIONAL_REPRESENTATION('',(#155),#158);
#155 = B_SPLINE_CURVE_WITH_KNOTS('',1,(#156,#157),.UNSPECIFIED.,.F.,.F.,
  (2,2),(0.,1.525086739084),.PIECEWISE_BEZIER_KNOTS.);
#156 = CARTESIAN_POINT('',(6.28318530718,-9.));
#157 = CARTESIAN_POINT('',(7.808272046263,-9.));
#158 = ( GEOMETRIC_REPRESENTATION_CONTEXT(2) 
PARAMETRIC_REPRESENTATION_CONTEXT() REPRESENTATION_CONTEXT('2D SPACE',''
  ) );
#159 = PCURVE('',#132,#160);
#160 = DEFINITIONAL_REPRESENTATION('',(#161),#165);
#161 = ELLIPSE('',#162,17.507894736842,16.681578947368);
#162 = AXIS2_PLACEMENT_2D('',#163,#164);
#163 = CARTESIAN_POINT('',(-0.106401974852,-2.625415892908E-16));
#164 = DIRECTION('',(1.,-1.110223024625E-16));
#165 = ( GEOMETRIC_REPRESENTATION_CONTEXT(2) 
PARAMETRIC_REPRESENTATION_CONTEXT() REPRESENTATION_CONTEXT('2D SPACE',''
  ) );
#166 = ORIENTED_EDGE('',*,*,#167,.T.);
#167 = EDGE_CURVE('',#145,#24,#168,.T.);
#168 = SURFACE_CURVE('',#169,(#175,#184),.PCURVE_S1.);
#169 = B_SPLINE_CURVE_WITH_KNOTS('',4,(#170,#171,#172,#173,#174),
  .UNSPECIFIED.,.F.,.F.,(5,5),(0.,1.),.PIECEWISE_BEZIER_KNOTS.);
#170 = CARTESIAN_POINT('',(27.5,-15.,33.660529888418));
#171 = CARTESIAN_POINT('',(25.250000000225,-15.,33.660529888418));
#172 = CARTESIAN_POINT('',(22.999999999981,-15.,33.660529888418));
#173 = CARTESIAN_POINT('',(20.749999999775,-15.,33.660529888418));
#174 = CARTESIAN_POINT('',(18.5,-15.,33.660529888418));
#175 = PCURVE('',#33,#176);
#176 = DEFINITIONAL_REPRESENTATION('',(#177),#183);
#177 = B_SPLINE_CURVE_WITH_KNOTS('',4,(#178,#179,#180,#181,#182),
  .UNSPECIFIED.,.F.,.F.,(5,5),(0.,1.),.PIECEWISE_BEZIER_KNOTS.);
#178 = CARTESIAN_POINT('',(7.401112575945,-8.9999999991));
#179 = CARTESIAN_POINT('',(7.401112575945,-6.749999999325));
#180 = CARTESIAN_POINT('',(7.401112575945,-4.500000000019));
#181 = CARTESIAN_POINT('',(7.401112575945,-2.250000000675));
#182 = CARTESIAN_POINT('',(7.401112575945,-8.999396783338E-10));
#183 = ( GEOMETRIC_REPRESENTATION_CONTEXT(2) 
PARAMETRIC_REPRESENTATION_CONTEXT() REPRESENTATION_CONTEXT('2D SPACE',''
  ) );
#184 = PCURVE('',#185,#190);
#185 = PLANE('',#186);
#186 = AXIS2_PLACEMENT_3D('',#187,#188,#189);
#187 = CARTESIAN_POINT('',(18.5,-15.,31.8));
#188 = DIRECTION('',(0.,1.,0.));
#189 = DIRECTION('',(0.,0.,1.));
#190 = DEFINITIONAL_REPRESENTATION('',(#191),#197);
#191 = B_SPLINE_CURVE_WITH_KNOTS('',4,(#192,#193,#194,#195,#196),
  .UNSPECIFIED.,.F.,.F.,(5,5),(0.,1.),.PIECEWISE_BEZIER_KNOTS.);
#192 = CARTESIAN_POINT('',(1.860529888418,9.));
#193 = CARTESIAN_POINT('',(1.860529888418,6.750000000225));
#194 = CARTESIAN_POINT('',(1.860529888418,4.499999999981));
#195 = CARTESIAN_POINT('',(1.860529888418,2.249999999775));
#196 = CARTESIAN_POINT('',(1.860529888418,0.));
#197 = ( GEOMETRIC_REPRESENTATION_CONTEXT(2) 
PARAMETRIC_REPRESENTATION_CONTEXT() REPRESENTATION_CONTEXT('2D SPACE',''
  ) );
#198 = ADVANCED_FACE('',(#199),#47,.F.);
#199 = FACE_BOUND('',#200,.F.);
#200 = EDGE_LOOP('',(#201,#231,#259,#287,#315,#343,#364,#365,#366,#389,
    #417,#445,#473,#501,#529));
#201 = ORIENTED_EDGE('',*,*,#202,.F.);
#202 = EDGE_CURVE('',#203,#205,#207,.T.);
#203 = VERTEX_POINT('',#204);
#204 = CARTESIAN_POINT('',(18.5,38.5,26.8));
#205 = VERTEX_POINT('',#206);
#206 = CARTESIAN_POINT('',(18.5,12.659318735032,26.8));
#207 = SURFACE_CURVE('',#208,(#212,#219),.PCURVE_S1.);
#208 = LINE('',#209,#210);
#209 = CARTESIAN_POINT('',(18.5,38.5,26.8));
#210 = VECTOR('',#211,1.);
#211 = DIRECTION('',(0.,-1.,0.));
#212 = PCURVE('',#47,#213);
#213 = DEFINITIONAL_REPRESENTATION('',(#214),#218);
#214 = LINE('',#215,#216);
#215 = CARTESIAN_POINT('',(0.693598025148,-38.5));
#216 = VECTOR('',#217,1.);
#217 = DIRECTION('',(0.,1.));
#218 = ( GEOMETRIC_REPRESENTATION_CONTEXT(2) 
PARAMETRIC_REPRESENTATION_CONTEXT() REPRESENTATION_CONTEXT('2D SPACE',''
  ) );
#219 = PCURVE('',#220,#225);
#220 = PLANE('',#221);
#221 = AXIS2_PLACEMENT_3D('',#222,#223,#224);
#222 = CARTESIAN_POINT('',(-50.,-50.,26.8));
#223 = DIRECTION('',(0.,0.,1.));
#224 = DIRECTION('',(1.,0.,0.));
#225 = DEFINITIONAL_REPRESENTATION('',(#226),#230);
#226 = LINE('',#227,#228);
#227 = CARTESIAN_POINT('',(68.5,88.5));
#228 = VECTOR('',#229,1.);
#229 = DIRECTION('',(0.,-1.));
#230 = ( GEOMETRIC_REPRESENTATION_CONTEXT(2) 
PARAMETRIC_REPRESENTATION_CONTEXT() REPRESENTATION_CONTEXT('2D SPACE',''
  ) );
#231 = ORIENTED_EDGE('',*,*,#232,.T.);
#232 = EDGE_CURVE('',#203,#233,#235,.T.);
#233 = VERTEX_POINT('',#234);
#234 = CARTESIAN_POINT('',(18.5,38.5,31.8));
#235 = SURFACE_CURVE('',#236,(#240,#247),.PCURVE_S1.);
#236 = LINE('',#237,#238);
#237 = CARTESIAN_POINT('',(18.5,38.5,26.8));
#238 = VECTOR('',#239,1.);
#239 = DIRECTION('',(0.,0.,1.));
#240 = PCURVE('',#47,#241);
#241 = DEFINITIONAL_REPRESENTATION('',(#242),#246);
#242 = LINE('',#243,#244);
#243 = CARTESIAN_POINT('',(0.693598025148,-38.5));
#244 = VECTOR('',#245,1.);
#245 = DIRECTION('',(1.,0.));
#246 = ( GEOMETRIC_REPRESENTATION_CONTEXT(2) 
PARAMETRIC_REPRESENTATION_CONTEXT() REPRESENTATION_CONTEXT('2D SPACE',''
  ) );
#247 = PCURVE('',#248,#253);
#248 = PLANE('',#249);
#249 = AXIS2_PLACEMENT_3D('',#250,#251,#252);
#250 = CARTESIAN_POINT('',(18.5,38.5,26.8));
#251 = DIRECTION('',(0.,1.,0.));
#252 = DIRECTION('',(0.,0.,1.));
#253 = DEFINITIONAL_REPRESENTATION('',(#254),#258);
#254 = LINE('',#255,#256);
#255 = CARTESIAN_POINT('',(0.,0.));
#256 = VECTOR('',#257,1.);
#257 = DIRECTION('',(1.,0.));
#258 = ( GEOMETRIC_REPRESENTATION_CONTEXT(2) 
PARAMETRIC_REPRESENTATION_CONTEXT() REPRESENTATION_CONTEXT('2D SPACE',''
  ) );
#259 = ORIENTED_EDGE('',*,*,#260,.F.);
#260 = EDGE_CURVE('',#261,#233,#263,.T.);
#261 = VERTEX_POINT('',#262);
#262 = CARTESIAN_POINT('',(18.5,26.,31.8));
#263 = SURFACE_CURVE('',#264,(#268,#275),.PCURVE_S1.);
#264 = LINE('',#265,#266);
#265 = CARTESIAN_POINT('',(18.5,15.,31.8));
#266 = VECTOR('',#267,1.);
#267 = DIRECTION('',(0.,1.,0.));
#268 = PCURVE('',#47,#269);
#269 = DEFINITIONAL_REPRESENTATION('',(#270),#274);
#270 = LINE('',#271,#272);
#271 = CARTESIAN_POINT('',(5.693598025148,-15.));
#272 = VECTOR('',#273,1.);
#273 = DIRECTION('',(0.,-1.));
#274 = ( GEOMETRIC_REPRESENTATION_CONTEXT(2) 
PARAMETRIC_REPRESENTATION_CONTEXT() REPRESENTATION_CONTEXT('2D SPACE',''
  ) );
#275 = PCURVE('',#276,#281);
#276 = PLANE('',#277);
#277 = AXIS2_PLACEMENT_3D('',#278,#279,#280);
#278 = CARTESIAN_POINT('',(18.5,15.,31.8));
#279 = DIRECTION('',(0.,0.,1.));
#280 = DIRECTION('',(1.,0.,0.));
#281 = DEFINITIONAL_REPRESENTATION('',(#282),#286);
#282 = LINE('',#283,#284);
#283 = CARTESIAN_POINT('',(0.,0.));
#284 = VECTOR('',#285,1.);
#285 = DIRECTION('',(0.,1.));
#286 = ( GEOMETRIC_REPRESENTATION_CONTEXT(2) 
PARAMETRIC_REPRESENTATION_CONTEXT() REPRESENTATION_CONTEXT('2D SPACE',''
  ) );
#287 = ORIENTED_EDGE('',*,*,#288,.T.);
#288 = EDGE_CURVE('',#261,#289,#291,.T.);
#289 = VERTEX_POINT('',#290);
#290 = CARTESIAN_POINT('',(18.5,26.,33.8));
#291 = SURFACE_CURVE('',#292,(#296,#303),.PCURVE_S1.);
#292 = LINE('',#293,#294);
#293 = CARTESIAN_POINT('',(18.5,26.,31.8));
#294 = VECTOR('',#295,1.);
#295 = DIRECTION('',(0.,0.,1.));
#296 = PCURVE('',#47,#297);
#297 = DEFINITIONAL_REPRESENTATION('',(#298),#302);
#298 = LINE('',#299,#300);
#299 = CARTESIAN_POINT('',(5.693598025148,-26.));
#300 = VECTOR('',#301,1.);
#301 = DIRECTION('',(1.,0.));
#302 = ( GEOMETRIC_REPRESENTATION_CONTEXT(2) 
PARAMETRIC_REPRESENTATION_CONTEXT() REPRESENTATION_CONTEXT('2D SPACE',''
  ) );
#303 = PCURVE('',#304,#309);
#304 = PLANE('',#305);
#305 = AXIS2_PLACEMENT_3D('',#306,#307,#308);
#306 = CARTESIAN_POINT('',(18.5,26.,31.8));
#307 = DIRECTION('',(0.,1.,0.));
#308 = DIRECTION('',(0.,0.,1.));
#309 = DEFINITIONAL_REPRESENTATION('',(#310),#314);
#310 = LINE('',#311,#312);
#311 = CARTESIAN_POINT('',(0.,0.));
#312 = VECTOR('',#313,1.);
#313 = DIRECTION('',(1.,0.));
#314 = ( GEOMETRIC_REPRESENTATION_CONTEXT(2) 
PARAMETRIC_REPRESENTATION_CONTEXT() REPRESENTATION_CONTEXT('2D SPACE',''
  ) );
#315 = ORIENTED_EDGE('',*,*,#316,.F.);
#316 = EDGE_CURVE('',#317,#289,#319,.T.);
#317 = VERTEX_POINT('',#318);
#318 = CARTESIAN_POINT('',(18.5,15.,33.8));
#319 = SURFACE_CURVE('',#320,(#324,#331),.PCURVE_S1.);
#320 = LINE('',#321,#322);
#321 = CARTESIAN_POINT('',(18.5,15.,33.8));
#322 = VECTOR('',#323,1.);
#323 = DIRECTION('',(0.,1.,0.));
#324 = PCURVE('',#47,#325);
#325 = DEFINITIONAL_REPRESENTATION('',(#326),#330);
#326 = LINE('',#327,#328);
#327 = CARTESIAN_POINT('',(7.693598025148,-15.));
#328 = VECTOR('',#329,1.);
#329 = DIRECTION('',(0.,-1.));
#330 = ( GEOMETRIC_REPRESENTATION_CONTEXT(2) 
PARAMETRIC_REPRESENTATION_CONTEXT() REPRESENTATION_CONTEXT('2D SPACE',''
  ) );
#331 = PCURVE('',#332,#337);
#332 = PLANE('',#333);
#333 = AXIS2_PLACEMENT_3D('',#334,#335,#336);
#334 = CARTESIAN_POINT('',(18.5,15.,33.8));
#335 = DIRECTION('',(0.,0.,1.));
#336 = DIRECTION('',(1.,0.,0.));
#337 = DEFINITIONAL_REPRESENTATION('',(#338),#342);
#338 = LINE('',#339,#340);
#339 = CARTESIAN_POINT('',(0.,0.));
#340 = VECTOR('',#341,1.);
#341 = DIRECTION('',(0.,1.));
#342 = ( GEOMETRIC_REPRESENTATION_CONTEXT(2) 
PARAMETRIC_REPRESENTATION_CONTEXT() REPRESENTATION_CONTEXT('2D SPACE',''
  ) );
#343 = ORIENTED_EDGE('',*,*,#344,.F.);
#344 = EDGE_CURVE('',#60,#317,#345,.T.);
#345 = SURFACE_CURVE('',#346,(#350,#357),.PCURVE_S1.);
#346 = LINE('',#347,#348);
#347 = CARTESIAN_POINT('',(18.5,15.,31.8));
#348 = VECTOR('',#349,1.);
#349 = DIRECTION('',(0.,0.,1.));
#350 = PCURVE('',#47,#351);
#351 = DEFINITIONAL_REPRESENTATION('',(#352),#356);
#352 = LINE('',#353,#354);
#353 = CARTESIAN_POINT('',(5.693598025148,-15.));
#354 = VECTOR('',#355,1.);
#355 = DIRECTION('',(1.,0.));
#356 = ( GEOMETRIC_REPRESENTATION_CONTEXT(2) 
PARAMETRIC_REPRESENTATION_CONTEXT() REPRESENTATION_CONTEXT('2D SPACE',''
  ) );
#357 = PCURVE('',#102,#358);
#358 = DEFINITIONAL_REPRESENTATION('',(#359),#363);
#359 = LINE('',#360,#361);
#360 = CARTESIAN_POINT('',(0.,0.));
#361 = VECTOR('',#362,1.);
#362 = DIRECTION('',(1.,0.));
#363 = ( GEOMETRIC_REPRESENTATION_CONTEXT(2) 
PARAMETRIC_REPRESENTATION_CONTEXT() REPRESENTATION_CONTEXT('2D SPACE',''
  ) );
#364 = ORIENTED_EDGE('',*,*,#59,.T.);
#365 = ORIENTED_EDGE('',*,*,#21,.T.);
#366 = ORIENTED_EDGE('',*,*,#367,.T.);
#367 = EDGE_CURVE('',#24,#368,#370,.T.);
#368 = VERTEX_POINT('',#369);
#369 = CARTESIAN_POINT('',(18.5,-15.,33.8));
#370 = SURFACE_CURVE('',#371,(#375,#382),.PCURVE_S1.);
#371 = LINE('',#372,#373);
#372 = CARTESIAN_POINT('',(18.5,-15.,31.8));
#373 = VECTOR('',#374,1.);
#374 = DIRECTION('',(0.,0.,1.));
#375 = PCURVE('',#47,#376);
#376 = DEFINITIONAL_REPRESENTATION('',(#377),#381);
#377 = LINE('',#378,#379);
#378 = CARTESIAN_POINT('',(5.693598025148,15.));
#379 = VECTOR('',#380,1.);
#380 = DIRECTION('',(1.,0.));
#381 = ( GEOMETRIC_REPRESENTATION_CONTEXT(2) 
PARAMETRIC_REPRESENTATION_CONTEXT() REPRESENTATION_CONTEXT('2D SPACE',''
  ) );
#382 = PCURVE('',#185,#383);
#383 = DEFINITIONAL_REPRESENTATION('',(#384),#388);
#384 = LINE('',#385,#386);
#385 = CARTESIAN_POINT('',(0.,0.));
#386 = VECTOR('',#387,1.);
#387 = DIRECTION('',(1.,0.));
#388 = ( GEOMETRIC_REPRESENTATION_CONTEXT(2) 
PARAMETRIC_REPRESENTATION_CONTEXT() REPRESENTATION_CONTEXT('2D SPACE',''
  ) );
#389 = ORIENTED_EDGE('',*,*,#390,.F.);
#390 = EDGE_CURVE('',#391,#368,#393,.T.);
#391 = VERTEX_POINT('',#392);
#392 = CARTESIAN_POINT('',(18.5,-26.,33.8));
#393 = SURFACE_CURVE('',#394,(#398,#405),.PCURVE_S1.);
#394 = LINE('',#395,#396);
#395 = CARTESIAN_POINT('',(18.5,-26.,33.8));
#396 = VECTOR('',#397,1.);
#397 = DIRECTION('',(0.,1.,0.));
#398 = PCURVE('',#47,#399);
#399 = DEFINITIONAL_REPRESENTATION('',(#400),#404);
#400 = LINE('',#401,#402);
#401 = CARTESIAN_POINT('',(7.693598025148,26.));
#402 = VECTOR('',#403,1.);
#403 = DIRECTION('',(0.,-1.));
#404 = ( GEOMETRIC_REPRESENTATION_CONTEXT(2) 
PARAMETRIC_REPRESENTATION_CONTEXT() REPRESENTATION_CONTEXT('2D SPACE',''
  ) );
#405 = PCURVE('',#406,#411);
#406 = PLANE('',#407);
#407 = AXIS2_PLACEMENT_3D('',#408,#409,#410);
#408 = CARTESIAN_POINT('',(18.5,-26.,33.8));
#409 = DIRECTION('',(0.,0.,1.));
#410 = DIRECTION('',(1.,0.,0.));
#411 = DEFINITIONAL_REPRESENTATION('',(#412),#416);
#412 = LINE('',#413,#414);
#413 = CARTESIAN_POINT('',(0.,0.));
#414 = VECTOR('',#415,1.);
#415 = DIRECTION('',(0.,1.));
#416 = ( GEOMETRIC_REPRESENTATION_CONTEXT(2) 
PARAMETRIC_REPRESENTATION_CONTEXT() REPRESENTATION_CONTEXT('2D SPACE',''
  ) );
#417 = ORIENTED_EDGE('',*,*,#418,.F.);
#418 = EDGE_CURVE('',#419,#391,#421,.T.);
#419 = VERTEX_POINT('',#420);
#420 = CARTESIAN_POINT('',(18.5,-26.,31.8));
#421 = SURFACE_CURVE('',#422,(#426,#433),.PCURVE_S1.);
#422 = LINE('',#423,#424);
#423 = CARTESIAN_POINT('',(18.5,-26.,31.8));
#424 = VECTOR('',#425,1.);
#425 = DIRECTION('',(0.,0.,1.));
#426 = PCURVE('',#47,#427);
#427 = DEFINITIONAL_REPRESENTATION('',(#428),#432);
#428 = LINE('',#429,#430);
#429 = CARTESIAN_POINT('',(5.693598025148,26.));
#430 = VECTOR('',#431,1.);
#431 = DIRECTION('',(1.,0.));
#432 = ( GEOMETRIC_REPRESENTATION_CONTEXT(2) 
PARAMETRIC_REPRESENTATION_CONTEXT() REPRESENTATION_CONTEXT('2D SPACE',''
  ) );
#433 = PCURVE('',#434,#439);
#434 = PLANE('',#435);
#435 = AXIS2_PLACEMENT_3D('',#436,#437,#438);
#436 = CARTESIAN_POINT('',(18.5,-26.,31.8));
#437 = DIRECTION('',(0.,1.,0.));
#438 = DIRECTION('',(0.,0.,1.));
#439 = DEFINITIONAL_REPRESENTATION('',(#440),#444);
#440 = LINE('',#441,#442);
#441 = CARTESIAN_POINT('',(0.,0.));
#442 = VECTOR('',#443,1.);
#443 = DIRECTION('',(1.,0.));
#444 = ( GEOMETRIC_REPRESENTATION_CONTEXT(2) 
PARAMETRIC_REPRESENTATION_CONTEXT() REPRESENTATION_CONTEXT('2D SPACE',''
  ) );
#445 = ORIENTED_EDGE('',*,*,#446,.F.);
#446 = EDGE_CURVE('',#447,#419,#449,.T.);
#447 = VERTEX_POINT('',#448);
#448 = CARTESIAN_POINT('',(18.5,-38.5,31.8));
#449 = SURFACE_CURVE('',#450,(#454,#461),.PCURVE_S1.);
#450 = LINE('',#451,#452);
#451 = CARTESIAN_POINT('',(18.5,-38.5,31.8));
#452 = VECTOR('',#453,1.);
#453 = DIRECTION('',(0.,1.,0.));
#454 = PCURVE('',#47,#455);
#455 = DEFINITIONAL_REPRESENTATION('',(#456),#460);
#456 = LINE('',#457,#458);
#457 = CARTESIAN_POINT('',(5.693598025148,38.5));
#458 = VECTOR('',#459,1.);
#459 = DIRECTION('',(0.,-1.));
#460 = ( GEOMETRIC_REPRESENTATION_CONTEXT(2) 
PARAMETRIC_REPRESENTATION_CONTEXT() REPRESENTATION_CONTEXT('2D SPACE',''
  ) );
#461 = PCURVE('',#462,#467);
#462 = PLANE('',#463);
#463 = AXIS2_PLACEMENT_3D('',#464,#465,#466);
#464 = CARTESIAN_POINT('',(18.5,-38.5,31.8));
#465 = DIRECTION('',(0.,0.,1.));
#466 = DIRECTION('',(1.,0.,0.));
#467 = DEFINITIONAL_REPRESENTATION('',(#468),#472);
#468 = LINE('',#469,#470);
#469 = CARTESIAN_POINT('',(0.,0.));
#470 = VECTOR('',#471,1.);
#471 = DIRECTION('',(0.,1.));
#472 = ( GEOMETRIC_REPRESENTATION_CONTEXT(2) 
PARAMETRIC_REPRESENTATION_CONTEXT() REPRESENTATION_CONTEXT('2D SPACE',''
  ) );
#473 = ORIENTED_EDGE('',*,*,#474,.F.);
#474 = EDGE_CURVE('',#475,#447,#477,.T.);
#475 = VERTEX_POINT('',#476);
#476 = CARTESIAN_POINT('',(18.5,-38.5,26.8));
#477 = SURFACE_CURVE('',#478,(#482,#489),.PCURVE_S1.);
#478 = LINE('',#479,#480);
#479 = CARTESIAN_POINT('',(18.5,-38.5,26.8));
#480 = VECTOR('',#481,1.);
#481 = DIRECTION('',(0.,0.,1.));
#482 = PCURVE('',#47,#483);
#483 = DEFINITIONAL_REPRESENTATION('',(#484),#488);
#484 = LINE('',#485,#486);
#485 = CARTESIAN_POINT('',(0.693598025148,38.5));
#486 = VECTOR('',#487,1.);
#487 = DIRECTION('',(1.,0.));
#488 = ( GEOMETRIC_REPRESENTATION_CONTEXT(2) 
PARAMETRIC_REPRESENTATION_CONTEXT() REPRESENTATION_CONTEXT('2D SPACE',''
  ) );
#489 = PCURVE('',#490,#495);
#490 = PLANE('',#491);
#491 = AXIS2_PLACEMENT_3D('',#492,#493,#494);
#492 = CARTESIAN_POINT('',(18.5,-38.5,26.8));
#493 = DIRECTION('',(0.,1.,0.));
#494 = DIRECTION('',(0.,0.,1.));
#495 = DEFINITIONAL_REPRESENTATION('',(#496),#500);
#496 = LINE('',#497,#498);
#497 = CARTESIAN_POINT('',(0.,0.));
#498 = VECTOR('',#499,1.);
#499 = DIRECTION('',(1.,0.));
#500 = ( GEOMETRIC_REPRESENTATION_CONTEXT(2) 
PARAMETRIC_REPRESENTATION_CONTEXT() REPRESENTATION_CONTEXT('2D SPACE',''
  ) );
#501 = ORIENTED_EDGE('',*,*,#502,.F.);
#502 = EDGE_CURVE('',#503,#475,#505,.T.);
#503 = VERTEX_POINT('',#504);
#504 = CARTESIAN_POINT('',(18.5,-12.65931873503,26.8));
#505 = SURFACE_CURVE('',#506,(#510,#517),.PCURVE_S1.);
#506 = LINE('',#507,#508);
#507 = CARTESIAN_POINT('',(18.5,38.5,26.8));
#508 = VECTOR('',#509,1.);
#509 = DIRECTION('',(0.,-1.,0.));
#510 = PCURVE('',#47,#511);
#511 = DEFINITIONAL_REPRESENTATION('',(#512),#516);
#512 = LINE('',#513,#514);
#513 = CARTESIAN_POINT('',(0.693598025148,-38.5));
#514 = VECTOR('',#515,1.);
#515 = DIRECTION('',(0.,1.));
#516 = ( GEOMETRIC_REPRESENTATION_CONTEXT(2) 
PARAMETRIC_REPRESENTATION_CONTEXT() REPRESENTATION_CONTEXT('2D SPACE',''
  ) );
#517 = PCURVE('',#518,#523);
#518 = PLANE('',#519);
#519 = AXIS2_PLACEMENT_3D('',#520,#521,#522);
#520 = CARTESIAN_POINT('',(-50.,-50.,26.8));
#521 = DIRECTION('',(0.,0.,1.));
#522 = DIRECTION('',(1.,0.,0.));
#523 = DEFINITIONAL_REPRESENTATION('',(#524),#528);
#524 = LINE('',#525,#526);
#525 = CARTESIAN_POINT('',(68.5,88.5));
#526 = VECTOR('',#527,1.);
#527 = DIRECTION('',(0.,-1.));
#528 = ( GEOMETRIC_REPRESENTATION_CONTEXT(2) 
PARAMETRIC_REPRESENTATION_CONTEXT() REPRESENTATION_CONTEXT('2D SPACE',''
  ) );
#529 = ORIENTED_EDGE('',*,*,#530,.F.);
#530 = EDGE_CURVE('',#205,#503,#531,.T.);
#531 = SURFACE_CURVE('',#532,(#583,#637),.PCURVE_S1.);
#532 = B_SPLINE_CURVE_WITH_KNOTS('',7,(#533,#534,#535,#536,#537,#538,
    #539,#540,#541,#542,#543,#544,#545,#546,#547,#548,#549,#550,#551,
    #552,#553,#554,#555,#556,#557,#558,#559,#560,#561,#562,#563,#564,
    #565,#566,#567,#568,#569,#570,#571,#572,#573,#574,#575,#576,#577,
    #578,#579,#580,#581,#582),.UNSPECIFIED.,.F.,.F.,(8,6,6,6,6,6,6,6,8),
  (0.,0.339268537252,0.515126365107,0.684070212938,1.,1.315929787062,
    1.484873634892,1.660731462747,2.),.UNSPECIFIED.);
#533 = CARTESIAN_POINT('',(18.5,12.659318735032,26.8));
#534 = CARTESIAN_POINT('',(18.5,12.606014485543,27.756997617361));
#535 = CARTESIAN_POINT('',(18.5,12.478288042415,28.709836642301));
#536 = CARTESIAN_POINT('',(18.5,12.276368662387,29.651608554742));
#537 = CARTESIAN_POINT('',(18.5,12.00096765597,30.575284418486));
#538 = CARTESIAN_POINT('',(18.5,11.653346592262,31.473730606434));
#539 = CARTESIAN_POINT('',(18.5,11.235420300511,32.339741510232));
#540 = CARTESIAN_POINT('',(18.5,10.498225345568,33.594421660884));
#541 = CARTESIAN_POINT('',(18.5,10.228401698808,34.01208312032));
#542 = CARTESIAN_POINT('',(18.5,9.940812048135,34.418055136863));
#543 = CARTESIAN_POINT('',(18.5,9.635906137378,34.811316822739));
#544 = CARTESIAN_POINT('',(18.5,9.314203363356,35.190851601668));
#545 = CARTESIAN_POINT('',(18.5,8.976301005056,35.555653932358));
#546 = CARTESIAN_POINT('',(18.5,8.28335881122,36.240093711793));
#547 = CARTESIAN_POINT('',(18.5,7.929510320825,36.560947509418));
#548 = CARTESIAN_POINT('',(18.5,7.561949392246,36.86641699389));
#549 = CARTESIAN_POINT('',(18.5,7.181354275813,37.155646356102));
#550 = CARTESIAN_POINT('',(18.5,6.788475498618,37.427813554904));
#551 = CARTESIAN_POINT('',(18.5,6.384142301596,37.682139463181));
#552 = CARTESIAN_POINT('',(18.5,5.193444379115,38.358770320412));
#553 = CARTESIAN_POINT('',(18.5,4.38047315776,38.734874861645));
#554 = CARTESIAN_POINT('',(18.5,3.536683734418,39.041157251475));
#555 = CARTESIAN_POINT('',(18.5,2.668996735925,39.273750898301));
#556 = CARTESIAN_POINT('',(18.5,1.784869999043,39.429871153108));
#557 = CARTESIAN_POINT('',(18.5,0.892314784638,39.507894736842));
#558 = CARTESIAN_POINT('',(18.5,-0.892314784637,39.507894736842));
#559 = CARTESIAN_POINT('',(18.5,-1.784869999049,39.429871153106));
#560 = CARTESIAN_POINT('',(18.5,-2.668996735916,39.273750898305));
#561 = CARTESIAN_POINT('',(18.5,-3.536683734429,39.041157251469));
#562 = CARTESIAN_POINT('',(18.5,-4.380473157755,38.734874861648));
#563 = CARTESIAN_POINT('',(18.5,-5.193444379118,38.35877032041));
#564 = CARTESIAN_POINT('',(18.5,-6.384142301598,37.68213946318));
#565 = CARTESIAN_POINT('',(18.5,-6.78847549862,37.427813554903));
#566 = CARTESIAN_POINT('',(18.5,-7.181354275814,37.155646356101));
#567 = CARTESIAN_POINT('',(18.5,-7.561949392248,36.866416993889));
#568 = CARTESIAN_POINT('',(18.5,-7.929510320826,36.560947509417));
#569 = CARTESIAN_POINT('',(18.5,-8.283358811222,36.240093711791));
#570 = CARTESIAN_POINT('',(18.5,-8.976301005058,35.555653932356));
#571 = CARTESIAN_POINT('',(18.5,-9.314203363358,35.190851601666));
#572 = CARTESIAN_POINT('',(18.5,-9.635906137379,34.811316822737));
#573 = CARTESIAN_POINT('',(18.5,-9.940812048137,34.418055136861));
#574 = CARTESIAN_POINT('',(18.5,-10.22840169881,34.012083120318));
#575 = CARTESIAN_POINT('',(18.5,-10.49822534556,33.594421660882));
#576 = CARTESIAN_POINT('',(18.5,-11.23542030051,32.33974151023));
#577 = CARTESIAN_POINT('',(18.5,-11.65334659226,31.473730606432));
#578 = CARTESIAN_POINT('',(18.5,-12.00096765597,30.575284418485));
#579 = CARTESIAN_POINT('',(18.5,-12.27636866238,29.651608554741));
#580 = CARTESIAN_POINT('',(18.5,-12.47828804241,28.7098366423));
#581 = CARTESIAN_POINT('',(18.5,-12.60601448554,27.756997617361));
#582 = CARTESIAN_POINT('',(18.5,-12.65931873503,26.8));
#583 = PCURVE('',#47,#584);
#584 = DEFINITIONAL_REPRESENTATION('',(#585),#636);
#585 = B_SPLINE_CURVE_WITH_KNOTS('',7,(#586,#587,#588,#589,#590,#591,
    #592,#593,#594,#595,#596,#597,#598,#599,#600,#601,#602,#603,#604,
    #605,#606,#607,#608,#609,#610,#611,#612,#613,#614,#615,#616,#617,
    #618,#619,#620,#621,#622,#623,#624,#625,#626,#627,#628,#629,#630,
    #631,#632,#633,#634,#635),.UNSPECIFIED.,.F.,.F.,(8,6,6,6,6,6,6,6,8),
  (0.,0.339268537252,0.515126365107,0.684070212938,1.,1.315929787062,
    1.484873634892,1.660731462747,2.),.UNSPECIFIED.);
#586 = CARTESIAN_POINT('',(0.693598025148,-12.65931873503));
#587 = CARTESIAN_POINT('',(1.650595642509,-12.60601448554));
#588 = CARTESIAN_POINT('',(2.603434667448,-12.47828804241));
#589 = CARTESIAN_POINT('',(3.54520657989,-12.27636866238));
#590 = CARTESIAN_POINT('',(4.468882443634,-12.00096765597));
#591 = CARTESIAN_POINT('',(5.367328631582,-11.65334659226));
#592 = CARTESIAN_POINT('',(6.233339535379,-11.23542030051));
#593 = CARTESIAN_POINT('',(7.488019686032,-10.49822534556));
#594 = CARTESIAN_POINT('',(7.905681145467,-10.2284016988));
#595 = CARTESIAN_POINT('',(8.311653162011,-9.940812048135));
#596 = CARTESIAN_POINT('',(8.704914847887,-9.635906137378));
#597 = CARTESIAN_POINT('',(9.084449626815,-9.314203363356));
#598 = CARTESIAN_POINT('',(9.449251957506,-8.976301005056));
#599 = CARTESIAN_POINT('',(10.13369173694,-8.28335881122));
#600 = CARTESIAN_POINT('',(10.454545534566,-7.929510320825));
#601 = CARTESIAN_POINT('',(10.760015019037,-7.561949392246));
#602 = CARTESIAN_POINT('',(11.049244381249,-7.181354275813));
#603 = CARTESIAN_POINT('',(11.321411580052,-6.788475498618));
#604 = CARTESIAN_POINT('',(11.575737488329,-6.384142301596));
#605 = CARTESIAN_POINT('',(12.252368345559,-5.193444379115));
#606 = CARTESIAN_POINT('',(12.628472886792,-4.38047315776));
#607 = CARTESIAN_POINT('',(12.934755276622,-3.536683734418));
#608 = CARTESIAN_POINT('',(13.167348923449,-2.668996735925));
#609 = CARTESIAN_POINT('',(13.323469178255,-1.784869999043));
#610 = CARTESIAN_POINT('',(13.40149276199,-0.892314784638));
#611 = CARTESIAN_POINT('',(13.40149276199,0.892314784637));
#612 = CARTESIAN_POINT('',(13.323469178254,1.784869999049));
#613 = CARTESIAN_POINT('',(13.167348923453,2.668996735916));
#614 = CARTESIAN_POINT('',(12.934755276617,3.536683734429));
#615 = CARTESIAN_POINT('',(12.628472886795,4.380473157755));
#616 = CARTESIAN_POINT('',(12.252368345558,5.193444379118));
#617 = CARTESIAN_POINT('',(11.575737488328,6.384142301598));
#618 = CARTESIAN_POINT('',(11.321411580051,6.78847549862));
#619 = CARTESIAN_POINT('',(11.049244381248,7.181354275814));
#620 = CARTESIAN_POINT('',(10.760015019036,7.561949392248));
#621 = CARTESIAN_POINT('',(10.454545534564,7.929510320826));
#622 = CARTESIAN_POINT('',(10.133691736939,8.283358811222));
#623 = CARTESIAN_POINT('',(9.449251957504,8.976301005058));
#624 = CARTESIAN_POINT('',(9.084449626814,9.314203363358));
#625 = CARTESIAN_POINT('',(8.704914847885,9.635906137379));
#626 = CARTESIAN_POINT('',(8.311653162009,9.940812048137));
#627 = CARTESIAN_POINT('',(7.905681145465,10.22840169881));
#628 = CARTESIAN_POINT('',(7.48801968603,10.498225345569));
#629 = CARTESIAN_POINT('',(6.233339535377,11.235420300512));
#630 = CARTESIAN_POINT('',(5.36732863158,11.653346592263));
#631 = CARTESIAN_POINT('',(4.468882443632,12.00096765597));
#632 = CARTESIAN_POINT('',(3.545206579889,12.276368662387));
#633 = CARTESIAN_POINT('',(2.603434667447,12.478288042415));
#634 = CARTESIAN_POINT('',(1.650595642508,12.606014485543));
#635 = CARTESIAN_POINT('',(0.693598025148,12.659318735032));
#636 = ( GEOMETRIC_REPRESENTATION_CONTEXT(2) 
PARAMETRIC_REPRESENTATION_CONTEXT() REPRESENTATION_CONTEXT('2D SPACE',''
  ) );
#637 = PCURVE('',#638,#646);
#638 = SURFACE_OF_LINEAR_EXTRUSION('',#639,#644);
#639 = ELLIPSE('',#640,13.507894736842,12.681578947368);
#640 = AXIS2_PLACEMENT_3D('',#641,#642,#643);
#641 = CARTESIAN_POINT('',(17.5,0.,26.));
#642 = DIRECTION('',(1.,0.,-0.));
#643 = DIRECTION('',(0.,1.110223024625E-16,1.));
#644 = VECTOR('',#645,1.);
#645 = DIRECTION('',(-1.,-0.,-0.));
#646 = DEFINITIONAL_REPRESENTATION('',(#647),#717);
#647 = B_SPLINE_CURVE_WITH_KNOTS('',3,(#648,#649,#650,#651,#652,#653,
    #654,#655,#656,#657,#658,#659,#660,#661,#662,#663,#664,#665,#666,
    #667,#668,#669,#670,#671,#672,#673,#674,#675,#676,#677,#678,#679,
    #680,#681,#682,#683,#684,#685,#686,#687,#688,#689,#690,#691,#692,
    #693,#694,#695,#696,#697,#698,#699,#700,#701,#702,#703,#704,#705,
    #706,#707,#708,#709,#710,#711,#712,#713,#714,#715,#716),
  .UNSPECIFIED.,.F.,.F.,(4,1,1,1,1,1,1,1,1,1,1,1,1,1,1,1,1,1,1,1,1,1,1,1
    ,1,1,1,1,1,1,1,1,1,1,1,1,1,1,1,1,1,1,1,1,1,1,1,1,1,1,1,1,1,1,1,1,1,1
    ,1,1,1,1,1,1,1,1,4),(0.,3.030303030302E-02,6.060606060605E-02,
    9.090909090907E-02,0.121212121212,0.151515151515,0.181818181818,
    0.212121212121,0.242424242424,0.272727272727,0.30303030303,
    0.333333333333,0.363636363636,0.393939393939,0.424242424242,
    0.454545454545,0.484848484848,0.515151515151,0.545454545454,
    0.575757575757,0.60606060606,0.636363636364,0.666666666667,
    0.69696969697,0.727272727273,0.757575757576,0.787878787879,
    0.818181818182,0.848484848485,0.878787878788,0.909090909091,
    0.939393939394,0.969696969697,1.,1.030303030303,1.060606060606,
    1.090909090909,1.121212121212,1.151515151515,1.181818181818,
    1.212121212121,1.242424242424,1.272727272727,1.30303030303,
    1.333333333333,1.363636363636,1.393939393939,1.424242424242,
    1.454545454545,1.484848484848,1.515151515151,1.545454545454,
    1.575757575757,1.60606060606,1.636363636363,1.666666666666,
    1.696969696969,1.727272727272,1.757575757575,1.787878787878,
    1.818181818181,1.848484848485,1.878787878788,1.909090909091,
    1.939393939394,1.969696969697,2.),.QUASI_UNIFORM_KNOTS.);
#648 = CARTESIAN_POINT('',(4.771648282406,-1.));
#649 = CARTESIAN_POINT('',(4.786439519912,-1.));
#650 = CARTESIAN_POINT('',(4.816026610787,-1.));
#651 = CARTESIAN_POINT('',(4.86043127917,-1.));
#652 = CARTESIAN_POINT('',(4.904870304932,-1.));
#653 = CARTESIAN_POINT('',(4.949353520499,-1.));
#654 = CARTESIAN_POINT('',(4.99389047586,-1.));
#655 = CARTESIAN_POINT('',(5.038490412917,-1.));
#656 = CARTESIAN_POINT('',(5.083162292512,-1.));
#657 = CARTESIAN_POINT('',(5.12791479191,-1.));
#658 = CARTESIAN_POINT('',(5.172756306371,-1.));
#659 = CARTESIAN_POINT('',(5.217694897159,-1.));
#660 = CARTESIAN_POINT('',(5.262738379134,-1.));
#661 = CARTESIAN_POINT('',(5.307893830894,-1.));
#662 = CARTESIAN_POINT('',(5.353165498158,-1.));
#663 = CARTESIAN_POINT('',(5.398558544988,-1.));
#664 = CARTESIAN_POINT('',(5.444076996829,-1.));
#665 = CARTESIAN_POINT('',(5.489724170282,-1.));
#666 = CARTESIAN_POINT('',(5.535502235881,-1.));
#667 = CARTESIAN_POINT('',(5.581412710338,-1.));
#668 = CARTESIAN_POINT('',(5.627455413711,-1.));
#669 = CARTESIAN_POINT('',(5.673628970179,-1.));
#670 = CARTESIAN_POINT('',(5.719931105612,-1.));
#671 = CARTESIAN_POINT('',(5.766358705806,-1.));
#672 = CARTESIAN_POINT('',(5.812905760812,-1.));
#673 = CARTESIAN_POINT('',(5.859574663158,-1.));
#674 = CARTESIAN_POINT('',(5.906352201078,-1.));
#675 = CARTESIAN_POINT('',(5.953227731226,-1.));
#676 = CARTESIAN_POINT('',(6.000190749593,-1.));
#677 = CARTESIAN_POINT('',(6.047231011722,-1.));
#678 = CARTESIAN_POINT('',(6.094337949782,-1.));
#679 = CARTESIAN_POINT('',(6.141500349617,-1.));
#680 = CARTESIAN_POINT('',(6.188705597648,-1.));
#681 = CARTESIAN_POINT('',(6.235940189605,-1.));
#682 = CARTESIAN_POINT('',(6.283185307179,-1.));
#683 = CARTESIAN_POINT('',(6.330430424754,-1.));
#684 = CARTESIAN_POINT('',(6.377665016711,-1.));
#685 = CARTESIAN_POINT('',(6.424870264742,-1.));
#686 = CARTESIAN_POINT('',(6.472032664577,-1.));
#687 = CARTESIAN_POINT('',(6.519139602637,-1.));
#688 = CARTESIAN_POINT('',(6.566179864766,-1.));
#689 = CARTESIAN_POINT('',(6.613142883133,-1.));
#690 = CARTESIAN_POINT('',(6.660018413281,-1.));
#691 = CARTESIAN_POINT('',(6.706795951201,-1.));
#692 = CARTESIAN_POINT('',(6.753464853548,-1.));
#693 = CARTESIAN_POINT('',(6.800011908554,-1.));
#694 = CARTESIAN_POINT('',(6.846439508747,-1.));
#695 = CARTESIAN_POINT('',(6.892741644181,-1.));
#696 = CARTESIAN_POINT('',(6.938915200649,-1.));
#697 = CARTESIAN_POINT('',(6.984957904021,-1.));
#698 = CARTESIAN_POINT('',(7.030868378478,-1.));
#699 = CARTESIAN_POINT('',(7.076646444078,-1.));
#700 = CARTESIAN_POINT('',(7.122293617531,-1.));
#701 = CARTESIAN_POINT('',(7.167812069371,-1.));
#702 = CARTESIAN_POINT('',(7.213205116201,-1.));
#703 = CARTESIAN_POINT('',(7.258476783466,-1.));
#704 = CARTESIAN_POINT('',(7.303632235225,-1.));
#705 = CARTESIAN_POINT('',(7.348675717201,-1.));
#706 = CARTESIAN_POINT('',(7.393614307988,-1.));
#707 = CARTESIAN_POINT('',(7.438455822449,-1.));
#708 = CARTESIAN_POINT('',(7.483208321847,-1.));
#709 = CARTESIAN_POINT('',(7.527880201442,-1.));
#710 = CARTESIAN_POINT('',(7.572480138499,-1.));
#711 = CARTESIAN_POINT('',(7.61701709386,-1.));
#712 = CARTESIAN_POINT('',(7.661500309427,-1.));
#713 = CARTESIAN_POINT('',(7.70593933519,-1.));
#714 = CARTESIAN_POINT('',(7.750344003573,-1.));
#715 = CARTESIAN_POINT('',(7.779931094447,-1.));
#716 = CARTESIAN_POINT('',(7.794722331953,-1.));
#717 = ( GEOMETRIC_REPRESENTATION_CONTEXT(2) 
PARAMETRIC_REPRESENTATION_CONTEXT() REPRESENTATION_CONTEXT('2D SPACE',''
  ) );
#718 = ADVANCED_FACE('',(#719),#185,.T.);
#719 = FACE_BOUND('',#720,.T.);
#720 = EDGE_LOOP('',(#721,#744,#745,#746));
#721 = ORIENTED_EDGE('',*,*,#722,.F.);
#722 = EDGE_CURVE('',#145,#723,#725,.T.);
#723 = VERTEX_POINT('',#724);
#724 = CARTESIAN_POINT('',(27.5,-15.,33.8));
#725 = SURFACE_CURVE('',#726,(#730,#737),.PCURVE_S1.);
#726 = LINE('',#727,#728);
#727 = CARTESIAN_POINT('',(27.5,-15.,31.8));
#728 = VECTOR('',#729,1.);
#729 = DIRECTION('',(0.,0.,1.));
#730 = PCURVE('',#185,#731);
#731 = DEFINITIONAL_REPRESENTATION('',(#732),#736);
#732 = LINE('',#733,#734);
#733 = CARTESIAN_POINT('',(0.,9.));
#734 = VECTOR('',#735,1.);
#735 = DIRECTION('',(1.,0.));
#736 = ( GEOMETRIC_REPRESENTATION_CONTEXT(2) 
PARAMETRIC_REPRESENTATION_CONTEXT() REPRESENTATION_CONTEXT('2D SPACE',''
  ) );
#737 = PCURVE('',#132,#738);
#738 = DEFINITIONAL_REPRESENTATION('',(#739),#743);
#739 = LINE('',#740,#741);
#740 = CARTESIAN_POINT('',(5.693598025148,15.));
#741 = VECTOR('',#742,1.);
#742 = DIRECTION('',(1.,0.));
#743 = ( GEOMETRIC_REPRESENTATION_CONTEXT(2) 
PARAMETRIC_REPRESENTATION_CONTEXT() REPRESENTATION_CONTEXT('2D SPACE',''
  ) );
#744 = ORIENTED_EDGE('',*,*,#167,.T.);
#745 = ORIENTED_EDGE('',*,*,#367,.T.);
#746 = ORIENTED_EDGE('',*,*,#747,.T.);
#747 = EDGE_CURVE('',#368,#723,#748,.T.);
#748 = SURFACE_CURVE('',#749,(#753,#760),.PCURVE_S1.);
#749 = LINE('',#750,#751);
#750 = CARTESIAN_POINT('',(18.5,-15.,33.8));
#751 = VECTOR('',#752,1.);
#752 = DIRECTION('',(1.,0.,0.));
#753 = PCURVE('',#185,#754);
#754 = DEFINITIONAL_REPRESENTATION('',(#755),#759);
#755 = LINE('',#756,#757);
#756 = CARTESIAN_POINT('',(2.,0.));
#757 = VECTOR('',#758,1.);
#758 = DIRECTION('',(0.,1.));
#759 = ( GEOMETRIC_REPRESENTATION_CONTEXT(2) 
PARAMETRIC_REPRESENTATION_CONTEXT() REPRESENTATION_CONTEXT('2D SPACE',''
  ) );
#760 = PCURVE('',#406,#761);
#761 = DEFINITIONAL_REPRESENTATION('',(#762),#766);
#762 = LINE('',#763,#764);
#763 = CARTESIAN_POINT('',(0.,11.));
#764 = VECTOR('',#765,1.);
#765 = DIRECTION('',(1.,0.));
#766 = ( GEOMETRIC_REPRESENTATION_CONTEXT(2) 
PARAMETRIC_REPRESENTATION_CONTEXT() REPRESENTATION_CONTEXT('2D SPACE',''
  ) );
#767 = ADVANCED_FACE('',(#768),#132,.T.);
#768 = FACE_BOUND('',#769,.T.);
#769 = EDGE_LOOP('',(#770,#795,#818,#841,#1024,#1047,#1070,#1093,#1116,
    #1139,#1160,#1161,#1162,#1163,#1186));
#770 = ORIENTED_EDGE('',*,*,#771,.F.);
#771 = EDGE_CURVE('',#772,#774,#776,.T.);
#772 = VERTEX_POINT('',#773);
#773 = CARTESIAN_POINT('',(27.5,-38.5,31.8));
#774 = VERTEX_POINT('',#775);
#775 = CARTESIAN_POINT('',(27.5,-26.,31.8));
#776 = SURFACE_CURVE('',#777,(#781,#788),.PCURVE_S1.);
#777 = LINE('',#778,#779);
#778 = CARTESIAN_POINT('',(27.5,-38.5,31.8));
#779 = VECTOR('',#780,1.);
#780 = DIRECTION('',(0.,1.,0.));
#781 = PCURVE('',#132,#782);
#782 = DEFINITIONAL_REPRESENTATION('',(#783),#787);
#783 = LINE('',#784,#785);
#784 = CARTESIAN_POINT('',(5.693598025148,38.5));
#785 = VECTOR('',#786,1.);
#786 = DIRECTION('',(0.,-1.));
#787 = ( GEOMETRIC_REPRESENTATION_CONTEXT(2) 
PARAMETRIC_REPRESENTATION_CONTEXT() REPRESENTATION_CONTEXT('2D SPACE',''
  ) );
#788 = PCURVE('',#462,#789);
#789 = DEFINITIONAL_REPRESENTATION('',(#790),#794);
#790 = LINE('',#791,#792);
#791 = CARTESIAN_POINT('',(9.,0.));
#792 = VECTOR('',#793,1.);
#793 = DIRECTION('',(0.,1.));
#794 = ( GEOMETRIC_REPRESENTATION_CONTEXT(2) 
PARAMETRIC_REPRESENTATION_CONTEXT() REPRESENTATION_CONTEXT('2D SPACE',''
  ) );
#795 = ORIENTED_EDGE('',*,*,#796,.F.);
#796 = EDGE_CURVE('',#797,#772,#799,.T.);
#797 = VERTEX_POINT('',#798);
#798 = CARTESIAN_POINT('',(27.5,-38.5,26.8));
#799 = SURFACE_CURVE('',#800,(#804,#811),.PCURVE_S1.);
#800 = LINE('',#801,#802);
#801 = CARTESIAN_POINT('',(27.5,-38.5,26.8));
#802 = VECTOR('',#803,1.);
#803 = DIRECTION('',(0.,0.,1.));
#804 = PCURVE('',#132,#805);
#805 = DEFINITIONAL_REPRESENTATION('',(#806),#810);
#806 = LINE('',#807,#808);
#807 = CARTESIAN_POINT('',(0.693598025148,38.5));
#808 = VECTOR('',#809,1.);
#809 = DIRECTION('',(1.,0.));
#810 = ( GEOMETRIC_REPRESENTATION_CONTEXT(2) 
PARAMETRIC_REPRESENTATION_CONTEXT() REPRESENTATION_CONTEXT('2D SPACE',''
  ) );
#811 = PCURVE('',#490,#812);
#812 = DEFINITIONAL_REPRESENTATION('',(#813),#817);
#813 = LINE('',#814,#815);
#814 = CARTESIAN_POINT('',(0.,9.));
#815 = VECTOR('',#816,1.);
#816 = DIRECTION('',(1.,0.));
#817 = ( GEOMETRIC_REPRESENTATION_CONTEXT(2) 
PARAMETRIC_REPRESENTATION_CONTEXT() REPRESENTATION_CONTEXT('2D SPACE',''
  ) );
#818 = ORIENTED_EDGE('',*,*,#819,.T.);
#819 = EDGE_CURVE('',#797,#820,#822,.T.);
#820 = VERTEX_POINT('',#821);
#821 = CARTESIAN_POINT('',(27.5,-12.65931873503,26.8));
#822 = SURFACE_CURVE('',#823,(#827,#834),.PCURVE_S1.);
#823 = LINE('',#824,#825);
#824 = CARTESIAN_POINT('',(27.5,-38.5,26.8));
#825 = VECTOR('',#826,1.);
#826 = DIRECTION('',(0.,1.,0.));
#827 = PCURVE('',#132,#828);
#828 = DEFINITIONAL_REPRESENTATION('',(#829),#833);
#829 = LINE('',#830,#831);
#830 = CARTESIAN_POINT('',(0.693598025148,38.5));
#831 = VECTOR('',#832,1.);
#832 = DIRECTION('',(0.,-1.));
#833 = ( GEOMETRIC_REPRESENTATION_CONTEXT(2) 
PARAMETRIC_REPRESENTATION_CONTEXT() REPRESENTATION_CONTEXT('2D SPACE',''
  ) );
#834 = PCURVE('',#518,#835);
#835 = DEFINITIONAL_REPRESENTATION('',(#836),#840);
#836 = LINE('',#837,#838);
#837 = CARTESIAN_POINT('',(77.5,11.5));
#838 = VECTOR('',#839,1.);
#839 = DIRECTION('',(0.,1.));
#840 = ( GEOMETRIC_REPRESENTATION_CONTEXT(2) 
PARAMETRIC_REPRESENTATION_CONTEXT() REPRESENTATION_CONTEXT('2D SPACE',''
  ) );
#841 = ORIENTED_EDGE('',*,*,#842,.T.);
#842 = EDGE_CURVE('',#820,#843,#845,.T.);
#843 = VERTEX_POINT('',#844);
#844 = CARTESIAN_POINT('',(27.5,12.659318735032,26.8));
#845 = SURFACE_CURVE('',#846,(#897,#951),.PCURVE_S1.);
#846 = B_SPLINE_CURVE_WITH_KNOTS('',7,(#847,#848,#849,#850,#851,#852,
    #853,#854,#855,#856,#857,#858,#859,#860,#861,#862,#863,#864,#865,
    #866,#867,#868,#869,#870,#871,#872,#873,#874,#875,#876,#877,#878,
    #879,#880,#881,#882,#883,#884,#885,#886,#887,#888,#889,#890,#891,
    #892,#893,#894,#895,#896),.UNSPECIFIED.,.F.,.F.,(8,6,6,6,6,6,6,6,8),
  (0.,0.339268537252,0.515126365107,0.684070212938,1.,1.315929787062,
    1.484873634893,1.660731462748,2.),.UNSPECIFIED.);
#847 = CARTESIAN_POINT('',(27.5,-12.65931873503,26.8));
#848 = CARTESIAN_POINT('',(27.5,-12.60601448554,27.756997617361));
#849 = CARTESIAN_POINT('',(27.5,-12.47828804241,28.7098366423));
#850 = CARTESIAN_POINT('',(27.5,-12.27636866238,29.651608554741));
#851 = CARTESIAN_POINT('',(27.5,-12.00096765597,30.575284418485));
#852 = CARTESIAN_POINT('',(27.5,-11.65334659226,31.473730606432));
#853 = CARTESIAN_POINT('',(27.5,-11.23542030051,32.33974151023));
#854 = CARTESIAN_POINT('',(27.5,-10.49822534556,33.594421660882));
#855 = CARTESIAN_POINT('',(27.5,-10.22840169881,34.012083120318));
#856 = CARTESIAN_POINT('',(27.5,-9.940812048137,34.418055136861));
#857 = CARTESIAN_POINT('',(27.5,-9.635906137379,34.811316822737));
#858 = CARTESIAN_POINT('',(27.5,-9.314203363358,35.190851601666));
#859 = CARTESIAN_POINT('',(27.5,-8.976301005058,35.555653932356));
#860 = CARTESIAN_POINT('',(27.5,-8.283358811222,36.240093711791));
#861 = CARTESIAN_POINT('',(27.5,-7.929510320826,36.560947509417));
#862 = CARTESIAN_POINT('',(27.5,-7.561949392248,36.866416993889));
#863 = CARTESIAN_POINT('',(27.5,-7.181354275814,37.155646356101));
#864 = CARTESIAN_POINT('',(27.5,-6.78847549862,37.427813554903));
#865 = CARTESIAN_POINT('',(27.5,-6.384142301598,37.68213946318));
#866 = CARTESIAN_POINT('',(27.5,-5.193444379118,38.35877032041));
#867 = CARTESIAN_POINT('',(27.5,-4.380473157755,38.734874861648));
#868 = CARTESIAN_POINT('',(27.5,-3.536683734429,39.041157251469));
#869 = CARTESIAN_POINT('',(27.5,-2.668996735916,39.273750898305));
#870 = CARTESIAN_POINT('',(27.5,-1.784869999049,39.429871153106));
#871 = CARTESIAN_POINT('',(27.5,-0.892314784637,39.507894736842));
#872 = CARTESIAN_POINT('',(27.5,0.892314784638,39.507894736842));
#873 = CARTESIAN_POINT('',(27.5,1.784869999043,39.429871153108));
#874 = CARTESIAN_POINT('',(27.5,2.668996735925,39.273750898301));
#875 = CARTESIAN_POINT('',(27.5,3.536683734418,39.041157251475));
#876 = CARTESIAN_POINT('',(27.5,4.38047315776,38.734874861645));
#877 = CARTESIAN_POINT('',(27.5,5.193444379115,38.358770320412));
#878 = CARTESIAN_POINT('',(27.5,6.384142301596,37.682139463181));
#879 = CARTESIAN_POINT('',(27.5,6.788475498618,37.427813554904));
#880 = CARTESIAN_POINT('',(27.5,7.181354275813,37.155646356102));
#881 = CARTESIAN_POINT('',(27.5,7.561949392246,36.86641699389));
#882 = CARTESIAN_POINT('',(27.5,7.929510320825,36.560947509418));
#883 = CARTESIAN_POINT('',(27.5,8.28335881122,36.240093711793));
#884 = CARTESIAN_POINT('',(27.5,8.976301005056,35.555653932358));
#885 = CARTESIAN_POINT('',(27.5,9.314203363356,35.190851601668));
#886 = CARTESIAN_POINT('',(27.5,9.635906137378,34.811316822739));
#887 = CARTESIAN_POINT('',(27.5,9.940812048135,34.418055136863));
#888 = CARTESIAN_POINT('',(27.5,10.228401698808,34.01208312032));
#889 = CARTESIAN_POINT('',(27.5,10.498225345568,33.594421660884));
#890 = CARTESIAN_POINT('',(27.5,11.235420300511,32.339741510232));
#891 = CARTESIAN_POINT('',(27.5,11.653346592262,31.473730606434));
#892 = CARTESIAN_POINT('',(27.5,12.00096765597,30.575284418486));
#893 = CARTESIAN_POINT('',(27.5,12.276368662387,29.651608554742));
#894 = CARTESIAN_POINT('',(27.5,12.478288042415,28.709836642301));
#895 = CARTESIAN_POINT('',(27.5,12.606014485543,27.756997617361));
#896 = CARTESIAN_POINT('',(27.5,12.659318735032,26.8));
#897 = PCURVE('',#132,#898);
#898 = DEFINITIONAL_REPRESENTATION('',(#899),#950);
#899 = B_SPLINE_CURVE_WITH_KNOTS('',7,(#900,#901,#902,#903,#904,#905,
    #906,#907,#908,#909,#910,#911,#912,#913,#914,#915,#916,#917,#918,
    #919,#920,#921,#922,#923,#924,#925,#926,#927,#928,#929,#930,#931,
    #932,#933,#934,#935,#936,#937,#938,#939,#940,#941,#942,#943,#944,
    #945,#946,#947,#948,#949),.UNSPECIFIED.,.F.,.F.,(8,6,6,6,6,6,6,6,8),
  (0.,0.339268537252,0.515126365107,0.684070212938,1.,1.315929787062,
    1.484873634893,1.660731462748,2.),.UNSPECIFIED.);
#900 = CARTESIAN_POINT('',(0.693598025148,12.659318735032));
#901 = CARTESIAN_POINT('',(1.650595642508,12.606014485543));
#902 = CARTESIAN_POINT('',(2.603434667447,12.478288042415));
#903 = CARTESIAN_POINT('',(3.545206579889,12.276368662387));
#904 = CARTESIAN_POINT('',(4.468882443632,12.00096765597));
#905 = CARTESIAN_POINT('',(5.36732863158,11.653346592263));
#906 = CARTESIAN_POINT('',(6.233339535377,11.235420300512));
#907 = CARTESIAN_POINT('',(7.48801968603,10.498225345569));
#908 = CARTESIAN_POINT('',(7.905681145465,10.22840169881));
#909 = CARTESIAN_POINT('',(8.311653162009,9.940812048137));
#910 = CARTESIAN_POINT('',(8.704914847885,9.635906137379));
#911 = CARTESIAN_POINT('',(9.084449626814,9.314203363358));
#912 = CARTESIAN_POINT('',(9.449251957504,8.976301005058));
#913 = CARTESIAN_POINT('',(10.133691736939,8.283358811222));
#914 = CARTESIAN_POINT('',(10.454545534564,7.929510320826));
#915 = CARTESIAN_POINT('',(10.760015019036,7.561949392248));
#916 = CARTESIAN_POINT('',(11.049244381248,7.181354275814));
#917 = CARTESIAN_POINT('',(11.321411580051,6.78847549862));
#918 = CARTESIAN_POINT('',(11.575737488328,6.384142301598));
#919 = CARTESIAN_POINT('',(12.252368345558,5.193444379118));
#920 = CARTESIAN_POINT('',(12.628472886795,4.380473157755));
#921 = CARTESIAN_POINT('',(12.934755276617,3.536683734429));
#922 = CARTESIAN_POINT('',(13.167348923453,2.668996735916));
#923 = CARTESIAN_POINT('',(13.323469178254,1.784869999049));
#924 = CARTESIAN_POINT('',(13.40149276199,0.892314784637));
#925 = CARTESIAN_POINT('',(13.40149276199,-0.892314784638));
#926 = CARTESIAN_POINT('',(13.323469178255,-1.784869999043));
#927 = CARTESIAN_POINT('',(13.167348923449,-2.668996735925));
#928 = CARTESIAN_POINT('',(12.934755276622,-3.536683734418));
#929 = CARTESIAN_POINT('',(12.628472886792,-4.38047315776));
#930 = CARTESIAN_POINT('',(12.252368345559,-5.193444379115));
#931 = CARTESIAN_POINT('',(11.575737488329,-6.384142301596));
#932 = CARTESIAN_POINT('',(11.321411580052,-6.788475498618));
#933 = CARTESIAN_POINT('',(11.049244381249,-7.181354275813));
#934 = CARTESIAN_POINT('',(10.760015019037,-7.561949392246));
#935 = CARTESIAN_POINT('',(10.454545534566,-7.929510320825));
#936 = CARTESIAN_POINT('',(10.13369173694,-8.28335881122));
#937 = CARTESIAN_POINT('',(9.449251957506,-8.976301005056));
#938 = CARTESIAN_POINT('',(9.084449626815,-9.314203363356));
#939 = CARTESIAN_POINT('',(8.704914847887,-9.635906137378));
#940 = CARTESIAN_POINT('',(8.311653162011,-9.940812048135));
#941 = CARTESIAN_POINT('',(7.905681145467,-10.2284016988));
#942 = CARTESIAN_POINT('',(7.488019686032,-10.49822534556));
#943 = CARTESIAN_POINT('',(6.233339535379,-11.23542030051));
#944 = CARTESIAN_POINT('',(5.367328631582,-11.65334659226));
#945 = CARTESIAN_POINT('',(4.468882443634,-12.00096765597));
#946 = CARTESIAN_POINT('',(3.54520657989,-12.27636866238));
#947 = CARTESIAN_POINT('',(2.603434667448,-12.47828804241));
#948 = CARTESIAN_POINT('',(1.650595642509,-12.60601448554));
#949 = CARTESIAN_POINT('',(0.693598025148,-12.65931873503));
#950 = ( GEOMETRIC_REPRESENTATION_CONTEXT(2) 
PARAMETRIC_REPRESENTATION_CONTEXT() REPRESENTATION_CONTEXT('2D SPACE',''
  ) );
#951 = PCURVE('',#638,#952);
#952 = DEFINITIONAL_REPRESENTATION('',(#953),#1023);
#953 = B_SPLINE_CURVE_WITH_KNOTS('',3,(#954,#955,#956,#957,#958,#959,
    #960,#961,#962,#963,#964,#965,#966,#967,#968,#969,#970,#971,#972,
    #973,#974,#975,#976,#977,#978,#979,#980,#981,#982,#983,#984,#985,
    #986,#987,#988,#989,#990,#991,#992,#993,#994,#995,#996,#997,#998,
    #999,#1000,#1001,#1002,#1003,#1004,#1005,#1006,#1007,#1008,#1009,
    #1010,#1011,#1012,#1013,#1014,#1015,#1016,#1017,#1018,#1019,#1020,
    #1021,#1022),.UNSPECIFIED.,.F.,.F.,(4,1,1,1,1,1,1,1,1,1,1,1,1,1,1,1,
    1,1,1,1,1,1,1,1,1,1,1,1,1,1,1,1,1,1,1,1,1,1,1,1,1,1,1,1,1,1,1,1,1,1,
    1,1,1,1,1,1,1,1,1,1,1,1,1,1,1,1,4),(0.,3.030303030304E-02,
    6.060606060607E-02,9.090909090911E-02,0.121212121212,0.151515151515,
    0.181818181818,0.212121212121,0.242424242424,0.272727272727,
    0.30303030303,0.333333333333,0.363636363636,0.393939393939,
    0.424242424242,0.454545454546,0.484848484849,0.515151515152,
    0.545454545455,0.575757575758,0.606060606061,0.636363636364,
    0.666666666667,0.69696969697,0.727272727273,0.757575757576,
    0.787878787879,0.818181818182,0.848484848485,0.878787878788,
    0.909090909091,0.939393939394,0.969696969697,1.,1.030303030303,
    1.060606060606,1.090909090909,1.121212121212,1.151515151515,
    1.181818181818,1.212121212121,1.242424242424,1.272727272727,
    1.303030303031,1.333333333334,1.363636363637,1.39393939394,
    1.424242424243,1.454545454546,1.484848484849,1.515151515152,
    1.545454545455,1.575757575758,1.606060606061,1.636363636364,
    1.666666666667,1.69696969697,1.727272727273,1.757575757576,
    1.787878787879,1.818181818182,1.848484848485,1.878787878788,
    1.909090909091,1.939393939394,1.969696969697,2.),
  .QUASI_UNIFORM_KNOTS.);
#954 = CARTESIAN_POINT('',(7.794722331953,-10.));
#955 = CARTESIAN_POINT('',(7.779931094447,-10.));
#956 = CARTESIAN_POINT('',(7.750344003573,-10.));
#957 = CARTESIAN_POINT('',(7.70593933519,-10.));
#958 = CARTESIAN_POINT('',(7.661500309427,-10.));
#959 = CARTESIAN_POINT('',(7.61701709386,-10.));
#960 = CARTESIAN_POINT('',(7.572480138499,-10.));
#961 = CARTESIAN_POINT('',(7.527880201442,-10.));
#962 = CARTESIAN_POINT('',(7.483208321847,-10.));
#963 = CARTESIAN_POINT('',(7.438455822449,-10.));
#964 = CARTESIAN_POINT('',(7.393614307988,-10.));
#965 = CARTESIAN_POINT('',(7.348675717201,-10.));
#966 = CARTESIAN_POINT('',(7.303632235225,-10.));
#967 = CARTESIAN_POINT('',(7.258476783466,-10.));
#968 = CARTESIAN_POINT('',(7.213205116201,-10.));
#969 = CARTESIAN_POINT('',(7.167812069371,-10.));
#970 = CARTESIAN_POINT('',(7.122293617531,-10.));
#971 = CARTESIAN_POINT('',(7.076646444078,-10.));
#972 = CARTESIAN_POINT('',(7.030868378478,-10.));
#973 = CARTESIAN_POINT('',(6.984957904021,-10.));
#974 = CARTESIAN_POINT('',(6.938915200649,-10.));
#975 = CARTESIAN_POINT('',(6.892741644181,-10.));
#976 = CARTESIAN_POINT('',(6.846439508747,-10.));
#977 = CARTESIAN_POINT('',(6.800011908554,-10.));
#978 = CARTESIAN_POINT('',(6.753464853548,-10.));
#979 = CARTESIAN_POINT('',(6.706795951201,-10.));
#980 = CARTESIAN_POINT('',(6.660018413281,-10.));
#981 = CARTESIAN_POINT('',(6.613142883133,-10.));
#982 = CARTESIAN_POINT('',(6.566179864766,-10.));
#983 = CARTESIAN_POINT('',(6.519139602637,-10.));
#984 = CARTESIAN_POINT('',(6.472032664577,-10.));
#985 = CARTESIAN_POINT('',(6.424870264742,-10.));
#986 = CARTESIAN_POINT('',(6.377665016711,-10.));
#987 = CARTESIAN_POINT('',(6.330430424754,-10.));
#988 = CARTESIAN_POINT('',(6.283185307179,-10.));
#989 = CARTESIAN_POINT('',(6.235940189605,-10.));
#990 = CARTESIAN_POINT('',(6.188705597648,-10.));
#991 = CARTESIAN_POINT('',(6.141500349617,-10.));
#992 = CARTESIAN_POINT('',(6.094337949782,-10.));
#993 = CARTESIAN_POINT('',(6.047231011722,-10.));
#994 = CARTESIAN_POINT('',(6.000190749593,-10.));
#995 = CARTESIAN_POINT('',(5.953227731226,-10.));
#996 = CARTESIAN_POINT('',(5.906352201078,-10.));
#997 = CARTESIAN_POINT('',(5.859574663158,-10.));
#998 = CARTESIAN_POINT('',(5.812905760812,-10.));
#999 = CARTESIAN_POINT('',(5.766358705806,-10.));
#1000 = CARTESIAN_POINT('',(5.719931105612,-10.));
#1001 = CARTESIAN_POINT('',(5.673628970179,-10.));
#1002 = CARTESIAN_POINT('',(5.627455413711,-10.));
#1003 = CARTESIAN_POINT('',(5.581412710338,-10.));
#1004 = CARTESIAN_POINT('',(5.535502235881,-10.));
#1005 = CARTESIAN_POINT('',(5.489724170282,-10.));
#1006 = CARTESIAN_POINT('',(5.444076996829,-10.));
#1007 = CARTESIAN_POINT('',(5.398558544988,-10.));
#1008 = CARTESIAN_POINT('',(5.353165498158,-10.));
#1009 = CARTESIAN_POINT('',(5.307893830894,-10.));
#1010 = CARTESIAN_POINT('',(5.262738379134,-10.));
#1011 = CARTESIAN_POINT('',(5.217694897159,-10.));
#1012 = CARTESIAN_POINT('',(5.172756306371,-10.));
#1013 = CARTESIAN_POINT('',(5.12791479191,-10.));
#1014 = CARTESIAN_POINT('',(5.083162292512,-10.));
#1015 = CARTESIAN_POINT('',(5.038490412917,-10.));
#1016 = CARTESIAN_POINT('',(4.99389047586,-10.));
#1017 = CARTESIAN_POINT('',(4.949353520499,-10.));
#1018 = CARTESIAN_POINT('',(4.904870304932,-10.));
#1019 = CARTESIAN_POINT('',(4.86043127917,-10.));
#1020 = CARTESIAN_POINT('',(4.816026610787,-10.));
#1021 = CARTESIAN_POINT('',(4.786439519912,-10.));
#1022 = CARTESIAN_POINT('',(4.771648282406,-10.));
#1023 = ( GEOMETRIC_REPRESENTATION_CONTEXT(2) 
PARAMETRIC_REPRESENTATION_CONTEXT() REPRESENTATION_CONTEXT('2D SPACE',''
  ) );
#1024 = ORIENTED_EDGE('',*,*,#1025,.T.);
#1025 = EDGE_CURVE('',#843,#1026,#1028,.T.);
#1026 = VERTEX_POINT('',#1027);
#1027 = CARTESIAN_POINT('',(27.5,38.5,26.8));
#1028 = SURFACE_CURVE('',#1029,(#1033,#1040),.PCURVE_S1.);
#1029 = LINE('',#1030,#1031);
#1030 = CARTESIAN_POINT('',(27.5,-38.5,26.8));
#1031 = VECTOR('',#1032,1.);
#1032 = DIRECTION('',(0.,1.,0.));
#1033 = PCURVE('',#132,#1034);
#1034 = DEFINITIONAL_REPRESENTATION('',(#1035),#1039);
#1035 = LINE('',#1036,#1037);
#1036 = CARTESIAN_POINT('',(0.693598025148,38.5));
#1037 = VECTOR('',#1038,1.);
#1038 = DIRECTION('',(0.,-1.));
#1039 = ( GEOMETRIC_REPRESENTATION_CONTEXT(2) 
PARAMETRIC_REPRESENTATION_CONTEXT() REPRESENTATION_CONTEXT('2D SPACE',''
  ) );
#1040 = PCURVE('',#220,#1041);
#1041 = DEFINITIONAL_REPRESENTATION('',(#1042),#1046);
#1042 = LINE('',#1043,#1044);
#1043 = CARTESIAN_POINT('',(77.5,11.5));
#1044 = VECTOR('',#1045,1.);
#1045 = DIRECTION('',(0.,1.));
#1046 = ( GEOMETRIC_REPRESENTATION_CONTEXT(2) 
PARAMETRIC_REPRESENTATION_CONTEXT() REPRESENTATION_CONTEXT('2D SPACE',''
  ) );
#1047 = ORIENTED_EDGE('',*,*,#1048,.T.);
#1048 = EDGE_CURVE('',#1026,#1049,#1051,.T.);
#1049 = VERTEX_POINT('',#1050);
#1050 = CARTESIAN_POINT('',(27.5,38.5,31.8));
#1051 = SURFACE_CURVE('',#1052,(#1056,#1063),.PCURVE_S1.);
#1052 = LINE('',#1053,#1054);
#1053 = CARTESIAN_POINT('',(27.5,38.5,26.8));
#1054 = VECTOR('',#1055,1.);
#1055 = DIRECTION('',(0.,0.,1.));
#1056 = PCURVE('',#132,#1057);
#1057 = DEFINITIONAL_REPRESENTATION('',(#1058),#1062);
#1058 = LINE('',#1059,#1060);
#1059 = CARTESIAN_POINT('',(0.693598025148,-38.5));
#1060 = VECTOR('',#1061,1.);
#1061 = DIRECTION('',(1.,0.));
#1062 = ( GEOMETRIC_REPRESENTATION_CONTEXT(2) 
PARAMETRIC_REPRESENTATION_CONTEXT() REPRESENTATION_CONTEXT('2D SPACE',''
  ) );
#1063 = PCURVE('',#248,#1064);
#1064 = DEFINITIONAL_REPRESENTATION('',(#1065),#1069);
#1065 = LINE('',#1066,#1067);
#1066 = CARTESIAN_POINT('',(0.,9.));
#1067 = VECTOR('',#1068,1.);
#1068 = DIRECTION('',(1.,0.));
#1069 = ( GEOMETRIC_REPRESENTATION_CONTEXT(2) 
PARAMETRIC_REPRESENTATION_CONTEXT() REPRESENTATION_CONTEXT('2D SPACE',''
  ) );
#1070 = ORIENTED_EDGE('',*,*,#1071,.F.);
#1071 = EDGE_CURVE('',#1072,#1049,#1074,.T.);
#1072 = VERTEX_POINT('',#1073);
#1073 = CARTESIAN_POINT('',(27.5,26.,31.8));
#1074 = SURFACE_CURVE('',#1075,(#1079,#1086),.PCURVE_S1.);
#1075 = LINE('',#1076,#1077);
#1076 = CARTESIAN_POINT('',(27.5,15.,31.8));
#1077 = VECTOR('',#1078,1.);
#1078 = DIRECTION('',(0.,1.,0.));
#1079 = PCURVE('',#132,#1080);
#1080 = DEFINITIONAL_REPRESENTATION('',(#1081),#1085);
#1081 = LINE('',#1082,#1083);
#1082 = CARTESIAN_POINT('',(5.693598025148,-15.));
#1083 = VECTOR('',#1084,1.);
#1084 = DIRECTION('',(0.,-1.));
#1085 = ( GEOMETRIC_REPRESENTATION_CONTEXT(2) 
PARAMETRIC_REPRESENTATION_CONTEXT() REPRESENTATION_CONTEXT('2D SPACE',''
  ) );
#1086 = PCURVE('',#276,#1087);
#1087 = DEFINITIONAL_REPRESENTATION('',(#1088),#1092);
#1088 = LINE('',#1089,#1090);
#1089 = CARTESIAN_POINT('',(9.,0.));
#1090 = VECTOR('',#1091,1.);
#1091 = DIRECTION('',(0.,1.));
#1092 = ( GEOMETRIC_REPRESENTATION_CONTEXT(2) 
PARAMETRIC_REPRESENTATION_CONTEXT() REPRESENTATION_CONTEXT('2D SPACE',''
  ) );
#1093 = ORIENTED_EDGE('',*,*,#1094,.T.);
#1094 = EDGE_CURVE('',#1072,#1095,#1097,.T.);
#1095 = VERTEX_POINT('',#1096);
#1096 = CARTESIAN_POINT('',(27.5,26.,33.8));
#1097 = SURFACE_CURVE('',#1098,(#1102,#1109),.PCURVE_S1.);
#1098 = LINE('',#1099,#1100);
#1099 = CARTESIAN_POINT('',(27.5,26.,31.8));
#1100 = VECTOR('',#1101,1.);
#1101 = DIRECTION('',(0.,0.,1.));
#1102 = PCURVE('',#132,#1103);
#1103 = DEFINITIONAL_REPRESENTATION('',(#1104),#1108);
#1104 = LINE('',#1105,#1106);
#1105 = CARTESIAN_POINT('',(5.693598025148,-26.));
#1106 = VECTOR('',#1107,1.);
#1107 = DIRECTION('',(1.,0.));
#1108 = ( GEOMETRIC_REPRESENTATION_CONTEXT(2) 
PARAMETRIC_REPRESENTATION_CONTEXT() REPRESENTATION_CONTEXT('2D SPACE',''
  ) );
#1109 = PCURVE('',#304,#1110);
#1110 = DEFINITIONAL_REPRESENTATION('',(#1111),#1115);
#1111 = LINE('',#1112,#1113);
#1112 = CARTESIAN_POINT('',(0.,9.));
#1113 = VECTOR('',#1114,1.);
#1114 = DIRECTION('',(1.,0.));
#1115 = ( GEOMETRIC_REPRESENTATION_CONTEXT(2) 
PARAMETRIC_REPRESENTATION_CONTEXT() REPRESENTATION_CONTEXT('2D SPACE',''
  ) );
#1116 = ORIENTED_EDGE('',*,*,#1117,.F.);
#1117 = EDGE_CURVE('',#1118,#1095,#1120,.T.);
#1118 = VERTEX_POINT('',#1119);
#1119 = CARTESIAN_POINT('',(27.5,15.,33.8));
#1120 = SURFACE_CURVE('',#1121,(#1125,#1132),.PCURVE_S1.);
#1121 = LINE('',#1122,#1123);
#1122 = CARTESIAN_POINT('',(27.5,15.,33.8));
#1123 = VECTOR('',#1124,1.);
#1124 = DIRECTION('',(0.,1.,0.));
#1125 = PCURVE('',#132,#1126);
#1126 = DEFINITIONAL_REPRESENTATION('',(#1127),#1131);
#1127 = LINE('',#1128,#1129);
#1128 = CARTESIAN_POINT('',(7.693598025148,-15.));
#1129 = VECTOR('',#1130,1.);
#1130 = DIRECTION('',(0.,-1.));
#1131 = ( GEOMETRIC_REPRESENTATION_CONTEXT(2) 
PARAMETRIC_REPRESENTATION_CONTEXT() REPRESENTATION_CONTEXT('2D SPACE',''
  ) );
#1132 = PCURVE('',#332,#1133);
#1133 = DEFINITIONAL_REPRESENTATION('',(#1134),#1138);
#1134 = LINE('',#1135,#1136);
#1135 = CARTESIAN_POINT('',(9.,0.));
#1136 = VECTOR('',#1137,1.);
#1137 = DIRECTION('',(0.,1.));
#1138 = ( GEOMETRIC_REPRESENTATION_CONTEXT(2) 
PARAMETRIC_REPRESENTATION_CONTEXT() REPRESENTATION_CONTEXT('2D SPACE',''
  ) );
#1139 = ORIENTED_EDGE('',*,*,#1140,.F.);
#1140 = EDGE_CURVE('',#83,#1118,#1141,.T.);
#1141 = SURFACE_CURVE('',#1142,(#1146,#1153),.PCURVE_S1.);
#1142 = LINE('',#1143,#1144);
#1143 = CARTESIAN_POINT('',(27.5,15.,31.8));
#1144 = VECTOR('',#1145,1.);
#1145 = DIRECTION('',(0.,0.,1.));
#1146 = PCURVE('',#132,#1147);
#1147 = DEFINITIONAL_REPRESENTATION('',(#1148),#1152);
#1148 = LINE('',#1149,#1150);
#1149 = CARTESIAN_POINT('',(5.693598025148,-15.));
#1150 = VECTOR('',#1151,1.);
#1151 = DIRECTION('',(1.,0.));
#1152 = ( GEOMETRIC_REPRESENTATION_CONTEXT(2) 
PARAMETRIC_REPRESENTATION_CONTEXT() REPRESENTATION_CONTEXT('2D SPACE',''
  ) );
#1153 = PCURVE('',#102,#1154);
#1154 = DEFINITIONAL_REPRESENTATION('',(#1155),#1159);
#1155 = LINE('',#1156,#1157);
#1156 = CARTESIAN_POINT('',(0.,9.));
#1157 = VECTOR('',#1158,1.);
#1158 = DIRECTION('',(1.,0.));
#1159 = ( GEOMETRIC_REPRESENTATION_CONTEXT(2) 
PARAMETRIC_REPRESENTATION_CONTEXT() REPRESENTATION_CONTEXT('2D SPACE',''
  ) );
#1160 = ORIENTED_EDGE('',*,*,#116,.T.);
#1161 = ORIENTED_EDGE('',*,*,#144,.T.);
#1162 = ORIENTED_EDGE('',*,*,#722,.T.);
#1163 = ORIENTED_EDGE('',*,*,#1164,.F.);
#1164 = EDGE_CURVE('',#1165,#723,#1167,.T.);
#1165 = VERTEX_POINT('',#1166);
#1166 = CARTESIAN_POINT('',(27.5,-26.,33.8));
#1167 = SURFACE_CURVE('',#1168,(#1172,#1179),.PCURVE_S1.);
#1168 = LINE('',#1169,#1170);
#1169 = CARTESIAN_POINT('',(27.5,-26.,33.8));
#1170 = VECTOR('',#1171,1.);
#1171 = DIRECTION('',(0.,1.,0.));
#1172 = PCURVE('',#132,#1173);
#1173 = DEFINITIONAL_REPRESENTATION('',(#1174),#1178);
#1174 = LINE('',#1175,#1176);
#1175 = CARTESIAN_POINT('',(7.693598025148,26.));
#1176 = VECTOR('',#1177,1.);
#1177 = DIRECTION('',(0.,-1.));
#1178 = ( GEOMETRIC_REPRESENTATION_CONTEXT(2) 
PARAMETRIC_REPRESENTATION_CONTEXT() REPRESENTATION_CONTEXT('2D SPACE',''
  ) );
#1179 = PCURVE('',#406,#1180);
#1180 = DEFINITIONAL_REPRESENTATION('',(#1181),#1185);
#1181 = LINE('',#1182,#1183);
#1182 = CARTESIAN_POINT('',(9.,0.));
#1183 = VECTOR('',#1184,1.);
#1184 = DIRECTION('',(0.,1.));
#1185 = ( GEOMETRIC_REPRESENTATION_CONTEXT(2) 
PARAMETRIC_REPRESENTATION_CONTEXT() REPRESENTATION_CONTEXT('2D SPACE',''
  ) );
#1186 = ORIENTED_EDGE('',*,*,#1187,.F.);
#1187 = EDGE_CURVE('',#774,#1165,#1188,.T.);
#1188 = SURFACE_CURVE('',#1189,(#1193,#1200),.PCURVE_S1.);
#1189 = LINE('',#1190,#1191);
#1190 = CARTESIAN_POINT('',(27.5,-26.,31.8));
#1191 = VECTOR('',#1192,1.);
#1192 = DIRECTION('',(0.,0.,1.));
#1193 = PCURVE('',#132,#1194);
#1194 = DEFINITIONAL_REPRESENTATION('',(#1195),#1199);
#1195 = LINE('',#1196,#1197);
#1196 = CARTESIAN_POINT('',(5.693598025148,26.));
#1197 = VECTOR('',#1198,1.);
#1198 = DIRECTION('',(1.,0.));
#1199 = ( GEOMETRIC_REPRESENTATION_CONTEXT(2) 
PARAMETRIC_REPRESENTATION_CONTEXT() REPRESENTATION_CONTEXT('2D SPACE',''
  ) );
#1200 = PCURVE('',#434,#1201);
#1201 = DEFINITIONAL_REPRESENTATION('',(#1202),#1206);
#1202 = LINE('',#1203,#1204);
#1203 = CARTESIAN_POINT('',(0.,9.));
#1204 = VECTOR('',#1205,1.);
#1205 = DIRECTION('',(1.,0.));
#1206 = ( GEOMETRIC_REPRESENTATION_CONTEXT(2) 
PARAMETRIC_REPRESENTATION_CONTEXT() REPRESENTATION_CONTEXT('2D SPACE',''
  ) );
#1207 = ADVANCED_FACE('',(#1208),#102,.F.);
#1208 = FACE_BOUND('',#1209,.F.);
#1209 = EDGE_LOOP('',(#1210,#1211,#1212,#1213));
#1210 = ORIENTED_EDGE('',*,*,#1140,.F.);
#1211 = ORIENTED_EDGE('',*,*,#82,.T.);
#1212 = ORIENTED_EDGE('',*,*,#344,.T.);
#1213 = ORIENTED_EDGE('',*,*,#1214,.T.);
#1214 = EDGE_CURVE('',#317,#1118,#1215,.T.);
#1215 = SURFACE_CURVE('',#1216,(#1220,#1227),.PCURVE_S1.);
#1216 = LINE('',#1217,#1218);
#1217 = CARTESIAN_POINT('',(18.5,15.,33.8));
#1218 = VECTOR('',#1219,1.);
#1219 = DIRECTION('',(1.,0.,0.));
#1220 = PCURVE('',#102,#1221);
#1221 = DEFINITIONAL_REPRESENTATION('',(#1222),#1226);
#1222 = LINE('',#1223,#1224);
#1223 = CARTESIAN_POINT('',(2.,0.));
#1224 = VECTOR('',#1225,1.);
#1225 = DIRECTION('',(0.,1.));
#1226 = ( GEOMETRIC_REPRESENTATION_CONTEXT(2) 
PARAMETRIC_REPRESENTATION_CONTEXT() REPRESENTATION_CONTEXT('2D SPACE',''
  ) );
#1227 = PCURVE('',#332,#1228);
#1228 = DEFINITIONAL_REPRESENTATION('',(#1229),#1233);
#1229 = LINE('',#1230,#1231);
#1230 = CARTESIAN_POINT('',(0.,0.));
#1231 = VECTOR('',#1232,1.);
#1232 = DIRECTION('',(1.,0.));
#1233 = ( GEOMETRIC_REPRESENTATION_CONTEXT(2) 
PARAMETRIC_REPRESENTATION_CONTEXT() REPRESENTATION_CONTEXT('2D SPACE',''
  ) );
#1234 = ADVANCED_FACE('',(#1235,#1287),#220,.F.);
#1235 = FACE_BOUND('',#1236,.F.);
#1236 = EDGE_LOOP('',(#1237,#1264,#1265,#1286));
#1237 = ORIENTED_EDGE('',*,*,#1238,.F.);
#1238 = EDGE_CURVE('',#843,#205,#1239,.T.);
#1239 = SURFACE_CURVE('',#1240,(#1246,#1255),.PCURVE_S1.);
#1240 = B_SPLINE_CURVE_WITH_KNOTS('',4,(#1241,#1242,#1243,#1244,#1245),
  .UNSPECIFIED.,.F.,.F.,(5,5),(0.,1.),.PIECEWISE_BEZIER_KNOTS.);
#1241 = CARTESIAN_POINT('',(27.5,12.659318735032,26.8));
#1242 = CARTESIAN_POINT('',(25.25,12.659318735032,26.8));
#1243 = CARTESIAN_POINT('',(23.,12.659318735032,26.8));
#1244 = CARTESIAN_POINT('',(20.75,12.659318735032,26.8));
#1245 = CARTESIAN_POINT('',(18.5,12.659318735032,26.8));
#1246 = PCURVE('',#220,#1247);
#1247 = DEFINITIONAL_REPRESENTATION('',(#1248),#1254);
#1248 = B_SPLINE_CURVE_WITH_KNOTS('',4,(#1249,#1250,#1251,#1252,#1253),
  .UNSPECIFIED.,.F.,.F.,(5,5),(0.,1.),.PIECEWISE_BEZIER_KNOTS.);
#1249 = CARTESIAN_POINT('',(77.5,62.659318735032));
#1250 = CARTESIAN_POINT('',(75.25,62.659318735032));
#1251 = CARTESIAN_POINT('',(73.,62.659318735032));
#1252 = CARTESIAN_POINT('',(70.75,62.659318735032));
#1253 = CARTESIAN_POINT('',(68.5,62.659318735032));
#1254 = ( GEOMETRIC_REPRESENTATION_CONTEXT(2) 
PARAMETRIC_REPRESENTATION_CONTEXT() REPRESENTATION_CONTEXT('2D SPACE',''
  ) );
#1255 = PCURVE('',#638,#1256);
#1256 = DEFINITIONAL_REPRESENTATION('',(#1257),#1263);
#1257 = B_SPLINE_CURVE_WITH_KNOTS('',4,(#1258,#1259,#1260,#1261,#1262),
  .UNSPECIFIED.,.F.,.F.,(5,5),(0.,1.),.PIECEWISE_BEZIER_KNOTS.);
#1258 = CARTESIAN_POINT('',(4.771648282406,-10.));
#1259 = CARTESIAN_POINT('',(4.771648282406,-7.75));
#1260 = CARTESIAN_POINT('',(4.771648282406,-5.5));
#1261 = CARTESIAN_POINT('',(4.771648282406,-3.25));
#1262 = CARTESIAN_POINT('',(4.771648282406,-1.));
#1263 = ( GEOMETRIC_REPRESENTATION_CONTEXT(2) 
PARAMETRIC_REPRESENTATION_CONTEXT() REPRESENTATION_CONTEXT('2D SPACE',''
  ) );
#1264 = ORIENTED_EDGE('',*,*,#1025,.T.);
#1265 = ORIENTED_EDGE('',*,*,#1266,.F.);
#1266 = EDGE_CURVE('',#203,#1026,#1267,.T.);
#1267 = SURFACE_CURVE('',#1268,(#1272,#1279),.PCURVE_S1.);
#1268 = LINE('',#1269,#1270);
#1269 = CARTESIAN_POINT('',(18.5,38.5,26.8));
#1270 = VECTOR('',#1271,1.);
#1271 = DIRECTION('',(1.,0.,0.));
#1272 = PCURVE('',#220,#1273);
#1273 = DEFINITIONAL_REPRESENTATION('',(#1274),#1278);
#1274 = LINE('',#1275,#1276);
#1275 = CARTESIAN_POINT('',(68.5,88.5));
#1276 = VECTOR('',#1277,1.);
#1277 = DIRECTION('',(1.,0.));
#1278 = ( GEOMETRIC_REPRESENTATION_CONTEXT(2) 
PARAMETRIC_REPRESENTATION_CONTEXT() REPRESENTATION_CONTEXT('2D SPACE',''
  ) );
#1279 = PCURVE('',#248,#1280);
#1280 = DEFINITIONAL_REPRESENTATION('',(#1281),#1285);
#1281 = LINE('',#1282,#1283);
#1282 = CARTESIAN_POINT('',(0.,0.));
#1283 = VECTOR('',#1284,1.);
#1284 = DIRECTION('',(0.,1.));
#1285 = ( GEOMETRIC_REPRESENTATION_CONTEXT(2) 
PARAMETRIC_REPRESENTATION_CONTEXT() REPRESENTATION_CONTEXT('2D SPACE',''
  ) );
#1286 = ORIENTED_EDGE('',*,*,#202,.T.);
#1287 = FACE_BOUND('',#1288,.F.);
#1288 = EDGE_LOOP('',(#1289));
#1289 = ORIENTED_EDGE('',*,*,#1290,.T.);
#1290 = EDGE_CURVE('',#1291,#1291,#1293,.T.);
#1291 = VERTEX_POINT('',#1292);
#1292 = CARTESIAN_POINT('',(24.7,32.,26.8));
#1293 = SURFACE_CURVE('',#1294,(#1299,#1310),.PCURVE_S1.);
#1294 = CIRCLE('',#1295,1.7);
#1295 = AXIS2_PLACEMENT_3D('',#1296,#1297,#1298);
#1296 = CARTESIAN_POINT('',(23.,32.,26.8));
#1297 = DIRECTION('',(0.,0.,-1.));
#1298 = DIRECTION('',(1.,0.,0.));
#1299 = PCURVE('',#220,#1300);
#1300 = DEFINITIONAL_REPRESENTATION('',(#1301),#1309);
#1301 = ( BOUNDED_CURVE() B_SPLINE_CURVE(2,(#1302,#1303,#1304,#1305,
#1306,#1307,#1308),.UNSPECIFIED.,.T.,.F.) B_SPLINE_CURVE_WITH_KNOTS((1,2
    ,2,2,2,1),(-2.094395102393,0.,2.094395102393,4.188790204786,
6.28318530718,8.377580409573),.UNSPECIFIED.) CURVE() 
GEOMETRIC_REPRESENTATION_ITEM() RATIONAL_B_SPLINE_CURVE((1.,0.5,1.,0.5,
1.,0.5,1.)) REPRESENTATION_ITEM('') );
#1302 = CARTESIAN_POINT('',(74.7,82.));
#1303 = CARTESIAN_POINT('',(74.7,79.055513627133));
#1304 = CARTESIAN_POINT('',(72.15,80.527756813566));
#1305 = CARTESIAN_POINT('',(69.6,82.));
#1306 = CARTESIAN_POINT('',(72.15,83.472243186434));
#1307 = CARTESIAN_POINT('',(74.7,84.944486372867));
#1308 = CARTESIAN_POINT('',(74.7,82.));
#1309 = ( GEOMETRIC_REPRESENTATION_CONTEXT(2) 
PARAMETRIC_REPRESENTATION_CONTEXT() REPRESENTATION_CONTEXT('2D SPACE',''
  ) );
#1310 = PCURVE('',#1311,#1316);
#1311 = CYLINDRICAL_SURFACE('',#1312,1.7);
#1312 = AXIS2_PLACEMENT_3D('',#1313,#1314,#1315);
#1313 = CARTESIAN_POINT('',(23.,32.,26.));
#1314 = DIRECTION('',(-0.,-0.,-1.));
#1315 = DIRECTION('',(1.,0.,0.));
#1316 = DEFINITIONAL_REPRESENTATION('',(#1317),#1321);
#1317 = LINE('',#1318,#1319);
#1318 = CARTESIAN_POINT('',(-6.28318530718,-0.8));
#1319 = VECTOR('',#1320,1.);
#1320 = DIRECTION('',(1.,-0.));
#1321 = ( GEOMETRIC_REPRESENTATION_CONTEXT(2) 
PARAMETRIC_REPRESENTATION_CONTEXT() REPRESENTATION_CONTEXT('2D SPACE',''
  ) );
#1322 = ADVANCED_FACE('',(#1323),#248,.T.);
#1323 = FACE_BOUND('',#1324,.T.);
#1324 = EDGE_LOOP('',(#1325,#1326,#1327,#1348));
#1325 = ORIENTED_EDGE('',*,*,#1266,.F.);
#1326 = ORIENTED_EDGE('',*,*,#232,.T.);
#1327 = ORIENTED_EDGE('',*,*,#1328,.T.);
#1328 = EDGE_CURVE('',#233,#1049,#1329,.T.);
#1329 = SURFACE_CURVE('',#1330,(#1334,#1341),.PCURVE_S1.);
#1330 = LINE('',#1331,#1332);
#1331 = CARTESIAN_POINT('',(18.5,38.5,31.8));
#1332 = VECTOR('',#1333,1.);
#1333 = DIRECTION('',(1.,0.,0.));
#1334 = PCURVE('',#248,#1335);
#1335 = DEFINITIONAL_REPRESENTATION('',(#1336),#1340);
#1336 = LINE('',#1337,#1338);
#1337 = CARTESIAN_POINT('',(5.,0.));
#1338 = VECTOR('',#1339,1.);
#1339 = DIRECTION('',(0.,1.));
#1340 = ( GEOMETRIC_REPRESENTATION_CONTEXT(2) 
PARAMETRIC_REPRESENTATION_CONTEXT() REPRESENTATION_CONTEXT('2D SPACE',''
  ) );
#1341 = PCURVE('',#276,#1342);
#1342 = DEFINITIONAL_REPRESENTATION('',(#1343),#1347);
#1343 = LINE('',#1344,#1345);
#1344 = CARTESIAN_POINT('',(0.,23.5));
#1345 = VECTOR('',#1346,1.);
#1346 = DIRECTION('',(1.,0.));
#1347 = ( GEOMETRIC_REPRESENTATION_CONTEXT(2) 
PARAMETRIC_REPRESENTATION_CONTEXT() REPRESENTATION_CONTEXT('2D SPACE',''
  ) );
#1348 = ORIENTED_EDGE('',*,*,#1048,.F.);
#1349 = ADVANCED_FACE('',(#1350,#1376),#276,.T.);
#1350 = FACE_BOUND('',#1351,.T.);
#1351 = EDGE_LOOP('',(#1352,#1353,#1374,#1375));
#1352 = ORIENTED_EDGE('',*,*,#260,.F.);
#1353 = ORIENTED_EDGE('',*,*,#1354,.T.);
#1354 = EDGE_CURVE('',#261,#1072,#1355,.T.);
#1355 = SURFACE_CURVE('',#1356,(#1360,#1367),.PCURVE_S1.);
#1356 = LINE('',#1357,#1358);
#1357 = CARTESIAN_POINT('',(18.5,26.,31.8));
#1358 = VECTOR('',#1359,1.);
#1359 = DIRECTION('',(1.,0.,0.));
#1360 = PCURVE('',#276,#1361);
#1361 = DEFINITIONAL_REPRESENTATION('',(#1362),#1366);
#1362 = LINE('',#1363,#1364);
#1363 = CARTESIAN_POINT('',(0.,11.));
#1364 = VECTOR('',#1365,1.);
#1365 = DIRECTION('',(1.,0.));
#1366 = ( GEOMETRIC_REPRESENTATION_CONTEXT(2) 
PARAMETRIC_REPRESENTATION_CONTEXT() REPRESENTATION_CONTEXT('2D SPACE',''
  ) );
#1367 = PCURVE('',#304,#1368);
#1368 = DEFINITIONAL_REPRESENTATION('',(#1369),#1373);
#1369 = LINE('',#1370,#1371);
#1370 = CARTESIAN_POINT('',(0.,0.));
#1371 = VECTOR('',#1372,1.);
#1372 = DIRECTION('',(0.,1.));
#1373 = ( GEOMETRIC_REPRESENTATION_CONTEXT(2) 
PARAMETRIC_REPRESENTATION_CONTEXT() REPRESENTATION_CONTEXT('2D SPACE',''
  ) );
#1374 = ORIENTED_EDGE('',*,*,#1071,.T.);
#1375 = ORIENTED_EDGE('',*,*,#1328,.F.);
#1376 = FACE_BOUND('',#1377,.T.);
#1377 = EDGE_LOOP('',(#1378));
#1378 = ORIENTED_EDGE('',*,*,#1379,.T.);
#1379 = EDGE_CURVE('',#1380,#1380,#1382,.T.);
#1380 = VERTEX_POINT('',#1381);
#1381 = CARTESIAN_POINT('',(24.7,32.,31.8));
#1382 = SURFACE_CURVE('',#1383,(#1388,#1399),.PCURVE_S1.);
#1383 = CIRCLE('',#1384,1.7);
#1384 = AXIS2_PLACEMENT_3D('',#1385,#1386,#1387);
#1385 = CARTESIAN_POINT('',(23.,32.,31.8));
#1386 = DIRECTION('',(0.,0.,-1.));
#1387 = DIRECTION('',(1.,0.,0.));
#1388 = PCURVE('',#276,#1389);
#1389 = DEFINITIONAL_REPRESENTATION('',(#1390),#1398);
#1390 = ( BOUNDED_CURVE() B_SPLINE_CURVE(2,(#1391,#1392,#1393,#1394,
#1395,#1396,#1397),.UNSPECIFIED.,.T.,.F.) B_SPLINE_CURVE_WITH_KNOTS((1,2
    ,2,2,2,1),(-2.094395102393,0.,2.094395102393,4.188790204786,
6.28318530718,8.377580409573),.UNSPECIFIED.) CURVE() 
GEOMETRIC_REPRESENTATION_ITEM() RATIONAL_B_SPLINE_CURVE((1.,0.5,1.,0.5,
1.,0.5,1.)) REPRESENTATION_ITEM('') );
#1391 = CARTESIAN_POINT('',(6.2,17.));
#1392 = CARTESIAN_POINT('',(6.2,14.055513627133));
#1393 = CARTESIAN_POINT('',(3.65,15.527756813566));
#1394 = CARTESIAN_POINT('',(1.1,17.));
#1395 = CARTESIAN_POINT('',(3.65,18.472243186434));
#1396 = CARTESIAN_POINT('',(6.2,19.944486372867));
#1397 = CARTESIAN_POINT('',(6.2,17.));
#1398 = ( GEOMETRIC_REPRESENTATION_CONTEXT(2) 
PARAMETRIC_REPRESENTATION_CONTEXT() REPRESENTATION_CONTEXT('2D SPACE',''
  ) );
#1399 = PCURVE('',#1311,#1400);
#1400 = DEFINITIONAL_REPRESENTATION('',(#1401),#1405);
#1401 = LINE('',#1402,#1403);
#1402 = CARTESIAN_POINT('',(-6.28318530718,-5.8));
#1403 = VECTOR('',#1404,1.);
#1404 = DIRECTION('',(1.,-0.));
#1405 = ( GEOMETRIC_REPRESENTATION_CONTEXT(2) 
PARAMETRIC_REPRESENTATION_CONTEXT() REPRESENTATION_CONTEXT('2D SPACE',''
  ) );
#1406 = ADVANCED_FACE('',(#1407),#304,.T.);
#1407 = FACE_BOUND('',#1408,.T.);
#1408 = EDGE_LOOP('',(#1409,#1410,#1411,#1432));
#1409 = ORIENTED_EDGE('',*,*,#1354,.F.);
#1410 = ORIENTED_EDGE('',*,*,#288,.T.);
#1411 = ORIENTED_EDGE('',*,*,#1412,.T.);
#1412 = EDGE_CURVE('',#289,#1095,#1413,.T.);
#1413 = SURFACE_CURVE('',#1414,(#1418,#1425),.PCURVE_S1.);
#1414 = LINE('',#1415,#1416);
#1415 = CARTESIAN_POINT('',(18.5,26.,33.8));
#1416 = VECTOR('',#1417,1.);
#1417 = DIRECTION('',(1.,0.,0.));
#1418 = PCURVE('',#304,#1419);
#1419 = DEFINITIONAL_REPRESENTATION('',(#1420),#1424);
#1420 = LINE('',#1421,#1422);
#1421 = CARTESIAN_POINT('',(2.,0.));
#1422 = VECTOR('',#1423,1.);
#1423 = DIRECTION('',(0.,1.));
#1424 = ( GEOMETRIC_REPRESENTATION_CONTEXT(2) 
PARAMETRIC_REPRESENTATION_CONTEXT() REPRESENTATION_CONTEXT('2D SPACE',''
  ) );
#1425 = PCURVE('',#332,#1426);
#1426 = DEFINITIONAL_REPRESENTATION('',(#1427),#1431);
#1427 = LINE('',#1428,#1429);
#1428 = CARTESIAN_POINT('',(0.,11.));
#1429 = VECTOR('',#1430,1.);
#1430 = DIRECTION('',(1.,0.));
#1431 = ( GEOMETRIC_REPRESENTATION_CONTEXT(2) 
PARAMETRIC_REPRESENTATION_CONTEXT() REPRESENTATION_CONTEXT('2D SPACE',''
  ) );
#1432 = ORIENTED_EDGE('',*,*,#1094,.F.);
#1433 = ADVANCED_FACE('',(#1434),#332,.T.);
#1434 = FACE_BOUND('',#1435,.T.);
#1435 = EDGE_LOOP('',(#1436,#1437,#1438,#1439));
#1436 = ORIENTED_EDGE('',*,*,#316,.F.);
#1437 = ORIENTED_EDGE('',*,*,#1214,.T.);
#1438 = ORIENTED_EDGE('',*,*,#1117,.T.);
#1439 = ORIENTED_EDGE('',*,*,#1412,.F.);
#1440 = ADVANCED_FACE('',(#1441),#406,.T.);
#1441 = FACE_BOUND('',#1442,.T.);
#1442 = EDGE_LOOP('',(#1443,#1444,#1465,#1466));
#1443 = ORIENTED_EDGE('',*,*,#390,.F.);
#1444 = ORIENTED_EDGE('',*,*,#1445,.T.);
#1445 = EDGE_CURVE('',#391,#1165,#1446,.T.);
#1446 = SURFACE_CURVE('',#1447,(#1451,#1458),.PCURVE_S1.);
#1447 = LINE('',#1448,#1449);
#1448 = CARTESIAN_POINT('',(18.5,-26.,33.8));
#1449 = VECTOR('',#1450,1.);
#1450 = DIRECTION('',(1.,0.,0.));
#1451 = PCURVE('',#406,#1452);
#1452 = DEFINITIONAL_REPRESENTATION('',(#1453),#1457);
#1453 = LINE('',#1454,#1455);
#1454 = CARTESIAN_POINT('',(0.,0.));
#1455 = VECTOR('',#1456,1.);
#1456 = DIRECTION('',(1.,0.));
#1457 = ( GEOMETRIC_REPRESENTATION_CONTEXT(2) 
PARAMETRIC_REPRESENTATION_CONTEXT() REPRESENTATION_CONTEXT('2D SPACE',''
  ) );
#1458 = PCURVE('',#434,#1459);
#1459 = DEFINITIONAL_REPRESENTATION('',(#1460),#1464);
#1460 = LINE('',#1461,#1462);
#1461 = CARTESIAN_POINT('',(2.,0.));
#1462 = VECTOR('',#1463,1.);
#1463 = DIRECTION('',(0.,1.));
#1464 = ( GEOMETRIC_REPRESENTATION_CONTEXT(2) 
PARAMETRIC_REPRESENTATION_CONTEXT() REPRESENTATION_CONTEXT('2D SPACE',''
  ) );
#1465 = ORIENTED_EDGE('',*,*,#1164,.T.);
#1466 = ORIENTED_EDGE('',*,*,#747,.F.);
#1467 = ADVANCED_FACE('',(#1468),#434,.F.);
#1468 = FACE_BOUND('',#1469,.F.);
#1469 = EDGE_LOOP('',(#1470,#1491,#1492,#1493));
#1470 = ORIENTED_EDGE('',*,*,#1471,.F.);
#1471 = EDGE_CURVE('',#419,#774,#1472,.T.);
#1472 = SURFACE_CURVE('',#1473,(#1477,#1484),.PCURVE_S1.);
#1473 = LINE('',#1474,#1475);
#1474 = CARTESIAN_POINT('',(18.5,-26.,31.8));
#1475 = VECTOR('',#1476,1.);
#1476 = DIRECTION('',(1.,0.,0.));
#1477 = PCURVE('',#434,#1478);
#1478 = DEFINITIONAL_REPRESENTATION('',(#1479),#1483);
#1479 = LINE('',#1480,#1481);
#1480 = CARTESIAN_POINT('',(0.,0.));
#1481 = VECTOR('',#1482,1.);
#1482 = DIRECTION('',(0.,1.));
#1483 = ( GEOMETRIC_REPRESENTATION_CONTEXT(2) 
PARAMETRIC_REPRESENTATION_CONTEXT() REPRESENTATION_CONTEXT('2D SPACE',''
  ) );
#1484 = PCURVE('',#462,#1485);
#1485 = DEFINITIONAL_REPRESENTATION('',(#1486),#1490);
#1486 = LINE('',#1487,#1488);
#1487 = CARTESIAN_POINT('',(0.,12.5));
#1488 = VECTOR('',#1489,1.);
#1489 = DIRECTION('',(1.,0.));
#1490 = ( GEOMETRIC_REPRESENTATION_CONTEXT(2) 
PARAMETRIC_REPRESENTATION_CONTEXT() REPRESENTATION_CONTEXT('2D SPACE',''
  ) );
#1491 = ORIENTED_EDGE('',*,*,#418,.T.);
#1492 = ORIENTED_EDGE('',*,*,#1445,.T.);
#1493 = ORIENTED_EDGE('',*,*,#1187,.F.);
#1494 = ADVANCED_FACE('',(#1495,#1521),#462,.T.);
#1495 = FACE_BOUND('',#1496,.T.);
#1496 = EDGE_LOOP('',(#1497,#1498,#1519,#1520));
#1497 = ORIENTED_EDGE('',*,*,#446,.F.);
#1498 = ORIENTED_EDGE('',*,*,#1499,.T.);
#1499 = EDGE_CURVE('',#447,#772,#1500,.T.);
#1500 = SURFACE_CURVE('',#1501,(#1505,#1512),.PCURVE_S1.);
#1501 = LINE('',#1502,#1503);
#1502 = CARTESIAN_POINT('',(18.5,-38.5,31.8));
#1503 = VECTOR('',#1504,1.);
#1504 = DIRECTION('',(1.,0.,0.));
#1505 = PCURVE('',#462,#1506);
#1506 = DEFINITIONAL_REPRESENTATION('',(#1507),#1511);
#1507 = LINE('',#1508,#1509);
#1508 = CARTESIAN_POINT('',(0.,0.));
#1509 = VECTOR('',#1510,1.);
#1510 = DIRECTION('',(1.,0.));
#1511 = ( GEOMETRIC_REPRESENTATION_CONTEXT(2) 
PARAMETRIC_REPRESENTATION_CONTEXT() REPRESENTATION_CONTEXT('2D SPACE',''
  ) );
#1512 = PCURVE('',#490,#1513);
#1513 = DEFINITIONAL_REPRESENTATION('',(#1514),#1518);
#1514 = LINE('',#1515,#1516);
#1515 = CARTESIAN_POINT('',(5.,0.));
#1516 = VECTOR('',#1517,1.);
#1517 = DIRECTION('',(0.,1.));
#1518 = ( GEOMETRIC_REPRESENTATION_CONTEXT(2) 
PARAMETRIC_REPRESENTATION_CONTEXT() REPRESENTATION_CONTEXT('2D SPACE',''
  ) );
#1519 = ORIENTED_EDGE('',*,*,#771,.T.);
#1520 = ORIENTED_EDGE('',*,*,#1471,.F.);
#1521 = FACE_BOUND('',#1522,.T.);
#1522 = EDGE_LOOP('',(#1523));
#1523 = ORIENTED_EDGE('',*,*,#1524,.T.);
#1524 = EDGE_CURVE('',#1525,#1525,#1527,.T.);
#1525 = VERTEX_POINT('',#1526);
#1526 = CARTESIAN_POINT('',(24.7,-32.,31.8));
#1527 = SURFACE_CURVE('',#1528,(#1533,#1544),.PCURVE_S1.);
#1528 = CIRCLE('',#1529,1.7);
#1529 = AXIS2_PLACEMENT_3D('',#1530,#1531,#1532);
#1530 = CARTESIAN_POINT('',(23.,-32.,31.8));
#1531 = DIRECTION('',(0.,0.,-1.));
#1532 = DIRECTION('',(1.,0.,0.));
#1533 = PCURVE('',#462,#1534);
#1534 = DEFINITIONAL_REPRESENTATION('',(#1535),#1543);
#1535 = ( BOUNDED_CURVE() B_SPLINE_CURVE(2,(#1536,#1537,#1538,#1539,
#1540,#1541,#1542),.UNSPECIFIED.,.T.,.F.) B_SPLINE_CURVE_WITH_KNOTS((1,2
    ,2,2,2,1),(-2.094395102393,0.,2.094395102393,4.188790204786,
6.28318530718,8.377580409573),.UNSPECIFIED.) CURVE() 
GEOMETRIC_REPRESENTATION_ITEM() RATIONAL_B_SPLINE_CURVE((1.,0.5,1.,0.5,
1.,0.5,1.)) REPRESENTATION_ITEM('') );
#1536 = CARTESIAN_POINT('',(6.2,6.5));
#1537 = CARTESIAN_POINT('',(6.2,3.555513627133));
#1538 = CARTESIAN_POINT('',(3.65,5.027756813566));
#1539 = CARTESIAN_POINT('',(1.1,6.5));
#1540 = CARTESIAN_POINT('',(3.65,7.972243186434));
#1541 = CARTESIAN_POINT('',(6.2,9.444486372867));
#1542 = CARTESIAN_POINT('',(6.2,6.5));
#1543 = ( GEOMETRIC_REPRESENTATION_CONTEXT(2) 
PARAMETRIC_REPRESENTATION_CONTEXT() REPRESENTATION_CONTEXT('2D SPACE',''
  ) );
#1544 = PCURVE('',#1545,#1550);
#1545 = CYLINDRICAL_SURFACE('',#1546,1.7);
#1546 = AXIS2_PLACEMENT_3D('',#1547,#1548,#1549);
#1547 = CARTESIAN_POINT('',(23.,-32.,26.));
#1548 = DIRECTION('',(-0.,-0.,-1.));
#1549 = DIRECTION('',(1.,0.,0.));
#1550 = DEFINITIONAL_REPRESENTATION('',(#1551),#1555);
#1551 = LINE('',#1552,#1553);
#1552 = CARTESIAN_POINT('',(-6.28318530718,-5.8));
#1553 = VECTOR('',#1554,1.);
#1554 = DIRECTION('',(1.,-0.));
#1555 = ( GEOMETRIC_REPRESENTATION_CONTEXT(2) 
PARAMETRIC_REPRESENTATION_CONTEXT() REPRESENTATION_CONTEXT('2D SPACE',''
  ) );
#1556 = ADVANCED_FACE('',(#1557),#490,.F.);
#1557 = FACE_BOUND('',#1558,.F.);
#1558 = EDGE_LOOP('',(#1559,#1580,#1581,#1582));
#1559 = ORIENTED_EDGE('',*,*,#1560,.F.);
#1560 = EDGE_CURVE('',#475,#797,#1561,.T.);
#1561 = SURFACE_CURVE('',#1562,(#1566,#1573),.PCURVE_S1.);
#1562 = LINE('',#1563,#1564);
#1563 = CARTESIAN_POINT('',(18.5,-38.5,26.8));
#1564 = VECTOR('',#1565,1.);
#1565 = DIRECTION('',(1.,0.,0.));
#1566 = PCURVE('',#490,#1567);
#1567 = DEFINITIONAL_REPRESENTATION('',(#1568),#1572);
#1568 = LINE('',#1569,#1570);
#1569 = CARTESIAN_POINT('',(0.,0.));
#1570 = VECTOR('',#1571,1.);
#1571 = DIRECTION('',(0.,1.));
#1572 = ( GEOMETRIC_REPRESENTATION_CONTEXT(2) 
PARAMETRIC_REPRESENTATION_CONTEXT() REPRESENTATION_CONTEXT('2D SPACE',''
  ) );
#1573 = PCURVE('',#518,#1574);
#1574 = DEFINITIONAL_REPRESENTATION('',(#1575),#1579);
#1575 = LINE('',#1576,#1577);
#1576 = CARTESIAN_POINT('',(68.5,11.5));
#1577 = VECTOR('',#1578,1.);
#1578 = DIRECTION('',(1.,0.));
#1579 = ( GEOMETRIC_REPRESENTATION_CONTEXT(2) 
PARAMETRIC_REPRESENTATION_CONTEXT() REPRESENTATION_CONTEXT('2D SPACE',''
  ) );
#1580 = ORIENTED_EDGE('',*,*,#474,.T.);
#1581 = ORIENTED_EDGE('',*,*,#1499,.T.);
#1582 = ORIENTED_EDGE('',*,*,#796,.F.);
#1583 = ADVANCED_FACE('',(#1584,#1616),#518,.F.);
#1584 = FACE_BOUND('',#1585,.F.);
#1585 = EDGE_LOOP('',(#1586,#1587,#1588,#1615));
#1586 = ORIENTED_EDGE('',*,*,#1560,.T.);
#1587 = ORIENTED_EDGE('',*,*,#819,.T.);
#1588 = ORIENTED_EDGE('',*,*,#1589,.T.);
#1589 = EDGE_CURVE('',#820,#503,#1590,.T.);
#1590 = SURFACE_CURVE('',#1591,(#1597,#1606),.PCURVE_S1.);
#1591 = B_SPLINE_CURVE_WITH_KNOTS('',4,(#1592,#1593,#1594,#1595,#1596),
  .UNSPECIFIED.,.F.,.F.,(5,5),(0.,1.),.PIECEWISE_BEZIER_KNOTS.);
#1592 = CARTESIAN_POINT('',(27.5,-12.65931873503,26.8));
#1593 = CARTESIAN_POINT('',(25.25,-12.65931873503,26.8));
#1594 = CARTESIAN_POINT('',(23.,-12.65931873503,26.8));
#1595 = CARTESIAN_POINT('',(20.75,-12.65931873503,26.8));
#1596 = CARTESIAN_POINT('',(18.5,-12.65931873503,26.8));
#1597 = PCURVE('',#518,#1598);
#1598 = DEFINITIONAL_REPRESENTATION('',(#1599),#1605);
#1599 = B_SPLINE_CURVE_WITH_KNOTS('',4,(#1600,#1601,#1602,#1603,#1604),
  .UNSPECIFIED.,.F.,.F.,(5,5),(0.,1.),.PIECEWISE_BEZIER_KNOTS.);
#1600 = CARTESIAN_POINT('',(77.5,37.340681264968));
#1601 = CARTESIAN_POINT('',(75.25,37.340681264968));
#1602 = CARTESIAN_POINT('',(73.,37.340681264968));
#1603 = CARTESIAN_POINT('',(70.75,37.340681264968));
#1604 = CARTESIAN_POINT('',(68.5,37.340681264968));
#1605 = ( GEOMETRIC_REPRESENTATION_CONTEXT(2) 
PARAMETRIC_REPRESENTATION_CONTEXT() REPRESENTATION_CONTEXT('2D SPACE',''
  ) );
#1606 = PCURVE('',#638,#1607);
#1607 = DEFINITIONAL_REPRESENTATION('',(#1608),#1614);
#1608 = B_SPLINE_CURVE_WITH_KNOTS('',4,(#1609,#1610,#1611,#1612,#1613),
  .UNSPECIFIED.,.F.,.F.,(5,5),(0.,1.),.PIECEWISE_BEZIER_KNOTS.);
#1609 = CARTESIAN_POINT('',(7.794722331953,-10.));
#1610 = CARTESIAN_POINT('',(7.794722331953,-7.75));
#1611 = CARTESIAN_POINT('',(7.794722331953,-5.5));
#1612 = CARTESIAN_POINT('',(7.794722331953,-3.25));
#1613 = CARTESIAN_POINT('',(7.794722331953,-1.));
#1614 = ( GEOMETRIC_REPRESENTATION_CONTEXT(2) 
PARAMETRIC_REPRESENTATION_CONTEXT() REPRESENTATION_CONTEXT('2D SPACE',''
  ) );
#1615 = ORIENTED_EDGE('',*,*,#502,.T.);
#1616 = FACE_BOUND('',#1617,.F.);
#1617 = EDGE_LOOP('',(#1618));
#1618 = ORIENTED_EDGE('',*,*,#1619,.T.);
#1619 = EDGE_CURVE('',#1620,#1620,#1622,.T.);
#1620 = VERTEX_POINT('',#1621);
#1621 = CARTESIAN_POINT('',(24.7,-32.,26.8));
#1622 = SURFACE_CURVE('',#1623,(#1628,#1639),.PCURVE_S1.);
#1623 = CIRCLE('',#1624,1.7);
#1624 = AXIS2_PLACEMENT_3D('',#1625,#1626,#1627);
#1625 = CARTESIAN_POINT('',(23.,-32.,26.8));
#1626 = DIRECTION('',(0.,0.,-1.));
#1627 = DIRECTION('',(1.,0.,0.));
#1628 = PCURVE('',#518,#1629);
#1629 = DEFINITIONAL_REPRESENTATION('',(#1630),#1638);
#1630 = ( BOUNDED_CURVE() B_SPLINE_CURVE(2,(#1631,#1632,#1633,#1634,
#1635,#1636,#1637),.UNSPECIFIED.,.T.,.F.) B_SPLINE_CURVE_WITH_KNOTS((1,2
    ,2,2,2,1),(-2.094395102393,0.,2.094395102393,4.188790204786,
6.28318530718,8.377580409573),.UNSPECIFIED.) CURVE() 
GEOMETRIC_REPRESENTATION_ITEM() RATIONAL_B_SPLINE_CURVE((1.,0.5,1.,0.5,
1.,0.5,1.)) REPRESENTATION_ITEM('') );
#1631 = CARTESIAN_POINT('',(74.7,18.));
#1632 = CARTESIAN_POINT('',(74.7,15.055513627133));
#1633 = CARTESIAN_POINT('',(72.15,16.527756813566));
#1634 = CARTESIAN_POINT('',(69.6,18.));
#1635 = CARTESIAN_POINT('',(72.15,19.472243186434));
#1636 = CARTESIAN_POINT('',(74.7,20.944486372867));
#1637 = CARTESIAN_POINT('',(74.7,18.));
#1638 = ( GEOMETRIC_REPRESENTATION_CONTEXT(2) 
PARAMETRIC_REPRESENTATION_CONTEXT() REPRESENTATION_CONTEXT('2D SPACE',''
  ) );
#1639 = PCURVE('',#1545,#1640);
#1640 = DEFINITIONAL_REPRESENTATION('',(#1641),#1645);
#1641 = LINE('',#1642,#1643);
#1642 = CARTESIAN_POINT('',(-6.28318530718,-0.8));
#1643 = VECTOR('',#1644,1.);
#1644 = DIRECTION('',(1.,-0.));
#1645 = ( GEOMETRIC_REPRESENTATION_CONTEXT(2) 
PARAMETRIC_REPRESENTATION_CONTEXT() REPRESENTATION_CONTEXT('2D SPACE',''
  ) );
#1646 = ADVANCED_FACE('',(#1647),#638,.T.);
#1647 = FACE_BOUND('',#1648,.T.);
#1648 = EDGE_LOOP('',(#1649,#1650,#1651,#1652));
#1649 = ORIENTED_EDGE('',*,*,#842,.F.);
#1650 = ORIENTED_EDGE('',*,*,#1589,.T.);
#1651 = ORIENTED_EDGE('',*,*,#530,.F.);
#1652 = ORIENTED_EDGE('',*,*,#1238,.F.);
#1653 = ADVANCED_FACE('',(#1654),#1311,.F.);
#1654 = FACE_BOUND('',#1655,.T.);
#1655 = EDGE_LOOP('',(#1656,#1657,#1678,#1679));
#1656 = ORIENTED_EDGE('',*,*,#1290,.T.);
#1657 = ORIENTED_EDGE('',*,*,#1658,.T.);
#1658 = EDGE_CURVE('',#1291,#1380,#1659,.T.);
#1659 = SEAM_CURVE('',#1660,(#1664,#1671),.PCURVE_S1.);
#1660 = LINE('',#1661,#1662);
#1661 = CARTESIAN_POINT('',(24.7,32.,26.));
#1662 = VECTOR('',#1663,1.);
#1663 = DIRECTION('',(0.,0.,1.));
#1664 = PCURVE('',#1311,#1665);
#1665 = DEFINITIONAL_REPRESENTATION('',(#1666),#1670);
#1666 = LINE('',#1667,#1668);
#1667 = CARTESIAN_POINT('',(-6.28318530718,0.));
#1668 = VECTOR('',#1669,1.);
#1669 = DIRECTION('',(-0.,-1.));
#1670 = ( GEOMETRIC_REPRESENTATION_CONTEXT(2) 
PARAMETRIC_REPRESENTATION_CONTEXT() REPRESENTATION_CONTEXT('2D SPACE',''
  ) );
#1671 = PCURVE('',#1311,#1672);
#1672 = DEFINITIONAL_REPRESENTATION('',(#1673),#1677);
#1673 = LINE('',#1674,#1675);
#1674 = CARTESIAN_POINT('',(-0.,0.));
#1675 = VECTOR('',#1676,1.);
#1676 = DIRECTION('',(-0.,-1.));
#1677 = ( GEOMETRIC_REPRESENTATION_CONTEXT(2) 
PARAMETRIC_REPRESENTATION_CONTEXT() REPRESENTATION_CONTEXT('2D SPACE',''
  ) );
#1678 = ORIENTED_EDGE('',*,*,#1379,.F.);
#1679 = ORIENTED_EDGE('',*,*,#1658,.F.);
#1680 = ADVANCED_FACE('',(#1681),#1545,.F.);
#1681 = FACE_BOUND('',#1682,.T.);
#1682 = EDGE_LOOP('',(#1683,#1684,#1705,#1706));
#1683 = ORIENTED_EDGE('',*,*,#1619,.T.);
#1684 = ORIENTED_EDGE('',*,*,#1685,.T.);
#1685 = EDGE_CURVE('',#1620,#1525,#1686,.T.);
#1686 = SEAM_CURVE('',#1687,(#1691,#1698),.PCURVE_S1.);
#1687 = LINE('',#1688,#1689);
#1688 = CARTESIAN_POINT('',(24.7,-32.,26.));
#1689 = VECTOR('',#1690,1.);
#1690 = DIRECTION('',(0.,0.,1.));
#1691 = PCURVE('',#1545,#1692);
#1692 = DEFINITIONAL_REPRESENTATION('',(#1693),#1697);
#1693 = LINE('',#1694,#1695);
#1694 = CARTESIAN_POINT('',(-6.28318530718,0.));
#1695 = VECTOR('',#1696,1.);
#1696 = DIRECTION('',(-0.,-1.));
#1697 = ( GEOMETRIC_REPRESENTATION_CONTEXT(2) 
PARAMETRIC_REPRESENTATION_CONTEXT() REPRESENTATION_CONTEXT('2D SPACE',''
  ) );
#1698 = PCURVE('',#1545,#1699);
#1699 = DEFINITIONAL_REPRESENTATION('',(#1700),#1704);
#1700 = LINE('',#1701,#1702);
#1701 = CARTESIAN_POINT('',(-0.,0.));
#1702 = VECTOR('',#1703,1.);
#1703 = DIRECTION('',(-0.,-1.));
#1704 = ( GEOMETRIC_REPRESENTATION_CONTEXT(2) 
PARAMETRIC_REPRESENTATION_CONTEXT() REPRESENTATION_CONTEXT('2D SPACE',''
  ) );
#1705 = ORIENTED_EDGE('',*,*,#1524,.F.);
#1706 = ORIENTED_EDGE('',*,*,#1685,.F.);
#1707 = ( GEOMETRIC_REPRESENTATION_CONTEXT(3) 
GLOBAL_UNCERTAINTY_ASSIGNED_CONTEXT((#1711)) 
GLOBAL_UNIT_ASSIGNED_CONTEXT((#1708,#1709,#1710)) REPRESENTATION_CONTEXT
('Context #1','3D Context with UNIT and UNCERTAINTY') );
#1708 = ( LENGTH_UNIT() NAMED_UNIT(*) SI_UNIT(.MILLI.,.METRE.) );
#1709 = ( NAMED_UNIT(*) PLANE_ANGLE_UNIT() SI_UNIT($,.RADIAN.) );
#1710 = ( NAMED_UNIT(*) SI_UNIT($,.STERADIAN.) SOLID_ANGLE_UNIT() );
#1711 = UNCERTAINTY_MEASURE_WITH_UNIT(LENGTH_MEASURE(1.E-06),#1708,
  'distance_accuracy_value','confusion accuracy');
#1712 = PRODUCT_RELATED_PRODUCT_CATEGORY('part',$,(#7));
ENDSEC;
END-ISO-10303-21;
